<?xml version="1.0" encoding="utf-8" standalone="no"?>
<!DOCTYPE svg PUBLIC "-//W3C//DTD SVG 1.1//EN"
  "http://www.w3.org/Graphics/SVG/1.1/DTD/svg11.dtd">
<svg xmlns:xlink="http://www.w3.org/1999/xlink" width="460.8pt" height="345.6pt" viewBox="0 0 460.8 345.6" xmlns="http://www.w3.org/2000/svg" version="1.1">
 <metadata>
  <rdf:RDF xmlns:dc="http://purl.org/dc/elements/1.1/" xmlns:cc="http://creativecommons.org/ns#" xmlns:rdf="http://www.w3.org/1999/02/22-rdf-syntax-ns#">
   <cc:Work>
    <dc:type rdf:resource="http://purl.org/dc/dcmitype/StillImage"/>
    <dc:date>2023-01-17T23:38:59.263515</dc:date>
    <dc:format>image/svg+xml</dc:format>
    <dc:creator>
     <cc:Agent>
      <dc:title>Matplotlib v3.6.3, https://matplotlib.org/</dc:title>
     </cc:Agent>
    </dc:creator>
   </cc:Work>
  </rdf:RDF>
 </metadata>
 <defs>
  <style type="text/css">*{stroke-linejoin: round; stroke-linecap: butt}</style>
 </defs>
 <g id="figure_1">
  <g id="patch_1">
   <path d="M 0 345.6 
L 460.8 345.6 
L 460.8 0 
L 0 0 
z
" style="fill: #ffffff"/>
  </g>
  <g id="axes_1">
   <g id="patch_2">
    <path d="M 57.6 307.584 
L 219.927273 307.584 
L 219.927273 41.472 
L 57.6 41.472 
z
" style="fill: #ffffff"/>
   </g>
   <g id="Quiver_1">
    <path d="M 65.063691 295.053561 
L 75.535463 297.106715 
L 75.271381 296.152658 
L 79.360237 298.307761 
L 74.760309 298.759293 
L 75.365106 297.975593 
L 64.893334 295.922439 
L 65.063691 295.053561 
" clip-path="url(#p0127822c5e)"/>
    <path d="M 79.840919 295.058015 
L 87.476429 296.929341 
L 87.257207 295.963988 
L 91.240917 298.307761 
L 86.624917 298.543901 
L 87.265666 297.789312 
L 79.630155 295.917985 
L 79.840919 295.058015 
" clip-path="url(#p0127822c5e)"/>
    <path d="M 94.630073 295.067187 
L 99.471793 296.649345 
L 99.326004 295.670208 
L 103.121597 298.307761 
L 98.500935 298.195085 
L 99.19677 297.490971 
L 94.35505 295.908813 
L 94.630073 295.067187 
" clip-path="url(#p0127822c5e)"/>
    <path d="M 109.444439 295.090476 
L 111.619411 296.156569 
L 111.611591 295.166668 
L 115.002277 298.307761 
L 110.442479 297.551814 
L 111.229707 296.951617 
L 109.054735 295.885524 
L 109.444439 295.090476 
" clip-path="url(#p0127822c5e)"/>
    <path d="M 124.288588 295.200366 
L 124.576222 295.482342 
L 124.85254 294.625097 
L 126.882957 298.307761 
L 123.160683 296.350903 
L 124.01227 296.057611 
L 123.724635 295.775634 
L 124.288588 295.200366 
" clip-path="url(#p0127822c5e)"/>
    <path d="M 139.045613 295.488 
L 139.045613 295.769976 
L 139.609565 295.488 
L 138.763636 298.307761 
L 137.917708 295.488 
L 138.48166 295.769976 
L 138.48166 295.488 
L 139.045613 295.488 
" clip-path="url(#p0127822c5e)"/>
    <path d="M 153.802637 295.775634 
L 153.515003 296.057611 
L 154.36659 296.350903 
L 150.644316 298.307761 
L 152.674733 294.625097 
L 152.951051 295.482342 
L 153.238685 295.200366 
L 153.802637 295.775634 
" clip-path="url(#p0127822c5e)"/>
    <path d="M 168.472538 295.885524 
L 166.297566 296.951617 
L 167.084794 297.551814 
L 162.524996 298.307761 
L 165.915682 295.166668 
L 165.907862 296.156569 
L 168.082834 295.090476 
L 168.472538 295.885524 
" clip-path="url(#p0127822c5e)"/>
    <path d="M 183.172222 295.908813 
L 178.330502 297.490971 
L 179.026338 298.195085 
L 174.405676 298.307761 
L 178.201269 295.670208 
L 178.055479 296.649345 
L 182.897199 295.067187 
L 183.172222 295.908813 
" clip-path="url(#p0127822c5e)"/>
    <path d="M 197.897117 295.917985 
L 190.261607 297.789312 
L 190.902356 298.543901 
L 186.286356 298.307761 
L 190.270065 295.963988 
L 190.050843 296.929341 
L 197.686354 295.058015 
L 197.897117 295.917985 
" clip-path="url(#p0127822c5e)"/>
    <path d="M 212.633939 295.922439 
L 202.162167 297.975593 
L 202.766963 298.759293 
L 198.167036 298.307761 
L 202.255892 296.152658 
L 201.99181 297.106715 
L 212.463582 295.053561 
L 212.633939 295.922439 
" clip-path="url(#p0127822c5e)"/>
    <path d="M 65.047114 270.858637 
L 75.492569 272.497032 
L 75.192409 271.553704 
L 79.360237 273.551809 
L 74.7808 274.177884 
L 75.355366 273.371759 
L 64.909911 271.733363 
L 65.047114 270.858637 
" clip-path="url(#p0127822c5e)"/>
    <path d="M 79.820716 270.861561 
L 87.416143 272.350763 
L 87.152061 271.396706 
L 91.240917 273.551809 
L 86.640989 274.003341 
L 87.245786 273.219641 
L 79.650359 271.730439 
L 79.820716 270.861561 
" clip-path="url(#p0127822c5e)"/>
    <path d="M 94.604533 270.867683 
L 99.378716 272.115754 
L 99.174341 271.147149 
L 103.121597 273.551809 
L 98.502516 273.71705 
L 99.154774 272.972388 
L 94.380591 271.724317 
L 94.604533 270.867683 
" clip-path="url(#p0127822c5e)"/>
    <path d="M 109.411206 270.883845 
L 111.454497 271.685083 
L 111.365579 270.699153 
L 115.002277 273.551809 
L 110.395865 273.172085 
L 111.131259 272.509394 
L 109.087968 271.708155 
L 109.411206 270.883845 
" clip-path="url(#p0127822c5e)"/>
    <path d="M 124.232192 271.008366 
L 124.519827 271.233946 
L 124.683354 270.433097 
L 126.882957 273.551809 
L 123.329869 272.158903 
L 124.068665 271.809215 
L 123.781031 271.583634 
L 124.232192 271.008366 
" clip-path="url(#p0127822c5e)"/>
    <path d="M 138.989217 271.296 
L 138.989217 271.521581 
L 139.440379 271.296 
L 138.763636 273.551809 
L 138.086894 271.296 
L 138.538055 271.521581 
L 138.538055 271.296 
L 138.989217 271.296 
" clip-path="url(#p0127822c5e)"/>
    <path d="M 153.746242 271.583634 
L 153.458608 271.809215 
L 154.197404 272.158903 
L 150.644316 273.551809 
L 152.843918 270.433097 
L 153.007446 271.233946 
L 153.29508 271.008366 
L 153.746242 271.583634 
" clip-path="url(#p0127822c5e)"/>
    <path d="M 168.439305 271.708155 
L 166.396014 272.509394 
L 167.131407 273.172085 
L 162.524996 273.551809 
L 166.161693 270.699153 
L 166.072776 271.685083 
L 168.116067 270.883845 
L 168.439305 271.708155 
" clip-path="url(#p0127822c5e)"/>
    <path d="M 183.146682 271.724317 
L 178.372498 272.972388 
L 179.024757 273.71705 
L 174.405676 273.551809 
L 178.352931 271.147149 
L 178.148557 272.115754 
L 182.92274 270.867683 
L 183.146682 271.724317 
" clip-path="url(#p0127822c5e)"/>
    <path d="M 197.876914 271.730439 
L 190.281487 273.219641 
L 190.886283 274.003341 
L 186.286356 273.551809 
L 190.375212 271.396706 
L 190.11113 272.350763 
L 197.706557 270.861561 
L 197.876914 271.730439 
" clip-path="url(#p0127822c5e)"/>
    <path d="M 212.617362 271.733363 
L 202.171907 273.371759 
L 202.746473 274.177884 
L 198.167036 273.551809 
L 202.334864 271.553704 
L 202.034704 272.497032 
L 212.480159 270.858637 
L 212.617362 271.733363 
" clip-path="url(#p0127822c5e)"/>
    <path d="M 65.030236 246.664321 
L 75.454851 247.890666 
L 75.118619 246.959585 
L 79.360237 248.795857 
L 74.808278 249.597658 
L 75.351404 248.770024 
L 64.926789 247.543679 
L 65.030236 246.664321 
" clip-path="url(#p0127822c5e)"/>
    <path d="M 79.799945 246.665999 
L 87.36332 247.778188 
L 87.054135 246.837779 
L 91.240917 248.795857 
L 86.667689 249.465782 
L 87.234505 248.654189 
L 79.67113 247.542001 
L 79.799945 246.665999 
" clip-path="url(#p0127822c5e)"/>
    <path d="M 94.577741 246.669561 
L 99.296823 247.59481 
L 99.032741 246.640754 
L 103.121597 248.795857 
L 98.521669 249.247389 
L 99.126466 248.463689 
L 94.407383 247.538439 
L 94.577741 246.669561 
" clip-path="url(#p0127822c5e)"/>
    <path d="M 109.374497 246.679276 
L 111.304675 247.246938 
L 111.129772 246.272581 
L 115.002277 248.795857 
L 110.380309 248.820922 
L 111.054853 248.096386 
L 109.124676 247.528724 
L 109.374497 246.679276 
" clip-path="url(#p0127822c5e)"/>
    <path d="M 124.175797 246.816366 
L 124.463432 246.985551 
L 124.514169 246.241097 
L 126.882957 248.795857 
L 123.499055 247.966903 
L 124.12506 247.56082 
L 123.837426 247.391634 
L 124.175797 246.816366 
" clip-path="url(#p0127822c5e)"/>
    <path d="M 138.932822 247.104 
L 138.932822 247.273186 
L 139.271193 247.104 
L 138.763636 248.795857 
L 138.256079 247.104 
L 138.594451 247.273186 
L 138.594451 247.104 
L 138.932822 247.104 
" clip-path="url(#p0127822c5e)"/>
    <path d="M 153.689847 247.391634 
L 153.402212 247.56082 
L 154.028218 247.966903 
L 150.644316 248.795857 
L 153.013104 246.241097 
L 153.063841 246.985551 
L 153.351475 246.816366 
L 153.689847 247.391634 
" clip-path="url(#p0127822c5e)"/>
    <path d="M 168.402596 247.528724 
L 166.472419 248.096386 
L 167.146964 248.820922 
L 162.524996 248.795857 
L 166.397501 246.272581 
L 166.222598 247.246938 
L 168.152775 246.679276 
L 168.402596 247.528724 
" clip-path="url(#p0127822c5e)"/>
    <path d="M 183.119889 247.538439 
L 178.400807 248.463689 
L 179.005604 249.247389 
L 174.405676 248.795857 
L 178.494532 246.640754 
L 178.23045 247.59481 
L 182.949532 246.669561 
L 183.119889 247.538439 
" clip-path="url(#p0127822c5e)"/>
    <path d="M 197.856143 247.542001 
L 190.292768 248.654189 
L 190.859584 249.465782 
L 186.286356 248.795857 
L 190.473138 246.837779 
L 190.163953 247.778188 
L 197.727328 246.665999 
L 197.856143 247.542001 
" clip-path="url(#p0127822c5e)"/>
    <path d="M 212.600484 247.543679 
L 202.175869 248.770024 
L 202.718995 249.597658 
L 198.167036 248.795857 
L 202.408653 246.959585 
L 202.072422 247.890666 
L 212.497037 246.664321 
L 212.600484 247.543679 
" clip-path="url(#p0127822c5e)"/>
    <path d="M 65.013126 222.470644 
L 75.422651 223.287024 
L 75.050524 222.3697 
L 79.360237 224.039905 
L 74.84284 225.017833 
L 75.353424 224.169735 
L 64.943899 223.353356 
L 65.013126 222.470644 
" clip-path="url(#p0127822c5e)"/>
    <path d="M 79.77873 222.471401 
L 87.318722 223.210568 
L 86.96451 222.286178 
L 91.240917 224.039905 
L 86.705351 224.929769 
L 87.232336 224.091765 
L 79.692344 223.352599 
L 79.77873 222.471401 
" clip-path="url(#p0127822c5e)"/>
    <path d="M 94.549941 222.473023 
L 99.228186 223.084519 
L 98.903967 222.149187 
L 103.121597 224.039905 
L 98.559694 224.783046 
L 99.113428 223.962472 
L 94.435183 223.350977 
L 94.549941 222.473023 
" clip-path="url(#p0127822c5e)"/>
    <path d="M 109.334765 222.477561 
L 111.177503 222.838858 
L 110.91342 221.884801 
L 115.002277 224.039905 
L 110.402349 224.491436 
L 111.007145 223.707737 
L 109.164408 223.346439 
L 109.334765 222.477561 
" clip-path="url(#p0127822c5e)"/>
    <path d="M 124.119402 222.624366 
L 124.407037 222.737156 
L 124.344983 222.049097 
L 126.882957 224.039905 
L 123.66824 223.774903 
L 124.181456 223.312425 
L 123.893821 223.199634 
L 124.119402 222.624366 
" clip-path="url(#p0127822c5e)"/>
    <path d="M 138.876427 222.912 
L 138.876427 223.02479 
L 139.102008 222.912 
L 138.763636 224.039905 
L 138.425265 222.912 
L 138.650846 223.02479 
L 138.650846 222.912 
L 138.876427 222.912 
" clip-path="url(#p0127822c5e)"/>
    <path d="M 153.633452 223.199634 
L 153.345817 223.312425 
L 153.859033 223.774903 
L 150.644316 224.039905 
L 153.18229 222.049097 
L 153.120236 222.737156 
L 153.407871 222.624366 
L 153.633452 223.199634 
" clip-path="url(#p0127822c5e)"/>
    <path d="M 168.362865 223.346439 
L 166.520127 223.707737 
L 167.124924 224.491436 
L 162.524996 224.039905 
L 166.613852 221.884801 
L 166.34977 222.838858 
L 168.192507 222.477561 
L 168.362865 223.346439 
" clip-path="url(#p0127822c5e)"/>
    <path d="M 183.09209 223.350977 
L 178.413844 223.962472 
L 178.967579 224.783046 
L 174.405676 224.039905 
L 178.623306 222.149187 
L 178.299087 223.084519 
L 182.977332 222.473023 
L 183.09209 223.350977 
" clip-path="url(#p0127822c5e)"/>
    <path d="M 197.834929 223.352599 
L 190.294937 224.091765 
L 190.821921 224.929769 
L 186.286356 224.039905 
L 190.562763 222.286178 
L 190.20855 223.210568 
L 197.748542 222.471401 
L 197.834929 223.352599 
" clip-path="url(#p0127822c5e)"/>
    <path d="M 212.583374 223.353356 
L 202.173849 224.169735 
L 202.684432 225.017833 
L 198.167036 224.039905 
L 202.476749 222.3697 
L 202.104621 223.287024 
L 212.514146 222.470644 
L 212.583374 223.353356 
" clip-path="url(#p0127822c5e)"/>
    <path d="M 64.995859 198.277629 
L 75.396247 198.685461 
L 74.98857 197.783373 
L 79.360237 199.283952 
L 74.884489 200.437597 
L 75.361553 199.570202 
L 64.961166 199.162371 
L 64.995859 198.277629 
" clip-path="url(#p0127822c5e)"/>
    <path d="M 79.757211 198.27782 
L 87.282972 198.646706 
L 86.88414 197.740672 
L 91.240917 199.283952 
L 86.754096 200.393751 
L 87.239624 199.531066 
L 79.713863 199.16218 
L 79.757211 198.27782 
" clip-path="url(#p0127822c5e)"/>
    <path d="M 94.521434 198.278232 
L 99.174554 198.582337 
L 98.79053 197.669929 
L 103.121597 199.283952 
L 98.617298 200.320539 
L 99.11681 199.465874 
L 94.46369 199.161768 
L 94.521434 198.278232 
" clip-path="url(#p0127822c5e)"/>
    <path d="M 109.29278 198.279401 
L 111.080082 198.454616 
L 110.72587 197.530225 
L 115.002277 199.283952 
L 110.466711 200.173817 
L 110.993696 199.335813 
L 109.206394 199.160599 
L 109.29278 198.279401 
" clip-path="url(#p0127822c5e)"/>
    <path d="M 124.063007 198.432366 
L 124.350641 198.488761 
L 124.175797 197.857097 
L 126.882957 199.283952 
L 123.837426 199.582903 
L 124.237851 199.06403 
L 123.950216 199.007634 
L 124.063007 198.432366 
" clip-path="url(#p0127822c5e)"/>
    <path d="M 138.763636 199.162711 
L 139.147035 198.941355 
L 139.147035 198.498645 
L 138.763636 198.277289 
L 138.380238 198.498645 
L 138.380238 198.941355 
L 138.763636 199.162711 
L 139.147035 198.941355 
" clip-path="url(#p0127822c5e)"/>
    <path d="M 153.577056 199.007634 
L 153.289422 199.06403 
L 153.689847 199.582903 
L 150.644316 199.283952 
L 153.351475 197.857097 
L 153.176631 198.488761 
L 153.464266 198.432366 
L 153.577056 199.007634 
" clip-path="url(#p0127822c5e)"/>
    <path d="M 168.320879 199.160599 
L 166.533577 199.335813 
L 167.060562 200.173817 
L 162.524996 199.283952 
L 166.801403 197.530225 
L 166.447191 198.454616 
L 168.234493 198.279401 
L 168.320879 199.160599 
" clip-path="url(#p0127822c5e)"/>
    <path d="M 183.063583 199.161768 
L 178.410462 199.465874 
L 178.909974 200.320539 
L 174.405676 199.283952 
L 178.736743 197.669929 
L 178.352719 198.582337 
L 183.005839 198.278232 
L 183.063583 199.161768 
" clip-path="url(#p0127822c5e)"/>
    <path d="M 197.81341 199.16218 
L 190.287649 199.531066 
L 190.773177 200.393751 
L 186.286356 199.283952 
L 190.643132 197.740672 
L 190.244301 198.646706 
L 197.770061 198.27782 
L 197.81341 199.16218 
" clip-path="url(#p0127822c5e)"/>
    <path d="M 212.566107 199.162371 
L 202.165719 199.570202 
L 202.642783 200.437597 
L 198.167036 199.283952 
L 202.538703 197.783373 
L 202.131026 198.685461 
L 212.531414 198.277629 
L 212.566107 199.162371 
" clip-path="url(#p0127822c5e)"/>
    <path d="M 64.978512 174.085289 
L 75.37584 174.085289 
L 74.93313 173.199868 
L 79.360237 174.528 
L 74.93313 175.856132 
L 75.37584 174.970711 
L 64.978512 174.970711 
L 64.978512 174.085289 
" clip-path="url(#p0127822c5e)"/>
    <path d="M 79.735537 174.085289 
L 87.25652 174.085289 
L 86.81381 173.199868 
L 91.240917 174.528 
L 86.81381 175.856132 
L 87.25652 174.970711 
L 79.735537 174.970711 
L 79.735537 174.085289 
" clip-path="url(#p0127822c5e)"/>
    <path d="M 94.492562 174.085289 
L 99.1372 174.085289 
L 98.694489 173.199868 
L 103.121597 174.528 
L 98.694489 175.856132 
L 99.1372 174.970711 
L 94.492562 174.970711 
L 94.492562 174.085289 
" clip-path="url(#p0127822c5e)"/>
    <path d="M 109.249587 174.085289 
L 111.01788 174.085289 
L 110.575169 173.199868 
L 115.002277 174.528 
L 110.575169 175.856132 
L 111.01788 174.970711 
L 109.249587 174.970711 
L 109.249587 174.085289 
" clip-path="url(#p0127822c5e)"/>
    <path d="M 124.006612 174.240366 
L 124.294246 174.240366 
L 124.006612 173.665097 
L 126.882957 174.528 
L 124.006612 175.390903 
L 124.294246 174.815634 
L 124.006612 174.815634 
L 124.006612 174.240366 
" clip-path="url(#p0127822c5e)"/>
    <path d="M 139.206347 174.528 
L 138.984992 174.144601 
L 138.542281 174.144601 
L 138.320926 174.528 
L 138.542281 174.911399 
L 138.984992 174.911399 
L 139.206347 174.528 
L 138.984992 174.144601 
" clip-path="url(#p0127822c5e)"/>
    <path d="M 153.520661 174.815634 
L 153.233027 174.815634 
L 153.520661 175.390903 
L 150.644316 174.528 
L 153.520661 173.665097 
L 153.233027 174.240366 
L 153.520661 174.240366 
L 153.520661 174.815634 
" clip-path="url(#p0127822c5e)"/>
    <path d="M 168.277686 174.970711 
L 166.509393 174.970711 
L 166.952104 175.856132 
L 162.524996 174.528 
L 166.952104 173.199868 
L 166.509393 174.085289 
L 168.277686 174.085289 
L 168.277686 174.970711 
" clip-path="url(#p0127822c5e)"/>
    <path d="M 183.034711 174.970711 
L 178.390073 174.970711 
L 178.832783 175.856132 
L 174.405676 174.528 
L 178.832783 173.199868 
L 178.390073 174.085289 
L 183.034711 174.085289 
L 183.034711 174.970711 
" clip-path="url(#p0127822c5e)"/>
    <path d="M 197.791736 174.970711 
L 190.270752 174.970711 
L 190.713463 175.856132 
L 186.286356 174.528 
L 190.713463 173.199868 
L 190.270752 174.085289 
L 197.791736 174.085289 
L 197.791736 174.970711 
" clip-path="url(#p0127822c5e)"/>
    <path d="M 212.54876 174.970711 
L 202.151432 174.970711 
L 202.594143 175.856132 
L 198.167036 174.528 
L 202.594143 173.199868 
L 202.151432 174.085289 
L 212.54876 174.085289 
L 212.54876 174.970711 
" clip-path="url(#p0127822c5e)"/>
    <path d="M 64.961166 149.893629 
L 75.361553 149.485798 
L 74.884489 148.618403 
L 79.360237 149.772048 
L 74.98857 151.272627 
L 75.396247 150.370539 
L 64.995859 150.778371 
L 64.961166 149.893629 
" clip-path="url(#p0127822c5e)"/>
    <path d="M 79.713863 149.89382 
L 87.239624 149.524934 
L 86.754096 148.662249 
L 91.240917 149.772048 
L 86.88414 151.315328 
L 87.282972 150.409294 
L 79.757211 150.77818 
L 79.713863 149.89382 
" clip-path="url(#p0127822c5e)"/>
    <path d="M 94.46369 149.894232 
L 99.11681 149.590126 
L 98.617298 148.735461 
L 103.121597 149.772048 
L 98.79053 151.386071 
L 99.174554 150.473663 
L 94.521434 150.777768 
L 94.46369 149.894232 
" clip-path="url(#p0127822c5e)"/>
    <path d="M 109.206394 149.895401 
L 110.993696 149.720187 
L 110.466711 148.882183 
L 115.002277 149.772048 
L 110.72587 151.525775 
L 111.080082 150.601384 
L 109.29278 150.776599 
L 109.206394 149.895401 
" clip-path="url(#p0127822c5e)"/>
    <path d="M 123.950216 150.048366 
L 124.237851 149.99197 
L 123.837426 149.473097 
L 126.882957 149.772048 
L 124.175797 151.198903 
L 124.350641 150.567239 
L 124.063007 150.623634 
L 123.950216 150.048366 
" clip-path="url(#p0127822c5e)"/>
    <path d="M 138.763636 149.893289 
L 138.380238 150.114645 
L 138.380238 150.557355 
L 138.763636 150.778711 
L 139.147035 150.557355 
L 139.147035 150.114645 
L 138.763636 149.893289 
L 138.380238 150.114645 
" clip-path="url(#p0127822c5e)"/>
    <path d="M 153.464266 150.623634 
L 153.176631 150.567239 
L 153.351475 151.198903 
L 150.644316 149.772048 
L 153.689847 149.473097 
L 153.289422 149.99197 
L 153.577056 150.048366 
L 153.464266 150.623634 
" clip-path="url(#p0127822c5e)"/>
    <path d="M 168.234493 150.776599 
L 166.447191 150.601384 
L 166.801403 151.525775 
L 162.524996 149.772048 
L 167.060562 148.882183 
L 166.533577 149.720187 
L 168.320879 149.895401 
L 168.234493 150.776599 
" clip-path="url(#p0127822c5e)"/>
    <path d="M 183.005839 150.777768 
L 178.352719 150.473663 
L 178.736743 151.386071 
L 174.405676 149.772048 
L 178.909974 148.735461 
L 178.410462 149.590126 
L 183.063583 149.894232 
L 183.005839 150.777768 
" clip-path="url(#p0127822c5e)"/>
    <path d="M 197.770061 150.77818 
L 190.244301 150.409294 
L 190.643132 151.315328 
L 186.286356 149.772048 
L 190.773177 148.662249 
L 190.287649 149.524934 
L 197.81341 149.89382 
L 197.770061 150.77818 
" clip-path="url(#p0127822c5e)"/>
    <path d="M 212.531414 150.778371 
L 202.131026 150.370539 
L 202.538703 151.272627 
L 198.167036 149.772048 
L 202.642783 148.618403 
L 202.165719 149.485798 
L 212.566107 149.893629 
L 212.531414 150.778371 
" clip-path="url(#p0127822c5e)"/>
    <path d="M 64.943899 125.702644 
L 75.353424 124.886265 
L 74.84284 124.038167 
L 79.360237 125.016095 
L 75.050524 126.6863 
L 75.422651 125.768976 
L 65.013126 126.585356 
L 64.943899 125.702644 
" clip-path="url(#p0127822c5e)"/>
    <path d="M 79.692344 125.703401 
L 87.232336 124.964235 
L 86.705351 124.126231 
L 91.240917 125.016095 
L 86.96451 126.769822 
L 87.318722 125.845432 
L 79.77873 126.584599 
L 79.692344 125.703401 
" clip-path="url(#p0127822c5e)"/>
    <path d="M 94.435183 125.705023 
L 99.113428 125.093528 
L 98.559694 124.272954 
L 103.121597 125.016095 
L 98.903967 126.906813 
L 99.228186 125.971481 
L 94.549941 126.582977 
L 94.435183 125.705023 
" clip-path="url(#p0127822c5e)"/>
    <path d="M 109.164408 125.709561 
L 111.007145 125.348263 
L 110.402349 124.564564 
L 115.002277 125.016095 
L 110.91342 127.171199 
L 111.177503 126.217142 
L 109.334765 126.578439 
L 109.164408 125.709561 
" clip-path="url(#p0127822c5e)"/>
    <path d="M 123.893821 125.856366 
L 124.181456 125.743575 
L 123.66824 125.281097 
L 126.882957 125.016095 
L 124.344983 127.006903 
L 124.407037 126.318844 
L 124.119402 126.431634 
L 123.893821 125.856366 
" clip-path="url(#p0127822c5e)"/>
    <path d="M 138.650846 126.144 
L 138.650846 126.03121 
L 138.425265 126.144 
L 138.763636 125.016095 
L 139.102008 126.144 
L 138.876427 126.03121 
L 138.876427 126.144 
L 138.650846 126.144 
" clip-path="url(#p0127822c5e)"/>
    <path d="M 153.407871 126.431634 
L 153.120236 126.318844 
L 153.18229 127.006903 
L 150.644316 125.016095 
L 153.859033 125.281097 
L 153.345817 125.743575 
L 153.633452 125.856366 
L 153.407871 126.431634 
" clip-path="url(#p0127822c5e)"/>
    <path d="M 168.192507 126.578439 
L 166.34977 126.217142 
L 166.613852 127.171199 
L 162.524996 125.016095 
L 167.124924 124.564564 
L 166.520127 125.348263 
L 168.362865 125.709561 
L 168.192507 126.578439 
" clip-path="url(#p0127822c5e)"/>
    <path d="M 182.977332 126.582977 
L 178.299087 125.971481 
L 178.623306 126.906813 
L 174.405676 125.016095 
L 178.967579 124.272954 
L 178.413844 125.093528 
L 183.09209 125.705023 
L 182.977332 126.582977 
" clip-path="url(#p0127822c5e)"/>
    <path d="M 197.748542 126.584599 
L 190.20855 125.845432 
L 190.562763 126.769822 
L 186.286356 125.016095 
L 190.821921 124.126231 
L 190.294937 124.964235 
L 197.834929 125.703401 
L 197.748542 126.584599 
" clip-path="url(#p0127822c5e)"/>
    <path d="M 212.514146 126.585356 
L 202.104621 125.768976 
L 202.476749 126.6863 
L 198.167036 125.016095 
L 202.684432 124.038167 
L 202.173849 124.886265 
L 212.583374 125.702644 
L 212.514146 126.585356 
" clip-path="url(#p0127822c5e)"/>
    <path d="M 64.926789 101.512321 
L 75.351404 100.285976 
L 74.808278 99.458342 
L 79.360237 100.260143 
L 75.118619 102.096415 
L 75.454851 101.165334 
L 65.030236 102.391679 
L 64.926789 101.512321 
" clip-path="url(#p0127822c5e)"/>
    <path d="M 79.67113 101.513999 
L 87.234505 100.401811 
L 86.667689 99.590218 
L 91.240917 100.260143 
L 87.054135 102.218221 
L 87.36332 101.277812 
L 79.799945 102.390001 
L 79.67113 101.513999 
" clip-path="url(#p0127822c5e)"/>
    <path d="M 94.407383 101.517561 
L 99.126466 100.592311 
L 98.521669 99.808611 
L 103.121597 100.260143 
L 99.032741 102.415246 
L 99.296823 101.46119 
L 94.577741 102.386439 
L 94.407383 101.517561 
" clip-path="url(#p0127822c5e)"/>
    <path d="M 109.124676 101.527276 
L 111.054853 100.959614 
L 110.380309 100.235078 
L 115.002277 100.260143 
L 111.129772 102.783419 
L 111.304675 101.809062 
L 109.374497 102.376724 
L 109.124676 101.527276 
" clip-path="url(#p0127822c5e)"/>
    <path d="M 123.837426 101.664366 
L 124.12506 101.49518 
L 123.499055 101.089097 
L 126.882957 100.260143 
L 124.514169 102.814903 
L 124.463432 102.070449 
L 124.175797 102.239634 
L 123.837426 101.664366 
" clip-path="url(#p0127822c5e)"/>
    <path d="M 138.594451 101.952 
L 138.594451 101.782814 
L 138.256079 101.952 
L 138.763636 100.260143 
L 139.271193 101.952 
L 138.932822 101.782814 
L 138.932822 101.952 
L 138.594451 101.952 
" clip-path="url(#p0127822c5e)"/>
    <path d="M 153.351475 102.239634 
L 153.063841 102.070449 
L 153.013104 102.814903 
L 150.644316 100.260143 
L 154.028218 101.089097 
L 153.402212 101.49518 
L 153.689847 101.664366 
L 153.351475 102.239634 
" clip-path="url(#p0127822c5e)"/>
    <path d="M 168.152775 102.376724 
L 166.222598 101.809062 
L 166.397501 102.783419 
L 162.524996 100.260143 
L 167.146964 100.235078 
L 166.472419 100.959614 
L 168.402596 101.527276 
L 168.152775 102.376724 
" clip-path="url(#p0127822c5e)"/>
    <path d="M 182.949532 102.386439 
L 178.23045 101.46119 
L 178.494532 102.415246 
L 174.405676 100.260143 
L 179.005604 99.808611 
L 178.400807 100.592311 
L 183.119889 101.517561 
L 182.949532 102.386439 
" clip-path="url(#p0127822c5e)"/>
    <path d="M 197.727328 102.390001 
L 190.163953 101.277812 
L 190.473138 102.218221 
L 186.286356 100.260143 
L 190.859584 99.590218 
L 190.292768 100.401811 
L 197.856143 101.513999 
L 197.727328 102.390001 
" clip-path="url(#p0127822c5e)"/>
    <path d="M 212.497037 102.391679 
L 202.072422 101.165334 
L 202.408653 102.096415 
L 198.167036 100.260143 
L 202.718995 99.458342 
L 202.175869 100.285976 
L 212.600484 101.512321 
L 212.497037 102.391679 
" clip-path="url(#p0127822c5e)"/>
    <path d="M 64.909911 77.322637 
L 75.355366 75.684241 
L 74.7808 74.878116 
L 79.360237 75.504191 
L 75.192409 77.502296 
L 75.492569 76.558968 
L 65.047114 78.197363 
L 64.909911 77.322637 
" clip-path="url(#p0127822c5e)"/>
    <path d="M 79.650359 77.325561 
L 87.245786 75.836359 
L 86.640989 75.052659 
L 91.240917 75.504191 
L 87.152061 77.659294 
L 87.416143 76.705237 
L 79.820716 78.194439 
L 79.650359 77.325561 
" clip-path="url(#p0127822c5e)"/>
    <path d="M 94.380591 77.331683 
L 99.154774 76.083612 
L 98.502516 75.33895 
L 103.121597 75.504191 
L 99.174341 77.908851 
L 99.378716 76.940246 
L 94.604533 78.188317 
L 94.380591 77.331683 
" clip-path="url(#p0127822c5e)"/>
    <path d="M 109.087968 77.347845 
L 111.131259 76.546606 
L 110.395865 75.883915 
L 115.002277 75.504191 
L 111.365579 78.356847 
L 111.454497 77.370917 
L 109.411206 78.172155 
L 109.087968 77.347845 
" clip-path="url(#p0127822c5e)"/>
    <path d="M 123.781031 77.472366 
L 124.068665 77.246785 
L 123.329869 76.897097 
L 126.882957 75.504191 
L 124.683354 78.622903 
L 124.519827 77.822054 
L 124.232192 78.047634 
L 123.781031 77.472366 
" clip-path="url(#p0127822c5e)"/>
    <path d="M 138.538055 77.76 
L 138.538055 77.534419 
L 138.086894 77.76 
L 138.763636 75.504191 
L 139.440379 77.76 
L 138.989217 77.534419 
L 138.989217 77.76 
L 138.538055 77.76 
" clip-path="url(#p0127822c5e)"/>
    <path d="M 153.29508 78.047634 
L 153.007446 77.822054 
L 152.843918 78.622903 
L 150.644316 75.504191 
L 154.197404 76.897097 
L 153.458608 77.246785 
L 153.746242 77.472366 
L 153.29508 78.047634 
" clip-path="url(#p0127822c5e)"/>
    <path d="M 168.116067 78.172155 
L 166.072776 77.370917 
L 166.161693 78.356847 
L 162.524996 75.504191 
L 167.131407 75.883915 
L 166.396014 76.546606 
L 168.439305 77.347845 
L 168.116067 78.172155 
" clip-path="url(#p0127822c5e)"/>
    <path d="M 182.92274 78.188317 
L 178.148557 76.940246 
L 178.352931 77.908851 
L 174.405676 75.504191 
L 179.024757 75.33895 
L 178.372498 76.083612 
L 183.146682 77.331683 
L 182.92274 78.188317 
" clip-path="url(#p0127822c5e)"/>
    <path d="M 197.706557 78.194439 
L 190.11113 76.705237 
L 190.375212 77.659294 
L 186.286356 75.504191 
L 190.886283 75.052659 
L 190.281487 75.836359 
L 197.876914 77.325561 
L 197.706557 78.194439 
" clip-path="url(#p0127822c5e)"/>
    <path d="M 212.480159 78.197363 
L 202.034704 76.558968 
L 202.334864 77.502296 
L 198.167036 75.504191 
L 202.746473 74.878116 
L 202.171907 75.684241 
L 212.617362 77.322637 
L 212.480159 78.197363 
" clip-path="url(#p0127822c5e)"/>
    <path d="M 64.893334 53.133561 
L 75.365106 51.080407 
L 74.760309 50.296707 
L 79.360237 50.748239 
L 75.271381 52.903342 
L 75.535463 51.949285 
L 65.063691 54.002439 
L 64.893334 53.133561 
" clip-path="url(#p0127822c5e)"/>
    <path d="M 79.630155 53.138015 
L 87.265666 51.266688 
L 86.624917 50.512099 
L 91.240917 50.748239 
L 87.257207 53.092012 
L 87.476429 52.126659 
L 79.840919 53.997985 
L 79.630155 53.138015 
" clip-path="url(#p0127822c5e)"/>
    <path d="M 94.35505 53.147187 
L 99.19677 51.565029 
L 98.500935 50.860915 
L 103.121597 50.748239 
L 99.326004 53.385792 
L 99.471793 52.406655 
L 94.630073 53.988813 
L 94.35505 53.147187 
" clip-path="url(#p0127822c5e)"/>
    <path d="M 109.054735 53.170476 
L 111.229707 52.104383 
L 110.442479 51.504186 
L 115.002277 50.748239 
L 111.611591 53.889332 
L 111.619411 52.899431 
L 109.444439 53.965524 
L 109.054735 53.170476 
" clip-path="url(#p0127822c5e)"/>
    <path d="M 123.724635 53.280366 
L 124.01227 52.998389 
L 123.160683 52.705097 
L 126.882957 50.748239 
L 124.85254 54.430903 
L 124.576222 53.573658 
L 124.288588 53.855634 
L 123.724635 53.280366 
" clip-path="url(#p0127822c5e)"/>
    <path d="M 138.48166 53.568 
L 138.48166 53.286024 
L 137.917708 53.568 
L 138.763636 50.748239 
L 139.609565 53.568 
L 139.045613 53.286024 
L 139.045613 53.568 
L 138.48166 53.568 
" clip-path="url(#p0127822c5e)"/>
    <path d="M 153.238685 53.855634 
L 152.951051 53.573658 
L 152.674733 54.430903 
L 150.644316 50.748239 
L 154.36659 52.705097 
L 153.515003 52.998389 
L 153.802637 53.280366 
L 153.238685 53.855634 
" clip-path="url(#p0127822c5e)"/>
    <path d="M 168.082834 53.965524 
L 165.907862 52.899431 
L 165.915682 53.889332 
L 162.524996 50.748239 
L 167.084794 51.504186 
L 166.297566 52.104383 
L 168.472538 53.170476 
L 168.082834 53.965524 
" clip-path="url(#p0127822c5e)"/>
    <path d="M 182.897199 53.988813 
L 178.055479 52.406655 
L 178.201269 53.385792 
L 174.405676 50.748239 
L 179.026338 50.860915 
L 178.330502 51.565029 
L 183.172222 53.147187 
L 182.897199 53.988813 
" clip-path="url(#p0127822c5e)"/>
    <path d="M 197.686354 53.997985 
L 190.050843 52.126659 
L 190.270065 53.092012 
L 186.286356 50.748239 
L 190.902356 50.512099 
L 190.261607 51.266688 
L 197.897117 53.138015 
L 197.686354 53.997985 
" clip-path="url(#p0127822c5e)"/>
    <path d="M 212.463582 54.002439 
L 201.99181 51.949285 
L 202.255892 52.903342 
L 198.167036 50.748239 
L 202.766963 50.296707 
L 202.162167 51.080407 
L 212.633939 53.133561 
L 212.463582 54.002439 
" clip-path="url(#p0127822c5e)"/>
   </g>
   <g id="matplotlib.axis_1">
    <g id="xtick_1">
     <g id="line2d_1">
      <defs>
       <path id="mcff75f25b2" d="M 0 0 
L 0 3.5 
" style="stroke: #000000; stroke-width: 0.8"/>
      </defs>
      <g>
       <use xlink:href="#mcff75f25b2" x="64.978512" y="307.584" style="stroke: #000000; stroke-width: 0.8"/>
      </g>
     </g>
     <g id="text_1">
      <!-- −5.0 -->
      <g transform="translate(52.837106 322.182437) scale(0.1 -0.1)">
       <defs>
        <path id="DejaVuSans-2212" d="M 678 2272 
L 4684 2272 
L 4684 1741 
L 678 1741 
L 678 2272 
z
" transform="scale(0.015625)"/>
        <path id="DejaVuSans-35" d="M 691 4666 
L 3169 4666 
L 3169 4134 
L 1269 4134 
L 1269 2991 
Q 1406 3038 1543 3061 
Q 1681 3084 1819 3084 
Q 2600 3084 3056 2656 
Q 3513 2228 3513 1497 
Q 3513 744 3044 326 
Q 2575 -91 1722 -91 
Q 1428 -91 1123 -41 
Q 819 9 494 109 
L 494 744 
Q 775 591 1075 516 
Q 1375 441 1709 441 
Q 2250 441 2565 725 
Q 2881 1009 2881 1497 
Q 2881 1984 2565 2268 
Q 2250 2553 1709 2553 
Q 1456 2553 1204 2497 
Q 953 2441 691 2322 
L 691 4666 
z
" transform="scale(0.015625)"/>
        <path id="DejaVuSans-2e" d="M 684 794 
L 1344 794 
L 1344 0 
L 684 0 
L 684 794 
z
" transform="scale(0.015625)"/>
        <path id="DejaVuSans-30" d="M 2034 4250 
Q 1547 4250 1301 3770 
Q 1056 3291 1056 2328 
Q 1056 1369 1301 889 
Q 1547 409 2034 409 
Q 2525 409 2770 889 
Q 3016 1369 3016 2328 
Q 3016 3291 2770 3770 
Q 2525 4250 2034 4250 
z
M 2034 4750 
Q 2819 4750 3233 4129 
Q 3647 3509 3647 2328 
Q 3647 1150 3233 529 
Q 2819 -91 2034 -91 
Q 1250 -91 836 529 
Q 422 1150 422 2328 
Q 422 3509 836 4129 
Q 1250 4750 2034 4750 
z
" transform="scale(0.015625)"/>
       </defs>
       <use xlink:href="#DejaVuSans-2212"/>
       <use xlink:href="#DejaVuSans-35" x="83.789062"/>
       <use xlink:href="#DejaVuSans-2e" x="147.412109"/>
       <use xlink:href="#DejaVuSans-30" x="179.199219"/>
      </g>
     </g>
    </g>
    <g id="xtick_2">
     <g id="line2d_2">
      <g>
       <use xlink:href="#mcff75f25b2" x="101.871074" y="307.584" style="stroke: #000000; stroke-width: 0.8"/>
      </g>
     </g>
     <g id="text_2">
      <!-- −2.5 -->
      <g transform="translate(89.729668 322.182437) scale(0.1 -0.1)">
       <defs>
        <path id="DejaVuSans-32" d="M 1228 531 
L 3431 531 
L 3431 0 
L 469 0 
L 469 531 
Q 828 903 1448 1529 
Q 2069 2156 2228 2338 
Q 2531 2678 2651 2914 
Q 2772 3150 2772 3378 
Q 2772 3750 2511 3984 
Q 2250 4219 1831 4219 
Q 1534 4219 1204 4116 
Q 875 4013 500 3803 
L 500 4441 
Q 881 4594 1212 4672 
Q 1544 4750 1819 4750 
Q 2544 4750 2975 4387 
Q 3406 4025 3406 3419 
Q 3406 3131 3298 2873 
Q 3191 2616 2906 2266 
Q 2828 2175 2409 1742 
Q 1991 1309 1228 531 
z
" transform="scale(0.015625)"/>
       </defs>
       <use xlink:href="#DejaVuSans-2212"/>
       <use xlink:href="#DejaVuSans-32" x="83.789062"/>
       <use xlink:href="#DejaVuSans-2e" x="147.412109"/>
       <use xlink:href="#DejaVuSans-35" x="179.199219"/>
      </g>
     </g>
    </g>
    <g id="xtick_3">
     <g id="line2d_3">
      <g>
       <use xlink:href="#mcff75f25b2" x="138.763636" y="307.584" style="stroke: #000000; stroke-width: 0.8"/>
      </g>
     </g>
     <g id="text_3">
      <!-- 0.0 -->
      <g transform="translate(130.812074 322.182437) scale(0.1 -0.1)">
       <use xlink:href="#DejaVuSans-30"/>
       <use xlink:href="#DejaVuSans-2e" x="63.623047"/>
       <use xlink:href="#DejaVuSans-30" x="95.410156"/>
      </g>
     </g>
    </g>
    <g id="xtick_4">
     <g id="line2d_4">
      <g>
       <use xlink:href="#mcff75f25b2" x="175.656198" y="307.584" style="stroke: #000000; stroke-width: 0.8"/>
      </g>
     </g>
     <g id="text_4">
      <!-- 2.5 -->
      <g transform="translate(167.704636 322.182437) scale(0.1 -0.1)">
       <use xlink:href="#DejaVuSans-32"/>
       <use xlink:href="#DejaVuSans-2e" x="63.623047"/>
       <use xlink:href="#DejaVuSans-35" x="95.410156"/>
      </g>
     </g>
    </g>
    <g id="xtick_5">
     <g id="line2d_5">
      <g>
       <use xlink:href="#mcff75f25b2" x="212.54876" y="307.584" style="stroke: #000000; stroke-width: 0.8"/>
      </g>
     </g>
     <g id="text_5">
      <!-- 5.0 -->
      <g transform="translate(204.597198 322.182437) scale(0.1 -0.1)">
       <use xlink:href="#DejaVuSans-35"/>
       <use xlink:href="#DejaVuSans-2e" x="63.623047"/>
       <use xlink:href="#DejaVuSans-30" x="95.410156"/>
      </g>
     </g>
    </g>
   </g>
   <g id="matplotlib.axis_2">
    <g id="ytick_1">
     <g id="line2d_6">
      <defs>
       <path id="m6e64c50e5c" d="M 0 0 
L -3.5 0 
" style="stroke: #000000; stroke-width: 0.8"/>
      </defs>
      <g>
       <use xlink:href="#m6e64c50e5c" x="57.6" y="271.296" style="stroke: #000000; stroke-width: 0.8"/>
      </g>
     </g>
     <g id="text_6">
      <!-- −4 -->
      <g transform="translate(35.857813 275.095219) scale(0.1 -0.1)">
       <defs>
        <path id="DejaVuSans-34" d="M 2419 4116 
L 825 1625 
L 2419 1625 
L 2419 4116 
z
M 2253 4666 
L 3047 4666 
L 3047 1625 
L 3713 1625 
L 3713 1100 
L 3047 1100 
L 3047 0 
L 2419 0 
L 2419 1100 
L 313 1100 
L 313 1709 
L 2253 4666 
z
" transform="scale(0.015625)"/>
       </defs>
       <use xlink:href="#DejaVuSans-2212"/>
       <use xlink:href="#DejaVuSans-34" x="83.789062"/>
      </g>
     </g>
    </g>
    <g id="ytick_2">
     <g id="line2d_7">
      <g>
       <use xlink:href="#m6e64c50e5c" x="57.6" y="222.912" style="stroke: #000000; stroke-width: 0.8"/>
      </g>
     </g>
     <g id="text_7">
      <!-- −2 -->
      <g transform="translate(35.857813 226.711219) scale(0.1 -0.1)">
       <use xlink:href="#DejaVuSans-2212"/>
       <use xlink:href="#DejaVuSans-32" x="83.789062"/>
      </g>
     </g>
    </g>
    <g id="ytick_3">
     <g id="line2d_8">
      <g>
       <use xlink:href="#m6e64c50e5c" x="57.6" y="174.528" style="stroke: #000000; stroke-width: 0.8"/>
      </g>
     </g>
     <g id="text_8">
      <!-- 0 -->
      <g transform="translate(44.2375 178.327219) scale(0.1 -0.1)">
       <use xlink:href="#DejaVuSans-30"/>
      </g>
     </g>
    </g>
    <g id="ytick_4">
     <g id="line2d_9">
      <g>
       <use xlink:href="#m6e64c50e5c" x="57.6" y="126.144" style="stroke: #000000; stroke-width: 0.8"/>
      </g>
     </g>
     <g id="text_9">
      <!-- 2 -->
      <g transform="translate(44.2375 129.943219) scale(0.1 -0.1)">
       <use xlink:href="#DejaVuSans-32"/>
      </g>
     </g>
    </g>
    <g id="ytick_5">
     <g id="line2d_10">
      <g>
       <use xlink:href="#m6e64c50e5c" x="57.6" y="77.76" style="stroke: #000000; stroke-width: 0.8"/>
      </g>
     </g>
     <g id="text_10">
      <!-- 4 -->
      <g transform="translate(44.2375 81.559219) scale(0.1 -0.1)">
       <use xlink:href="#DejaVuSans-34"/>
      </g>
     </g>
    </g>
   </g>
   <g id="patch_3">
    <path d="M 57.6 307.584 
L 57.6 41.472 
" style="fill: none; stroke: #000000; stroke-width: 0.8; stroke-linejoin: miter; stroke-linecap: square"/>
   </g>
   <g id="patch_4">
    <path d="M 219.927273 307.584 
L 219.927273 41.472 
" style="fill: none; stroke: #000000; stroke-width: 0.8; stroke-linejoin: miter; stroke-linecap: square"/>
   </g>
   <g id="patch_5">
    <path d="M 57.6 307.584 
L 219.927273 307.584 
" style="fill: none; stroke: #000000; stroke-width: 0.8; stroke-linejoin: miter; stroke-linecap: square"/>
   </g>
   <g id="patch_6">
    <path d="M 57.6 41.472 
L 219.927273 41.472 
" style="fill: none; stroke: #000000; stroke-width: 0.8; stroke-linejoin: miter; stroke-linecap: square"/>
   </g>
  </g>
  <g id="axes_2">
   <g id="patch_7">
    <path d="M 252.392727 307.584 
L 414.72 307.584 
L 414.72 41.472 
L 252.392727 41.472 
z
" style="fill: #ffffff"/>
   </g>
   <g id="matplotlib.axis_3">
    <g id="xtick_6">
     <g id="line2d_11">
      <g>
       <use xlink:href="#mcff75f25b2" x="252.392727" y="307.584" style="stroke: #000000; stroke-width: 0.8"/>
      </g>
     </g>
     <g id="text_11">
      <!-- −0.5 -->
      <g transform="translate(240.251321 322.182437) scale(0.1 -0.1)">
       <use xlink:href="#DejaVuSans-2212"/>
       <use xlink:href="#DejaVuSans-30" x="83.789062"/>
       <use xlink:href="#DejaVuSans-2e" x="147.412109"/>
       <use xlink:href="#DejaVuSans-35" x="179.199219"/>
      </g>
     </g>
    </g>
    <g id="xtick_7">
     <g id="line2d_12">
      <g>
       <use xlink:href="#mcff75f25b2" x="292.974545" y="307.584" style="stroke: #000000; stroke-width: 0.8"/>
      </g>
     </g>
     <g id="text_12">
      <!-- 0.0 -->
      <g transform="translate(285.022983 322.182437) scale(0.1 -0.1)">
       <use xlink:href="#DejaVuSans-30"/>
       <use xlink:href="#DejaVuSans-2e" x="63.623047"/>
       <use xlink:href="#DejaVuSans-30" x="95.410156"/>
      </g>
     </g>
    </g>
    <g id="xtick_8">
     <g id="line2d_13">
      <g>
       <use xlink:href="#mcff75f25b2" x="333.556364" y="307.584" style="stroke: #000000; stroke-width: 0.8"/>
      </g>
     </g>
     <g id="text_13">
      <!-- 0.5 -->
      <g transform="translate(325.604801 322.182437) scale(0.1 -0.1)">
       <use xlink:href="#DejaVuSans-30"/>
       <use xlink:href="#DejaVuSans-2e" x="63.623047"/>
       <use xlink:href="#DejaVuSans-35" x="95.410156"/>
      </g>
     </g>
    </g>
    <g id="xtick_9">
     <g id="line2d_14">
      <g>
       <use xlink:href="#mcff75f25b2" x="374.138182" y="307.584" style="stroke: #000000; stroke-width: 0.8"/>
      </g>
     </g>
     <g id="text_14">
      <!-- 1.0 -->
      <g transform="translate(366.186619 322.182437) scale(0.1 -0.1)">
       <defs>
        <path id="DejaVuSans-31" d="M 794 531 
L 1825 531 
L 1825 4091 
L 703 3866 
L 703 4441 
L 1819 4666 
L 2450 4666 
L 2450 531 
L 3481 531 
L 3481 0 
L 794 0 
L 794 531 
z
" transform="scale(0.015625)"/>
       </defs>
       <use xlink:href="#DejaVuSans-31"/>
       <use xlink:href="#DejaVuSans-2e" x="63.623047"/>
       <use xlink:href="#DejaVuSans-30" x="95.410156"/>
      </g>
     </g>
    </g>
    <g id="xtick_10">
     <g id="line2d_15">
      <g>
       <use xlink:href="#mcff75f25b2" x="414.72" y="307.584" style="stroke: #000000; stroke-width: 0.8"/>
      </g>
     </g>
     <g id="text_15">
      <!-- 1.5 -->
      <g transform="translate(406.768437 322.182437) scale(0.1 -0.1)">
       <use xlink:href="#DejaVuSans-31"/>
       <use xlink:href="#DejaVuSans-2e" x="63.623047"/>
       <use xlink:href="#DejaVuSans-35" x="95.410156"/>
      </g>
     </g>
    </g>
   </g>
   <g id="matplotlib.axis_4">
    <g id="ytick_6">
     <g id="line2d_16">
      <g>
       <use xlink:href="#m6e64c50e5c" x="252.392727" y="283.392" style="stroke: #000000; stroke-width: 0.8"/>
      </g>
     </g>
     <g id="text_16">
      <!-- 0 -->
      <g transform="translate(239.030227 287.191219) scale(0.1 -0.1)">
       <use xlink:href="#DejaVuSans-30"/>
      </g>
     </g>
    </g>
    <g id="ytick_7">
     <g id="line2d_17">
      <g>
       <use xlink:href="#m6e64c50e5c" x="252.392727" y="235.008" style="stroke: #000000; stroke-width: 0.8"/>
      </g>
     </g>
     <g id="text_17">
      <!-- 10 -->
      <g transform="translate(232.667727 238.807219) scale(0.1 -0.1)">
       <use xlink:href="#DejaVuSans-31"/>
       <use xlink:href="#DejaVuSans-30" x="63.623047"/>
      </g>
     </g>
    </g>
    <g id="ytick_8">
     <g id="line2d_18">
      <g>
       <use xlink:href="#m6e64c50e5c" x="252.392727" y="186.624" style="stroke: #000000; stroke-width: 0.8"/>
      </g>
     </g>
     <g id="text_18">
      <!-- 20 -->
      <g transform="translate(232.667727 190.423219) scale(0.1 -0.1)">
       <use xlink:href="#DejaVuSans-32"/>
       <use xlink:href="#DejaVuSans-30" x="63.623047"/>
      </g>
     </g>
    </g>
    <g id="ytick_9">
     <g id="line2d_19">
      <g>
       <use xlink:href="#m6e64c50e5c" x="252.392727" y="138.24" style="stroke: #000000; stroke-width: 0.8"/>
      </g>
     </g>
     <g id="text_19">
      <!-- 30 -->
      <g transform="translate(232.667727 142.039219) scale(0.1 -0.1)">
       <defs>
        <path id="DejaVuSans-33" d="M 2597 2516 
Q 3050 2419 3304 2112 
Q 3559 1806 3559 1356 
Q 3559 666 3084 287 
Q 2609 -91 1734 -91 
Q 1441 -91 1130 -33 
Q 819 25 488 141 
L 488 750 
Q 750 597 1062 519 
Q 1375 441 1716 441 
Q 2309 441 2620 675 
Q 2931 909 2931 1356 
Q 2931 1769 2642 2001 
Q 2353 2234 1838 2234 
L 1294 2234 
L 1294 2753 
L 1863 2753 
Q 2328 2753 2575 2939 
Q 2822 3125 2822 3475 
Q 2822 3834 2567 4026 
Q 2313 4219 1838 4219 
Q 1578 4219 1281 4162 
Q 984 4106 628 3988 
L 628 4550 
Q 988 4650 1302 4700 
Q 1616 4750 1894 4750 
Q 2613 4750 3031 4423 
Q 3450 4097 3450 3541 
Q 3450 3153 3228 2886 
Q 3006 2619 2597 2516 
z
" transform="scale(0.015625)"/>
       </defs>
       <use xlink:href="#DejaVuSans-33"/>
       <use xlink:href="#DejaVuSans-30" x="63.623047"/>
      </g>
     </g>
    </g>
    <g id="ytick_10">
     <g id="line2d_20">
      <g>
       <use xlink:href="#m6e64c50e5c" x="252.392727" y="89.856" style="stroke: #000000; stroke-width: 0.8"/>
      </g>
     </g>
     <g id="text_20">
      <!-- 40 -->
      <g transform="translate(232.667727 93.655219) scale(0.1 -0.1)">
       <use xlink:href="#DejaVuSans-34"/>
       <use xlink:href="#DejaVuSans-30" x="63.623047"/>
      </g>
     </g>
    </g>
    <g id="ytick_11">
     <g id="line2d_21">
      <g>
       <use xlink:href="#m6e64c50e5c" x="252.392727" y="41.472" style="stroke: #000000; stroke-width: 0.8"/>
      </g>
     </g>
     <g id="text_21">
      <!-- 50 -->
      <g transform="translate(232.667727 45.271219) scale(0.1 -0.1)">
       <use xlink:href="#DejaVuSans-35"/>
       <use xlink:href="#DejaVuSans-30" x="63.623047"/>
      </g>
     </g>
    </g>
   </g>
   <g id="line2d_22">
    <path d="M 293.055709 283.392 
L 374.138182 283.392 
L 374.138182 283.392 
" clip-path="url(#pa685ccc85a)" style="fill: none; stroke: #1f77b4; stroke-width: 1.5; stroke-linecap: square"/>
   </g>
   <g id="line2d_23">
    <path d="M 293.055709 264.646434 
L 293.2992 269.10782 
L 293.623855 270.922941 
L 294.029673 272.055145 
L 294.597818 272.973353 
L 295.328291 273.705372 
L 296.302255 274.341197 
L 297.600873 274.907389 
L 299.386473 275.433354 
L 301.983709 275.946719 
L 305.717236 276.436022 
L 311.1552 276.904225 
L 319.109236 277.349811 
L 331.040291 277.779279 
L 349.139782 278.191424 
L 374.138182 278.5536 
L 374.138182 278.5536 
" clip-path="url(#pa685ccc85a)" style="fill: none; stroke: #ff7f0e; stroke-width: 1.5; stroke-linecap: square"/>
   </g>
   <g id="line2d_24">
    <path d="M 293.055709 245.900867 
L 293.2992 254.82364 
L 293.623855 258.453882 
L 294.029673 260.71829 
L 294.597818 262.554705 
L 295.247127 263.884992 
L 296.058764 265.018692 
L 297.032727 265.981189 
L 298.250182 266.854166 
L 299.792291 267.665083 
L 301.740218 268.421231 
L 304.256291 269.143896 
L 307.502836 269.83319 
L 311.804509 270.505418 
L 317.485964 271.154731 
L 325.034182 271.782188 
L 335.179636 272.391467 
L 348.977455 272.984943 
L 367.807418 273.559888 
L 374.138182 273.7152 
L 374.138182 273.7152 
" clip-path="url(#pa685ccc85a)" style="fill: none; stroke: #2ca02c; stroke-width: 1.5; stroke-linecap: square"/>
   </g>
   <g id="line2d_25">
    <path d="M 293.055709 227.155301 
L 293.2992 240.53946 
L 293.623855 245.984822 
L 294.029673 249.381435 
L 294.597818 252.136058 
L 295.247127 254.131488 
L 295.9776 255.687558 
L 296.8704 257.065917 
L 297.925527 258.274405 
L 299.142982 259.334141 
L 300.603927 260.31617 
L 302.389527 261.248278 
L 304.580945 262.138397 
L 307.340509 263.00893 
L 310.749382 263.842338 
L 315.051055 264.655666 
L 320.489018 265.447362 
L 327.387927 266.217514 
L 336.234764 266.970893 
L 347.597673 267.704875 
L 362.288291 268.420622 
L 374.138182 268.8768 
L 374.138182 268.8768 
" clip-path="url(#pa685ccc85a)" style="fill: none; stroke: #d62728; stroke-width: 1.5; stroke-linecap: square"/>
   </g>
   <g id="line2d_26">
    <path d="M 293.055709 208.409734 
L 293.2992 226.25528 
L 293.623855 233.515763 
L 294.029673 238.044579 
L 294.516655 241.296181 
L 295.165964 244.098803 
L 295.896436 246.253772 
L 296.708073 247.996427 
L 297.682036 249.569088 
L 298.818327 250.973005 
L 300.116945 252.223751 
L 301.659055 253.395802 
L 303.525818 254.519327 
L 305.717236 255.568089 
L 308.395636 256.589619 
L 311.561018 257.552982 
L 315.456873 258.499283 
L 320.245527 259.424081 
L 326.089309 260.319327 
L 333.394036 261.203667 
L 342.4032 262.061998 
L 353.684945 262.904672 
L 367.807418 263.727776 
L 374.138182 264.0384 
L 374.138182 264.0384 
" clip-path="url(#pa685ccc85a)" style="fill: none; stroke: #9467bd; stroke-width: 1.5; stroke-linecap: square"/>
   </g>
   <g id="line2d_27">
    <path d="M 293.055709 189.664168 
L 293.2992 211.9711 
L 293.623855 221.046704 
L 294.029673 226.707724 
L 294.516655 230.772226 
L 295.165964 234.275504 
L 295.896436 236.969215 
L 296.708073 239.147534 
L 297.682036 241.11336 
L 298.737164 242.756978 
L 299.954618 244.255681 
L 301.415564 245.687106 
L 303.038836 246.965236 
L 304.986764 248.207214 
L 307.259345 249.382458 
L 309.937745 250.509283 
L 313.103127 251.594061 
L 316.917818 252.657834 
L 321.462982 253.687557 
L 326.982109 254.701203 
L 333.637527 255.689225 
L 341.753891 256.660281 
L 351.655855 257.611585 
L 363.749236 258.541539 
L 374.138182 259.2 
L 374.138182 259.2 
" clip-path="url(#pa685ccc85a)" style="fill: none; stroke: #8c564b; stroke-width: 1.5; stroke-linecap: square"/>
   </g>
   <g id="line2d_28">
    <path d="M 293.055709 170.918601 
L 293.2992 197.68692 
L 293.623855 208.577645 
L 294.029673 215.370869 
L 294.516655 220.248271 
L 295.165964 224.452205 
L 295.896436 227.684658 
L 296.708073 230.29864 
L 297.682036 232.657632 
L 298.737164 234.629974 
L 299.954618 236.428417 
L 301.3344 238.060334 
L 302.876509 239.540301 
L 304.662109 240.942832 
L 306.6912 242.254502 
L 309.044945 243.512218 
L 311.804509 244.732254 
L 315.051055 245.919333 
L 318.865745 247.072271 
L 323.410909 248.205924 
L 328.767709 249.306758 
L 335.179636 250.3904 
L 342.809018 251.448249 
L 351.980509 252.488949 
L 363.018764 253.510727 
L 374.138182 254.3616 
L 374.138182 254.3616 
" clip-path="url(#pa685ccc85a)" style="fill: none; stroke: #e377c2; stroke-width: 1.5; stroke-linecap: square"/>
   </g>
   <g id="line2d_29">
    <path d="M 293.055709 152.173035 
L 293.2992 183.40274 
L 293.623855 196.108585 
L 294.029673 204.034014 
L 294.516655 209.724316 
L 295.165964 214.628905 
L 295.896436 218.400101 
L 296.708073 221.449747 
L 297.600873 223.999726 
L 298.656 226.344534 
L 299.792291 228.347791 
L 301.090909 230.197662 
L 302.551855 231.896199 
L 304.256291 233.523635 
L 306.123055 234.998535 
L 308.314473 236.43928 
L 310.830545 237.816851 
L 313.752436 239.151136 
L 317.080145 240.421131 
L 320.976 241.664959 
L 325.521164 242.877587 
L 330.877964 244.070019 
L 337.208727 245.24298 
L 344.675782 246.392034 
L 353.522618 247.52035 
L 363.992727 248.624774 
L 374.138182 249.5232 
L 374.138182 249.5232 
" clip-path="url(#pa685ccc85a)" style="fill: none; stroke: #7f7f7f; stroke-width: 1.5; stroke-linecap: square"/>
   </g>
   <g id="line2d_30">
    <path d="M 293.055709 133.427469 
L 293.2992 169.11856 
L 293.623855 183.639526 
L 294.029673 192.697159 
L 294.516655 199.200361 
L 295.165964 204.805606 
L 295.896436 209.115544 
L 296.708073 212.600854 
L 297.600873 215.515116 
L 298.656 218.194897 
L 299.792291 220.484332 
L 301.090909 222.598471 
L 302.551855 224.539656 
L 304.175127 226.318845 
L 305.960727 227.950311 
L 307.989818 229.50622 
L 310.343564 231.022964 
L 313.021964 232.474978 
L 316.106182 233.88371 
L 319.596218 235.229143 
L 323.6544 236.550469 
L 328.361891 237.843293 
L 333.799855 239.102171 
L 340.211782 240.351008 
L 347.678836 241.571843 
L 356.444509 242.772905 
L 366.752291 243.953903 
L 374.138182 244.6848 
L 374.138182 244.6848 
" clip-path="url(#pa685ccc85a)" style="fill: none; stroke: #bcbd22; stroke-width: 1.5; stroke-linecap: square"/>
   </g>
   <g id="line2d_31">
    <path d="M 293.055709 114.681902 
L 293.2992 154.83438 
L 293.623855 171.170467 
L 294.029673 181.360304 
L 294.516655 188.676406 
L 295.165964 194.982307 
L 295.896436 199.830987 
L 296.708073 203.751961 
L 297.600873 207.030505 
L 298.656 210.045259 
L 299.792291 212.620874 
L 301.090909 214.99928 
L 302.470691 217.072541 
L 304.0128 219.000656 
L 305.7984 220.866085 
L 307.746327 222.575864 
L 309.937745 224.203109 
L 312.453818 225.786555 
L 315.294545 227.303755 
L 318.541091 228.777455 
L 322.193455 230.188758 
L 326.413964 231.577694 
L 331.283782 232.940622 
L 336.884073 234.272367 
L 343.377164 235.582754 
L 350.925382 236.873144 
L 359.691055 238.140291 
L 369.917673 239.38808 
L 374.138182 239.8464 
L 374.138182 239.8464 
" clip-path="url(#pa685ccc85a)" style="fill: none; stroke: #17becf; stroke-width: 1.5; stroke-linecap: square"/>
   </g>
   <g id="patch_8">
    <path d="M 252.392727 307.584 
L 252.392727 41.472 
" style="fill: none; stroke: #000000; stroke-width: 0.8; stroke-linejoin: miter; stroke-linecap: square"/>
   </g>
   <g id="patch_9">
    <path d="M 414.72 307.584 
L 414.72 41.472 
" style="fill: none; stroke: #000000; stroke-width: 0.8; stroke-linejoin: miter; stroke-linecap: square"/>
   </g>
   <g id="patch_10">
    <path d="M 252.392727 307.584 
L 414.72 307.584 
" style="fill: none; stroke: #000000; stroke-width: 0.8; stroke-linejoin: miter; stroke-linecap: square"/>
   </g>
   <g id="patch_11">
    <path d="M 252.392727 41.472 
L 414.72 41.472 
" style="fill: none; stroke: #000000; stroke-width: 0.8; stroke-linejoin: miter; stroke-linecap: square"/>
   </g>
  </g>
  <g id="text_22">
   <!-- t = 0.2 -->
   <g transform="translate(209.664375 16.030125) scale(0.12 -0.12)">
    <defs>
     <path id="DejaVuSans-74" d="M 1172 4494 
L 1172 3500 
L 2356 3500 
L 2356 3053 
L 1172 3053 
L 1172 1153 
Q 1172 725 1289 603 
Q 1406 481 1766 481 
L 2356 481 
L 2356 0 
L 1766 0 
Q 1100 0 847 248 
Q 594 497 594 1153 
L 594 3053 
L 172 3053 
L 172 3500 
L 594 3500 
L 594 4494 
L 1172 4494 
z
" transform="scale(0.015625)"/>
     <path id="DejaVuSans-20" transform="scale(0.015625)"/>
     <path id="DejaVuSans-3d" d="M 678 2906 
L 4684 2906 
L 4684 2381 
L 678 2381 
L 678 2906 
z
M 678 1631 
L 4684 1631 
L 4684 1100 
L 678 1100 
L 678 1631 
z
" transform="scale(0.015625)"/>
    </defs>
    <use xlink:href="#DejaVuSans-74"/>
    <use xlink:href="#DejaVuSans-20" x="39.208984"/>
    <use xlink:href="#DejaVuSans-3d" x="70.996094"/>
    <use xlink:href="#DejaVuSans-20" x="154.785156"/>
    <use xlink:href="#DejaVuSans-30" x="186.572266"/>
    <use xlink:href="#DejaVuSans-2e" x="250.195312"/>
    <use xlink:href="#DejaVuSans-32" x="281.982422"/>
   </g>
  </g>
 </g>
 <defs>
  <clipPath id="p0127822c5e">
   <rect x="57.6" y="41.472" width="162.327273" height="266.112"/>
  </clipPath>
  <clipPath id="pa685ccc85a">
   <rect x="252.392727" y="41.472" width="162.327273" height="266.112"/>
  </clipPath>
 </defs>
</svg>
