<?xml version="1.0" encoding="utf-8" standalone="no"?>
<!DOCTYPE svg PUBLIC "-//W3C//DTD SVG 1.1//EN"
  "http://www.w3.org/Graphics/SVG/1.1/DTD/svg11.dtd">
<svg xmlns:xlink="http://www.w3.org/1999/xlink" width="460.8pt" height="345.6pt" viewBox="0 0 460.8 345.6" xmlns="http://www.w3.org/2000/svg" version="1.1">
 <metadata>
  <rdf:RDF xmlns:dc="http://purl.org/dc/elements/1.1/" xmlns:cc="http://creativecommons.org/ns#" xmlns:rdf="http://www.w3.org/1999/02/22-rdf-syntax-ns#">
   <cc:Work>
    <dc:type rdf:resource="http://purl.org/dc/dcmitype/StillImage"/>
    <dc:date>2023-01-17T23:39:01.456153</dc:date>
    <dc:format>image/svg+xml</dc:format>
    <dc:creator>
     <cc:Agent>
      <dc:title>Matplotlib v3.6.3, https://matplotlib.org/</dc:title>
     </cc:Agent>
    </dc:creator>
   </cc:Work>
  </rdf:RDF>
 </metadata>
 <defs>
  <style type="text/css">*{stroke-linejoin: round; stroke-linecap: butt}</style>
 </defs>
 <g id="figure_1">
  <g id="patch_1">
   <path d="M 0 345.6 
L 460.8 345.6 
L 460.8 0 
L 0 0 
z
" style="fill: #ffffff"/>
  </g>
  <g id="axes_1">
   <g id="patch_2">
    <path d="M 57.6 307.584 
L 219.927273 307.584 
L 219.927273 41.472 
L 57.6 41.472 
z
" style="fill: #ffffff"/>
   </g>
   <g id="Quiver_1">
    <path d="M 65.213961 295.113091 
L 73.66133 300.418167 
L 73.757319 299.432901 
L 76.800063 302.912113 
L 72.344627 301.682355 
L 73.190433 301.167985 
L 64.743064 295.862909 
L 65.213961 295.113091 
" clip-path="url(#pbe73d0ce4e)"/>
    <path d="M 80.008904 295.139771 
L 86.332082 300.103586 
L 86.530586 299.133761 
L 89.192778 302.912113 
L 84.890387 301.223136 
L 85.785349 300.800044 
L 79.462171 295.836229 
L 80.008904 295.139771 
" clip-path="url(#pbe73d0ce4e)"/>
    <path d="M 94.812664 295.182177 
L 99.153191 299.725372 
L 99.487573 298.793625 
L 101.585492 302.912113 
L 97.56696 300.62856 
L 98.512987 300.337017 
L 94.17246 295.793823 
L 94.812664 295.182177 
" clip-path="url(#pbe73d0ce4e)"/>
    <path d="M 109.622989 295.25017 
L 112.211137 299.313659 
L 112.720112 298.464596 
L 113.978207 302.912113 
L 110.479696 299.891578 
L 111.464331 299.78932 
L 108.876184 295.72583 
L 109.622989 295.25017 
" clip-path="url(#pbe73d0ce4e)"/>
    <path d="M 124.428448 295.353661 
L 125.583703 298.981249 
L 126.293035 298.290734 
L 126.370922 302.912113 
L 123.762019 299.09677 
L 124.74003 299.249928 
L 123.584775 295.622339 
L 124.428448 295.353661 
" clip-path="url(#pbe73d0ce4e)"/>
    <path d="M 139.206347 295.488 
L 139.206347 298.927717 
L 140.091769 298.485006 
L 138.763636 302.912113 
L 137.435504 298.485006 
L 138.320926 298.927717 
L 138.320926 295.488 
L 139.206347 295.488 
" clip-path="url(#pbe73d0ce4e)"/>
    <path d="M 153.942497 295.622339 
L 152.787242 299.249928 
L 153.765254 299.09677 
L 151.156351 302.912113 
L 151.234237 298.290734 
L 151.94357 298.981249 
L 153.098825 295.353661 
L 153.942497 295.622339 
" clip-path="url(#pbe73d0ce4e)"/>
    <path d="M 168.651089 295.72583 
L 166.062941 299.78932 
L 167.047577 299.891578 
L 163.549066 302.912113 
L 164.807161 298.464596 
L 165.316136 299.313659 
L 167.904283 295.25017 
L 168.651089 295.72583 
" clip-path="url(#pbe73d0ce4e)"/>
    <path d="M 183.354813 295.793823 
L 179.014286 300.337017 
L 179.960313 300.62856 
L 175.94178 302.912113 
L 178.0397 298.793625 
L 178.374082 299.725372 
L 182.714609 295.182177 
L 183.354813 295.793823 
" clip-path="url(#pbe73d0ce4e)"/>
    <path d="M 198.065102 295.836229 
L 191.741924 300.800044 
L 192.636886 301.223136 
L 188.334495 302.912113 
L 190.996687 299.133761 
L 191.195191 300.103586 
L 197.518369 295.139771 
L 198.065102 295.836229 
" clip-path="url(#pbe73d0ce4e)"/>
    <path d="M 212.784209 295.862909 
L 204.336839 301.167985 
L 205.182646 301.682355 
L 200.72721 302.912113 
L 203.769954 299.432901 
L 203.865942 300.418167 
L 212.313312 295.113091 
L 212.784209 295.862909 
" clip-path="url(#pbe73d0ce4e)"/>
    <path d="M 65.177262 270.90041 
L 73.438501 275.050957 
L 73.44041 274.061028 
L 76.800063 277.235291 
L 72.247914 276.434568 
L 73.041003 275.842137 
L 64.779763 271.69159 
L 65.177262 270.90041 
" clip-path="url(#pbe73d0ce4e)"/>
    <path d="M 79.970986 270.921091 
L 86.054045 274.741345 
L 86.150033 273.756078 
L 89.192778 277.235291 
L 84.737342 276.005532 
L 85.583148 275.491163 
L 79.500089 271.670909 
L 79.970986 270.921091 
" clip-path="url(#pbe73d0ce4e)"/>
    <path d="M 94.776783 270.956572 
L 98.814864 274.337873 
L 99.043878 273.374797 
L 101.585492 277.235291 
L 97.338552 275.411363 
L 98.246422 275.016729 
L 94.208341 271.635428 
L 94.776783 270.956572 
" clip-path="url(#pbe73d0ce4e)"/>
    <path d="M 109.595934 271.020253 
L 111.842828 273.842421 
L 112.259775 272.944579 
L 113.978207 277.235291 
L 110.181693 274.599063 
L 111.150134 274.393915 
L 108.90324 271.571747 
L 109.595934 271.020253 
" clip-path="url(#pbe73d0ce4e)"/>
    <path d="M 124.41793 271.132263 
L 125.308603 273.369687 
L 125.967502 272.630894 
L 126.370922 277.235291 
L 123.499592 273.613319 
L 124.485966 273.697162 
L 123.595293 271.459737 
L 124.41793 271.132263 
" clip-path="url(#pbe73d0ce4e)"/>
    <path d="M 139.206347 271.296 
L 139.206347 273.250894 
L 140.091769 272.808183 
L 138.763636 277.235291 
L 137.435504 272.808183 
L 138.320926 273.250894 
L 138.320926 271.296 
L 139.206347 271.296 
" clip-path="url(#pbe73d0ce4e)"/>
    <path d="M 153.93198 271.459737 
L 153.041307 273.697162 
L 154.027681 273.613319 
L 151.156351 277.235291 
L 151.55977 272.630894 
L 152.21867 273.369687 
L 153.109343 271.132263 
L 153.93198 271.459737 
" clip-path="url(#pbe73d0ce4e)"/>
    <path d="M 168.624033 271.571747 
L 166.377138 274.393915 
L 167.34558 274.599063 
L 163.549066 277.235291 
L 165.267498 272.944579 
L 165.684444 273.842421 
L 167.931339 271.020253 
L 168.624033 271.571747 
" clip-path="url(#pbe73d0ce4e)"/>
    <path d="M 183.318932 271.635428 
L 179.280851 275.016729 
L 180.188721 275.411363 
L 175.94178 277.235291 
L 178.483395 273.374797 
L 178.712409 274.337873 
L 182.75049 270.956572 
L 183.318932 271.635428 
" clip-path="url(#pbe73d0ce4e)"/>
    <path d="M 198.027184 271.670909 
L 191.944125 275.491163 
L 192.789931 276.005532 
L 188.334495 277.235291 
L 191.37724 273.756078 
L 191.473228 274.741345 
L 197.556287 270.921091 
L 198.027184 271.670909 
" clip-path="url(#pbe73d0ce4e)"/>
    <path d="M 212.74751 271.69159 
L 204.48627 275.842137 
L 205.279358 276.434568 
L 200.72721 277.235291 
L 204.086863 274.061028 
L 204.088771 275.050957 
L 212.350011 270.90041 
L 212.74751 271.69159 
" clip-path="url(#pbe73d0ce4e)"/>
    <path d="M 65.134615 246.689724 
L 73.227682 249.739265 
L 73.125611 248.75461 
L 76.800063 251.558468 
L 72.188994 251.240266 
L 72.915476 250.567817 
L 64.822409 247.518276 
L 65.134615 246.689724 
" clip-path="url(#pbe73d0ce4e)"/>
    <path d="M 79.924181 246.703492 
L 85.776853 249.460167 
L 85.753632 248.470508 
L 89.192778 251.558468 
L 84.62177 250.873554 
L 85.399565 250.261183 
L 79.546894 247.504508 
L 79.924181 246.703492 
" clip-path="url(#pbe73d0ce4e)"/>
    <path d="M 94.728011 246.729091 
L 98.44676 249.064522 
L 98.542748 248.079255 
L 101.585492 251.558468 
L 97.130056 250.328709 
L 97.975863 249.81434 
L 94.257113 247.478909 
L 94.728011 246.729091 
" clip-path="url(#pbe73d0ce4e)"/>
    <path d="M 109.55315 246.781754 
L 111.381558 248.504156 
L 111.666438 247.556102 
L 113.978207 251.558468 
L 109.84506 249.489576 
L 110.774432 249.148648 
L 108.946024 247.426246 
L 109.55315 246.781754 
" clip-path="url(#pbe73d0ce4e)"/>
    <path d="M 124.397654 246.896446 
L 124.893973 247.831534 
L 125.468503 247.025383 
L 126.370922 251.558468 
L 123.12225 248.27071 
L 124.111889 248.246643 
L 123.615569 247.311554 
L 124.397654 246.896446 
" clip-path="url(#pbe73d0ce4e)"/>
    <path d="M 139.206347 247.104 
L 139.206347 247.574071 
L 140.091769 247.131361 
L 138.763636 251.558468 
L 137.435504 247.131361 
L 138.320926 247.574071 
L 138.320926 247.104 
L 139.206347 247.104 
" clip-path="url(#pbe73d0ce4e)"/>
    <path d="M 153.911703 247.311554 
L 153.415384 248.246643 
L 154.405022 248.27071 
L 151.156351 251.558468 
L 152.05877 247.025383 
L 152.633299 247.831534 
L 153.129619 246.896446 
L 153.911703 247.311554 
" clip-path="url(#pbe73d0ce4e)"/>
    <path d="M 168.581249 247.426246 
L 166.752841 249.148648 
L 167.682213 249.489576 
L 163.549066 251.558468 
L 165.860835 247.556102 
L 166.145715 248.504156 
L 167.974123 246.781754 
L 168.581249 247.426246 
" clip-path="url(#pbe73d0ce4e)"/>
    <path d="M 183.270159 247.478909 
L 179.55141 249.81434 
L 180.397216 250.328709 
L 175.94178 251.558468 
L 178.984525 248.079255 
L 179.080513 249.064522 
L 182.799262 246.729091 
L 183.270159 247.478909 
" clip-path="url(#pbe73d0ce4e)"/>
    <path d="M 197.980379 247.504508 
L 192.127707 250.261183 
L 192.905502 250.873554 
L 188.334495 251.558468 
L 191.77364 248.470508 
L 191.75042 249.460167 
L 197.603092 246.703492 
L 197.980379 247.504508 
" clip-path="url(#pbe73d0ce4e)"/>
    <path d="M 212.704863 247.518276 
L 204.611797 250.567817 
L 205.338279 251.240266 
L 200.72721 251.558468 
L 204.401661 248.75461 
L 204.299591 249.739265 
L 212.392657 246.689724 
L 212.704863 247.518276 
" clip-path="url(#pbe73d0ce4e)"/>
    <path d="M 65.086373 222.48263 
L 73.04359 224.481531 
L 72.829941 223.51493 
L 76.800063 225.881645 
L 72.182778 226.091152 
L 72.827869 225.340272 
L 64.870652 223.34137 
L 65.086373 222.48263 
" clip-path="url(#pbe73d0ce4e)"/>
    <path d="M 79.868167 222.489623 
L 85.524016 224.265603 
L 85.366898 223.288219 
L 89.192778 225.881645 
L 84.571121 225.82248 
L 85.258757 225.110356 
L 79.602908 223.334377 
L 79.868167 222.489623 
" clip-path="url(#pbe73d0ce4e)"/>
    <path d="M 94.663535 222.503636 
L 98.081189 223.934528 
L 98.01477 222.946828 
L 101.585492 225.881645 
L 96.988934 225.397012 
L 97.739243 224.751256 
L 94.321589 223.320364 
L 94.663535 222.503636 
" clip-path="url(#pbe73d0ce4e)"/>
    <path d="M 109.485035 222.537091 
L 110.839474 223.387699 
L 110.935462 222.402433 
L 113.978207 225.881645 
L 109.522771 224.651887 
L 110.368577 224.137517 
L 109.014138 223.286909 
L 109.485035 222.537091 
" clip-path="url(#pbe73d0ce4e)"/>
    <path d="M 124.303576 222.675569 
L 124.540007 222.972534 
L 124.897505 222.202707 
L 126.370922 225.881645 
L 123.115718 223.621293 
L 123.946078 223.445396 
L 123.709647 223.148431 
L 124.303576 222.675569 
" clip-path="url(#pbe73d0ce4e)"/>
    <path d="M 139.060601 222.912 
L 139.060601 223.208965 
L 139.65453 222.912 
L 138.763636 225.881645 
L 137.872743 222.912 
L 138.466672 223.208965 
L 138.466672 222.912 
L 139.060601 222.912 
" clip-path="url(#pbe73d0ce4e)"/>
    <path d="M 153.817626 223.148431 
L 153.581195 223.445396 
L 154.411555 223.621293 
L 151.156351 225.881645 
L 152.629768 222.202707 
L 152.987266 222.972534 
L 153.223697 222.675569 
L 153.817626 223.148431 
" clip-path="url(#pbe73d0ce4e)"/>
    <path d="M 168.513135 223.286909 
L 167.158695 224.137517 
L 168.004502 224.651887 
L 163.549066 225.881645 
L 166.59181 222.402433 
L 166.687798 223.387699 
L 168.042237 222.537091 
L 168.513135 223.286909 
" clip-path="url(#pbe73d0ce4e)"/>
    <path d="M 183.205683 223.320364 
L 179.788029 224.751256 
L 180.538338 225.397012 
L 175.94178 225.881645 
L 179.512503 222.946828 
L 179.446084 223.934528 
L 182.863738 222.503636 
L 183.205683 223.320364 
" clip-path="url(#pbe73d0ce4e)"/>
    <path d="M 197.924365 223.334377 
L 192.268516 225.110356 
L 192.956152 225.82248 
L 188.334495 225.881645 
L 192.160375 223.288219 
L 192.003257 224.265603 
L 197.659106 222.489623 
L 197.924365 223.334377 
" clip-path="url(#pbe73d0ce4e)"/>
    <path d="M 212.656621 223.34137 
L 204.699403 225.340272 
L 205.344495 226.091152 
L 200.72721 225.881645 
L 204.697332 223.51493 
L 204.483683 224.481531 
L 212.4409 222.48263 
L 212.656621 223.34137 
" clip-path="url(#pbe73d0ce4e)"/>
    <path d="M 65.033685 198.280741 
L 72.901901 199.269012 
L 72.572986 198.335321 
L 76.800063 200.204823 
L 72.241952 200.970878 
L 72.791556 200.147531 
L 64.92334 199.159259 
L 65.033685 198.280741 
" clip-path="url(#pbe73d0ce4e)"/>
    <path d="M 79.804203 198.282647 
L 85.325266 199.149475 
L 85.025245 198.206102 
L 89.192778 200.204823 
L 84.613248 200.830221 
L 85.187933 200.024181 
L 79.666871 199.157353 
L 79.804203 198.282647 
" clip-path="url(#pbe73d0ce4e)"/>
    <path d="M 94.583272 198.286682 
L 97.776341 198.955114 
L 97.524443 197.997768 
L 101.585492 200.204823 
L 96.980182 200.597676 
L 97.59492 199.82175 
L 94.401852 199.153318 
L 94.583272 198.286682 
" clip-path="url(#pbe73d0ce4e)"/>
    <path d="M 109.382216 198.297623 
L 110.309445 198.58878 
L 110.152327 197.611397 
L 113.978207 200.204823 
L 109.35655 200.145658 
L 110.044186 199.433534 
L 109.116957 199.142377 
L 109.382216 198.297623 
" clip-path="url(#pbe73d0ce4e)"/>
    <path d="M 124.155094 198.483569 
L 124.391525 198.632051 
L 124.452058 198.010707 
L 126.370922 200.204823 
L 123.561165 199.429293 
L 124.09456 199.104913 
L 123.858129 198.956431 
L 124.155094 198.483569 
" clip-path="url(#pbe73d0ce4e)"/>
    <path d="M 138.912119 198.72 
L 138.912119 198.868482 
L 139.209083 198.72 
L 138.763636 200.204823 
L 138.31819 198.72 
L 138.615154 198.868482 
L 138.615154 198.72 
L 138.912119 198.72 
" clip-path="url(#pbe73d0ce4e)"/>
    <path d="M 153.669143 198.956431 
L 153.432712 199.104913 
L 153.966108 199.429293 
L 151.156351 200.204823 
L 153.075214 198.010707 
L 153.135748 198.632051 
L 153.372179 198.483569 
L 153.669143 198.956431 
" clip-path="url(#pbe73d0ce4e)"/>
    <path d="M 168.410315 199.142377 
L 167.483087 199.433534 
L 168.170723 200.145658 
L 163.549066 200.204823 
L 167.374946 197.611397 
L 167.217828 198.58878 
L 168.145056 198.297623 
L 168.410315 199.142377 
" clip-path="url(#pbe73d0ce4e)"/>
    <path d="M 183.125421 199.153318 
L 179.932352 199.82175 
L 180.54709 200.597676 
L 175.94178 200.204823 
L 180.00283 197.997768 
L 179.750932 198.955114 
L 182.944001 198.286682 
L 183.125421 199.153318 
" clip-path="url(#pbe73d0ce4e)"/>
    <path d="M 197.860402 199.157353 
L 192.339339 200.024181 
L 192.914025 200.830221 
L 188.334495 200.204823 
L 192.502028 198.206102 
L 192.202007 199.149475 
L 197.723069 198.282647 
L 197.860402 199.157353 
" clip-path="url(#pbe73d0ce4e)"/>
    <path d="M 212.603933 199.159259 
L 204.735716 200.147531 
L 205.285321 200.970878 
L 200.72721 200.204823 
L 204.954287 198.335321 
L 204.625372 199.269012 
L 212.493588 198.280741 
L 212.603933 199.159259 
" clip-path="url(#pbe73d0ce4e)"/>
    <path d="M 64.978512 174.085289 
L 72.815666 174.085289 
L 72.372956 173.199868 
L 76.800063 174.528 
L 72.372956 175.856132 
L 72.815666 174.970711 
L 64.978512 174.970711 
L 64.978512 174.085289 
" clip-path="url(#pbe73d0ce4e)"/>
    <path d="M 79.735537 174.085289 
L 85.208381 174.085289 
L 84.76567 173.199868 
L 89.192778 174.528 
L 84.76567 175.856132 
L 85.208381 174.970711 
L 79.735537 174.970711 
L 79.735537 174.085289 
" clip-path="url(#pbe73d0ce4e)"/>
    <path d="M 94.492562 174.085289 
L 97.601096 174.085289 
L 97.158385 173.199868 
L 101.585492 174.528 
L 97.158385 175.856132 
L 97.601096 174.970711 
L 94.492562 174.970711 
L 94.492562 174.085289 
" clip-path="url(#pbe73d0ce4e)"/>
    <path d="M 109.249587 174.085289 
L 109.99381 174.085289 
L 109.5511 173.199868 
L 113.978207 174.528 
L 109.5511 175.856132 
L 109.99381 174.970711 
L 109.249587 174.970711 
L 109.249587 174.085289 
" clip-path="url(#pbe73d0ce4e)"/>
    <path d="M 124.006612 174.291569 
L 124.243043 174.291569 
L 124.006612 173.818707 
L 126.370922 174.528 
L 124.006612 175.237293 
L 124.243043 174.764431 
L 124.006612 174.764431 
L 124.006612 174.291569 
" clip-path="url(#pbe73d0ce4e)"/>
    <path d="M 139.206347 174.528 
L 138.984992 174.144601 
L 138.542281 174.144601 
L 138.320926 174.528 
L 138.542281 174.911399 
L 138.984992 174.911399 
L 139.206347 174.528 
L 138.984992 174.144601 
" clip-path="url(#pbe73d0ce4e)"/>
    <path d="M 153.520661 174.764431 
L 153.28423 174.764431 
L 153.520661 175.237293 
L 151.156351 174.528 
L 153.520661 173.818707 
L 153.28423 174.291569 
L 153.520661 174.291569 
L 153.520661 174.764431 
" clip-path="url(#pbe73d0ce4e)"/>
    <path d="M 168.277686 174.970711 
L 167.533462 174.970711 
L 167.976173 175.856132 
L 163.549066 174.528 
L 167.976173 173.199868 
L 167.533462 174.085289 
L 168.277686 174.085289 
L 168.277686 174.970711 
" clip-path="url(#pbe73d0ce4e)"/>
    <path d="M 183.034711 174.970711 
L 179.926177 174.970711 
L 180.368888 175.856132 
L 175.94178 174.528 
L 180.368888 173.199868 
L 179.926177 174.085289 
L 183.034711 174.085289 
L 183.034711 174.970711 
" clip-path="url(#pbe73d0ce4e)"/>
    <path d="M 197.791736 174.970711 
L 192.318892 174.970711 
L 192.761602 175.856132 
L 188.334495 174.528 
L 192.761602 173.199868 
L 192.318892 174.085289 
L 197.791736 174.085289 
L 197.791736 174.970711 
" clip-path="url(#pbe73d0ce4e)"/>
    <path d="M 212.54876 174.970711 
L 204.711606 174.970711 
L 205.154317 175.856132 
L 200.72721 174.528 
L 205.154317 173.199868 
L 204.711606 174.085289 
L 212.54876 174.085289 
L 212.54876 174.970711 
" clip-path="url(#pbe73d0ce4e)"/>
    <path d="M 64.92334 149.896741 
L 72.791556 148.908469 
L 72.241952 148.085122 
L 76.800063 148.851177 
L 72.572986 150.720679 
L 72.901901 149.786988 
L 65.033685 150.775259 
L 64.92334 149.896741 
" clip-path="url(#pbe73d0ce4e)"/>
    <path d="M 79.666871 149.898647 
L 85.187933 149.031819 
L 84.613248 148.225779 
L 89.192778 148.851177 
L 85.025245 150.849898 
L 85.325266 149.906525 
L 79.804203 150.773353 
L 79.666871 149.898647 
" clip-path="url(#pbe73d0ce4e)"/>
    <path d="M 94.401852 149.902682 
L 97.59492 149.23425 
L 96.980182 148.458324 
L 101.585492 148.851177 
L 97.524443 151.058232 
L 97.776341 150.100886 
L 94.583272 150.769318 
L 94.401852 149.902682 
" clip-path="url(#pbe73d0ce4e)"/>
    <path d="M 109.116957 149.913623 
L 110.044186 149.622466 
L 109.35655 148.910342 
L 113.978207 148.851177 
L 110.152327 151.444603 
L 110.309445 150.46722 
L 109.382216 150.758377 
L 109.116957 149.913623 
" clip-path="url(#pbe73d0ce4e)"/>
    <path d="M 123.858129 150.099569 
L 124.09456 149.951087 
L 123.561165 149.626707 
L 126.370922 148.851177 
L 124.452058 151.045293 
L 124.391525 150.423949 
L 124.155094 150.572431 
L 123.858129 150.099569 
" clip-path="url(#pbe73d0ce4e)"/>
    <path d="M 138.615154 150.336 
L 138.615154 150.187518 
L 138.31819 150.336 
L 138.763636 148.851177 
L 139.209083 150.336 
L 138.912119 150.187518 
L 138.912119 150.336 
L 138.615154 150.336 
" clip-path="url(#pbe73d0ce4e)"/>
    <path d="M 153.372179 150.572431 
L 153.135748 150.423949 
L 153.075214 151.045293 
L 151.156351 148.851177 
L 153.966108 149.626707 
L 153.432712 149.951087 
L 153.669143 150.099569 
L 153.372179 150.572431 
" clip-path="url(#pbe73d0ce4e)"/>
    <path d="M 168.145056 150.758377 
L 167.217828 150.46722 
L 167.374946 151.444603 
L 163.549066 148.851177 
L 168.170723 148.910342 
L 167.483087 149.622466 
L 168.410315 149.913623 
L 168.145056 150.758377 
" clip-path="url(#pbe73d0ce4e)"/>
    <path d="M 182.944001 150.769318 
L 179.750932 150.100886 
L 180.00283 151.058232 
L 175.94178 148.851177 
L 180.54709 148.458324 
L 179.932352 149.23425 
L 183.125421 149.902682 
L 182.944001 150.769318 
" clip-path="url(#pbe73d0ce4e)"/>
    <path d="M 197.723069 150.773353 
L 192.202007 149.906525 
L 192.502028 150.849898 
L 188.334495 148.851177 
L 192.914025 148.225779 
L 192.339339 149.031819 
L 197.860402 149.898647 
L 197.723069 150.773353 
" clip-path="url(#pbe73d0ce4e)"/>
    <path d="M 212.493588 150.775259 
L 204.625372 149.786988 
L 204.954287 150.720679 
L 200.72721 148.851177 
L 205.285321 148.085122 
L 204.735716 148.908469 
L 212.603933 149.896741 
L 212.493588 150.775259 
" clip-path="url(#pbe73d0ce4e)"/>
    <path d="M 64.870652 125.71463 
L 72.827869 123.715728 
L 72.182778 122.964848 
L 76.800063 123.174355 
L 72.829941 125.54107 
L 73.04359 124.574469 
L 65.086373 126.57337 
L 64.870652 125.71463 
" clip-path="url(#pbe73d0ce4e)"/>
    <path d="M 79.602908 125.721623 
L 85.258757 123.945644 
L 84.571121 123.23352 
L 89.192778 123.174355 
L 85.366898 125.767781 
L 85.524016 124.790397 
L 79.868167 126.566377 
L 79.602908 125.721623 
" clip-path="url(#pbe73d0ce4e)"/>
    <path d="M 94.321589 125.735636 
L 97.739243 124.304744 
L 96.988934 123.658988 
L 101.585492 123.174355 
L 98.01477 126.109172 
L 98.081189 125.121472 
L 94.663535 126.552364 
L 94.321589 125.735636 
" clip-path="url(#pbe73d0ce4e)"/>
    <path d="M 109.014138 125.769091 
L 110.368577 124.918483 
L 109.522771 124.404113 
L 113.978207 123.174355 
L 110.935462 126.653567 
L 110.839474 125.668301 
L 109.485035 126.518909 
L 109.014138 125.769091 
" clip-path="url(#pbe73d0ce4e)"/>
    <path d="M 123.709647 125.907569 
L 123.946078 125.610604 
L 123.115718 125.434707 
L 126.370922 123.174355 
L 124.897505 126.853293 
L 124.540007 126.083466 
L 124.303576 126.380431 
L 123.709647 125.907569 
" clip-path="url(#pbe73d0ce4e)"/>
    <path d="M 138.466672 126.144 
L 138.466672 125.847035 
L 137.872743 126.144 
L 138.763636 123.174355 
L 139.65453 126.144 
L 139.060601 125.847035 
L 139.060601 126.144 
L 138.466672 126.144 
" clip-path="url(#pbe73d0ce4e)"/>
    <path d="M 153.223697 126.380431 
L 152.987266 126.083466 
L 152.629768 126.853293 
L 151.156351 123.174355 
L 154.411555 125.434707 
L 153.581195 125.610604 
L 153.817626 125.907569 
L 153.223697 126.380431 
" clip-path="url(#pbe73d0ce4e)"/>
    <path d="M 168.042237 126.518909 
L 166.687798 125.668301 
L 166.59181 126.653567 
L 163.549066 123.174355 
L 168.004502 124.404113 
L 167.158695 124.918483 
L 168.513135 125.769091 
L 168.042237 126.518909 
" clip-path="url(#pbe73d0ce4e)"/>
    <path d="M 182.863738 126.552364 
L 179.446084 125.121472 
L 179.512503 126.109172 
L 175.94178 123.174355 
L 180.538338 123.658988 
L 179.788029 124.304744 
L 183.205683 125.735636 
L 182.863738 126.552364 
" clip-path="url(#pbe73d0ce4e)"/>
    <path d="M 197.659106 126.566377 
L 192.003257 124.790397 
L 192.160375 125.767781 
L 188.334495 123.174355 
L 192.956152 123.23352 
L 192.268516 123.945644 
L 197.924365 125.721623 
L 197.659106 126.566377 
" clip-path="url(#pbe73d0ce4e)"/>
    <path d="M 212.4409 126.57337 
L 204.483683 124.574469 
L 204.697332 125.54107 
L 200.72721 123.174355 
L 205.344495 122.964848 
L 204.699403 123.715728 
L 212.656621 125.71463 
L 212.4409 126.57337 
" clip-path="url(#pbe73d0ce4e)"/>
    <path d="M 64.822409 101.537724 
L 72.915476 98.488183 
L 72.188994 97.815734 
L 76.800063 97.497532 
L 73.125611 100.30139 
L 73.227682 99.316735 
L 65.134615 102.366276 
L 64.822409 101.537724 
" clip-path="url(#pbe73d0ce4e)"/>
    <path d="M 79.546894 101.551492 
L 85.399565 98.794817 
L 84.62177 98.182446 
L 89.192778 97.497532 
L 85.753632 100.585492 
L 85.776853 99.595833 
L 79.924181 102.352508 
L 79.546894 101.551492 
" clip-path="url(#pbe73d0ce4e)"/>
    <path d="M 94.257113 101.577091 
L 97.975863 99.24166 
L 97.130056 98.727291 
L 101.585492 97.497532 
L 98.542748 100.976745 
L 98.44676 99.991478 
L 94.728011 102.326909 
L 94.257113 101.577091 
" clip-path="url(#pbe73d0ce4e)"/>
    <path d="M 108.946024 101.629754 
L 110.774432 99.907352 
L 109.84506 99.566424 
L 113.978207 97.497532 
L 111.666438 101.499898 
L 111.381558 100.551844 
L 109.55315 102.274246 
L 108.946024 101.629754 
" clip-path="url(#pbe73d0ce4e)"/>
    <path d="M 123.615569 101.744446 
L 124.111889 100.809357 
L 123.12225 100.78529 
L 126.370922 97.497532 
L 125.468503 102.030617 
L 124.893973 101.224466 
L 124.397654 102.159554 
L 123.615569 101.744446 
" clip-path="url(#pbe73d0ce4e)"/>
    <path d="M 138.320926 101.952 
L 138.320926 101.481929 
L 137.435504 101.924639 
L 138.763636 97.497532 
L 140.091769 101.924639 
L 139.206347 101.481929 
L 139.206347 101.952 
L 138.320926 101.952 
" clip-path="url(#pbe73d0ce4e)"/>
    <path d="M 153.129619 102.159554 
L 152.633299 101.224466 
L 152.05877 102.030617 
L 151.156351 97.497532 
L 154.405022 100.78529 
L 153.415384 100.809357 
L 153.911703 101.744446 
L 153.129619 102.159554 
" clip-path="url(#pbe73d0ce4e)"/>
    <path d="M 167.974123 102.274246 
L 166.145715 100.551844 
L 165.860835 101.499898 
L 163.549066 97.497532 
L 167.682213 99.566424 
L 166.752841 99.907352 
L 168.581249 101.629754 
L 167.974123 102.274246 
" clip-path="url(#pbe73d0ce4e)"/>
    <path d="M 182.799262 102.326909 
L 179.080513 99.991478 
L 178.984525 100.976745 
L 175.94178 97.497532 
L 180.397216 98.727291 
L 179.55141 99.24166 
L 183.270159 101.577091 
L 182.799262 102.326909 
" clip-path="url(#pbe73d0ce4e)"/>
    <path d="M 197.603092 102.352508 
L 191.75042 99.595833 
L 191.77364 100.585492 
L 188.334495 97.497532 
L 192.905502 98.182446 
L 192.127707 98.794817 
L 197.980379 101.551492 
L 197.603092 102.352508 
" clip-path="url(#pbe73d0ce4e)"/>
    <path d="M 212.392657 102.366276 
L 204.299591 99.316735 
L 204.401661 100.30139 
L 200.72721 97.497532 
L 205.338279 97.815734 
L 204.611797 98.488183 
L 212.704863 101.537724 
L 212.392657 102.366276 
" clip-path="url(#pbe73d0ce4e)"/>
    <path d="M 64.779763 77.36441 
L 73.041003 73.213863 
L 72.247914 72.621432 
L 76.800063 71.820709 
L 73.44041 74.994972 
L 73.438501 74.005043 
L 65.177262 78.15559 
L 64.779763 77.36441 
" clip-path="url(#pbe73d0ce4e)"/>
    <path d="M 79.500089 77.385091 
L 85.583148 73.564837 
L 84.737342 73.050468 
L 89.192778 71.820709 
L 86.150033 75.299922 
L 86.054045 74.314655 
L 79.970986 78.134909 
L 79.500089 77.385091 
" clip-path="url(#pbe73d0ce4e)"/>
    <path d="M 94.208341 77.420572 
L 98.246422 74.039271 
L 97.338552 73.644637 
L 101.585492 71.820709 
L 99.043878 75.681203 
L 98.814864 74.718127 
L 94.776783 78.099428 
L 94.208341 77.420572 
" clip-path="url(#pbe73d0ce4e)"/>
    <path d="M 108.90324 77.484253 
L 111.150134 74.662085 
L 110.181693 74.456937 
L 113.978207 71.820709 
L 112.259775 76.111421 
L 111.842828 75.213579 
L 109.595934 78.035747 
L 108.90324 77.484253 
" clip-path="url(#pbe73d0ce4e)"/>
    <path d="M 123.595293 77.596263 
L 124.485966 75.358838 
L 123.499592 75.442681 
L 126.370922 71.820709 
L 125.967502 76.425106 
L 125.308603 75.686313 
L 124.41793 77.923737 
L 123.595293 77.596263 
" clip-path="url(#pbe73d0ce4e)"/>
    <path d="M 138.320926 77.76 
L 138.320926 75.805106 
L 137.435504 76.247817 
L 138.763636 71.820709 
L 140.091769 76.247817 
L 139.206347 75.805106 
L 139.206347 77.76 
L 138.320926 77.76 
" clip-path="url(#pbe73d0ce4e)"/>
    <path d="M 153.109343 77.923737 
L 152.21867 75.686313 
L 151.55977 76.425106 
L 151.156351 71.820709 
L 154.027681 75.442681 
L 153.041307 75.358838 
L 153.93198 77.596263 
L 153.109343 77.923737 
" clip-path="url(#pbe73d0ce4e)"/>
    <path d="M 167.931339 78.035747 
L 165.684444 75.213579 
L 165.267498 76.111421 
L 163.549066 71.820709 
L 167.34558 74.456937 
L 166.377138 74.662085 
L 168.624033 77.484253 
L 167.931339 78.035747 
" clip-path="url(#pbe73d0ce4e)"/>
    <path d="M 182.75049 78.099428 
L 178.712409 74.718127 
L 178.483395 75.681203 
L 175.94178 71.820709 
L 180.188721 73.644637 
L 179.280851 74.039271 
L 183.318932 77.420572 
L 182.75049 78.099428 
" clip-path="url(#pbe73d0ce4e)"/>
    <path d="M 197.556287 78.134909 
L 191.473228 74.314655 
L 191.37724 75.299922 
L 188.334495 71.820709 
L 192.789931 73.050468 
L 191.944125 73.564837 
L 198.027184 77.385091 
L 197.556287 78.134909 
" clip-path="url(#pbe73d0ce4e)"/>
    <path d="M 212.350011 78.15559 
L 204.088771 74.005043 
L 204.086863 74.994972 
L 200.72721 71.820709 
L 205.279358 72.621432 
L 204.48627 73.213863 
L 212.74751 77.36441 
L 212.350011 78.15559 
" clip-path="url(#pbe73d0ce4e)"/>
    <path d="M 64.743064 53.193091 
L 73.190433 47.888015 
L 72.344627 47.373645 
L 76.800063 46.143887 
L 73.757319 49.623099 
L 73.66133 48.637833 
L 65.213961 53.942909 
L 64.743064 53.193091 
" clip-path="url(#pbe73d0ce4e)"/>
    <path d="M 79.462171 53.219771 
L 85.785349 48.255956 
L 84.890387 47.832864 
L 89.192778 46.143887 
L 86.530586 49.922239 
L 86.332082 48.952414 
L 80.008904 53.916229 
L 79.462171 53.219771 
" clip-path="url(#pbe73d0ce4e)"/>
    <path d="M 94.17246 53.262177 
L 98.512987 48.718983 
L 97.56696 48.42744 
L 101.585492 46.143887 
L 99.487573 50.262375 
L 99.153191 49.330628 
L 94.812664 53.873823 
L 94.17246 53.262177 
" clip-path="url(#pbe73d0ce4e)"/>
    <path d="M 108.876184 53.33017 
L 111.464331 49.26668 
L 110.479696 49.164422 
L 113.978207 46.143887 
L 112.720112 50.591404 
L 112.211137 49.742341 
L 109.622989 53.80583 
L 108.876184 53.33017 
" clip-path="url(#pbe73d0ce4e)"/>
    <path d="M 123.584775 53.433661 
L 124.74003 49.806072 
L 123.762019 49.95923 
L 126.370922 46.143887 
L 126.293035 50.765266 
L 125.583703 50.074751 
L 124.428448 53.702339 
L 123.584775 53.433661 
" clip-path="url(#pbe73d0ce4e)"/>
    <path d="M 138.320926 53.568 
L 138.320926 50.128283 
L 137.435504 50.570994 
L 138.763636 46.143887 
L 140.091769 50.570994 
L 139.206347 50.128283 
L 139.206347 53.568 
L 138.320926 53.568 
" clip-path="url(#pbe73d0ce4e)"/>
    <path d="M 153.098825 53.702339 
L 151.94357 50.074751 
L 151.234237 50.765266 
L 151.156351 46.143887 
L 153.765254 49.95923 
L 152.787242 49.806072 
L 153.942497 53.433661 
L 153.098825 53.702339 
" clip-path="url(#pbe73d0ce4e)"/>
    <path d="M 167.904283 53.80583 
L 165.316136 49.742341 
L 164.807161 50.591404 
L 163.549066 46.143887 
L 167.047577 49.164422 
L 166.062941 49.26668 
L 168.651089 53.33017 
L 167.904283 53.80583 
" clip-path="url(#pbe73d0ce4e)"/>
    <path d="M 182.714609 53.873823 
L 178.374082 49.330628 
L 178.0397 50.262375 
L 175.94178 46.143887 
L 179.960313 48.42744 
L 179.014286 48.718983 
L 183.354813 53.262177 
L 182.714609 53.873823 
" clip-path="url(#pbe73d0ce4e)"/>
    <path d="M 197.518369 53.916229 
L 191.195191 48.952414 
L 190.996687 49.922239 
L 188.334495 46.143887 
L 192.636886 47.832864 
L 191.741924 48.255956 
L 198.065102 53.219771 
L 197.518369 53.916229 
" clip-path="url(#pbe73d0ce4e)"/>
    <path d="M 212.313312 53.942909 
L 203.865942 48.637833 
L 203.769954 49.623099 
L 200.72721 46.143887 
L 205.182646 47.373645 
L 204.336839 47.888015 
L 212.784209 53.193091 
L 212.313312 53.942909 
" clip-path="url(#pbe73d0ce4e)"/>
   </g>
   <g id="matplotlib.axis_1">
    <g id="xtick_1">
     <g id="line2d_1">
      <defs>
       <path id="maa32f6ab92" d="M 0 0 
L 0 3.5 
" style="stroke: #000000; stroke-width: 0.8"/>
      </defs>
      <g>
       <use xlink:href="#maa32f6ab92" x="64.978512" y="307.584" style="stroke: #000000; stroke-width: 0.8"/>
      </g>
     </g>
     <g id="text_1">
      <!-- −5.0 -->
      <g transform="translate(52.837106 322.182437) scale(0.1 -0.1)">
       <defs>
        <path id="DejaVuSans-2212" d="M 678 2272 
L 4684 2272 
L 4684 1741 
L 678 1741 
L 678 2272 
z
" transform="scale(0.015625)"/>
        <path id="DejaVuSans-35" d="M 691 4666 
L 3169 4666 
L 3169 4134 
L 1269 4134 
L 1269 2991 
Q 1406 3038 1543 3061 
Q 1681 3084 1819 3084 
Q 2600 3084 3056 2656 
Q 3513 2228 3513 1497 
Q 3513 744 3044 326 
Q 2575 -91 1722 -91 
Q 1428 -91 1123 -41 
Q 819 9 494 109 
L 494 744 
Q 775 591 1075 516 
Q 1375 441 1709 441 
Q 2250 441 2565 725 
Q 2881 1009 2881 1497 
Q 2881 1984 2565 2268 
Q 2250 2553 1709 2553 
Q 1456 2553 1204 2497 
Q 953 2441 691 2322 
L 691 4666 
z
" transform="scale(0.015625)"/>
        <path id="DejaVuSans-2e" d="M 684 794 
L 1344 794 
L 1344 0 
L 684 0 
L 684 794 
z
" transform="scale(0.015625)"/>
        <path id="DejaVuSans-30" d="M 2034 4250 
Q 1547 4250 1301 3770 
Q 1056 3291 1056 2328 
Q 1056 1369 1301 889 
Q 1547 409 2034 409 
Q 2525 409 2770 889 
Q 3016 1369 3016 2328 
Q 3016 3291 2770 3770 
Q 2525 4250 2034 4250 
z
M 2034 4750 
Q 2819 4750 3233 4129 
Q 3647 3509 3647 2328 
Q 3647 1150 3233 529 
Q 2819 -91 2034 -91 
Q 1250 -91 836 529 
Q 422 1150 422 2328 
Q 422 3509 836 4129 
Q 1250 4750 2034 4750 
z
" transform="scale(0.015625)"/>
       </defs>
       <use xlink:href="#DejaVuSans-2212"/>
       <use xlink:href="#DejaVuSans-35" x="83.789062"/>
       <use xlink:href="#DejaVuSans-2e" x="147.412109"/>
       <use xlink:href="#DejaVuSans-30" x="179.199219"/>
      </g>
     </g>
    </g>
    <g id="xtick_2">
     <g id="line2d_2">
      <g>
       <use xlink:href="#maa32f6ab92" x="101.871074" y="307.584" style="stroke: #000000; stroke-width: 0.8"/>
      </g>
     </g>
     <g id="text_2">
      <!-- −2.5 -->
      <g transform="translate(89.729668 322.182437) scale(0.1 -0.1)">
       <defs>
        <path id="DejaVuSans-32" d="M 1228 531 
L 3431 531 
L 3431 0 
L 469 0 
L 469 531 
Q 828 903 1448 1529 
Q 2069 2156 2228 2338 
Q 2531 2678 2651 2914 
Q 2772 3150 2772 3378 
Q 2772 3750 2511 3984 
Q 2250 4219 1831 4219 
Q 1534 4219 1204 4116 
Q 875 4013 500 3803 
L 500 4441 
Q 881 4594 1212 4672 
Q 1544 4750 1819 4750 
Q 2544 4750 2975 4387 
Q 3406 4025 3406 3419 
Q 3406 3131 3298 2873 
Q 3191 2616 2906 2266 
Q 2828 2175 2409 1742 
Q 1991 1309 1228 531 
z
" transform="scale(0.015625)"/>
       </defs>
       <use xlink:href="#DejaVuSans-2212"/>
       <use xlink:href="#DejaVuSans-32" x="83.789062"/>
       <use xlink:href="#DejaVuSans-2e" x="147.412109"/>
       <use xlink:href="#DejaVuSans-35" x="179.199219"/>
      </g>
     </g>
    </g>
    <g id="xtick_3">
     <g id="line2d_3">
      <g>
       <use xlink:href="#maa32f6ab92" x="138.763636" y="307.584" style="stroke: #000000; stroke-width: 0.8"/>
      </g>
     </g>
     <g id="text_3">
      <!-- 0.0 -->
      <g transform="translate(130.812074 322.182437) scale(0.1 -0.1)">
       <use xlink:href="#DejaVuSans-30"/>
       <use xlink:href="#DejaVuSans-2e" x="63.623047"/>
       <use xlink:href="#DejaVuSans-30" x="95.410156"/>
      </g>
     </g>
    </g>
    <g id="xtick_4">
     <g id="line2d_4">
      <g>
       <use xlink:href="#maa32f6ab92" x="175.656198" y="307.584" style="stroke: #000000; stroke-width: 0.8"/>
      </g>
     </g>
     <g id="text_4">
      <!-- 2.5 -->
      <g transform="translate(167.704636 322.182437) scale(0.1 -0.1)">
       <use xlink:href="#DejaVuSans-32"/>
       <use xlink:href="#DejaVuSans-2e" x="63.623047"/>
       <use xlink:href="#DejaVuSans-35" x="95.410156"/>
      </g>
     </g>
    </g>
    <g id="xtick_5">
     <g id="line2d_5">
      <g>
       <use xlink:href="#maa32f6ab92" x="212.54876" y="307.584" style="stroke: #000000; stroke-width: 0.8"/>
      </g>
     </g>
     <g id="text_5">
      <!-- 5.0 -->
      <g transform="translate(204.597198 322.182437) scale(0.1 -0.1)">
       <use xlink:href="#DejaVuSans-35"/>
       <use xlink:href="#DejaVuSans-2e" x="63.623047"/>
       <use xlink:href="#DejaVuSans-30" x="95.410156"/>
      </g>
     </g>
    </g>
   </g>
   <g id="matplotlib.axis_2">
    <g id="ytick_1">
     <g id="line2d_6">
      <defs>
       <path id="m6079807190" d="M 0 0 
L -3.5 0 
" style="stroke: #000000; stroke-width: 0.8"/>
      </defs>
      <g>
       <use xlink:href="#m6079807190" x="57.6" y="271.296" style="stroke: #000000; stroke-width: 0.8"/>
      </g>
     </g>
     <g id="text_6">
      <!-- −4 -->
      <g transform="translate(35.857813 275.095219) scale(0.1 -0.1)">
       <defs>
        <path id="DejaVuSans-34" d="M 2419 4116 
L 825 1625 
L 2419 1625 
L 2419 4116 
z
M 2253 4666 
L 3047 4666 
L 3047 1625 
L 3713 1625 
L 3713 1100 
L 3047 1100 
L 3047 0 
L 2419 0 
L 2419 1100 
L 313 1100 
L 313 1709 
L 2253 4666 
z
" transform="scale(0.015625)"/>
       </defs>
       <use xlink:href="#DejaVuSans-2212"/>
       <use xlink:href="#DejaVuSans-34" x="83.789062"/>
      </g>
     </g>
    </g>
    <g id="ytick_2">
     <g id="line2d_7">
      <g>
       <use xlink:href="#m6079807190" x="57.6" y="222.912" style="stroke: #000000; stroke-width: 0.8"/>
      </g>
     </g>
     <g id="text_7">
      <!-- −2 -->
      <g transform="translate(35.857813 226.711219) scale(0.1 -0.1)">
       <use xlink:href="#DejaVuSans-2212"/>
       <use xlink:href="#DejaVuSans-32" x="83.789062"/>
      </g>
     </g>
    </g>
    <g id="ytick_3">
     <g id="line2d_8">
      <g>
       <use xlink:href="#m6079807190" x="57.6" y="174.528" style="stroke: #000000; stroke-width: 0.8"/>
      </g>
     </g>
     <g id="text_8">
      <!-- 0 -->
      <g transform="translate(44.2375 178.327219) scale(0.1 -0.1)">
       <use xlink:href="#DejaVuSans-30"/>
      </g>
     </g>
    </g>
    <g id="ytick_4">
     <g id="line2d_9">
      <g>
       <use xlink:href="#m6079807190" x="57.6" y="126.144" style="stroke: #000000; stroke-width: 0.8"/>
      </g>
     </g>
     <g id="text_9">
      <!-- 2 -->
      <g transform="translate(44.2375 129.943219) scale(0.1 -0.1)">
       <use xlink:href="#DejaVuSans-32"/>
      </g>
     </g>
    </g>
    <g id="ytick_5">
     <g id="line2d_10">
      <g>
       <use xlink:href="#m6079807190" x="57.6" y="77.76" style="stroke: #000000; stroke-width: 0.8"/>
      </g>
     </g>
     <g id="text_10">
      <!-- 4 -->
      <g transform="translate(44.2375 81.559219) scale(0.1 -0.1)">
       <use xlink:href="#DejaVuSans-34"/>
      </g>
     </g>
    </g>
   </g>
   <g id="patch_3">
    <path d="M 57.6 307.584 
L 57.6 41.472 
" style="fill: none; stroke: #000000; stroke-width: 0.8; stroke-linejoin: miter; stroke-linecap: square"/>
   </g>
   <g id="patch_4">
    <path d="M 219.927273 307.584 
L 219.927273 41.472 
" style="fill: none; stroke: #000000; stroke-width: 0.8; stroke-linejoin: miter; stroke-linecap: square"/>
   </g>
   <g id="patch_5">
    <path d="M 57.6 307.584 
L 219.927273 307.584 
" style="fill: none; stroke: #000000; stroke-width: 0.8; stroke-linejoin: miter; stroke-linecap: square"/>
   </g>
   <g id="patch_6">
    <path d="M 57.6 41.472 
L 219.927273 41.472 
" style="fill: none; stroke: #000000; stroke-width: 0.8; stroke-linejoin: miter; stroke-linecap: square"/>
   </g>
  </g>
  <g id="axes_2">
   <g id="patch_7">
    <path d="M 252.392727 307.584 
L 414.72 307.584 
L 414.72 41.472 
L 252.392727 41.472 
z
" style="fill: #ffffff"/>
   </g>
   <g id="matplotlib.axis_3">
    <g id="xtick_6">
     <g id="line2d_11">
      <g>
       <use xlink:href="#maa32f6ab92" x="252.392727" y="307.584" style="stroke: #000000; stroke-width: 0.8"/>
      </g>
     </g>
     <g id="text_11">
      <!-- −0.5 -->
      <g transform="translate(240.251321 322.182437) scale(0.1 -0.1)">
       <use xlink:href="#DejaVuSans-2212"/>
       <use xlink:href="#DejaVuSans-30" x="83.789062"/>
       <use xlink:href="#DejaVuSans-2e" x="147.412109"/>
       <use xlink:href="#DejaVuSans-35" x="179.199219"/>
      </g>
     </g>
    </g>
    <g id="xtick_7">
     <g id="line2d_12">
      <g>
       <use xlink:href="#maa32f6ab92" x="292.974545" y="307.584" style="stroke: #000000; stroke-width: 0.8"/>
      </g>
     </g>
     <g id="text_12">
      <!-- 0.0 -->
      <g transform="translate(285.022983 322.182437) scale(0.1 -0.1)">
       <use xlink:href="#DejaVuSans-30"/>
       <use xlink:href="#DejaVuSans-2e" x="63.623047"/>
       <use xlink:href="#DejaVuSans-30" x="95.410156"/>
      </g>
     </g>
    </g>
    <g id="xtick_8">
     <g id="line2d_13">
      <g>
       <use xlink:href="#maa32f6ab92" x="333.556364" y="307.584" style="stroke: #000000; stroke-width: 0.8"/>
      </g>
     </g>
     <g id="text_13">
      <!-- 0.5 -->
      <g transform="translate(325.604801 322.182437) scale(0.1 -0.1)">
       <use xlink:href="#DejaVuSans-30"/>
       <use xlink:href="#DejaVuSans-2e" x="63.623047"/>
       <use xlink:href="#DejaVuSans-35" x="95.410156"/>
      </g>
     </g>
    </g>
    <g id="xtick_9">
     <g id="line2d_14">
      <g>
       <use xlink:href="#maa32f6ab92" x="374.138182" y="307.584" style="stroke: #000000; stroke-width: 0.8"/>
      </g>
     </g>
     <g id="text_14">
      <!-- 1.0 -->
      <g transform="translate(366.186619 322.182437) scale(0.1 -0.1)">
       <defs>
        <path id="DejaVuSans-31" d="M 794 531 
L 1825 531 
L 1825 4091 
L 703 3866 
L 703 4441 
L 1819 4666 
L 2450 4666 
L 2450 531 
L 3481 531 
L 3481 0 
L 794 0 
L 794 531 
z
" transform="scale(0.015625)"/>
       </defs>
       <use xlink:href="#DejaVuSans-31"/>
       <use xlink:href="#DejaVuSans-2e" x="63.623047"/>
       <use xlink:href="#DejaVuSans-30" x="95.410156"/>
      </g>
     </g>
    </g>
    <g id="xtick_10">
     <g id="line2d_15">
      <g>
       <use xlink:href="#maa32f6ab92" x="414.72" y="307.584" style="stroke: #000000; stroke-width: 0.8"/>
      </g>
     </g>
     <g id="text_15">
      <!-- 1.5 -->
      <g transform="translate(406.768437 322.182437) scale(0.1 -0.1)">
       <use xlink:href="#DejaVuSans-31"/>
       <use xlink:href="#DejaVuSans-2e" x="63.623047"/>
       <use xlink:href="#DejaVuSans-35" x="95.410156"/>
      </g>
     </g>
    </g>
   </g>
   <g id="matplotlib.axis_4">
    <g id="ytick_6">
     <g id="line2d_16">
      <g>
       <use xlink:href="#m6079807190" x="252.392727" y="283.392" style="stroke: #000000; stroke-width: 0.8"/>
      </g>
     </g>
     <g id="text_16">
      <!-- 0 -->
      <g transform="translate(239.030227 287.191219) scale(0.1 -0.1)">
       <use xlink:href="#DejaVuSans-30"/>
      </g>
     </g>
    </g>
    <g id="ytick_7">
     <g id="line2d_17">
      <g>
       <use xlink:href="#m6079807190" x="252.392727" y="235.008" style="stroke: #000000; stroke-width: 0.8"/>
      </g>
     </g>
     <g id="text_17">
      <!-- 10 -->
      <g transform="translate(232.667727 238.807219) scale(0.1 -0.1)">
       <use xlink:href="#DejaVuSans-31"/>
       <use xlink:href="#DejaVuSans-30" x="63.623047"/>
      </g>
     </g>
    </g>
    <g id="ytick_8">
     <g id="line2d_18">
      <g>
       <use xlink:href="#m6079807190" x="252.392727" y="186.624" style="stroke: #000000; stroke-width: 0.8"/>
      </g>
     </g>
     <g id="text_18">
      <!-- 20 -->
      <g transform="translate(232.667727 190.423219) scale(0.1 -0.1)">
       <use xlink:href="#DejaVuSans-32"/>
       <use xlink:href="#DejaVuSans-30" x="63.623047"/>
      </g>
     </g>
    </g>
    <g id="ytick_9">
     <g id="line2d_19">
      <g>
       <use xlink:href="#m6079807190" x="252.392727" y="138.24" style="stroke: #000000; stroke-width: 0.8"/>
      </g>
     </g>
     <g id="text_19">
      <!-- 30 -->
      <g transform="translate(232.667727 142.039219) scale(0.1 -0.1)">
       <defs>
        <path id="DejaVuSans-33" d="M 2597 2516 
Q 3050 2419 3304 2112 
Q 3559 1806 3559 1356 
Q 3559 666 3084 287 
Q 2609 -91 1734 -91 
Q 1441 -91 1130 -33 
Q 819 25 488 141 
L 488 750 
Q 750 597 1062 519 
Q 1375 441 1716 441 
Q 2309 441 2620 675 
Q 2931 909 2931 1356 
Q 2931 1769 2642 2001 
Q 2353 2234 1838 2234 
L 1294 2234 
L 1294 2753 
L 1863 2753 
Q 2328 2753 2575 2939 
Q 2822 3125 2822 3475 
Q 2822 3834 2567 4026 
Q 2313 4219 1838 4219 
Q 1578 4219 1281 4162 
Q 984 4106 628 3988 
L 628 4550 
Q 988 4650 1302 4700 
Q 1616 4750 1894 4750 
Q 2613 4750 3031 4423 
Q 3450 4097 3450 3541 
Q 3450 3153 3228 2886 
Q 3006 2619 2597 2516 
z
" transform="scale(0.015625)"/>
       </defs>
       <use xlink:href="#DejaVuSans-33"/>
       <use xlink:href="#DejaVuSans-30" x="63.623047"/>
      </g>
     </g>
    </g>
    <g id="ytick_10">
     <g id="line2d_20">
      <g>
       <use xlink:href="#m6079807190" x="252.392727" y="89.856" style="stroke: #000000; stroke-width: 0.8"/>
      </g>
     </g>
     <g id="text_20">
      <!-- 40 -->
      <g transform="translate(232.667727 93.655219) scale(0.1 -0.1)">
       <use xlink:href="#DejaVuSans-34"/>
       <use xlink:href="#DejaVuSans-30" x="63.623047"/>
      </g>
     </g>
    </g>
    <g id="ytick_11">
     <g id="line2d_21">
      <g>
       <use xlink:href="#m6079807190" x="252.392727" y="41.472" style="stroke: #000000; stroke-width: 0.8"/>
      </g>
     </g>
     <g id="text_21">
      <!-- 50 -->
      <g transform="translate(232.667727 45.271219) scale(0.1 -0.1)">
       <use xlink:href="#DejaVuSans-35"/>
       <use xlink:href="#DejaVuSans-30" x="63.623047"/>
      </g>
     </g>
    </g>
   </g>
   <g id="line2d_22">
    <path d="M 293.055709 283.392 
L 374.138182 283.392 
L 374.138182 283.392 
" clip-path="url(#p9ddc27a087)" style="fill: none; stroke: #1f77b4; stroke-width: 1.5; stroke-linecap: square"/>
   </g>
   <g id="line2d_23">
    <path d="M 293.109139 -1 
L 293.2992 128.280325 
L 293.623855 183.024506 
L 294.029673 209.40184 
L 294.516655 225.091721 
L 295.0848 235.515481 
L 295.652945 242.172995 
L 296.302255 247.425799 
L 297.032727 251.6402 
L 297.844364 255.075386 
L 298.737164 257.916134 
L 299.711127 260.295981 
L 300.766255 262.312957 
L 301.983709 264.149857 
L 303.282327 265.710193 
L 304.743273 267.122456 
L 306.447709 268.447351 
L 308.395636 269.662477 
L 310.587055 270.761658 
L 313.184291 271.806955 
L 316.187345 272.772302 
L 319.839709 273.703488 
L 324.222545 274.580726 
L 329.498182 275.403052 
L 335.991273 276.183238 
L 344.107636 276.92476 
L 354.253091 277.619646 
L 367.239273 278.276007 
L 374.138182 278.5536 
L 374.138182 278.5536 
" clip-path="url(#p9ddc27a087)" style="fill: none; stroke: #ff7f0e; stroke-width: 1.5; stroke-linecap: square"/>
   </g>
   <g id="line2d_24">
    <path d="M 293.350884 -1 
L 293.623855 82.657011 
L 294.029673 135.411679 
L 294.516655 166.791442 
L 295.0848 187.638963 
L 295.652945 200.953991 
L 296.302255 211.459599 
L 297.032727 219.8884 
L 297.844364 226.758771 
L 298.737164 232.440267 
L 299.711127 237.199962 
L 300.766255 241.233915 
L 301.902545 244.688369 
L 303.12 247.674095 
L 304.418618 250.276213 
L 305.7984 252.561024 
L 307.340509 254.683139 
L 309.044945 256.635044 
L 310.911709 258.419423 
L 312.9408 260.044856 
L 315.213382 261.573095 
L 317.729455 262.99345 
L 320.570182 264.338704 
L 323.816727 265.624184 
L 327.550255 266.854565 
L 331.851927 268.02865 
L 336.802909 269.142732 
L 342.565527 270.206362 
L 349.383273 271.231044 
L 357.418473 272.206742 
L 366.995782 273.13889 
L 374.138182 273.7152 
L 374.138182 273.7152 
" clip-path="url(#p9ddc27a087)" style="fill: none; stroke: #2ca02c; stroke-width: 1.5; stroke-linecap: square"/>
   </g>
   <g id="line2d_25">
    <path d="M 293.68703 -1 
L 294.029673 61.421519 
L 294.516655 108.491164 
L 295.0848 139.762444 
L 295.652945 159.734986 
L 296.302255 175.493398 
L 297.032727 188.1366 
L 297.844364 198.442157 
L 298.737164 206.964401 
L 299.711127 214.103942 
L 300.766255 220.154872 
L 301.902545 225.336554 
L 303.12 229.815142 
L 304.418618 233.71832 
L 305.7984 237.145536 
L 307.259345 240.175209 
L 308.801455 242.869889 
L 310.505891 245.3909 
L 312.291491 247.636558 
L 314.239418 249.730099 
L 316.349673 251.672032 
L 318.703418 253.526803 
L 321.219491 255.226451 
L 324.060218 256.871573 
L 327.2256 258.438441 
L 330.715636 259.913648 
L 334.611491 261.318372 
L 339.075491 262.68601 
L 344.107636 263.990281 
L 349.870255 265.248777 
L 356.444509 266.452882 
L 364.073891 267.618382 
L 372.920727 268.738372 
L 374.138182 268.8768 
L 374.138182 268.8768 
" clip-path="url(#p9ddc27a087)" style="fill: none; stroke: #d62728; stroke-width: 1.5; stroke-linecap: square"/>
   </g>
   <g id="line2d_26">
    <path d="M 294.099438 -1 
L 294.516655 50.190885 
L 295.0848 91.885925 
L 295.652945 118.515982 
L 296.302255 139.527198 
L 297.032727 156.384799 
L 297.844364 170.125542 
L 298.737164 181.488535 
L 299.711127 191.007923 
L 300.766255 199.07583 
L 301.902545 205.984739 
L 303.12 211.956189 
L 304.337455 216.863717 
L 305.636073 221.234755 
L 307.015855 225.144087 
L 308.4768 228.654656 
L 310.100073 231.973117 
L 311.804509 234.947449 
L 313.590109 237.626815 
L 315.538036 240.149572 
L 317.648291 242.510672 
L 319.920873 244.711301 
L 322.355782 246.756723 
L 325.034182 248.709938 
L 327.956073 250.558621 
L 331.121455 252.297092 
L 334.611491 253.960496 
L 338.507345 255.568171 
L 342.809018 257.101718 
L 347.678836 258.596895 
L 353.1168 260.029576 
L 359.285236 261.419087 
L 366.265309 262.757663 
L 374.138182 264.0384 
L 374.138182 264.0384 
" clip-path="url(#p9ddc27a087)" style="fill: none; stroke: #9467bd; stroke-width: 1.5; stroke-linecap: square"/>
   </g>
   <g id="line2d_27">
    <path d="M 294.5791 -1 
L 295.0848 44.009407 
L 295.652945 77.296977 
L 296.302255 103.560997 
L 297.032727 124.632999 
L 297.844364 141.808928 
L 298.737164 156.012669 
L 299.711127 167.911904 
L 300.766255 177.996787 
L 301.902545 186.632923 
L 303.038836 193.645667 
L 304.256291 199.856421 
L 305.554909 205.381016 
L 306.934691 210.316548 
L 308.395636 214.744384 
L 309.937745 218.732815 
L 311.561018 222.33931 
L 313.346618 225.757068 
L 315.213382 228.844738 
L 317.161309 231.646577 
L 319.271564 234.294776 
L 321.544145 236.785138 
L 323.979055 239.118656 
L 326.576291 241.299825 
L 329.417018 243.391414 
L 332.501236 245.381085 
L 335.828945 247.262506 
L 339.481309 249.071442 
L 343.539491 250.828101 
L 348.003491 252.513081 
L 352.954473 254.13936 
L 358.4736 255.712604 
L 364.642036 257.233715 
L 371.540945 258.700796 
L 374.138182 259.2 
L 374.138182 259.2 
" clip-path="url(#p9ddc27a087)" style="fill: none; stroke: #8c564b; stroke-width: 1.5; stroke-linecap: square"/>
   </g>
   <g id="line2d_28">
    <path d="M 295.119385 -1 
L 295.652945 36.077972 
L 296.302255 67.594797 
L 297.032727 92.881199 
L 297.844364 113.492313 
L 298.737164 130.536802 
L 299.711127 144.815885 
L 300.766255 156.917745 
L 301.902545 167.281108 
L 303.038836 175.6964 
L 304.256291 183.149306 
L 305.554909 189.778819 
L 306.934691 195.701457 
L 308.395636 201.014861 
L 309.937745 205.800978 
L 311.561018 210.128772 
L 313.265455 214.056471 
L 315.051055 217.633435 
L 316.998982 221.034334 
L 319.028073 224.13013 
L 321.219491 227.060903 
L 323.492073 229.733133 
L 325.926982 232.258607 
L 328.524218 234.637723 
L 331.364945 236.935642 
L 334.449164 239.13631 
L 337.776873 241.230195 
L 341.348073 243.212754 
L 345.243927 245.12049 
L 349.5456 246.974912 
L 354.253091 248.757878 
L 359.447564 250.4832 
L 365.210182 252.157334 
L 371.540945 253.762555 
L 374.138182 254.3616 
L 374.138182 254.3616 
" clip-path="url(#p9ddc27a087)" style="fill: none; stroke: #e377c2; stroke-width: 1.5; stroke-linecap: square"/>
   </g>
   <g id="line2d_29">
    <path d="M 295.715662 -1 
L 296.302255 31.628596 
L 297.032727 61.129399 
L 297.844364 85.175699 
L 298.737164 105.060936 
L 299.711127 121.719865 
L 300.766255 135.838702 
L 301.902545 147.929292 
L 303.038836 157.747133 
L 304.256291 166.44219 
L 305.554909 174.176622 
L 306.934691 181.086367 
L 308.395636 187.285338 
L 309.937745 192.869141 
L 311.561018 197.918233 
L 313.265455 202.50055 
L 315.051055 206.673674 
L 316.917818 210.486611 
L 318.946909 214.117542 
L 321.057164 217.43407 
L 323.248582 220.474253 
L 325.602327 223.364279 
L 328.1184 226.100403 
L 330.7968 228.683037 
L 333.637527 231.115528 
L 336.721745 233.461474 
L 340.049455 235.708226 
L 343.620655 237.848438 
L 347.516509 239.919509 
L 351.737018 241.907475 
L 356.363345 243.835616 
L 361.395491 245.688539 
L 366.914618 247.481382 
L 373.001891 249.221983 
L 374.138182 249.5232 
L 374.138182 249.5232 
" clip-path="url(#p9ddc27a087)" style="fill: none; stroke: #7f7f7f; stroke-width: 1.5; stroke-linecap: square"/>
   </g>
   <g id="line2d_30">
    <path d="M 296.364938 -1 
L 297.032727 29.377599 
L 297.844364 56.859084 
L 298.737164 79.58507 
L 299.711127 98.623846 
L 300.766255 114.759659 
L 301.902545 128.577477 
L 303.038836 139.797866 
L 304.256291 149.735074 
L 305.554909 158.574426 
L 306.934691 166.471276 
L 308.395636 173.555815 
L 309.937745 179.937304 
L 311.561018 185.707695 
L 313.265455 190.944628 
L 315.051055 195.713913 
L 316.917818 200.071556 
L 318.865745 204.065419 
L 320.894836 207.736573 
L 323.086255 211.242807 
L 325.358836 214.465404 
L 327.793745 217.533148 
L 330.390982 220.442443 
L 333.150545 223.193686 
L 336.072436 225.790132 
L 339.156655 228.23699 
L 342.484364 230.595166 
L 346.055564 232.854736 
L 349.951418 235.053365 
L 354.171927 237.174717 
L 358.717091 239.208048 
L 363.668073 241.177537 
L 369.106036 243.097219 
L 374.138182 244.6848 
L 374.138182 244.6848 
" clip-path="url(#p9ddc27a087)" style="fill: none; stroke: #bcbd22; stroke-width: 1.5; stroke-linecap: square"/>
   </g>
   <g id="line2d_31">
    <path d="M 297.064307 -1 
L 297.844364 28.54247 
L 298.737164 54.109203 
L 299.711127 75.527827 
L 300.766255 93.680617 
L 301.902545 109.225662 
L 303.038836 121.8486 
L 304.256291 133.027958 
L 305.554909 142.972229 
L 306.934691 151.856186 
L 308.395636 159.826291 
L 309.937745 167.005468 
L 311.561018 173.497157 
L 313.265455 179.388707 
L 315.051055 184.754152 
L 316.917818 189.6565 
L 318.865745 194.149596 
L 320.894836 198.279644 
L 323.005091 202.086458 
L 325.277673 205.72728 
L 327.631418 209.08304 
L 330.147491 212.282781 
L 332.825891 215.322934 
L 335.666618 218.203728 
L 338.669673 220.928144 
L 341.835055 223.501074 
L 345.243927 225.984735 
L 348.896291 228.368899 
L 352.792145 230.647557 
L 357.012655 232.858255 
L 361.557818 234.988209 
L 366.5088 237.061347 
L 371.8656 239.062784 
L 374.138182 239.8464 
L 374.138182 239.8464 
" clip-path="url(#p9ddc27a087)" style="fill: none; stroke: #17becf; stroke-width: 1.5; stroke-linecap: square"/>
   </g>
   <g id="patch_8">
    <path d="M 252.392727 307.584 
L 252.392727 41.472 
" style="fill: none; stroke: #000000; stroke-width: 0.8; stroke-linejoin: miter; stroke-linecap: square"/>
   </g>
   <g id="patch_9">
    <path d="M 414.72 307.584 
L 414.72 41.472 
" style="fill: none; stroke: #000000; stroke-width: 0.8; stroke-linejoin: miter; stroke-linecap: square"/>
   </g>
   <g id="patch_10">
    <path d="M 252.392727 307.584 
L 414.72 307.584 
" style="fill: none; stroke: #000000; stroke-width: 0.8; stroke-linejoin: miter; stroke-linecap: square"/>
   </g>
   <g id="patch_11">
    <path d="M 252.392727 41.472 
L 414.72 41.472 
" style="fill: none; stroke: #000000; stroke-width: 0.8; stroke-linejoin: miter; stroke-linecap: square"/>
   </g>
  </g>
  <g id="text_22">
   <!-- t = 0.8999999999999999 -->
   <g transform="translate(152.401875 16.030125) scale(0.12 -0.12)">
    <defs>
     <path id="DejaVuSans-74" d="M 1172 4494 
L 1172 3500 
L 2356 3500 
L 2356 3053 
L 1172 3053 
L 1172 1153 
Q 1172 725 1289 603 
Q 1406 481 1766 481 
L 2356 481 
L 2356 0 
L 1766 0 
Q 1100 0 847 248 
Q 594 497 594 1153 
L 594 3053 
L 172 3053 
L 172 3500 
L 594 3500 
L 594 4494 
L 1172 4494 
z
" transform="scale(0.015625)"/>
     <path id="DejaVuSans-20" transform="scale(0.015625)"/>
     <path id="DejaVuSans-3d" d="M 678 2906 
L 4684 2906 
L 4684 2381 
L 678 2381 
L 678 2906 
z
M 678 1631 
L 4684 1631 
L 4684 1100 
L 678 1100 
L 678 1631 
z
" transform="scale(0.015625)"/>
     <path id="DejaVuSans-38" d="M 2034 2216 
Q 1584 2216 1326 1975 
Q 1069 1734 1069 1313 
Q 1069 891 1326 650 
Q 1584 409 2034 409 
Q 2484 409 2743 651 
Q 3003 894 3003 1313 
Q 3003 1734 2745 1975 
Q 2488 2216 2034 2216 
z
M 1403 2484 
Q 997 2584 770 2862 
Q 544 3141 544 3541 
Q 544 4100 942 4425 
Q 1341 4750 2034 4750 
Q 2731 4750 3128 4425 
Q 3525 4100 3525 3541 
Q 3525 3141 3298 2862 
Q 3072 2584 2669 2484 
Q 3125 2378 3379 2068 
Q 3634 1759 3634 1313 
Q 3634 634 3220 271 
Q 2806 -91 2034 -91 
Q 1263 -91 848 271 
Q 434 634 434 1313 
Q 434 1759 690 2068 
Q 947 2378 1403 2484 
z
M 1172 3481 
Q 1172 3119 1398 2916 
Q 1625 2713 2034 2713 
Q 2441 2713 2670 2916 
Q 2900 3119 2900 3481 
Q 2900 3844 2670 4047 
Q 2441 4250 2034 4250 
Q 1625 4250 1398 4047 
Q 1172 3844 1172 3481 
z
" transform="scale(0.015625)"/>
     <path id="DejaVuSans-39" d="M 703 97 
L 703 672 
Q 941 559 1184 500 
Q 1428 441 1663 441 
Q 2288 441 2617 861 
Q 2947 1281 2994 2138 
Q 2813 1869 2534 1725 
Q 2256 1581 1919 1581 
Q 1219 1581 811 2004 
Q 403 2428 403 3163 
Q 403 3881 828 4315 
Q 1253 4750 1959 4750 
Q 2769 4750 3195 4129 
Q 3622 3509 3622 2328 
Q 3622 1225 3098 567 
Q 2575 -91 1691 -91 
Q 1453 -91 1209 -44 
Q 966 3 703 97 
z
M 1959 2075 
Q 2384 2075 2632 2365 
Q 2881 2656 2881 3163 
Q 2881 3666 2632 3958 
Q 2384 4250 1959 4250 
Q 1534 4250 1286 3958 
Q 1038 3666 1038 3163 
Q 1038 2656 1286 2365 
Q 1534 2075 1959 2075 
z
" transform="scale(0.015625)"/>
    </defs>
    <use xlink:href="#DejaVuSans-74"/>
    <use xlink:href="#DejaVuSans-20" x="39.208984"/>
    <use xlink:href="#DejaVuSans-3d" x="70.996094"/>
    <use xlink:href="#DejaVuSans-20" x="154.785156"/>
    <use xlink:href="#DejaVuSans-30" x="186.572266"/>
    <use xlink:href="#DejaVuSans-2e" x="250.195312"/>
    <use xlink:href="#DejaVuSans-38" x="281.982422"/>
    <use xlink:href="#DejaVuSans-39" x="345.605469"/>
    <use xlink:href="#DejaVuSans-39" x="409.228516"/>
    <use xlink:href="#DejaVuSans-39" x="472.851562"/>
    <use xlink:href="#DejaVuSans-39" x="536.474609"/>
    <use xlink:href="#DejaVuSans-39" x="600.097656"/>
    <use xlink:href="#DejaVuSans-39" x="663.720703"/>
    <use xlink:href="#DejaVuSans-39" x="727.34375"/>
    <use xlink:href="#DejaVuSans-39" x="790.966797"/>
    <use xlink:href="#DejaVuSans-39" x="854.589844"/>
    <use xlink:href="#DejaVuSans-39" x="918.212891"/>
    <use xlink:href="#DejaVuSans-39" x="981.835938"/>
    <use xlink:href="#DejaVuSans-39" x="1045.458984"/>
    <use xlink:href="#DejaVuSans-39" x="1109.082031"/>
    <use xlink:href="#DejaVuSans-39" x="1172.705078"/>
    <use xlink:href="#DejaVuSans-39" x="1236.328125"/>
   </g>
  </g>
 </g>
 <defs>
  <clipPath id="pbe73d0ce4e">
   <rect x="57.6" y="41.472" width="162.327273" height="266.112"/>
  </clipPath>
  <clipPath id="p9ddc27a087">
   <rect x="252.392727" y="41.472" width="162.327273" height="266.112"/>
  </clipPath>
 </defs>
</svg>
