<?xml version="1.0" encoding="utf-8" standalone="no"?>
<!DOCTYPE svg PUBLIC "-//W3C//DTD SVG 1.1//EN"
  "http://www.w3.org/Graphics/SVG/1.1/DTD/svg11.dtd">
<svg xmlns:xlink="http://www.w3.org/1999/xlink" width="460.8pt" height="345.6pt" viewBox="0 0 460.8 345.6" xmlns="http://www.w3.org/2000/svg" version="1.1">
 <metadata>
  <rdf:RDF xmlns:dc="http://purl.org/dc/elements/1.1/" xmlns:cc="http://creativecommons.org/ns#" xmlns:rdf="http://www.w3.org/1999/02/22-rdf-syntax-ns#">
   <cc:Work>
    <dc:type rdf:resource="http://purl.org/dc/dcmitype/StillImage"/>
    <dc:date>2023-01-17T23:39:00.825077</dc:date>
    <dc:format>image/svg+xml</dc:format>
    <dc:creator>
     <cc:Agent>
      <dc:title>Matplotlib v3.6.3, https://matplotlib.org/</dc:title>
     </cc:Agent>
    </dc:creator>
   </cc:Work>
  </rdf:RDF>
 </metadata>
 <defs>
  <style type="text/css">*{stroke-linejoin: round; stroke-linecap: butt}</style>
 </defs>
 <g id="figure_1">
  <g id="patch_1">
   <path d="M 0 345.6 
L 460.8 345.6 
L 460.8 0 
L 0 0 
z
" style="fill: #ffffff"/>
  </g>
  <g id="axes_1">
   <g id="patch_2">
    <path d="M 57.6 307.584 
L 219.927273 307.584 
L 219.927273 41.472 
L 57.6 41.472 
z
" style="fill: #ffffff"/>
   </g>
   <g id="Quiver_1">
    <path d="M 65.194143 295.101353 
L 73.965558 299.993117 
L 74.010173 299.004191 
L 77.229753 302.320441 
L 72.716388 301.324075 
L 73.534297 300.766411 
L 64.762882 295.874647 
L 65.194143 295.101353 
" clip-path="url(#pfe83a07c6a)"/>
    <path d="M 79.988712 295.124826 
L 86.521139 299.678694 
L 86.664315 298.699171 
L 89.53653 302.320441 
L 85.145266 300.878215 
L 86.01479 300.405042 
L 79.482362 295.851174 
L 79.988712 295.124826 
" clip-path="url(#pfe83a07c6a)"/>
    <path d="M 94.793965 295.163733 
L 99.226306 299.283549 
L 99.504845 298.333612 
L 101.843307 302.320441 
L 97.696428 300.279214 
L 98.6235 299.932083 
L 94.191159 295.812267 
L 94.793965 295.163733 
" clip-path="url(#pfe83a07c6a)"/>
    <path d="M 109.609332 295.229976 
L 112.187617 298.82471 
L 112.649084 297.948918 
L 114.150083 302.320441 
L 110.490612 299.497059 
L 111.468126 299.340757 
L 108.889841 295.746024 
L 109.609332 295.229976 
" clip-path="url(#pfe83a07c6a)"/>
    <path d="M 124.423336 295.338555 
L 125.528575 298.42048 
L 126.212577 297.704865 
L 126.45686 302.320441 
L 123.712234 298.601538 
L 124.695127 298.719371 
L 123.589888 295.637445 
L 124.423336 295.338555 
" clip-path="url(#pfe83a07c6a)"/>
    <path d="M 139.206347 295.488 
L 139.206347 298.336045 
L 140.091769 297.893334 
L 138.763636 302.320441 
L 137.435504 297.893334 
L 138.320926 298.336045 
L 138.320926 295.488 
L 139.206347 295.488 
" clip-path="url(#pfe83a07c6a)"/>
    <path d="M 153.937385 295.637445 
L 152.832146 298.719371 
L 153.815039 298.601538 
L 151.070413 302.320441 
L 151.314695 297.704865 
L 151.998698 298.42048 
L 153.103937 295.338555 
L 153.937385 295.637445 
" clip-path="url(#pfe83a07c6a)"/>
    <path d="M 168.637431 295.746024 
L 166.059146 299.340757 
L 167.03666 299.497059 
L 163.37719 302.320441 
L 164.878189 297.948918 
L 165.339656 298.82471 
L 167.917941 295.229976 
L 168.637431 295.746024 
" clip-path="url(#pfe83a07c6a)"/>
    <path d="M 183.336114 295.812267 
L 178.903772 299.932083 
L 179.830845 300.279214 
L 175.683966 302.320441 
L 178.022428 298.333612 
L 178.300967 299.283549 
L 182.733308 295.163733 
L 183.336114 295.812267 
" clip-path="url(#pfe83a07c6a)"/>
    <path d="M 198.04491 295.851174 
L 191.512483 300.405042 
L 192.382007 300.878215 
L 187.990743 302.320441 
L 190.862958 298.699171 
L 191.006133 299.678694 
L 197.538561 295.124826 
L 198.04491 295.851174 
" clip-path="url(#pfe83a07c6a)"/>
    <path d="M 212.764391 295.874647 
L 203.992976 300.766411 
L 204.810885 301.324075 
L 200.297519 302.320441 
L 203.5171 299.004191 
L 203.561714 299.993117 
L 212.33313 295.101353 
L 212.764391 295.874647 
" clip-path="url(#pfe83a07c6a)"/>
    <path d="M 65.158892 270.891703 
L 73.771459 274.734243 
L 73.72792 273.74527 
L 77.229753 276.761953 
L 72.645645 276.171052 
L 73.4107 275.542837 
L 64.798133 271.700297 
L 65.158892 270.891703 
" clip-path="url(#pfe83a07c6a)"/>
    <path d="M 79.951168 270.909353 
L 86.272335 274.434628 
L 86.316949 273.445703 
L 89.53653 276.761953 
L 85.023164 275.765587 
L 85.841073 275.207923 
L 79.519906 271.682647 
L 79.951168 270.909353 
" clip-path="url(#pfe83a07c6a)"/>
    <path d="M 94.756729 270.940742 
L 98.910149 274.02919 
L 99.083225 273.054506 
L 101.843307 276.761953 
L 97.498221 275.186056 
L 98.381814 274.739707 
L 94.228395 271.651258 
L 94.756729 270.940742 
" clip-path="url(#pfe83a07c6a)"/>
    <path d="M 109.579216 271.000471 
L 111.819952 273.499761 
L 112.183682 272.579074 
L 114.150083 276.761953 
L 110.205906 274.352247 
L 111.160694 274.090818 
L 108.919957 271.591529 
L 109.579216 271.000471 
" clip-path="url(#pfe83a07c6a)"/>
    <path d="M 124.410589 271.114907 
L 125.231 272.945059 
L 125.857863 272.178895 
L 126.45686 276.761953 
L 123.433996 273.265454 
L 124.423045 273.307245 
L 123.602634 271.477093 
L 124.410589 271.114907 
" clip-path="url(#pfe83a07c6a)"/>
    <path d="M 139.206347 271.296 
L 139.206347 272.777556 
L 140.091769 272.334846 
L 138.763636 276.761953 
L 137.435504 272.334846 
L 138.320926 272.777556 
L 138.320926 271.296 
L 139.206347 271.296 
" clip-path="url(#pfe83a07c6a)"/>
    <path d="M 153.924639 271.477093 
L 153.104228 273.307245 
L 154.093277 273.265454 
L 151.070413 276.761953 
L 151.66941 272.178895 
L 152.296272 272.945059 
L 153.116683 271.114907 
L 153.924639 271.477093 
" clip-path="url(#pfe83a07c6a)"/>
    <path d="M 168.607315 271.591529 
L 166.366579 274.090818 
L 167.321366 274.352247 
L 163.37719 276.761953 
L 165.343591 272.579074 
L 165.70732 273.499761 
L 167.948057 271.000471 
L 168.607315 271.591529 
" clip-path="url(#pfe83a07c6a)"/>
    <path d="M 183.298878 271.651258 
L 179.145459 274.739707 
L 180.029051 275.186056 
L 175.683966 276.761953 
L 178.444048 273.054506 
L 178.617124 274.02919 
L 182.770544 270.940742 
L 183.298878 271.651258 
" clip-path="url(#pfe83a07c6a)"/>
    <path d="M 198.007366 271.682647 
L 191.686199 275.207923 
L 192.504108 275.765587 
L 187.990743 276.761953 
L 191.210323 273.445703 
L 191.254938 274.434628 
L 197.576105 270.909353 
L 198.007366 271.682647 
" clip-path="url(#pfe83a07c6a)"/>
    <path d="M 212.72914 271.700297 
L 204.116572 275.542837 
L 204.881628 276.171052 
L 200.297519 276.761953 
L 203.799353 273.74527 
L 203.755814 274.734243 
L 212.368381 270.891703 
L 212.72914 271.700297 
" clip-path="url(#pfe83a07c6a)"/>
    <path d="M 65.118994 246.68417 
L 73.591762 249.519296 
L 73.452896 248.539153 
L 77.229753 251.203465 
L 72.610003 251.058135 
L 73.310798 250.358956 
L 64.83803 247.52383 
L 65.118994 246.68417 
" clip-path="url(#pfe83a07c6a)"/>
    <path d="M 79.906368 246.695577 
L 86.031553 249.25756 
L 85.964792 248.269882 
L 89.53653 251.203465 
L 84.939805 250.720421 
L 85.68989 250.074406 
L 79.564706 247.512423 
L 79.906368 246.695577 
" clip-path="url(#pfe83a07c6a)"/>
    <path d="M 94.708193 246.717353 
L 98.579112 248.87614 
L 98.623726 247.887215 
L 101.843307 251.203465 
L 97.329941 250.207099 
L 98.14785 249.649435 
L 94.276931 247.490647 
L 94.708193 246.717353 
" clip-path="url(#pfe83a07c6a)"/>
    <path d="M 109.533646 246.764436 
L 111.37807 248.307372 
L 111.606624 247.344187 
L 114.150083 251.203465 
L 109.902271 249.381568 
L 110.809952 248.9865 
L 108.965528 247.443564 
L 109.533646 246.764436 
" clip-path="url(#pfe83a07c6a)"/>
    <path d="M 124.386618 246.87687 
L 124.792699 247.556277 
L 125.325582 246.722011 
L 126.45686 251.203465 
L 123.045544 248.084789 
L 124.032686 248.010536 
L 123.626605 247.33113 
L 124.386618 246.87687 
" clip-path="url(#pfe83a07c6a)"/>
    <path d="M 139.173583 247.104 
L 139.173583 247.513946 
L 139.993476 247.104 
L 138.763636 251.203465 
L 137.533797 247.104 
L 138.35369 247.513946 
L 138.35369 247.104 
L 139.173583 247.104 
" clip-path="url(#pfe83a07c6a)"/>
    <path d="M 153.900668 247.33113 
L 153.494587 248.010536 
L 154.481729 248.084789 
L 151.070413 251.203465 
L 152.20169 246.722011 
L 152.734574 247.556277 
L 153.140655 246.87687 
L 153.900668 247.33113 
" clip-path="url(#pfe83a07c6a)"/>
    <path d="M 168.561745 247.443564 
L 166.71732 248.9865 
L 167.625002 249.381568 
L 163.37719 251.203465 
L 165.920649 247.344187 
L 166.149203 248.307372 
L 167.993627 246.764436 
L 168.561745 247.443564 
" clip-path="url(#pfe83a07c6a)"/>
    <path d="M 183.250342 247.490647 
L 179.379423 249.649435 
L 180.197332 250.207099 
L 175.683966 251.203465 
L 178.903547 247.887215 
L 178.948161 248.87614 
L 182.81908 246.717353 
L 183.250342 247.490647 
" clip-path="url(#pfe83a07c6a)"/>
    <path d="M 197.962567 247.512423 
L 191.837382 250.074406 
L 192.587468 250.720421 
L 187.990743 251.203465 
L 191.56248 248.269882 
L 191.49572 249.25756 
L 197.620904 246.695577 
L 197.962567 247.512423 
" clip-path="url(#pfe83a07c6a)"/>
    <path d="M 212.689242 247.52383 
L 204.216475 250.358956 
L 204.91727 251.058135 
L 200.297519 251.203465 
L 204.074377 248.539153 
L 203.935511 249.519296 
L 212.408278 246.68417 
L 212.689242 247.52383 
" clip-path="url(#pfe83a07c6a)"/>
    <path d="M 65.074902 222.47991 
L 73.437332 224.34538 
L 73.198021 223.38481 
L 77.229753 225.644977 
L 72.619684 225.977351 
L 73.244553 225.20956 
L 64.882123 223.34409 
L 65.074902 222.47991 
" clip-path="url(#pfe83a07c6a)"/>
    <path d="M 79.854449 222.485558 
L 85.817465 224.148326 
L 85.628847 223.176531 
L 89.53653 225.644977 
L 84.915375 225.735182 
L 85.57964 225.00121 
L 79.616625 223.338442 
L 79.854449 222.485558 
" clip-path="url(#pfe83a07c6a)"/>
    <path d="M 94.646842 222.497042 
L 98.26296 223.841499 
L 98.156561 222.857303 
L 101.843307 225.644977 
L 97.230882 225.347053 
L 97.954401 224.671416 
L 94.338282 223.326958 
L 94.646842 222.497042 
" clip-path="url(#pfe83a07c6a)"/>
    <path d="M 109.465218 222.525353 
L 110.885888 223.317652 
L 110.930502 222.328726 
L 114.150083 225.644977 
L 109.636718 224.64861 
L 110.454626 224.090947 
L 109.033956 223.298647 
L 109.465218 222.525353 
" clip-path="url(#pfe83a07c6a)"/>
    <path d="M 124.279909 222.666975 
L 124.524934 222.940273 
L 124.826505 222.176926 
L 126.45686 225.644977 
L 123.186719 223.647074 
L 123.978339 223.430322 
L 123.733314 223.157025 
L 124.279909 222.666975 
" clip-path="url(#pfe83a07c6a)"/>
    <path d="M 139.036934 222.912 
L 139.036934 223.185298 
L 139.583529 222.912 
L 138.763636 225.644977 
L 137.943743 222.912 
L 138.490339 223.185298 
L 138.490339 222.912 
L 139.036934 222.912 
" clip-path="url(#pfe83a07c6a)"/>
    <path d="M 153.793959 223.157025 
L 153.548934 223.430322 
L 154.340554 223.647074 
L 151.070413 225.644977 
L 152.700768 222.176926 
L 153.002339 222.940273 
L 153.247363 222.666975 
L 153.793959 223.157025 
" clip-path="url(#pfe83a07c6a)"/>
    <path d="M 168.493317 223.298647 
L 167.072646 224.090947 
L 167.890555 224.64861 
L 163.37719 225.644977 
L 166.59677 222.328726 
L 166.641385 223.317652 
L 168.062055 222.525353 
L 168.493317 223.298647 
" clip-path="url(#pfe83a07c6a)"/>
    <path d="M 183.188991 223.326958 
L 179.572872 224.671416 
L 180.29639 225.347053 
L 175.683966 225.644977 
L 179.370711 222.857303 
L 179.264312 223.841499 
L 182.880431 222.497042 
L 183.188991 223.326958 
" clip-path="url(#pfe83a07c6a)"/>
    <path d="M 197.910648 223.338442 
L 191.947632 225.00121 
L 192.611898 225.735182 
L 187.990743 225.644977 
L 191.898426 223.176531 
L 191.709808 224.148326 
L 197.672824 222.485558 
L 197.910648 223.338442 
" clip-path="url(#pfe83a07c6a)"/>
    <path d="M 212.64515 223.34409 
L 204.28272 225.20956 
L 204.907589 225.977351 
L 200.297519 225.644977 
L 204.329251 223.38481 
L 204.089941 224.34538 
L 212.452371 222.47991 
L 212.64515 223.34409 
" clip-path="url(#pfe83a07c6a)"/>
    <path d="M 65.027587 198.280018 
L 73.318988 199.20483 
L 72.977156 198.275791 
L 77.229753 200.086488 
L 72.682705 200.915684 
L 73.220838 200.084795 
L 64.929437 199.159982 
L 65.027587 198.280018 
" clip-path="url(#pfe83a07c6a)"/>
    <path d="M 79.79667 198.28153 
L 85.651437 199.097822 
L 85.335233 198.15975 
L 89.53653 200.086488 
L 84.968435 200.790568 
L 85.529171 199.974761 
L 79.674404 199.15847 
L 79.79667 198.28153 
" clip-path="url(#pfe83a07c6a)"/>
    <path d="M 94.573475 198.284746 
L 98.006935 198.923019 
L 97.733506 197.971599 
L 101.843307 200.086488 
L 97.24803 200.583122 
L 97.845109 199.793527 
L 94.411649 199.155254 
L 94.573475 198.284746 
" clip-path="url(#pfe83a07c6a)"/>
    <path d="M 109.368499 198.293558 
L 110.431018 198.589838 
L 110.2424 197.618042 
L 114.150083 200.086488 
L 109.528928 200.176694 
L 110.193194 199.442722 
L 109.130675 199.146442 
L 109.368499 198.293558 
" clip-path="url(#pfe83a07c6a)"/>
    <path d="M 124.14326 198.474975 
L 124.388285 198.611624 
L 124.416558 197.984926 
L 126.45686 200.086488 
L 123.596665 199.455074 
L 124.114988 199.101674 
L 123.869963 198.965025 
L 124.14326 198.474975 
" clip-path="url(#pfe83a07c6a)"/>
    <path d="M 138.900285 198.72 
L 138.900285 198.856649 
L 139.173583 198.72 
L 138.763636 200.086488 
L 138.35369 198.72 
L 138.626988 198.856649 
L 138.626988 198.72 
L 138.900285 198.72 
" clip-path="url(#pfe83a07c6a)"/>
    <path d="M 153.65731 198.965025 
L 153.412285 199.101674 
L 153.930608 199.455074 
L 151.070413 200.086488 
L 153.110715 197.984926 
L 153.138988 198.611624 
L 153.384012 198.474975 
L 153.65731 198.965025 
" clip-path="url(#pfe83a07c6a)"/>
    <path d="M 168.396598 199.146442 
L 167.334079 199.442722 
L 167.998345 200.176694 
L 163.37719 200.086488 
L 167.284873 197.618042 
L 167.096255 198.589838 
L 168.158774 198.293558 
L 168.396598 199.146442 
" clip-path="url(#pfe83a07c6a)"/>
    <path d="M 183.115624 199.155254 
L 179.682164 199.793527 
L 180.279243 200.583122 
L 175.683966 200.086488 
L 179.793766 197.971599 
L 179.520338 198.923019 
L 182.953798 198.284746 
L 183.115624 199.155254 
" clip-path="url(#pfe83a07c6a)"/>
    <path d="M 197.852868 199.15847 
L 191.998102 199.974761 
L 192.558837 200.790568 
L 187.990743 200.086488 
L 192.19204 198.15975 
L 191.875836 199.097822 
L 197.730603 198.28153 
L 197.852868 199.15847 
" clip-path="url(#pfe83a07c6a)"/>
    <path d="M 212.597835 199.159982 
L 204.306435 200.084795 
L 204.844568 200.915684 
L 200.297519 200.086488 
L 204.550117 198.275791 
L 204.208285 199.20483 
L 212.499685 198.280018 
L 212.597835 199.159982 
" clip-path="url(#pfe83a07c6a)"/>
    <path d="M 64.978512 174.085289 
L 73.245357 174.085289 
L 72.802646 173.199868 
L 77.229753 174.528 
L 72.802646 175.856132 
L 73.245357 174.970711 
L 64.978512 174.970711 
L 64.978512 174.085289 
" clip-path="url(#pfe83a07c6a)"/>
    <path d="M 79.735537 174.085289 
L 85.552133 174.085289 
L 85.109423 173.199868 
L 89.53653 174.528 
L 85.109423 175.856132 
L 85.552133 174.970711 
L 79.735537 174.970711 
L 79.735537 174.085289 
" clip-path="url(#pfe83a07c6a)"/>
    <path d="M 94.492562 174.085289 
L 97.85891 174.085289 
L 97.416199 173.199868 
L 101.843307 174.528 
L 97.416199 175.856132 
L 97.85891 174.970711 
L 94.492562 174.970711 
L 94.492562 174.085289 
" clip-path="url(#pfe83a07c6a)"/>
    <path d="M 109.249587 174.085289 
L 110.165687 174.085289 
L 109.722976 173.199868 
L 114.150083 174.528 
L 109.722976 175.856132 
L 110.165687 174.970711 
L 109.249587 174.970711 
L 109.249587 174.085289 
" clip-path="url(#pfe83a07c6a)"/>
    <path d="M 124.006612 174.282975 
L 124.251636 174.282975 
L 124.006612 173.792926 
L 126.45686 174.528 
L 124.006612 175.263074 
L 124.251636 174.773025 
L 124.006612 174.773025 
L 124.006612 174.282975 
" clip-path="url(#pfe83a07c6a)"/>
    <path d="M 139.206347 174.528 
L 138.984992 174.144601 
L 138.542281 174.144601 
L 138.320926 174.528 
L 138.542281 174.911399 
L 138.984992 174.911399 
L 139.206347 174.528 
L 138.984992 174.144601 
" clip-path="url(#pfe83a07c6a)"/>
    <path d="M 153.520661 174.773025 
L 153.275636 174.773025 
L 153.520661 175.263074 
L 151.070413 174.528 
L 153.520661 173.792926 
L 153.275636 174.282975 
L 153.520661 174.282975 
L 153.520661 174.773025 
" clip-path="url(#pfe83a07c6a)"/>
    <path d="M 168.277686 174.970711 
L 167.361586 174.970711 
L 167.804297 175.856132 
L 163.37719 174.528 
L 167.804297 173.199868 
L 167.361586 174.085289 
L 168.277686 174.085289 
L 168.277686 174.970711 
" clip-path="url(#pfe83a07c6a)"/>
    <path d="M 183.034711 174.970711 
L 179.668363 174.970711 
L 180.111074 175.856132 
L 175.683966 174.528 
L 180.111074 173.199868 
L 179.668363 174.085289 
L 183.034711 174.085289 
L 183.034711 174.970711 
" clip-path="url(#pfe83a07c6a)"/>
    <path d="M 197.791736 174.970711 
L 191.975139 174.970711 
L 192.41785 175.856132 
L 187.990743 174.528 
L 192.41785 173.199868 
L 191.975139 174.085289 
L 197.791736 174.085289 
L 197.791736 174.970711 
" clip-path="url(#pfe83a07c6a)"/>
    <path d="M 212.54876 174.970711 
L 204.281916 174.970711 
L 204.724627 175.856132 
L 200.297519 174.528 
L 204.724627 173.199868 
L 204.281916 174.085289 
L 212.54876 174.085289 
L 212.54876 174.970711 
" clip-path="url(#pfe83a07c6a)"/>
    <path d="M 64.929437 149.896018 
L 73.220838 148.971205 
L 72.682705 148.140316 
L 77.229753 148.969512 
L 72.977156 150.780209 
L 73.318988 149.85117 
L 65.027587 150.775982 
L 64.929437 149.896018 
" clip-path="url(#pfe83a07c6a)"/>
    <path d="M 79.674404 149.89753 
L 85.529171 149.081239 
L 84.968435 148.265432 
L 89.53653 148.969512 
L 85.335233 150.89625 
L 85.651437 149.958178 
L 79.79667 150.77447 
L 79.674404 149.89753 
" clip-path="url(#pfe83a07c6a)"/>
    <path d="M 94.411649 149.900746 
L 97.845109 149.262473 
L 97.24803 148.472878 
L 101.843307 148.969512 
L 97.733506 151.084401 
L 98.006935 150.132981 
L 94.573475 150.771254 
L 94.411649 149.900746 
" clip-path="url(#pfe83a07c6a)"/>
    <path d="M 109.130675 149.909558 
L 110.193194 149.613278 
L 109.528928 148.879306 
L 114.150083 148.969512 
L 110.2424 151.437958 
L 110.431018 150.466162 
L 109.368499 150.762442 
L 109.130675 149.909558 
" clip-path="url(#pfe83a07c6a)"/>
    <path d="M 123.869963 150.090975 
L 124.114988 149.954326 
L 123.596665 149.600926 
L 126.45686 148.969512 
L 124.416558 151.071074 
L 124.388285 150.444376 
L 124.14326 150.581025 
L 123.869963 150.090975 
" clip-path="url(#pfe83a07c6a)"/>
    <path d="M 138.626988 150.336 
L 138.626988 150.199351 
L 138.35369 150.336 
L 138.763636 148.969512 
L 139.173583 150.336 
L 138.900285 150.199351 
L 138.900285 150.336 
L 138.626988 150.336 
" clip-path="url(#pfe83a07c6a)"/>
    <path d="M 153.384012 150.581025 
L 153.138988 150.444376 
L 153.110715 151.071074 
L 151.070413 148.969512 
L 153.930608 149.600926 
L 153.412285 149.954326 
L 153.65731 150.090975 
L 153.384012 150.581025 
" clip-path="url(#pfe83a07c6a)"/>
    <path d="M 168.158774 150.762442 
L 167.096255 150.466162 
L 167.284873 151.437958 
L 163.37719 148.969512 
L 167.998345 148.879306 
L 167.334079 149.613278 
L 168.396598 149.909558 
L 168.158774 150.762442 
" clip-path="url(#pfe83a07c6a)"/>
    <path d="M 182.953798 150.771254 
L 179.520338 150.132981 
L 179.793766 151.084401 
L 175.683966 148.969512 
L 180.279243 148.472878 
L 179.682164 149.262473 
L 183.115624 149.900746 
L 182.953798 150.771254 
" clip-path="url(#pfe83a07c6a)"/>
    <path d="M 197.730603 150.77447 
L 191.875836 149.958178 
L 192.19204 150.89625 
L 187.990743 148.969512 
L 192.558837 148.265432 
L 191.998102 149.081239 
L 197.852868 149.89753 
L 197.730603 150.77447 
" clip-path="url(#pfe83a07c6a)"/>
    <path d="M 212.499685 150.775982 
L 204.208285 149.85117 
L 204.550117 150.780209 
L 200.297519 148.969512 
L 204.844568 148.140316 
L 204.306435 148.971205 
L 212.597835 149.896018 
L 212.499685 150.775982 
" clip-path="url(#pfe83a07c6a)"/>
    <path d="M 64.882123 125.71191 
L 73.244553 123.84644 
L 72.619684 123.078649 
L 77.229753 123.411023 
L 73.198021 125.67119 
L 73.437332 124.71062 
L 65.074902 126.57609 
L 64.882123 125.71191 
" clip-path="url(#pfe83a07c6a)"/>
    <path d="M 79.616625 125.717558 
L 85.57964 124.05479 
L 84.915375 123.320818 
L 89.53653 123.411023 
L 85.628847 125.879469 
L 85.817465 124.907674 
L 79.854449 126.570442 
L 79.616625 125.717558 
" clip-path="url(#pfe83a07c6a)"/>
    <path d="M 94.338282 125.729042 
L 97.954401 124.384584 
L 97.230882 123.708947 
L 101.843307 123.411023 
L 98.156561 126.198697 
L 98.26296 125.214501 
L 94.646842 126.558958 
L 94.338282 125.729042 
" clip-path="url(#pfe83a07c6a)"/>
    <path d="M 109.033956 125.757353 
L 110.454626 124.965053 
L 109.636718 124.40739 
L 114.150083 123.411023 
L 110.930502 126.727274 
L 110.885888 125.738348 
L 109.465218 126.530647 
L 109.033956 125.757353 
" clip-path="url(#pfe83a07c6a)"/>
    <path d="M 123.733314 125.898975 
L 123.978339 125.625678 
L 123.186719 125.408926 
L 126.45686 123.411023 
L 124.826505 126.879074 
L 124.524934 126.115727 
L 124.279909 126.389025 
L 123.733314 125.898975 
" clip-path="url(#pfe83a07c6a)"/>
    <path d="M 138.490339 126.144 
L 138.490339 125.870702 
L 137.943743 126.144 
L 138.763636 123.411023 
L 139.583529 126.144 
L 139.036934 125.870702 
L 139.036934 126.144 
L 138.490339 126.144 
" clip-path="url(#pfe83a07c6a)"/>
    <path d="M 153.247363 126.389025 
L 153.002339 126.115727 
L 152.700768 126.879074 
L 151.070413 123.411023 
L 154.340554 125.408926 
L 153.548934 125.625678 
L 153.793959 125.898975 
L 153.247363 126.389025 
" clip-path="url(#pfe83a07c6a)"/>
    <path d="M 168.062055 126.530647 
L 166.641385 125.738348 
L 166.59677 126.727274 
L 163.37719 123.411023 
L 167.890555 124.40739 
L 167.072646 124.965053 
L 168.493317 125.757353 
L 168.062055 126.530647 
" clip-path="url(#pfe83a07c6a)"/>
    <path d="M 182.880431 126.558958 
L 179.264312 125.214501 
L 179.370711 126.198697 
L 175.683966 123.411023 
L 180.29639 123.708947 
L 179.572872 124.384584 
L 183.188991 125.729042 
L 182.880431 126.558958 
" clip-path="url(#pfe83a07c6a)"/>
    <path d="M 197.672824 126.570442 
L 191.709808 124.907674 
L 191.898426 125.879469 
L 187.990743 123.411023 
L 192.611898 123.320818 
L 191.947632 124.05479 
L 197.910648 125.717558 
L 197.672824 126.570442 
" clip-path="url(#pfe83a07c6a)"/>
    <path d="M 212.452371 126.57609 
L 204.089941 124.71062 
L 204.329251 125.67119 
L 200.297519 123.411023 
L 204.907589 123.078649 
L 204.28272 123.84644 
L 212.64515 125.71191 
L 212.452371 126.57609 
" clip-path="url(#pfe83a07c6a)"/>
    <path d="M 64.83803 101.53217 
L 73.310798 98.697044 
L 72.610003 97.997865 
L 77.229753 97.852535 
L 73.452896 100.516847 
L 73.591762 99.536704 
L 65.118994 102.37183 
L 64.83803 101.53217 
" clip-path="url(#pfe83a07c6a)"/>
    <path d="M 79.564706 101.543577 
L 85.68989 98.981594 
L 84.939805 98.335579 
L 89.53653 97.852535 
L 85.964792 100.786118 
L 86.031553 99.79844 
L 79.906368 102.360423 
L 79.564706 101.543577 
" clip-path="url(#pfe83a07c6a)"/>
    <path d="M 94.276931 101.565353 
L 98.14785 99.406565 
L 97.329941 98.848901 
L 101.843307 97.852535 
L 98.623726 101.168785 
L 98.579112 100.17986 
L 94.708193 102.338647 
L 94.276931 101.565353 
" clip-path="url(#pfe83a07c6a)"/>
    <path d="M 108.965528 101.612436 
L 110.809952 100.0695 
L 109.902271 99.674432 
L 114.150083 97.852535 
L 111.606624 101.711813 
L 111.37807 100.748628 
L 109.533646 102.291564 
L 108.965528 101.612436 
" clip-path="url(#pfe83a07c6a)"/>
    <path d="M 123.626605 101.72487 
L 124.032686 101.045464 
L 123.045544 100.971211 
L 126.45686 97.852535 
L 125.325582 102.333989 
L 124.792699 101.499723 
L 124.386618 102.17913 
L 123.626605 101.72487 
" clip-path="url(#pfe83a07c6a)"/>
    <path d="M 138.35369 101.952 
L 138.35369 101.542054 
L 137.533797 101.952 
L 138.763636 97.852535 
L 139.993476 101.952 
L 139.173583 101.542054 
L 139.173583 101.952 
L 138.35369 101.952 
" clip-path="url(#pfe83a07c6a)"/>
    <path d="M 153.140655 102.17913 
L 152.734574 101.499723 
L 152.20169 102.333989 
L 151.070413 97.852535 
L 154.481729 100.971211 
L 153.494587 101.045464 
L 153.900668 101.72487 
L 153.140655 102.17913 
" clip-path="url(#pfe83a07c6a)"/>
    <path d="M 167.993627 102.291564 
L 166.149203 100.748628 
L 165.920649 101.711813 
L 163.37719 97.852535 
L 167.625002 99.674432 
L 166.71732 100.0695 
L 168.561745 101.612436 
L 167.993627 102.291564 
" clip-path="url(#pfe83a07c6a)"/>
    <path d="M 182.81908 102.338647 
L 178.948161 100.17986 
L 178.903547 101.168785 
L 175.683966 97.852535 
L 180.197332 98.848901 
L 179.379423 99.406565 
L 183.250342 101.565353 
L 182.81908 102.338647 
" clip-path="url(#pfe83a07c6a)"/>
    <path d="M 197.620904 102.360423 
L 191.49572 99.79844 
L 191.56248 100.786118 
L 187.990743 97.852535 
L 192.587468 98.335579 
L 191.837382 98.981594 
L 197.962567 101.543577 
L 197.620904 102.360423 
" clip-path="url(#pfe83a07c6a)"/>
    <path d="M 212.408278 102.37183 
L 203.935511 99.536704 
L 204.074377 100.516847 
L 200.297519 97.852535 
L 204.91727 97.997865 
L 204.216475 98.697044 
L 212.689242 101.53217 
L 212.408278 102.37183 
" clip-path="url(#pfe83a07c6a)"/>
    <path d="M 64.798133 77.355703 
L 73.4107 73.513163 
L 72.645645 72.884948 
L 77.229753 72.294047 
L 73.72792 75.31073 
L 73.771459 74.321757 
L 65.158892 78.164297 
L 64.798133 77.355703 
" clip-path="url(#pfe83a07c6a)"/>
    <path d="M 79.519906 77.373353 
L 85.841073 73.848077 
L 85.023164 73.290413 
L 89.53653 72.294047 
L 86.316949 75.610297 
L 86.272335 74.621372 
L 79.951168 78.146647 
L 79.519906 77.373353 
" clip-path="url(#pfe83a07c6a)"/>
    <path d="M 94.228395 77.404742 
L 98.381814 74.316293 
L 97.498221 73.869944 
L 101.843307 72.294047 
L 99.083225 76.001494 
L 98.910149 75.02681 
L 94.756729 78.115258 
L 94.228395 77.404742 
" clip-path="url(#pfe83a07c6a)"/>
    <path d="M 108.919957 77.464471 
L 111.160694 74.965182 
L 110.205906 74.703753 
L 114.150083 72.294047 
L 112.183682 76.476926 
L 111.819952 75.556239 
L 109.579216 78.055529 
L 108.919957 77.464471 
" clip-path="url(#pfe83a07c6a)"/>
    <path d="M 123.602634 77.578907 
L 124.423045 75.748755 
L 123.433996 75.790546 
L 126.45686 72.294047 
L 125.857863 76.877105 
L 125.231 76.110941 
L 124.410589 77.941093 
L 123.602634 77.578907 
" clip-path="url(#pfe83a07c6a)"/>
    <path d="M 138.320926 77.76 
L 138.320926 76.278444 
L 137.435504 76.721154 
L 138.763636 72.294047 
L 140.091769 76.721154 
L 139.206347 76.278444 
L 139.206347 77.76 
L 138.320926 77.76 
" clip-path="url(#pfe83a07c6a)"/>
    <path d="M 153.116683 77.941093 
L 152.296272 76.110941 
L 151.66941 76.877105 
L 151.070413 72.294047 
L 154.093277 75.790546 
L 153.104228 75.748755 
L 153.924639 77.578907 
L 153.116683 77.941093 
" clip-path="url(#pfe83a07c6a)"/>
    <path d="M 167.948057 78.055529 
L 165.70732 75.556239 
L 165.343591 76.476926 
L 163.37719 72.294047 
L 167.321366 74.703753 
L 166.366579 74.965182 
L 168.607315 77.464471 
L 167.948057 78.055529 
" clip-path="url(#pfe83a07c6a)"/>
    <path d="M 182.770544 78.115258 
L 178.617124 75.02681 
L 178.444048 76.001494 
L 175.683966 72.294047 
L 180.029051 73.869944 
L 179.145459 74.316293 
L 183.298878 77.404742 
L 182.770544 78.115258 
" clip-path="url(#pfe83a07c6a)"/>
    <path d="M 197.576105 78.146647 
L 191.254938 74.621372 
L 191.210323 75.610297 
L 187.990743 72.294047 
L 192.504108 73.290413 
L 191.686199 73.848077 
L 198.007366 77.373353 
L 197.576105 78.146647 
" clip-path="url(#pfe83a07c6a)"/>
    <path d="M 212.368381 78.164297 
L 203.755814 74.321757 
L 203.799353 75.31073 
L 200.297519 72.294047 
L 204.881628 72.884948 
L 204.116572 73.513163 
L 212.72914 77.355703 
L 212.368381 78.164297 
" clip-path="url(#pfe83a07c6a)"/>
    <path d="M 64.762882 53.181353 
L 73.534297 48.289589 
L 72.716388 47.731925 
L 77.229753 46.735559 
L 74.010173 50.051809 
L 73.965558 49.062883 
L 65.194143 53.954647 
L 64.762882 53.181353 
" clip-path="url(#pfe83a07c6a)"/>
    <path d="M 79.482362 53.204826 
L 86.01479 48.650958 
L 85.145266 48.177785 
L 89.53653 46.735559 
L 86.664315 50.356829 
L 86.521139 49.377306 
L 79.988712 53.931174 
L 79.482362 53.204826 
" clip-path="url(#pfe83a07c6a)"/>
    <path d="M 94.191159 53.243733 
L 98.6235 49.123917 
L 97.696428 48.776786 
L 101.843307 46.735559 
L 99.504845 50.722388 
L 99.226306 49.772451 
L 94.793965 53.892267 
L 94.191159 53.243733 
" clip-path="url(#pfe83a07c6a)"/>
    <path d="M 108.889841 53.309976 
L 111.468126 49.715243 
L 110.490612 49.558941 
L 114.150083 46.735559 
L 112.649084 51.107082 
L 112.187617 50.23129 
L 109.609332 53.826024 
L 108.889841 53.309976 
" clip-path="url(#pfe83a07c6a)"/>
    <path d="M 123.589888 53.418555 
L 124.695127 50.336629 
L 123.712234 50.454462 
L 126.45686 46.735559 
L 126.212577 51.351135 
L 125.528575 50.63552 
L 124.423336 53.717445 
L 123.589888 53.418555 
" clip-path="url(#pfe83a07c6a)"/>
    <path d="M 138.320926 53.568 
L 138.320926 50.719955 
L 137.435504 51.162666 
L 138.763636 46.735559 
L 140.091769 51.162666 
L 139.206347 50.719955 
L 139.206347 53.568 
L 138.320926 53.568 
" clip-path="url(#pfe83a07c6a)"/>
    <path d="M 153.103937 53.717445 
L 151.998698 50.63552 
L 151.314695 51.351135 
L 151.070413 46.735559 
L 153.815039 50.454462 
L 152.832146 50.336629 
L 153.937385 53.418555 
L 153.103937 53.717445 
" clip-path="url(#pfe83a07c6a)"/>
    <path d="M 167.917941 53.826024 
L 165.339656 50.23129 
L 164.878189 51.107082 
L 163.37719 46.735559 
L 167.03666 49.558941 
L 166.059146 49.715243 
L 168.637431 53.309976 
L 167.917941 53.826024 
" clip-path="url(#pfe83a07c6a)"/>
    <path d="M 182.733308 53.892267 
L 178.300967 49.772451 
L 178.022428 50.722388 
L 175.683966 46.735559 
L 179.830845 48.776786 
L 178.903772 49.123917 
L 183.336114 53.243733 
L 182.733308 53.892267 
" clip-path="url(#pfe83a07c6a)"/>
    <path d="M 197.538561 53.931174 
L 191.006133 49.377306 
L 190.862958 50.356829 
L 187.990743 46.735559 
L 192.382007 48.177785 
L 191.512483 48.650958 
L 198.04491 53.204826 
L 197.538561 53.931174 
" clip-path="url(#pfe83a07c6a)"/>
    <path d="M 212.33313 53.954647 
L 203.561714 49.062883 
L 203.5171 50.051809 
L 200.297519 46.735559 
L 204.810885 47.731925 
L 203.992976 48.289589 
L 212.764391 53.181353 
L 212.33313 53.954647 
" clip-path="url(#pfe83a07c6a)"/>
   </g>
   <g id="matplotlib.axis_1">
    <g id="xtick_1">
     <g id="line2d_1">
      <defs>
       <path id="me20e9921d4" d="M 0 0 
L 0 3.5 
" style="stroke: #000000; stroke-width: 0.8"/>
      </defs>
      <g>
       <use xlink:href="#me20e9921d4" x="64.978512" y="307.584" style="stroke: #000000; stroke-width: 0.8"/>
      </g>
     </g>
     <g id="text_1">
      <!-- −5.0 -->
      <g transform="translate(52.837106 322.182437) scale(0.1 -0.1)">
       <defs>
        <path id="DejaVuSans-2212" d="M 678 2272 
L 4684 2272 
L 4684 1741 
L 678 1741 
L 678 2272 
z
" transform="scale(0.015625)"/>
        <path id="DejaVuSans-35" d="M 691 4666 
L 3169 4666 
L 3169 4134 
L 1269 4134 
L 1269 2991 
Q 1406 3038 1543 3061 
Q 1681 3084 1819 3084 
Q 2600 3084 3056 2656 
Q 3513 2228 3513 1497 
Q 3513 744 3044 326 
Q 2575 -91 1722 -91 
Q 1428 -91 1123 -41 
Q 819 9 494 109 
L 494 744 
Q 775 591 1075 516 
Q 1375 441 1709 441 
Q 2250 441 2565 725 
Q 2881 1009 2881 1497 
Q 2881 1984 2565 2268 
Q 2250 2553 1709 2553 
Q 1456 2553 1204 2497 
Q 953 2441 691 2322 
L 691 4666 
z
" transform="scale(0.015625)"/>
        <path id="DejaVuSans-2e" d="M 684 794 
L 1344 794 
L 1344 0 
L 684 0 
L 684 794 
z
" transform="scale(0.015625)"/>
        <path id="DejaVuSans-30" d="M 2034 4250 
Q 1547 4250 1301 3770 
Q 1056 3291 1056 2328 
Q 1056 1369 1301 889 
Q 1547 409 2034 409 
Q 2525 409 2770 889 
Q 3016 1369 3016 2328 
Q 3016 3291 2770 3770 
Q 2525 4250 2034 4250 
z
M 2034 4750 
Q 2819 4750 3233 4129 
Q 3647 3509 3647 2328 
Q 3647 1150 3233 529 
Q 2819 -91 2034 -91 
Q 1250 -91 836 529 
Q 422 1150 422 2328 
Q 422 3509 836 4129 
Q 1250 4750 2034 4750 
z
" transform="scale(0.015625)"/>
       </defs>
       <use xlink:href="#DejaVuSans-2212"/>
       <use xlink:href="#DejaVuSans-35" x="83.789062"/>
       <use xlink:href="#DejaVuSans-2e" x="147.412109"/>
       <use xlink:href="#DejaVuSans-30" x="179.199219"/>
      </g>
     </g>
    </g>
    <g id="xtick_2">
     <g id="line2d_2">
      <g>
       <use xlink:href="#me20e9921d4" x="101.871074" y="307.584" style="stroke: #000000; stroke-width: 0.8"/>
      </g>
     </g>
     <g id="text_2">
      <!-- −2.5 -->
      <g transform="translate(89.729668 322.182437) scale(0.1 -0.1)">
       <defs>
        <path id="DejaVuSans-32" d="M 1228 531 
L 3431 531 
L 3431 0 
L 469 0 
L 469 531 
Q 828 903 1448 1529 
Q 2069 2156 2228 2338 
Q 2531 2678 2651 2914 
Q 2772 3150 2772 3378 
Q 2772 3750 2511 3984 
Q 2250 4219 1831 4219 
Q 1534 4219 1204 4116 
Q 875 4013 500 3803 
L 500 4441 
Q 881 4594 1212 4672 
Q 1544 4750 1819 4750 
Q 2544 4750 2975 4387 
Q 3406 4025 3406 3419 
Q 3406 3131 3298 2873 
Q 3191 2616 2906 2266 
Q 2828 2175 2409 1742 
Q 1991 1309 1228 531 
z
" transform="scale(0.015625)"/>
       </defs>
       <use xlink:href="#DejaVuSans-2212"/>
       <use xlink:href="#DejaVuSans-32" x="83.789062"/>
       <use xlink:href="#DejaVuSans-2e" x="147.412109"/>
       <use xlink:href="#DejaVuSans-35" x="179.199219"/>
      </g>
     </g>
    </g>
    <g id="xtick_3">
     <g id="line2d_3">
      <g>
       <use xlink:href="#me20e9921d4" x="138.763636" y="307.584" style="stroke: #000000; stroke-width: 0.8"/>
      </g>
     </g>
     <g id="text_3">
      <!-- 0.0 -->
      <g transform="translate(130.812074 322.182437) scale(0.1 -0.1)">
       <use xlink:href="#DejaVuSans-30"/>
       <use xlink:href="#DejaVuSans-2e" x="63.623047"/>
       <use xlink:href="#DejaVuSans-30" x="95.410156"/>
      </g>
     </g>
    </g>
    <g id="xtick_4">
     <g id="line2d_4">
      <g>
       <use xlink:href="#me20e9921d4" x="175.656198" y="307.584" style="stroke: #000000; stroke-width: 0.8"/>
      </g>
     </g>
     <g id="text_4">
      <!-- 2.5 -->
      <g transform="translate(167.704636 322.182437) scale(0.1 -0.1)">
       <use xlink:href="#DejaVuSans-32"/>
       <use xlink:href="#DejaVuSans-2e" x="63.623047"/>
       <use xlink:href="#DejaVuSans-35" x="95.410156"/>
      </g>
     </g>
    </g>
    <g id="xtick_5">
     <g id="line2d_5">
      <g>
       <use xlink:href="#me20e9921d4" x="212.54876" y="307.584" style="stroke: #000000; stroke-width: 0.8"/>
      </g>
     </g>
     <g id="text_5">
      <!-- 5.0 -->
      <g transform="translate(204.597198 322.182437) scale(0.1 -0.1)">
       <use xlink:href="#DejaVuSans-35"/>
       <use xlink:href="#DejaVuSans-2e" x="63.623047"/>
       <use xlink:href="#DejaVuSans-30" x="95.410156"/>
      </g>
     </g>
    </g>
   </g>
   <g id="matplotlib.axis_2">
    <g id="ytick_1">
     <g id="line2d_6">
      <defs>
       <path id="me64d5c64af" d="M 0 0 
L -3.5 0 
" style="stroke: #000000; stroke-width: 0.8"/>
      </defs>
      <g>
       <use xlink:href="#me64d5c64af" x="57.6" y="271.296" style="stroke: #000000; stroke-width: 0.8"/>
      </g>
     </g>
     <g id="text_6">
      <!-- −4 -->
      <g transform="translate(35.857813 275.095219) scale(0.1 -0.1)">
       <defs>
        <path id="DejaVuSans-34" d="M 2419 4116 
L 825 1625 
L 2419 1625 
L 2419 4116 
z
M 2253 4666 
L 3047 4666 
L 3047 1625 
L 3713 1625 
L 3713 1100 
L 3047 1100 
L 3047 0 
L 2419 0 
L 2419 1100 
L 313 1100 
L 313 1709 
L 2253 4666 
z
" transform="scale(0.015625)"/>
       </defs>
       <use xlink:href="#DejaVuSans-2212"/>
       <use xlink:href="#DejaVuSans-34" x="83.789062"/>
      </g>
     </g>
    </g>
    <g id="ytick_2">
     <g id="line2d_7">
      <g>
       <use xlink:href="#me64d5c64af" x="57.6" y="222.912" style="stroke: #000000; stroke-width: 0.8"/>
      </g>
     </g>
     <g id="text_7">
      <!-- −2 -->
      <g transform="translate(35.857813 226.711219) scale(0.1 -0.1)">
       <use xlink:href="#DejaVuSans-2212"/>
       <use xlink:href="#DejaVuSans-32" x="83.789062"/>
      </g>
     </g>
    </g>
    <g id="ytick_3">
     <g id="line2d_8">
      <g>
       <use xlink:href="#me64d5c64af" x="57.6" y="174.528" style="stroke: #000000; stroke-width: 0.8"/>
      </g>
     </g>
     <g id="text_8">
      <!-- 0 -->
      <g transform="translate(44.2375 178.327219) scale(0.1 -0.1)">
       <use xlink:href="#DejaVuSans-30"/>
      </g>
     </g>
    </g>
    <g id="ytick_4">
     <g id="line2d_9">
      <g>
       <use xlink:href="#me64d5c64af" x="57.6" y="126.144" style="stroke: #000000; stroke-width: 0.8"/>
      </g>
     </g>
     <g id="text_9">
      <!-- 2 -->
      <g transform="translate(44.2375 129.943219) scale(0.1 -0.1)">
       <use xlink:href="#DejaVuSans-32"/>
      </g>
     </g>
    </g>
    <g id="ytick_5">
     <g id="line2d_10">
      <g>
       <use xlink:href="#me64d5c64af" x="57.6" y="77.76" style="stroke: #000000; stroke-width: 0.8"/>
      </g>
     </g>
     <g id="text_10">
      <!-- 4 -->
      <g transform="translate(44.2375 81.559219) scale(0.1 -0.1)">
       <use xlink:href="#DejaVuSans-34"/>
      </g>
     </g>
    </g>
   </g>
   <g id="patch_3">
    <path d="M 57.6 307.584 
L 57.6 41.472 
" style="fill: none; stroke: #000000; stroke-width: 0.8; stroke-linejoin: miter; stroke-linecap: square"/>
   </g>
   <g id="patch_4">
    <path d="M 219.927273 307.584 
L 219.927273 41.472 
" style="fill: none; stroke: #000000; stroke-width: 0.8; stroke-linejoin: miter; stroke-linecap: square"/>
   </g>
   <g id="patch_5">
    <path d="M 57.6 307.584 
L 219.927273 307.584 
" style="fill: none; stroke: #000000; stroke-width: 0.8; stroke-linejoin: miter; stroke-linecap: square"/>
   </g>
   <g id="patch_6">
    <path d="M 57.6 41.472 
L 219.927273 41.472 
" style="fill: none; stroke: #000000; stroke-width: 0.8; stroke-linejoin: miter; stroke-linecap: square"/>
   </g>
  </g>
  <g id="axes_2">
   <g id="patch_7">
    <path d="M 252.392727 307.584 
L 414.72 307.584 
L 414.72 41.472 
L 252.392727 41.472 
z
" style="fill: #ffffff"/>
   </g>
   <g id="matplotlib.axis_3">
    <g id="xtick_6">
     <g id="line2d_11">
      <g>
       <use xlink:href="#me20e9921d4" x="252.392727" y="307.584" style="stroke: #000000; stroke-width: 0.8"/>
      </g>
     </g>
     <g id="text_11">
      <!-- −0.5 -->
      <g transform="translate(240.251321 322.182437) scale(0.1 -0.1)">
       <use xlink:href="#DejaVuSans-2212"/>
       <use xlink:href="#DejaVuSans-30" x="83.789062"/>
       <use xlink:href="#DejaVuSans-2e" x="147.412109"/>
       <use xlink:href="#DejaVuSans-35" x="179.199219"/>
      </g>
     </g>
    </g>
    <g id="xtick_7">
     <g id="line2d_12">
      <g>
       <use xlink:href="#me20e9921d4" x="292.974545" y="307.584" style="stroke: #000000; stroke-width: 0.8"/>
      </g>
     </g>
     <g id="text_12">
      <!-- 0.0 -->
      <g transform="translate(285.022983 322.182437) scale(0.1 -0.1)">
       <use xlink:href="#DejaVuSans-30"/>
       <use xlink:href="#DejaVuSans-2e" x="63.623047"/>
       <use xlink:href="#DejaVuSans-30" x="95.410156"/>
      </g>
     </g>
    </g>
    <g id="xtick_8">
     <g id="line2d_13">
      <g>
       <use xlink:href="#me20e9921d4" x="333.556364" y="307.584" style="stroke: #000000; stroke-width: 0.8"/>
      </g>
     </g>
     <g id="text_13">
      <!-- 0.5 -->
      <g transform="translate(325.604801 322.182437) scale(0.1 -0.1)">
       <use xlink:href="#DejaVuSans-30"/>
       <use xlink:href="#DejaVuSans-2e" x="63.623047"/>
       <use xlink:href="#DejaVuSans-35" x="95.410156"/>
      </g>
     </g>
    </g>
    <g id="xtick_9">
     <g id="line2d_14">
      <g>
       <use xlink:href="#me20e9921d4" x="374.138182" y="307.584" style="stroke: #000000; stroke-width: 0.8"/>
      </g>
     </g>
     <g id="text_14">
      <!-- 1.0 -->
      <g transform="translate(366.186619 322.182437) scale(0.1 -0.1)">
       <defs>
        <path id="DejaVuSans-31" d="M 794 531 
L 1825 531 
L 1825 4091 
L 703 3866 
L 703 4441 
L 1819 4666 
L 2450 4666 
L 2450 531 
L 3481 531 
L 3481 0 
L 794 0 
L 794 531 
z
" transform="scale(0.015625)"/>
       </defs>
       <use xlink:href="#DejaVuSans-31"/>
       <use xlink:href="#DejaVuSans-2e" x="63.623047"/>
       <use xlink:href="#DejaVuSans-30" x="95.410156"/>
      </g>
     </g>
    </g>
    <g id="xtick_10">
     <g id="line2d_15">
      <g>
       <use xlink:href="#me20e9921d4" x="414.72" y="307.584" style="stroke: #000000; stroke-width: 0.8"/>
      </g>
     </g>
     <g id="text_15">
      <!-- 1.5 -->
      <g transform="translate(406.768437 322.182437) scale(0.1 -0.1)">
       <use xlink:href="#DejaVuSans-31"/>
       <use xlink:href="#DejaVuSans-2e" x="63.623047"/>
       <use xlink:href="#DejaVuSans-35" x="95.410156"/>
      </g>
     </g>
    </g>
   </g>
   <g id="matplotlib.axis_4">
    <g id="ytick_6">
     <g id="line2d_16">
      <g>
       <use xlink:href="#me64d5c64af" x="252.392727" y="283.392" style="stroke: #000000; stroke-width: 0.8"/>
      </g>
     </g>
     <g id="text_16">
      <!-- 0 -->
      <g transform="translate(239.030227 287.191219) scale(0.1 -0.1)">
       <use xlink:href="#DejaVuSans-30"/>
      </g>
     </g>
    </g>
    <g id="ytick_7">
     <g id="line2d_17">
      <g>
       <use xlink:href="#me64d5c64af" x="252.392727" y="235.008" style="stroke: #000000; stroke-width: 0.8"/>
      </g>
     </g>
     <g id="text_17">
      <!-- 10 -->
      <g transform="translate(232.667727 238.807219) scale(0.1 -0.1)">
       <use xlink:href="#DejaVuSans-31"/>
       <use xlink:href="#DejaVuSans-30" x="63.623047"/>
      </g>
     </g>
    </g>
    <g id="ytick_8">
     <g id="line2d_18">
      <g>
       <use xlink:href="#me64d5c64af" x="252.392727" y="186.624" style="stroke: #000000; stroke-width: 0.8"/>
      </g>
     </g>
     <g id="text_18">
      <!-- 20 -->
      <g transform="translate(232.667727 190.423219) scale(0.1 -0.1)">
       <use xlink:href="#DejaVuSans-32"/>
       <use xlink:href="#DejaVuSans-30" x="63.623047"/>
      </g>
     </g>
    </g>
    <g id="ytick_9">
     <g id="line2d_19">
      <g>
       <use xlink:href="#me64d5c64af" x="252.392727" y="138.24" style="stroke: #000000; stroke-width: 0.8"/>
      </g>
     </g>
     <g id="text_19">
      <!-- 30 -->
      <g transform="translate(232.667727 142.039219) scale(0.1 -0.1)">
       <defs>
        <path id="DejaVuSans-33" d="M 2597 2516 
Q 3050 2419 3304 2112 
Q 3559 1806 3559 1356 
Q 3559 666 3084 287 
Q 2609 -91 1734 -91 
Q 1441 -91 1130 -33 
Q 819 25 488 141 
L 488 750 
Q 750 597 1062 519 
Q 1375 441 1716 441 
Q 2309 441 2620 675 
Q 2931 909 2931 1356 
Q 2931 1769 2642 2001 
Q 2353 2234 1838 2234 
L 1294 2234 
L 1294 2753 
L 1863 2753 
Q 2328 2753 2575 2939 
Q 2822 3125 2822 3475 
Q 2822 3834 2567 4026 
Q 2313 4219 1838 4219 
Q 1578 4219 1281 4162 
Q 984 4106 628 3988 
L 628 4550 
Q 988 4650 1302 4700 
Q 1616 4750 1894 4750 
Q 2613 4750 3031 4423 
Q 3450 4097 3450 3541 
Q 3450 3153 3228 2886 
Q 3006 2619 2597 2516 
z
" transform="scale(0.015625)"/>
       </defs>
       <use xlink:href="#DejaVuSans-33"/>
       <use xlink:href="#DejaVuSans-30" x="63.623047"/>
      </g>
     </g>
    </g>
    <g id="ytick_10">
     <g id="line2d_20">
      <g>
       <use xlink:href="#me64d5c64af" x="252.392727" y="89.856" style="stroke: #000000; stroke-width: 0.8"/>
      </g>
     </g>
     <g id="text_20">
      <!-- 40 -->
      <g transform="translate(232.667727 93.655219) scale(0.1 -0.1)">
       <use xlink:href="#DejaVuSans-34"/>
       <use xlink:href="#DejaVuSans-30" x="63.623047"/>
      </g>
     </g>
    </g>
    <g id="ytick_11">
     <g id="line2d_21">
      <g>
       <use xlink:href="#me64d5c64af" x="252.392727" y="41.472" style="stroke: #000000; stroke-width: 0.8"/>
      </g>
     </g>
     <g id="text_21">
      <!-- 50 -->
      <g transform="translate(232.667727 45.271219) scale(0.1 -0.1)">
       <use xlink:href="#DejaVuSans-35"/>
       <use xlink:href="#DejaVuSans-30" x="63.623047"/>
      </g>
     </g>
    </g>
   </g>
   <g id="line2d_22">
    <path d="M 293.055709 283.392 
L 374.138182 283.392 
L 374.138182 283.392 
" clip-path="url(#p5324c58815)" style="fill: none; stroke: #1f77b4; stroke-width: 1.5; stroke-linecap: square"/>
   </g>
   <g id="line2d_23">
    <path d="M 293.055709 55.471581 
L 293.2992 178.191429 
L 293.623855 211.920067 
L 294.029673 228.873499 
L 294.516655 239.272533 
L 295.0848 246.352822 
L 295.734109 251.499622 
L 296.464582 255.41456 
L 297.276218 258.493956 
L 298.169018 260.979628 
L 299.142982 263.027905 
L 300.198109 264.744506 
L 301.415564 266.295933 
L 302.795345 267.680173 
L 304.337455 268.907587 
L 306.123055 270.039876 
L 308.233309 271.103484 
L 310.668218 272.077366 
L 313.590109 273.001838 
L 317.161309 273.887525 
L 321.462982 274.716766 
L 326.738618 275.501018 
L 333.312873 276.246347 
L 341.591564 276.952836 
L 352.142836 277.620911 
L 365.778327 278.251219 
L 374.138182 278.5536 
L 374.138182 278.5536 
" clip-path="url(#p5324c58815)" style="fill: none; stroke: #ff7f0e; stroke-width: 1.5; stroke-linecap: square"/>
   </g>
   <g id="line2d_24">
    <path d="M 293.169636 -1 
L 293.380364 97.610708 
L 293.705018 149.535927 
L 294.110836 178.769593 
L 294.597818 197.641465 
L 295.165964 210.856518 
L 295.815273 220.630109 
L 296.545745 228.149945 
L 297.357382 234.112314 
L 298.250182 238.953166 
L 299.224145 242.959648 
L 300.279273 246.328685 
L 301.415564 249.199867 
L 302.633018 251.674897 
L 303.931636 253.82963 
L 305.392582 255.82279 
L 307.015855 257.648432 
L 308.801455 259.310969 
L 310.749382 260.820418 
L 312.9408 262.237465 
L 315.456873 263.592357 
L 318.2976 264.86357 
L 321.544145 266.069039 
L 325.277673 267.215875 
L 329.660509 268.323885 
L 334.773818 269.381453 
L 340.779927 270.392189 
L 347.922327 271.363502 
L 356.525673 272.300758 
L 366.833455 273.192612 
L 374.138182 273.7152 
L 374.138182 273.7152 
" clip-path="url(#p5324c58815)" style="fill: none; stroke: #2ca02c; stroke-width: 1.5; stroke-linecap: square"/>
   </g>
   <g id="line2d_25">
    <path d="M 293.367792 -1 
L 293.623855 68.976201 
L 294.029673 119.836496 
L 294.516655 151.0336 
L 295.0848 172.274466 
L 295.734109 187.714866 
L 296.464582 199.459681 
L 297.276218 208.697867 
L 298.169018 216.154884 
L 299.061818 221.846769 
L 300.035782 226.735912 
L 301.090909 230.969606 
L 302.2272 234.663689 
L 303.444655 237.909781 
L 304.824436 240.943898 
L 306.285382 243.608796 
L 307.827491 245.968061 
L 309.531927 248.168053 
L 311.398691 250.205349 
L 313.427782 252.08379 
L 315.6192 253.811457 
L 318.054109 255.449193 
L 320.813673 257.029498 
L 323.897891 258.529856 
L 327.306764 259.938336 
L 331.202618 261.30294 
L 335.666618 262.622428 
L 340.698764 263.873795 
L 346.542545 265.091529 
L 353.279127 266.261432 
L 361.070836 267.383873 
L 370.161164 268.464344 
L 374.138182 268.8768 
L 374.138182 268.8768 
" clip-path="url(#p5324c58815)" style="fill: none; stroke: #d62728; stroke-width: 1.5; stroke-linecap: square"/>
   </g>
   <g id="line2d_26">
    <path d="M 293.630534 -1 
L 294.029673 65.317994 
L 294.516655 106.914134 
L 295.0848 135.235288 
L 295.734109 155.822487 
L 296.464582 171.482241 
L 297.276218 183.799823 
L 298.169018 193.742512 
L 299.061818 201.331692 
L 300.035782 207.850549 
L 301.090909 213.495475 
L 302.2272 218.420918 
L 303.444655 222.749041 
L 304.743273 226.577179 
L 306.123055 229.983503 
L 307.665164 233.186669 
L 309.288436 236.03709 
L 310.992873 238.590076 
L 312.859636 240.986708 
L 314.888727 243.223402 
L 317.080145 245.302767 
L 319.433891 247.231261 
L 322.031127 249.071118 
L 324.871855 250.810841 
L 328.037236 252.485472 
L 331.527273 254.078496 
L 335.423127 255.61076 
L 339.805964 257.092195 
L 344.756945 258.525649 
L 350.357236 259.909755 
L 356.688 261.241053 
L 363.911564 262.528822 
L 372.190255 263.774415 
L 374.138182 264.0384 
L 374.138182 264.0384 
" clip-path="url(#p5324c58815)" style="fill: none; stroke: #9467bd; stroke-width: 1.5; stroke-linecap: square"/>
   </g>
   <g id="line2d_27">
    <path d="M 293.952713 -1 
L 294.435491 56.041707 
L 295.003636 94.100665 
L 295.571782 118.446529 
L 296.221091 137.747436 
L 296.951564 153.332725 
L 297.7632 166.129267 
L 298.656 176.792919 
L 299.629964 185.796211 
L 300.685091 193.485932 
L 301.821382 200.121136 
L 303.038836 205.898567 
L 304.337455 210.969937 
L 305.717236 215.453873 
L 307.178182 219.444322 
L 308.720291 223.016554 
L 310.343564 226.231519 
L 312.129164 229.267378 
L 313.995927 232.002917 
L 316.025018 234.57706 
L 318.216436 236.98792 
L 320.570182 239.238708 
L 323.086255 241.335872 
L 325.845818 243.342999 
L 328.848873 245.24876 
L 332.176582 247.089837 
L 335.828945 248.849233 
L 339.805964 250.517243 
L 344.269964 252.144834 
L 349.220945 253.709952 
L 354.740073 255.219667 
L 360.989673 256.694038 
L 368.050909 258.124963 
L 374.138182 259.2 
L 374.138182 259.2 
" clip-path="url(#p5324c58815)" style="fill: none; stroke: #8c564b; stroke-width: 1.5; stroke-linecap: square"/>
   </g>
   <g id="line2d_28">
    <path d="M 294.331409 -1 
L 294.760145 39.457263 
L 295.328291 74.287125 
L 295.9776 100.851989 
L 296.708073 121.723758 
L 297.519709 138.521212 
L 298.412509 152.309761 
L 299.386473 163.817223 
L 300.4416 173.556648 
L 301.577891 181.899508 
L 302.795345 189.121035 
L 304.093964 195.429285 
L 305.473745 200.984319 
L 306.934691 205.911203 
L 308.4768 210.309016 
L 310.100073 214.25723 
L 311.804509 217.820299 
L 313.590109 221.051027 
L 315.538036 224.112327 
L 317.567127 226.891894 
L 319.758545 229.518546 
L 322.112291 231.990701 
L 324.628364 234.310959 
L 327.387927 236.546403 
L 330.309818 238.627793 
L 333.556364 240.661735 
L 337.0464 242.583229 
L 340.861091 244.429444 
L 345.0816 246.222258 
L 349.707927 247.944375 
L 354.821236 249.60995 
L 360.502691 251.225801 
L 366.833455 252.793835 
L 373.975855 254.329169 
L 374.138182 254.3616 
L 374.138182 254.3616 
" clip-path="url(#p5324c58815)" style="fill: none; stroke: #e377c2; stroke-width: 1.5; stroke-linecap: square"/>
   </g>
   <g id="line2d_29">
    <path d="M 294.762458 -1 
L 295.328291 39.436313 
L 295.9776 70.428654 
L 296.708073 94.779051 
L 297.519709 114.37608 
L 298.412509 130.462722 
L 299.386473 143.888093 
L 300.4416 155.250756 
L 301.577891 164.984092 
L 302.795345 173.409208 
L 304.0128 180.348688 
L 305.311418 186.546246 
L 306.6912 192.106326 
L 308.152145 197.11615 
L 309.694255 201.648765 
L 311.317527 205.765583 
L 313.103127 209.684723 
L 314.969891 213.241732 
L 316.917818 216.484193 
L 319.028073 219.562873 
L 321.219491 222.373963 
L 323.573236 225.037867 
L 326.089309 227.553694 
L 328.848873 229.991464 
L 331.770764 232.273172 
L 334.936145 234.460969 
L 338.345018 236.546629 
L 342.078545 238.567703 
L 346.136727 240.509421 
L 350.600727 242.394997 
L 355.470545 244.2085 
L 360.827345 245.965011 
L 366.752291 247.672245 
L 373.326545 249.332832 
L 374.138182 249.5232 
L 374.138182 249.5232 
" clip-path="url(#p5324c58815)" style="fill: none; stroke: #7f7f7f; stroke-width: 1.5; stroke-linecap: square"/>
   </g>
   <g id="line2d_30">
    <path d="M 295.246076 -1 
L 295.815273 32.344435 
L 296.545745 62.42378 
L 297.357382 86.273255 
L 298.250182 105.636665 
L 299.224145 121.662591 
L 300.198109 134.212049 
L 301.253236 145.134304 
L 302.389527 154.704087 
L 303.606982 163.142272 
L 304.9056 170.627153 
L 306.285382 177.303455 
L 307.746327 183.289397 
L 309.288436 188.68218 
L 310.911709 193.562262 
L 312.616145 197.99667 
L 314.401745 202.041604 
L 316.349673 205.89494 
L 318.378764 209.410427 
L 320.489018 212.630589 
L 322.7616 215.694161 
L 325.196509 218.596654 
L 327.793745 221.338247 
L 330.553309 223.922379 
L 333.4752 226.354666 
L 336.640582 228.698865 
L 340.049455 230.944293 
L 343.701818 233.085024 
L 347.678836 235.158689 
L 352.061673 237.18793 
L 356.850327 239.152928 
L 362.0448 241.040421 
L 367.726255 242.866914 
L 373.975855 244.641559 
L 374.138182 244.6848 
L 374.138182 244.6848 
" clip-path="url(#p5324c58815)" style="fill: none; stroke: #bcbd22; stroke-width: 1.5; stroke-linecap: square"/>
   </g>
   <g id="line2d_31">
    <path d="M 295.78065 -1 
L 296.464582 31.595042 
L 297.276218 59.309601 
L 298.087855 79.901267 
L 298.980655 97.368949 
L 299.954618 112.324342 
L 301.009745 125.24086 
L 302.146036 136.486999 
L 303.363491 146.35187 
L 304.662109 155.064328 
L 306.041891 162.807194 
L 307.502836 169.727845 
L 309.044945 175.946122 
L 310.668218 181.560297 
L 312.372655 186.651589 
L 314.158255 191.287624 
L 316.025018 195.525108 
L 317.972945 199.411901 
L 320.0832 203.122985 
L 322.274618 206.528567 
L 324.628364 209.770439 
L 327.063273 212.751165 
L 329.660509 215.585482 
L 332.420073 218.273364 
L 335.423127 220.884209 
L 338.588509 223.341754 
L 341.997382 225.707567 
L 345.649745 227.973566 
L 349.626764 230.178093 
L 353.928436 232.306327 
L 358.635927 234.382438 
L 363.749236 236.389834 
L 369.349527 238.344242 
L 374.138182 239.8464 
L 374.138182 239.8464 
" clip-path="url(#p5324c58815)" style="fill: none; stroke: #17becf; stroke-width: 1.5; stroke-linecap: square"/>
   </g>
   <g id="patch_8">
    <path d="M 252.392727 307.584 
L 252.392727 41.472 
" style="fill: none; stroke: #000000; stroke-width: 0.8; stroke-linejoin: miter; stroke-linecap: square"/>
   </g>
   <g id="patch_9">
    <path d="M 414.72 307.584 
L 414.72 41.472 
" style="fill: none; stroke: #000000; stroke-width: 0.8; stroke-linejoin: miter; stroke-linecap: square"/>
   </g>
   <g id="patch_10">
    <path d="M 252.392727 307.584 
L 414.72 307.584 
" style="fill: none; stroke: #000000; stroke-width: 0.8; stroke-linejoin: miter; stroke-linecap: square"/>
   </g>
   <g id="patch_11">
    <path d="M 252.392727 41.472 
L 414.72 41.472 
" style="fill: none; stroke: #000000; stroke-width: 0.8; stroke-linejoin: miter; stroke-linecap: square"/>
   </g>
  </g>
  <g id="text_22">
   <!-- t = 0.7 -->
   <g transform="translate(209.664375 16.030125) scale(0.12 -0.12)">
    <defs>
     <path id="DejaVuSans-74" d="M 1172 4494 
L 1172 3500 
L 2356 3500 
L 2356 3053 
L 1172 3053 
L 1172 1153 
Q 1172 725 1289 603 
Q 1406 481 1766 481 
L 2356 481 
L 2356 0 
L 1766 0 
Q 1100 0 847 248 
Q 594 497 594 1153 
L 594 3053 
L 172 3053 
L 172 3500 
L 594 3500 
L 594 4494 
L 1172 4494 
z
" transform="scale(0.015625)"/>
     <path id="DejaVuSans-20" transform="scale(0.015625)"/>
     <path id="DejaVuSans-3d" d="M 678 2906 
L 4684 2906 
L 4684 2381 
L 678 2381 
L 678 2906 
z
M 678 1631 
L 4684 1631 
L 4684 1100 
L 678 1100 
L 678 1631 
z
" transform="scale(0.015625)"/>
     <path id="DejaVuSans-37" d="M 525 4666 
L 3525 4666 
L 3525 4397 
L 1831 0 
L 1172 0 
L 2766 4134 
L 525 4134 
L 525 4666 
z
" transform="scale(0.015625)"/>
    </defs>
    <use xlink:href="#DejaVuSans-74"/>
    <use xlink:href="#DejaVuSans-20" x="39.208984"/>
    <use xlink:href="#DejaVuSans-3d" x="70.996094"/>
    <use xlink:href="#DejaVuSans-20" x="154.785156"/>
    <use xlink:href="#DejaVuSans-30" x="186.572266"/>
    <use xlink:href="#DejaVuSans-2e" x="250.195312"/>
    <use xlink:href="#DejaVuSans-37" x="281.982422"/>
   </g>
  </g>
 </g>
 <defs>
  <clipPath id="pfe83a07c6a">
   <rect x="57.6" y="41.472" width="162.327273" height="266.112"/>
  </clipPath>
  <clipPath id="p5324c58815">
   <rect x="252.392727" y="41.472" width="162.327273" height="266.112"/>
  </clipPath>
 </defs>
</svg>
