<?xml version="1.0" encoding="utf-8" standalone="no"?>
<!DOCTYPE svg PUBLIC "-//W3C//DTD SVG 1.1//EN"
  "http://www.w3.org/Graphics/SVG/1.1/DTD/svg11.dtd">
<svg xmlns:xlink="http://www.w3.org/1999/xlink" width="460.8pt" height="345.6pt" viewBox="0 0 460.8 345.6" xmlns="http://www.w3.org/2000/svg" version="1.1">
 <metadata>
  <rdf:RDF xmlns:dc="http://purl.org/dc/elements/1.1/" xmlns:cc="http://creativecommons.org/ns#" xmlns:rdf="http://www.w3.org/1999/02/22-rdf-syntax-ns#">
   <cc:Work>
    <dc:type rdf:resource="http://purl.org/dc/dcmitype/StillImage"/>
    <dc:date>2023-01-17T23:39:00.538674</dc:date>
    <dc:format>image/svg+xml</dc:format>
    <dc:creator>
     <cc:Agent>
      <dc:title>Matplotlib v3.6.3, https://matplotlib.org/</dc:title>
     </cc:Agent>
    </dc:creator>
   </cc:Work>
  </rdf:RDF>
 </metadata>
 <defs>
  <style type="text/css">*{stroke-linejoin: round; stroke-linecap: butt}</style>
 </defs>
 <g id="figure_1">
  <g id="patch_1">
   <path d="M 0 345.6 
L 460.8 345.6 
L 460.8 0 
L 0 0 
z
" style="fill: #ffffff"/>
  </g>
  <g id="axes_1">
   <g id="patch_2">
    <path d="M 57.6 307.584 
L 219.927273 307.584 
L 219.927273 41.472 
L 57.6 41.472 
z
" style="fill: #ffffff"/>
   </g>
   <g id="Quiver_1">
    <path d="M 65.178433 295.093001 
L 74.194076 299.656091 
L 74.198919 298.666172 
L 77.549147 301.850381 
L 72.999392 301.036167 
L 73.794233 300.44609 
L 64.778591 295.882999 
L 65.178433 295.093001 
" clip-path="url(#p9361231686)"/>
    <path d="M 79.972231 295.113876 
L 86.661625 299.346008 
L 86.76089 298.361066 
L 89.792045 301.850381 
L 85.340724 300.605809 
L 86.188237 300.094256 
L 79.498843 295.862124 
L 79.972231 295.113876 
" clip-path="url(#p9361231686)"/>
    <path d="M 94.778014 295.149607 
L 99.274855 298.94292 
L 99.507366 297.980682 
L 102.034943 301.850381 
L 97.794654 300.011041 
L 98.703951 299.619707 
L 94.20711 295.826393 
L 94.778014 295.149607 
" clip-path="url(#p9361231686)"/>
    <path d="M 109.596921 295.213498 
L 112.154656 298.449866 
L 112.574823 297.553527 
L 114.277841 301.850381 
L 110.490815 299.20054 
L 111.459987 298.99887 
L 108.902252 295.762502 
L 109.596921 295.213498 
" clip-path="url(#p9361231686)"/>
    <path d="M 124.418342 295.325302 
L 125.468192 297.982105 
L 126.128956 297.244979 
L 126.520739 301.850381 
L 123.65857 298.221164 
L 124.64473 298.3075 
L 123.594881 295.650698 
L 124.418342 295.325302 
" clip-path="url(#p9361231686)"/>
    <path d="M 139.206347 295.488 
L 139.206347 297.865984 
L 140.091769 297.423273 
L 138.763636 301.850381 
L 137.435504 297.423273 
L 138.320926 297.865984 
L 138.320926 295.488 
L 139.206347 295.488 
" clip-path="url(#p9361231686)"/>
    <path d="M 153.932392 295.650698 
L 152.882543 298.3075 
L 153.868702 298.221164 
L 151.006534 301.850381 
L 151.398317 297.244979 
L 152.059081 297.982105 
L 153.10893 295.325302 
L 153.932392 295.650698 
" clip-path="url(#p9361231686)"/>
    <path d="M 168.625021 295.762502 
L 166.067286 298.99887 
L 167.036457 299.20054 
L 163.249432 301.850381 
L 164.952449 297.553527 
L 165.372617 298.449866 
L 167.930351 295.213498 
L 168.625021 295.762502 
" clip-path="url(#p9361231686)"/>
    <path d="M 183.320163 295.826393 
L 178.823321 299.619707 
L 179.732618 300.011041 
L 175.49233 301.850381 
L 178.019907 297.980682 
L 178.252418 298.94292 
L 182.749259 295.149607 
L 183.320163 295.826393 
" clip-path="url(#p9361231686)"/>
    <path d="M 198.02843 295.862124 
L 191.339036 300.094256 
L 192.186549 300.605809 
L 187.735228 301.850381 
L 190.766383 298.361066 
L 190.865648 299.346008 
L 197.555041 295.113876 
L 198.02843 295.862124 
" clip-path="url(#p9361231686)"/>
    <path d="M 212.748681 295.882999 
L 203.733039 300.44609 
L 204.527881 301.036167 
L 199.978126 301.850381 
L 203.328354 298.666172 
L 203.333197 299.656091 
L 212.348839 295.093001 
L 212.748681 295.882999 
" clip-path="url(#p9361231686)"/>
    <path d="M 65.144664 270.885651 
L 74.022158 274.480187 
L 73.944114 273.493337 
L 77.549147 276.385904 
L 72.947201 275.955431 
L 73.689854 275.300885 
L 64.81236 271.706349 
L 65.144664 270.885651 
" clip-path="url(#p9361231686)"/>
    <path d="M 79.935458 270.901001 
L 86.436973 274.191615 
L 86.441816 273.201696 
L 89.792045 276.385904 
L 85.24229 275.571691 
L 86.037131 274.981614 
L 79.535616 271.690999 
L 79.935458 270.901001 
" clip-path="url(#p9361231686)"/>
    <path d="M 94.740206 270.929033 
L 98.979881 273.790137 
L 99.108203 272.808558 
L 102.034943 276.385904 
L 97.622336 275.010362 
L 98.484592 274.524072 
L 94.244918 271.662967 
L 94.740206 270.929033 
" clip-path="url(#p9361231686)"/>
    <path d="M 109.564532 270.984869 
L 111.792611 273.240266 
L 112.111371 272.303059 
L 114.277841 276.385904 
L 110.221699 274.169843 
L 111.16272 273.862527 
L 108.934641 271.607131 
L 109.564532 270.984869 
" clip-path="url(#p9361231686)"/>
    <path d="M 124.403541 271.099939 
L 125.15312 272.617479 
L 125.750918 271.828428 
L 126.520739 276.385904 
L 123.369342 273.004793 
L 124.359262 273.009601 
L 123.609682 271.492061 
L 124.403541 271.099939 
" clip-path="url(#p9361231686)"/>
    <path d="M 139.206347 271.296 
L 139.206347 272.401508 
L 140.091769 271.958797 
L 138.763636 276.385904 
L 137.435504 271.958797 
L 138.320926 272.401508 
L 138.320926 271.296 
L 139.206347 271.296 
" clip-path="url(#p9361231686)"/>
    <path d="M 153.917591 271.492061 
L 153.168011 273.009601 
L 154.157931 273.004793 
L 151.006534 276.385904 
L 151.776354 271.828428 
L 152.374152 272.617479 
L 153.123732 271.099939 
L 153.917591 271.492061 
" clip-path="url(#p9361231686)"/>
    <path d="M 168.592631 271.607131 
L 166.364553 273.862527 
L 167.305574 274.169843 
L 163.249432 276.385904 
L 165.415902 272.303059 
L 165.734662 273.240266 
L 167.962741 270.984869 
L 168.592631 271.607131 
" clip-path="url(#p9361231686)"/>
    <path d="M 183.282355 271.662967 
L 179.04268 274.524072 
L 179.904937 275.010362 
L 175.49233 276.385904 
L 178.41907 272.808558 
L 178.547392 273.790137 
L 182.787066 270.929033 
L 183.282355 271.662967 
" clip-path="url(#p9361231686)"/>
    <path d="M 197.991657 271.690999 
L 191.490142 274.981614 
L 192.284983 275.571691 
L 187.735228 276.385904 
L 191.085456 273.201696 
L 191.090299 274.191615 
L 197.591814 270.901001 
L 197.991657 271.690999 
" clip-path="url(#p9361231686)"/>
    <path d="M 212.714912 271.706349 
L 203.837419 275.300885 
L 204.580072 275.955431 
L 199.978126 276.385904 
L 203.583159 273.493337 
L 203.505114 274.480187 
L 212.382608 270.885651 
L 212.714912 271.706349 
" clip-path="url(#p9361231686)"/>
    <path d="M 65.107153 246.680391 
L 73.865309 249.340053 
L 73.698982 248.364195 
L 77.549147 250.921428 
L 72.927138 250.905847 
L 73.608028 250.18727 
L 64.849872 247.527609 
L 65.107153 246.680391 
" clip-path="url(#p9361231686)"/>
    <path d="M 79.89265 246.690106 
L 86.224112 249.093515 
L 86.124445 248.108614 
L 89.792045 250.921428 
L 85.181765 250.591978 
L 85.909886 249.921303 
L 79.578424 247.517894 
L 79.89265 246.690106 
" clip-path="url(#p9361231686)"/>
    <path d="M 94.692483 246.709001 
L 98.679871 248.727139 
L 98.684714 247.73722 
L 102.034943 250.921428 
L 97.485188 250.107215 
L 98.280029 249.517138 
L 94.292641 247.498999 
L 94.692483 246.709001 
" clip-path="url(#p9361231686)"/>
    <path d="M 109.517284 246.751394 
L 111.372082 248.159549 
L 111.55487 247.186639 
L 114.277841 250.921428 
L 109.948688 249.302276 
L 110.836688 248.864761 
L 108.98189 247.456606 
L 109.517284 246.751394 
" clip-path="url(#p9361231686)"/>
    <path d="M 124.376341 246.860499 
L 124.69896 247.35036 
L 125.194918 246.493628 
L 126.520739 250.921428 
L 122.97654 247.954634 
L 123.9595 247.837362 
L 123.636882 247.347501 
L 124.376341 246.860499 
" clip-path="url(#p9361231686)"/>
    <path d="M 139.145379 247.104 
L 139.145379 247.485743 
L 139.908865 247.104 
L 138.763636 250.921428 
L 137.618408 247.104 
L 138.381894 247.485743 
L 138.381894 247.104 
L 139.145379 247.104 
" clip-path="url(#p9361231686)"/>
    <path d="M 153.890391 247.347501 
L 153.567773 247.837362 
L 154.550733 247.954634 
L 151.006534 250.921428 
L 152.332355 246.493628 
L 152.828313 247.35036 
L 153.150931 246.860499 
L 153.890391 247.347501 
" clip-path="url(#p9361231686)"/>
    <path d="M 168.545383 247.456606 
L 166.690584 248.864761 
L 167.578585 249.302276 
L 163.249432 250.921428 
L 165.972402 247.186639 
L 166.15519 248.159549 
L 168.009989 246.751394 
L 168.545383 247.456606 
" clip-path="url(#p9361231686)"/>
    <path d="M 183.234632 247.498999 
L 179.247244 249.517138 
L 180.042085 250.107215 
L 175.49233 250.921428 
L 178.842558 247.73722 
L 178.847401 248.727139 
L 182.83479 246.709001 
L 183.234632 247.498999 
" clip-path="url(#p9361231686)"/>
    <path d="M 197.948849 247.517894 
L 191.617387 249.921303 
L 192.345507 250.591978 
L 187.735228 250.921428 
L 191.402828 248.108614 
L 191.30316 249.093515 
L 197.634622 246.690106 
L 197.948849 247.517894 
" clip-path="url(#p9361231686)"/>
    <path d="M 212.677401 247.527609 
L 203.919245 250.18727 
L 204.600135 250.905847 
L 199.978126 250.921428 
L 203.828291 248.364195 
L 203.661963 249.340053 
L 212.42012 246.680391 
L 212.677401 247.527609 
" clip-path="url(#p9361231686)"/>
    <path d="M 65.066358 222.478092 
L 73.731823 224.232434 
L 73.473606 223.276773 
L 77.549147 225.456952 
L 72.946533 225.88022 
L 73.556132 225.10025 
L 64.890667 223.345908 
L 65.066358 222.478092 
" clip-path="url(#p9361231686)"/>
    <path d="M 79.844148 222.482819 
L 86.038025 224.050274 
L 85.826066 223.0833 
L 89.792045 225.456952 
L 85.174401 225.658388 
L 85.820803 224.908636 
L 79.626926 223.341181 
L 79.844148 222.482819 
" clip-path="url(#p9361231686)"/>
    <path d="M 94.634101 222.492525 
L 98.401206 223.763622 
L 98.26481 222.783133 
L 102.034943 225.456952 
L 97.415573 225.299983 
L 98.118127 224.602573 
L 94.351023 223.331475 
L 94.634101 222.492525 
" clip-path="url(#p9361231686)"/>
    <path d="M 109.449508 222.517001 
L 110.922769 223.262663 
L 110.927612 222.272744 
L 114.277841 225.456952 
L 109.728086 224.642739 
L 110.522927 224.052661 
L 109.049666 223.306999 
L 109.449508 222.517001 
" clip-path="url(#p9361231686)"/>
    <path d="M 124.261107 222.660587 
L 124.512519 222.915083 
L 124.770097 222.157762 
L 126.520739 225.456952 
L 123.243126 223.666238 
L 124.003529 223.417908 
L 123.752116 223.163413 
L 124.261107 222.660587 
" clip-path="url(#p9361231686)"/>
    <path d="M 139.018132 222.912 
L 139.018132 223.166495 
L 139.527122 222.912 
L 138.763636 225.456952 
L 138.000151 222.912 
L 138.509141 223.166495 
L 138.509141 222.912 
L 139.018132 222.912 
" clip-path="url(#p9361231686)"/>
    <path d="M 153.775156 223.163413 
L 153.523744 223.417908 
L 154.284147 223.666238 
L 151.006534 225.456952 
L 152.757175 222.157762 
L 153.014753 222.915083 
L 153.266166 222.660587 
L 153.775156 223.163413 
" clip-path="url(#p9361231686)"/>
    <path d="M 168.477607 223.306999 
L 167.004346 224.052661 
L 167.799187 224.642739 
L 163.249432 225.456952 
L 166.599661 222.272744 
L 166.604504 223.262663 
L 168.077765 222.517001 
L 168.477607 223.306999 
" clip-path="url(#p9361231686)"/>
    <path d="M 183.17625 223.331475 
L 179.409146 224.602573 
L 180.1117 225.299983 
L 175.49233 225.456952 
L 179.262463 222.783133 
L 179.126067 223.763622 
L 182.893171 222.492525 
L 183.17625 223.331475 
" clip-path="url(#p9361231686)"/>
    <path d="M 197.900346 223.341181 
L 191.706469 224.908636 
L 192.352872 225.658388 
L 187.735228 225.456952 
L 191.701207 223.0833 
L 191.489248 224.050274 
L 197.683125 222.482819 
L 197.900346 223.341181 
" clip-path="url(#p9361231686)"/>
    <path d="M 212.636606 223.345908 
L 203.971141 225.10025 
L 204.58074 225.88022 
L 199.978126 225.456952 
L 204.053667 223.276773 
L 203.79545 224.232434 
L 212.460915 222.478092 
L 212.636606 223.345908 
" clip-path="url(#p9361231686)"/>
    <path d="M 65.023098 198.27954 
L 73.629594 199.150742 
L 73.278307 198.225236 
L 77.549147 199.992476 
L 73.01079 200.867995 
L 73.540422 200.031662 
L 64.933926 199.16046 
L 65.023098 198.27954 
" clip-path="url(#p9361231686)"/>
    <path d="M 79.791111 198.280791 
L 85.894741 199.053099 
L 85.56668 198.119108 
L 89.792045 199.992476 
L 85.233235 200.75436 
L 85.783592 199.931517 
L 79.679963 199.159209 
L 79.791111 198.280791 
" clip-path="url(#p9361231686)"/>
    <path d="M 94.566211 198.283458 
L 98.179717 198.893093 
L 97.890473 197.946361 
L 102.034943 199.992476 
L 97.448579 200.565611 
L 98.032419 199.766177 
L 94.418913 199.156542 
L 94.566211 198.283458 
" clip-path="url(#p9361231686)"/>
    <path d="M 109.358198 198.290819 
L 110.523821 198.585797 
L 110.311861 197.618824 
L 114.277841 199.992476 
L 109.660196 200.193911 
L 110.306599 199.44416 
L 109.140976 199.149181 
L 109.358198 198.290819 
" clip-path="url(#p9361231686)"/>
    <path d="M 124.133859 198.468587 
L 124.385272 198.595835 
L 124.388354 197.965762 
L 126.520739 199.992476 
L 123.624869 199.474238 
L 124.130777 199.09866 
L 123.879364 198.971413 
L 124.133859 198.468587 
" clip-path="url(#p9361231686)"/>
    <path d="M 138.890884 198.72 
L 138.890884 198.847248 
L 139.145379 198.72 
L 138.763636 199.992476 
L 138.381894 198.72 
L 138.636389 198.847248 
L 138.636389 198.72 
L 138.890884 198.72 
" clip-path="url(#p9361231686)"/>
    <path d="M 153.647909 198.971413 
L 153.396496 199.09866 
L 153.902404 199.474238 
L 151.006534 199.992476 
L 153.138918 197.965762 
L 153.142001 198.595835 
L 153.393414 198.468587 
L 153.647909 198.971413 
" clip-path="url(#p9361231686)"/>
    <path d="M 168.386297 199.149181 
L 167.220674 199.44416 
L 167.867076 200.193911 
L 163.249432 199.992476 
L 167.215411 197.618824 
L 167.003452 198.585797 
L 168.169075 198.290819 
L 168.386297 199.149181 
" clip-path="url(#p9361231686)"/>
    <path d="M 183.10836 199.156542 
L 179.494854 199.766177 
L 180.078694 200.565611 
L 175.49233 199.992476 
L 179.6368 197.946361 
L 179.347556 198.893093 
L 182.961062 198.283458 
L 183.10836 199.156542 
" clip-path="url(#p9361231686)"/>
    <path d="M 197.84731 199.159209 
L 191.743681 199.931517 
L 192.294038 200.75436 
L 187.735228 199.992476 
L 191.960592 198.119108 
L 191.632532 199.053099 
L 197.736161 198.280791 
L 197.84731 199.159209 
" clip-path="url(#p9361231686)"/>
    <path d="M 212.593346 199.16046 
L 203.98685 200.031662 
L 204.516482 200.867995 
L 199.978126 199.992476 
L 204.248966 198.225236 
L 203.897678 199.150742 
L 212.504174 198.27954 
L 212.593346 199.16046 
" clip-path="url(#p9361231686)"/>
    <path d="M 64.978512 174.085289 
L 73.56475 174.085289 
L 73.12204 173.199868 
L 77.549147 174.528 
L 73.12204 175.856132 
L 73.56475 174.970711 
L 64.978512 174.970711 
L 64.978512 174.085289 
" clip-path="url(#p9361231686)"/>
    <path d="M 79.735537 174.085289 
L 85.807648 174.085289 
L 85.364938 173.199868 
L 89.792045 174.528 
L 85.364938 175.856132 
L 85.807648 174.970711 
L 79.735537 174.970711 
L 79.735537 174.085289 
" clip-path="url(#p9361231686)"/>
    <path d="M 94.492562 174.085289 
L 98.050546 174.085289 
L 97.607835 173.199868 
L 102.034943 174.528 
L 97.607835 175.856132 
L 98.050546 174.970711 
L 94.492562 174.970711 
L 94.492562 174.085289 
" clip-path="url(#p9361231686)"/>
    <path d="M 109.249587 174.085289 
L 110.293444 174.085289 
L 109.850733 173.199868 
L 114.277841 174.528 
L 109.850733 175.856132 
L 110.293444 174.970711 
L 109.249587 174.970711 
L 109.249587 174.085289 
" clip-path="url(#p9361231686)"/>
    <path d="M 124.006612 174.276587 
L 124.258024 174.276587 
L 124.006612 173.773762 
L 126.520739 174.528 
L 124.006612 175.282238 
L 124.258024 174.779413 
L 124.006612 174.779413 
L 124.006612 174.276587 
" clip-path="url(#p9361231686)"/>
    <path d="M 139.206347 174.528 
L 138.984992 174.144601 
L 138.542281 174.144601 
L 138.320926 174.528 
L 138.542281 174.911399 
L 138.984992 174.911399 
L 139.206347 174.528 
L 138.984992 174.144601 
" clip-path="url(#p9361231686)"/>
    <path d="M 153.520661 174.779413 
L 153.269248 174.779413 
L 153.520661 175.282238 
L 151.006534 174.528 
L 153.520661 173.773762 
L 153.269248 174.276587 
L 153.520661 174.276587 
L 153.520661 174.779413 
" clip-path="url(#p9361231686)"/>
    <path d="M 168.277686 174.970711 
L 167.233829 174.970711 
L 167.676539 175.856132 
L 163.249432 174.528 
L 167.676539 173.199868 
L 167.233829 174.085289 
L 168.277686 174.085289 
L 168.277686 174.970711 
" clip-path="url(#p9361231686)"/>
    <path d="M 183.034711 174.970711 
L 179.476727 174.970711 
L 179.919437 175.856132 
L 175.49233 174.528 
L 179.919437 173.199868 
L 179.476727 174.085289 
L 183.034711 174.085289 
L 183.034711 174.970711 
" clip-path="url(#p9361231686)"/>
    <path d="M 197.791736 174.970711 
L 191.719624 174.970711 
L 192.162335 175.856132 
L 187.735228 174.528 
L 192.162335 173.199868 
L 191.719624 174.085289 
L 197.791736 174.085289 
L 197.791736 174.970711 
" clip-path="url(#p9361231686)"/>
    <path d="M 212.54876 174.970711 
L 203.962522 174.970711 
L 204.405233 175.856132 
L 199.978126 174.528 
L 204.405233 173.199868 
L 203.962522 174.085289 
L 212.54876 174.085289 
L 212.54876 174.970711 
" clip-path="url(#p9361231686)"/>
    <path d="M 64.933926 149.89554 
L 73.540422 149.024338 
L 73.01079 148.188005 
L 77.549147 149.063524 
L 73.278307 150.830764 
L 73.629594 149.905258 
L 65.023098 150.77646 
L 64.933926 149.89554 
" clip-path="url(#p9361231686)"/>
    <path d="M 79.679963 149.896791 
L 85.783592 149.124483 
L 85.233235 148.30164 
L 89.792045 149.063524 
L 85.56668 150.936892 
L 85.894741 150.002901 
L 79.791111 150.775209 
L 79.679963 149.896791 
" clip-path="url(#p9361231686)"/>
    <path d="M 94.418913 149.899458 
L 98.032419 149.289823 
L 97.448579 148.490389 
L 102.034943 149.063524 
L 97.890473 151.109639 
L 98.179717 150.162907 
L 94.566211 150.772542 
L 94.418913 149.899458 
" clip-path="url(#p9361231686)"/>
    <path d="M 109.140976 149.906819 
L 110.306599 149.61184 
L 109.660196 148.862089 
L 114.277841 149.063524 
L 110.311861 151.437176 
L 110.523821 150.470203 
L 109.358198 150.765181 
L 109.140976 149.906819 
" clip-path="url(#p9361231686)"/>
    <path d="M 123.879364 150.084587 
L 124.130777 149.95734 
L 123.624869 149.581762 
L 126.520739 149.063524 
L 124.388354 151.090238 
L 124.385272 150.460165 
L 124.133859 150.587413 
L 123.879364 150.084587 
" clip-path="url(#p9361231686)"/>
    <path d="M 138.636389 150.336 
L 138.636389 150.208752 
L 138.381894 150.336 
L 138.763636 149.063524 
L 139.145379 150.336 
L 138.890884 150.208752 
L 138.890884 150.336 
L 138.636389 150.336 
" clip-path="url(#p9361231686)"/>
    <path d="M 153.393414 150.587413 
L 153.142001 150.460165 
L 153.138918 151.090238 
L 151.006534 149.063524 
L 153.902404 149.581762 
L 153.396496 149.95734 
L 153.647909 150.084587 
L 153.393414 150.587413 
" clip-path="url(#p9361231686)"/>
    <path d="M 168.169075 150.765181 
L 167.003452 150.470203 
L 167.215411 151.437176 
L 163.249432 149.063524 
L 167.867076 148.862089 
L 167.220674 149.61184 
L 168.386297 149.906819 
L 168.169075 150.765181 
" clip-path="url(#p9361231686)"/>
    <path d="M 182.961062 150.772542 
L 179.347556 150.162907 
L 179.6368 151.109639 
L 175.49233 149.063524 
L 180.078694 148.490389 
L 179.494854 149.289823 
L 183.10836 149.899458 
L 182.961062 150.772542 
" clip-path="url(#p9361231686)"/>
    <path d="M 197.736161 150.775209 
L 191.632532 150.002901 
L 191.960592 150.936892 
L 187.735228 149.063524 
L 192.294038 148.30164 
L 191.743681 149.124483 
L 197.84731 149.896791 
L 197.736161 150.775209 
" clip-path="url(#p9361231686)"/>
    <path d="M 212.504174 150.77646 
L 203.897678 149.905258 
L 204.248966 150.830764 
L 199.978126 149.063524 
L 204.516482 148.188005 
L 203.98685 149.024338 
L 212.593346 149.89554 
L 212.504174 150.77646 
" clip-path="url(#p9361231686)"/>
    <path d="M 64.890667 125.710092 
L 73.556132 123.95575 
L 72.946533 123.17578 
L 77.549147 123.599048 
L 73.473606 125.779227 
L 73.731823 124.823566 
L 65.066358 126.577908 
L 64.890667 125.710092 
" clip-path="url(#p9361231686)"/>
    <path d="M 79.626926 125.714819 
L 85.820803 124.147364 
L 85.174401 123.397612 
L 89.792045 123.599048 
L 85.826066 125.9727 
L 86.038025 125.005726 
L 79.844148 126.573181 
L 79.626926 125.714819 
" clip-path="url(#p9361231686)"/>
    <path d="M 94.351023 125.724525 
L 98.118127 124.453427 
L 97.415573 123.756017 
L 102.034943 123.599048 
L 98.26481 126.272867 
L 98.401206 125.292378 
L 94.634101 126.563475 
L 94.351023 125.724525 
" clip-path="url(#p9361231686)"/>
    <path d="M 109.049666 125.749001 
L 110.522927 125.003339 
L 109.728086 124.413261 
L 114.277841 123.599048 
L 110.927612 126.783256 
L 110.922769 125.793337 
L 109.449508 126.538999 
L 109.049666 125.749001 
" clip-path="url(#p9361231686)"/>
    <path d="M 123.752116 125.892587 
L 124.003529 125.638092 
L 123.243126 125.389762 
L 126.520739 123.599048 
L 124.770097 126.898238 
L 124.512519 126.140917 
L 124.261107 126.395413 
L 123.752116 125.892587 
" clip-path="url(#p9361231686)"/>
    <path d="M 138.509141 126.144 
L 138.509141 125.889505 
L 138.000151 126.144 
L 138.763636 123.599048 
L 139.527122 126.144 
L 139.018132 125.889505 
L 139.018132 126.144 
L 138.509141 126.144 
" clip-path="url(#p9361231686)"/>
    <path d="M 153.266166 126.395413 
L 153.014753 126.140917 
L 152.757175 126.898238 
L 151.006534 123.599048 
L 154.284147 125.389762 
L 153.523744 125.638092 
L 153.775156 125.892587 
L 153.266166 126.395413 
" clip-path="url(#p9361231686)"/>
    <path d="M 168.077765 126.538999 
L 166.604504 125.793337 
L 166.599661 126.783256 
L 163.249432 123.599048 
L 167.799187 124.413261 
L 167.004346 125.003339 
L 168.477607 125.749001 
L 168.077765 126.538999 
" clip-path="url(#p9361231686)"/>
    <path d="M 182.893171 126.563475 
L 179.126067 125.292378 
L 179.262463 126.272867 
L 175.49233 123.599048 
L 180.1117 123.756017 
L 179.409146 124.453427 
L 183.17625 125.724525 
L 182.893171 126.563475 
" clip-path="url(#p9361231686)"/>
    <path d="M 197.683125 126.573181 
L 191.489248 125.005726 
L 191.701207 125.9727 
L 187.735228 123.599048 
L 192.352872 123.397612 
L 191.706469 124.147364 
L 197.900346 125.714819 
L 197.683125 126.573181 
" clip-path="url(#p9361231686)"/>
    <path d="M 212.460915 126.577908 
L 203.79545 124.823566 
L 204.053667 125.779227 
L 199.978126 123.599048 
L 204.58074 123.17578 
L 203.971141 123.95575 
L 212.636606 125.710092 
L 212.460915 126.577908 
" clip-path="url(#p9361231686)"/>
    <path d="M 64.849872 101.528391 
L 73.608028 98.86873 
L 72.927138 98.150153 
L 77.549147 98.134572 
L 73.698982 100.691805 
L 73.865309 99.715947 
L 65.107153 102.375609 
L 64.849872 101.528391 
" clip-path="url(#p9361231686)"/>
    <path d="M 79.578424 101.538106 
L 85.909886 99.134697 
L 85.181765 98.464022 
L 89.792045 98.134572 
L 86.124445 100.947386 
L 86.224112 99.962485 
L 79.89265 102.365894 
L 79.578424 101.538106 
" clip-path="url(#p9361231686)"/>
    <path d="M 94.292641 101.557001 
L 98.280029 99.538862 
L 97.485188 98.948785 
L 102.034943 98.134572 
L 98.684714 101.31878 
L 98.679871 100.328861 
L 94.692483 102.346999 
L 94.292641 101.557001 
" clip-path="url(#p9361231686)"/>
    <path d="M 108.98189 101.599394 
L 110.836688 100.191239 
L 109.948688 99.753724 
L 114.277841 98.134572 
L 111.55487 101.869361 
L 111.372082 100.896451 
L 109.517284 102.304606 
L 108.98189 101.599394 
" clip-path="url(#p9361231686)"/>
    <path d="M 123.636882 101.708499 
L 123.9595 101.218638 
L 122.97654 101.101366 
L 126.520739 98.134572 
L 125.194918 102.562372 
L 124.69896 101.70564 
L 124.376341 102.195501 
L 123.636882 101.708499 
" clip-path="url(#p9361231686)"/>
    <path d="M 138.381894 101.952 
L 138.381894 101.570257 
L 137.618408 101.952 
L 138.763636 98.134572 
L 139.908865 101.952 
L 139.145379 101.570257 
L 139.145379 101.952 
L 138.381894 101.952 
" clip-path="url(#p9361231686)"/>
    <path d="M 153.150931 102.195501 
L 152.828313 101.70564 
L 152.332355 102.562372 
L 151.006534 98.134572 
L 154.550733 101.101366 
L 153.567773 101.218638 
L 153.890391 101.708499 
L 153.150931 102.195501 
" clip-path="url(#p9361231686)"/>
    <path d="M 168.009989 102.304606 
L 166.15519 100.896451 
L 165.972402 101.869361 
L 163.249432 98.134572 
L 167.578585 99.753724 
L 166.690584 100.191239 
L 168.545383 101.599394 
L 168.009989 102.304606 
" clip-path="url(#p9361231686)"/>
    <path d="M 182.83479 102.346999 
L 178.847401 100.328861 
L 178.842558 101.31878 
L 175.49233 98.134572 
L 180.042085 98.948785 
L 179.247244 99.538862 
L 183.234632 101.557001 
L 182.83479 102.346999 
" clip-path="url(#p9361231686)"/>
    <path d="M 197.634622 102.365894 
L 191.30316 99.962485 
L 191.402828 100.947386 
L 187.735228 98.134572 
L 192.345507 98.464022 
L 191.617387 99.134697 
L 197.948849 101.538106 
L 197.634622 102.365894 
" clip-path="url(#p9361231686)"/>
    <path d="M 212.42012 102.375609 
L 203.661963 99.715947 
L 203.828291 100.691805 
L 199.978126 98.134572 
L 204.600135 98.150153 
L 203.919245 98.86873 
L 212.677401 101.528391 
L 212.42012 102.375609 
" clip-path="url(#p9361231686)"/>
    <path d="M 64.81236 77.349651 
L 73.689854 73.755115 
L 72.947201 73.100569 
L 77.549147 72.670096 
L 73.944114 75.562663 
L 74.022158 74.575813 
L 65.144664 78.170349 
L 64.81236 77.349651 
" clip-path="url(#p9361231686)"/>
    <path d="M 79.535616 77.365001 
L 86.037131 74.074386 
L 85.24229 73.484309 
L 89.792045 72.670096 
L 86.441816 75.854304 
L 86.436973 74.864385 
L 79.935458 78.154999 
L 79.535616 77.365001 
" clip-path="url(#p9361231686)"/>
    <path d="M 94.244918 77.393033 
L 98.484592 74.531928 
L 97.622336 74.045638 
L 102.034943 72.670096 
L 99.108203 76.247442 
L 98.979881 75.265863 
L 94.740206 78.126967 
L 94.244918 77.393033 
" clip-path="url(#p9361231686)"/>
    <path d="M 108.934641 77.448869 
L 111.16272 75.193473 
L 110.221699 74.886157 
L 114.277841 72.670096 
L 112.111371 76.752941 
L 111.792611 75.815734 
L 109.564532 78.071131 
L 108.934641 77.448869 
" clip-path="url(#p9361231686)"/>
    <path d="M 123.609682 77.563939 
L 124.359262 76.046399 
L 123.369342 76.051207 
L 126.520739 72.670096 
L 125.750918 77.227572 
L 125.15312 76.438521 
L 124.403541 77.956061 
L 123.609682 77.563939 
" clip-path="url(#p9361231686)"/>
    <path d="M 138.320926 77.76 
L 138.320926 76.654492 
L 137.435504 77.097203 
L 138.763636 72.670096 
L 140.091769 77.097203 
L 139.206347 76.654492 
L 139.206347 77.76 
L 138.320926 77.76 
" clip-path="url(#p9361231686)"/>
    <path d="M 153.123732 77.956061 
L 152.374152 76.438521 
L 151.776354 77.227572 
L 151.006534 72.670096 
L 154.157931 76.051207 
L 153.168011 76.046399 
L 153.917591 77.563939 
L 153.123732 77.956061 
" clip-path="url(#p9361231686)"/>
    <path d="M 167.962741 78.071131 
L 165.734662 75.815734 
L 165.415902 76.752941 
L 163.249432 72.670096 
L 167.305574 74.886157 
L 166.364553 75.193473 
L 168.592631 77.448869 
L 167.962741 78.071131 
" clip-path="url(#p9361231686)"/>
    <path d="M 182.787066 78.126967 
L 178.547392 75.265863 
L 178.41907 76.247442 
L 175.49233 72.670096 
L 179.904937 74.045638 
L 179.04268 74.531928 
L 183.282355 77.393033 
L 182.787066 78.126967 
" clip-path="url(#p9361231686)"/>
    <path d="M 197.591814 78.154999 
L 191.090299 74.864385 
L 191.085456 75.854304 
L 187.735228 72.670096 
L 192.284983 73.484309 
L 191.490142 74.074386 
L 197.991657 77.365001 
L 197.591814 78.154999 
" clip-path="url(#p9361231686)"/>
    <path d="M 212.382608 78.170349 
L 203.505114 74.575813 
L 203.583159 75.562663 
L 199.978126 72.670096 
L 204.580072 73.100569 
L 203.837419 73.755115 
L 212.714912 77.349651 
L 212.382608 78.170349 
" clip-path="url(#p9361231686)"/>
    <path d="M 64.778591 53.173001 
L 73.794233 48.60991 
L 72.999392 48.019833 
L 77.549147 47.205619 
L 74.198919 50.389828 
L 74.194076 49.399909 
L 65.178433 53.962999 
L 64.778591 53.173001 
" clip-path="url(#p9361231686)"/>
    <path d="M 79.498843 53.193876 
L 86.188237 48.961744 
L 85.340724 48.450191 
L 89.792045 47.205619 
L 86.76089 50.694934 
L 86.661625 49.709992 
L 79.972231 53.942124 
L 79.498843 53.193876 
" clip-path="url(#p9361231686)"/>
    <path d="M 94.20711 53.229607 
L 98.703951 49.436293 
L 97.794654 49.044959 
L 102.034943 47.205619 
L 99.507366 51.075318 
L 99.274855 50.11308 
L 94.778014 53.906393 
L 94.20711 53.229607 
" clip-path="url(#p9361231686)"/>
    <path d="M 108.902252 53.293498 
L 111.459987 50.05713 
L 110.490815 49.85546 
L 114.277841 47.205619 
L 112.574823 51.502473 
L 112.154656 50.606134 
L 109.596921 53.842502 
L 108.902252 53.293498 
" clip-path="url(#p9361231686)"/>
    <path d="M 123.594881 53.405302 
L 124.64473 50.7485 
L 123.65857 50.834836 
L 126.520739 47.205619 
L 126.128956 51.811021 
L 125.468192 51.073895 
L 124.418342 53.730698 
L 123.594881 53.405302 
" clip-path="url(#p9361231686)"/>
    <path d="M 138.320926 53.568 
L 138.320926 51.190016 
L 137.435504 51.632727 
L 138.763636 47.205619 
L 140.091769 51.632727 
L 139.206347 51.190016 
L 139.206347 53.568 
L 138.320926 53.568 
" clip-path="url(#p9361231686)"/>
    <path d="M 153.10893 53.730698 
L 152.059081 51.073895 
L 151.398317 51.811021 
L 151.006534 47.205619 
L 153.868702 50.834836 
L 152.882543 50.7485 
L 153.932392 53.405302 
L 153.10893 53.730698 
" clip-path="url(#p9361231686)"/>
    <path d="M 167.930351 53.842502 
L 165.372617 50.606134 
L 164.952449 51.502473 
L 163.249432 47.205619 
L 167.036457 49.85546 
L 166.067286 50.05713 
L 168.625021 53.293498 
L 167.930351 53.842502 
" clip-path="url(#p9361231686)"/>
    <path d="M 182.749259 53.906393 
L 178.252418 50.11308 
L 178.019907 51.075318 
L 175.49233 47.205619 
L 179.732618 49.044959 
L 178.823321 49.436293 
L 183.320163 53.229607 
L 182.749259 53.906393 
" clip-path="url(#p9361231686)"/>
    <path d="M 197.555041 53.942124 
L 190.865648 49.709992 
L 190.766383 50.694934 
L 187.735228 47.205619 
L 192.186549 48.450191 
L 191.339036 48.961744 
L 198.02843 53.193876 
L 197.555041 53.942124 
" clip-path="url(#p9361231686)"/>
    <path d="M 212.348839 53.962999 
L 203.333197 49.399909 
L 203.328354 50.389828 
L 199.978126 47.205619 
L 204.527881 48.019833 
L 203.733039 48.60991 
L 212.748681 53.173001 
L 212.348839 53.962999 
" clip-path="url(#p9361231686)"/>
   </g>
   <g id="matplotlib.axis_1">
    <g id="xtick_1">
     <g id="line2d_1">
      <defs>
       <path id="m18dede161f" d="M 0 0 
L 0 3.5 
" style="stroke: #000000; stroke-width: 0.8"/>
      </defs>
      <g>
       <use xlink:href="#m18dede161f" x="64.978512" y="307.584" style="stroke: #000000; stroke-width: 0.8"/>
      </g>
     </g>
     <g id="text_1">
      <!-- −5.0 -->
      <g transform="translate(52.837106 322.182437) scale(0.1 -0.1)">
       <defs>
        <path id="DejaVuSans-2212" d="M 678 2272 
L 4684 2272 
L 4684 1741 
L 678 1741 
L 678 2272 
z
" transform="scale(0.015625)"/>
        <path id="DejaVuSans-35" d="M 691 4666 
L 3169 4666 
L 3169 4134 
L 1269 4134 
L 1269 2991 
Q 1406 3038 1543 3061 
Q 1681 3084 1819 3084 
Q 2600 3084 3056 2656 
Q 3513 2228 3513 1497 
Q 3513 744 3044 326 
Q 2575 -91 1722 -91 
Q 1428 -91 1123 -41 
Q 819 9 494 109 
L 494 744 
Q 775 591 1075 516 
Q 1375 441 1709 441 
Q 2250 441 2565 725 
Q 2881 1009 2881 1497 
Q 2881 1984 2565 2268 
Q 2250 2553 1709 2553 
Q 1456 2553 1204 2497 
Q 953 2441 691 2322 
L 691 4666 
z
" transform="scale(0.015625)"/>
        <path id="DejaVuSans-2e" d="M 684 794 
L 1344 794 
L 1344 0 
L 684 0 
L 684 794 
z
" transform="scale(0.015625)"/>
        <path id="DejaVuSans-30" d="M 2034 4250 
Q 1547 4250 1301 3770 
Q 1056 3291 1056 2328 
Q 1056 1369 1301 889 
Q 1547 409 2034 409 
Q 2525 409 2770 889 
Q 3016 1369 3016 2328 
Q 3016 3291 2770 3770 
Q 2525 4250 2034 4250 
z
M 2034 4750 
Q 2819 4750 3233 4129 
Q 3647 3509 3647 2328 
Q 3647 1150 3233 529 
Q 2819 -91 2034 -91 
Q 1250 -91 836 529 
Q 422 1150 422 2328 
Q 422 3509 836 4129 
Q 1250 4750 2034 4750 
z
" transform="scale(0.015625)"/>
       </defs>
       <use xlink:href="#DejaVuSans-2212"/>
       <use xlink:href="#DejaVuSans-35" x="83.789062"/>
       <use xlink:href="#DejaVuSans-2e" x="147.412109"/>
       <use xlink:href="#DejaVuSans-30" x="179.199219"/>
      </g>
     </g>
    </g>
    <g id="xtick_2">
     <g id="line2d_2">
      <g>
       <use xlink:href="#m18dede161f" x="101.871074" y="307.584" style="stroke: #000000; stroke-width: 0.8"/>
      </g>
     </g>
     <g id="text_2">
      <!-- −2.5 -->
      <g transform="translate(89.729668 322.182437) scale(0.1 -0.1)">
       <defs>
        <path id="DejaVuSans-32" d="M 1228 531 
L 3431 531 
L 3431 0 
L 469 0 
L 469 531 
Q 828 903 1448 1529 
Q 2069 2156 2228 2338 
Q 2531 2678 2651 2914 
Q 2772 3150 2772 3378 
Q 2772 3750 2511 3984 
Q 2250 4219 1831 4219 
Q 1534 4219 1204 4116 
Q 875 4013 500 3803 
L 500 4441 
Q 881 4594 1212 4672 
Q 1544 4750 1819 4750 
Q 2544 4750 2975 4387 
Q 3406 4025 3406 3419 
Q 3406 3131 3298 2873 
Q 3191 2616 2906 2266 
Q 2828 2175 2409 1742 
Q 1991 1309 1228 531 
z
" transform="scale(0.015625)"/>
       </defs>
       <use xlink:href="#DejaVuSans-2212"/>
       <use xlink:href="#DejaVuSans-32" x="83.789062"/>
       <use xlink:href="#DejaVuSans-2e" x="147.412109"/>
       <use xlink:href="#DejaVuSans-35" x="179.199219"/>
      </g>
     </g>
    </g>
    <g id="xtick_3">
     <g id="line2d_3">
      <g>
       <use xlink:href="#m18dede161f" x="138.763636" y="307.584" style="stroke: #000000; stroke-width: 0.8"/>
      </g>
     </g>
     <g id="text_3">
      <!-- 0.0 -->
      <g transform="translate(130.812074 322.182437) scale(0.1 -0.1)">
       <use xlink:href="#DejaVuSans-30"/>
       <use xlink:href="#DejaVuSans-2e" x="63.623047"/>
       <use xlink:href="#DejaVuSans-30" x="95.410156"/>
      </g>
     </g>
    </g>
    <g id="xtick_4">
     <g id="line2d_4">
      <g>
       <use xlink:href="#m18dede161f" x="175.656198" y="307.584" style="stroke: #000000; stroke-width: 0.8"/>
      </g>
     </g>
     <g id="text_4">
      <!-- 2.5 -->
      <g transform="translate(167.704636 322.182437) scale(0.1 -0.1)">
       <use xlink:href="#DejaVuSans-32"/>
       <use xlink:href="#DejaVuSans-2e" x="63.623047"/>
       <use xlink:href="#DejaVuSans-35" x="95.410156"/>
      </g>
     </g>
    </g>
    <g id="xtick_5">
     <g id="line2d_5">
      <g>
       <use xlink:href="#m18dede161f" x="212.54876" y="307.584" style="stroke: #000000; stroke-width: 0.8"/>
      </g>
     </g>
     <g id="text_5">
      <!-- 5.0 -->
      <g transform="translate(204.597198 322.182437) scale(0.1 -0.1)">
       <use xlink:href="#DejaVuSans-35"/>
       <use xlink:href="#DejaVuSans-2e" x="63.623047"/>
       <use xlink:href="#DejaVuSans-30" x="95.410156"/>
      </g>
     </g>
    </g>
   </g>
   <g id="matplotlib.axis_2">
    <g id="ytick_1">
     <g id="line2d_6">
      <defs>
       <path id="m43806da3b0" d="M 0 0 
L -3.5 0 
" style="stroke: #000000; stroke-width: 0.8"/>
      </defs>
      <g>
       <use xlink:href="#m43806da3b0" x="57.6" y="271.296" style="stroke: #000000; stroke-width: 0.8"/>
      </g>
     </g>
     <g id="text_6">
      <!-- −4 -->
      <g transform="translate(35.857813 275.095219) scale(0.1 -0.1)">
       <defs>
        <path id="DejaVuSans-34" d="M 2419 4116 
L 825 1625 
L 2419 1625 
L 2419 4116 
z
M 2253 4666 
L 3047 4666 
L 3047 1625 
L 3713 1625 
L 3713 1100 
L 3047 1100 
L 3047 0 
L 2419 0 
L 2419 1100 
L 313 1100 
L 313 1709 
L 2253 4666 
z
" transform="scale(0.015625)"/>
       </defs>
       <use xlink:href="#DejaVuSans-2212"/>
       <use xlink:href="#DejaVuSans-34" x="83.789062"/>
      </g>
     </g>
    </g>
    <g id="ytick_2">
     <g id="line2d_7">
      <g>
       <use xlink:href="#m43806da3b0" x="57.6" y="222.912" style="stroke: #000000; stroke-width: 0.8"/>
      </g>
     </g>
     <g id="text_7">
      <!-- −2 -->
      <g transform="translate(35.857813 226.711219) scale(0.1 -0.1)">
       <use xlink:href="#DejaVuSans-2212"/>
       <use xlink:href="#DejaVuSans-32" x="83.789062"/>
      </g>
     </g>
    </g>
    <g id="ytick_3">
     <g id="line2d_8">
      <g>
       <use xlink:href="#m43806da3b0" x="57.6" y="174.528" style="stroke: #000000; stroke-width: 0.8"/>
      </g>
     </g>
     <g id="text_8">
      <!-- 0 -->
      <g transform="translate(44.2375 178.327219) scale(0.1 -0.1)">
       <use xlink:href="#DejaVuSans-30"/>
      </g>
     </g>
    </g>
    <g id="ytick_4">
     <g id="line2d_9">
      <g>
       <use xlink:href="#m43806da3b0" x="57.6" y="126.144" style="stroke: #000000; stroke-width: 0.8"/>
      </g>
     </g>
     <g id="text_9">
      <!-- 2 -->
      <g transform="translate(44.2375 129.943219) scale(0.1 -0.1)">
       <use xlink:href="#DejaVuSans-32"/>
      </g>
     </g>
    </g>
    <g id="ytick_5">
     <g id="line2d_10">
      <g>
       <use xlink:href="#m43806da3b0" x="57.6" y="77.76" style="stroke: #000000; stroke-width: 0.8"/>
      </g>
     </g>
     <g id="text_10">
      <!-- 4 -->
      <g transform="translate(44.2375 81.559219) scale(0.1 -0.1)">
       <use xlink:href="#DejaVuSans-34"/>
      </g>
     </g>
    </g>
   </g>
   <g id="patch_3">
    <path d="M 57.6 307.584 
L 57.6 41.472 
" style="fill: none; stroke: #000000; stroke-width: 0.8; stroke-linejoin: miter; stroke-linecap: square"/>
   </g>
   <g id="patch_4">
    <path d="M 219.927273 307.584 
L 219.927273 41.472 
" style="fill: none; stroke: #000000; stroke-width: 0.8; stroke-linejoin: miter; stroke-linecap: square"/>
   </g>
   <g id="patch_5">
    <path d="M 57.6 307.584 
L 219.927273 307.584 
" style="fill: none; stroke: #000000; stroke-width: 0.8; stroke-linejoin: miter; stroke-linecap: square"/>
   </g>
   <g id="patch_6">
    <path d="M 57.6 41.472 
L 219.927273 41.472 
" style="fill: none; stroke: #000000; stroke-width: 0.8; stroke-linejoin: miter; stroke-linecap: square"/>
   </g>
  </g>
  <g id="axes_2">
   <g id="patch_7">
    <path d="M 252.392727 307.584 
L 414.72 307.584 
L 414.72 41.472 
L 252.392727 41.472 
z
" style="fill: #ffffff"/>
   </g>
   <g id="matplotlib.axis_3">
    <g id="xtick_6">
     <g id="line2d_11">
      <g>
       <use xlink:href="#m18dede161f" x="252.392727" y="307.584" style="stroke: #000000; stroke-width: 0.8"/>
      </g>
     </g>
     <g id="text_11">
      <!-- −0.5 -->
      <g transform="translate(240.251321 322.182437) scale(0.1 -0.1)">
       <use xlink:href="#DejaVuSans-2212"/>
       <use xlink:href="#DejaVuSans-30" x="83.789062"/>
       <use xlink:href="#DejaVuSans-2e" x="147.412109"/>
       <use xlink:href="#DejaVuSans-35" x="179.199219"/>
      </g>
     </g>
    </g>
    <g id="xtick_7">
     <g id="line2d_12">
      <g>
       <use xlink:href="#m18dede161f" x="292.974545" y="307.584" style="stroke: #000000; stroke-width: 0.8"/>
      </g>
     </g>
     <g id="text_12">
      <!-- 0.0 -->
      <g transform="translate(285.022983 322.182437) scale(0.1 -0.1)">
       <use xlink:href="#DejaVuSans-30"/>
       <use xlink:href="#DejaVuSans-2e" x="63.623047"/>
       <use xlink:href="#DejaVuSans-30" x="95.410156"/>
      </g>
     </g>
    </g>
    <g id="xtick_8">
     <g id="line2d_13">
      <g>
       <use xlink:href="#m18dede161f" x="333.556364" y="307.584" style="stroke: #000000; stroke-width: 0.8"/>
      </g>
     </g>
     <g id="text_13">
      <!-- 0.5 -->
      <g transform="translate(325.604801 322.182437) scale(0.1 -0.1)">
       <use xlink:href="#DejaVuSans-30"/>
       <use xlink:href="#DejaVuSans-2e" x="63.623047"/>
       <use xlink:href="#DejaVuSans-35" x="95.410156"/>
      </g>
     </g>
    </g>
    <g id="xtick_9">
     <g id="line2d_14">
      <g>
       <use xlink:href="#m18dede161f" x="374.138182" y="307.584" style="stroke: #000000; stroke-width: 0.8"/>
      </g>
     </g>
     <g id="text_14">
      <!-- 1.0 -->
      <g transform="translate(366.186619 322.182437) scale(0.1 -0.1)">
       <defs>
        <path id="DejaVuSans-31" d="M 794 531 
L 1825 531 
L 1825 4091 
L 703 3866 
L 703 4441 
L 1819 4666 
L 2450 4666 
L 2450 531 
L 3481 531 
L 3481 0 
L 794 0 
L 794 531 
z
" transform="scale(0.015625)"/>
       </defs>
       <use xlink:href="#DejaVuSans-31"/>
       <use xlink:href="#DejaVuSans-2e" x="63.623047"/>
       <use xlink:href="#DejaVuSans-30" x="95.410156"/>
      </g>
     </g>
    </g>
    <g id="xtick_10">
     <g id="line2d_15">
      <g>
       <use xlink:href="#m18dede161f" x="414.72" y="307.584" style="stroke: #000000; stroke-width: 0.8"/>
      </g>
     </g>
     <g id="text_15">
      <!-- 1.5 -->
      <g transform="translate(406.768437 322.182437) scale(0.1 -0.1)">
       <use xlink:href="#DejaVuSans-31"/>
       <use xlink:href="#DejaVuSans-2e" x="63.623047"/>
       <use xlink:href="#DejaVuSans-35" x="95.410156"/>
      </g>
     </g>
    </g>
   </g>
   <g id="matplotlib.axis_4">
    <g id="ytick_6">
     <g id="line2d_16">
      <g>
       <use xlink:href="#m43806da3b0" x="252.392727" y="283.392" style="stroke: #000000; stroke-width: 0.8"/>
      </g>
     </g>
     <g id="text_16">
      <!-- 0 -->
      <g transform="translate(239.030227 287.191219) scale(0.1 -0.1)">
       <use xlink:href="#DejaVuSans-30"/>
      </g>
     </g>
    </g>
    <g id="ytick_7">
     <g id="line2d_17">
      <g>
       <use xlink:href="#m43806da3b0" x="252.392727" y="235.008" style="stroke: #000000; stroke-width: 0.8"/>
      </g>
     </g>
     <g id="text_17">
      <!-- 10 -->
      <g transform="translate(232.667727 238.807219) scale(0.1 -0.1)">
       <use xlink:href="#DejaVuSans-31"/>
       <use xlink:href="#DejaVuSans-30" x="63.623047"/>
      </g>
     </g>
    </g>
    <g id="ytick_8">
     <g id="line2d_18">
      <g>
       <use xlink:href="#m43806da3b0" x="252.392727" y="186.624" style="stroke: #000000; stroke-width: 0.8"/>
      </g>
     </g>
     <g id="text_18">
      <!-- 20 -->
      <g transform="translate(232.667727 190.423219) scale(0.1 -0.1)">
       <use xlink:href="#DejaVuSans-32"/>
       <use xlink:href="#DejaVuSans-30" x="63.623047"/>
      </g>
     </g>
    </g>
    <g id="ytick_9">
     <g id="line2d_19">
      <g>
       <use xlink:href="#m43806da3b0" x="252.392727" y="138.24" style="stroke: #000000; stroke-width: 0.8"/>
      </g>
     </g>
     <g id="text_19">
      <!-- 30 -->
      <g transform="translate(232.667727 142.039219) scale(0.1 -0.1)">
       <defs>
        <path id="DejaVuSans-33" d="M 2597 2516 
Q 3050 2419 3304 2112 
Q 3559 1806 3559 1356 
Q 3559 666 3084 287 
Q 2609 -91 1734 -91 
Q 1441 -91 1130 -33 
Q 819 25 488 141 
L 488 750 
Q 750 597 1062 519 
Q 1375 441 1716 441 
Q 2309 441 2620 675 
Q 2931 909 2931 1356 
Q 2931 1769 2642 2001 
Q 2353 2234 1838 2234 
L 1294 2234 
L 1294 2753 
L 1863 2753 
Q 2328 2753 2575 2939 
Q 2822 3125 2822 3475 
Q 2822 3834 2567 4026 
Q 2313 4219 1838 4219 
Q 1578 4219 1281 4162 
Q 984 4106 628 3988 
L 628 4550 
Q 988 4650 1302 4700 
Q 1616 4750 1894 4750 
Q 2613 4750 3031 4423 
Q 3450 4097 3450 3541 
Q 3450 3153 3228 2886 
Q 3006 2619 2597 2516 
z
" transform="scale(0.015625)"/>
       </defs>
       <use xlink:href="#DejaVuSans-33"/>
       <use xlink:href="#DejaVuSans-30" x="63.623047"/>
      </g>
     </g>
    </g>
    <g id="ytick_10">
     <g id="line2d_20">
      <g>
       <use xlink:href="#m43806da3b0" x="252.392727" y="89.856" style="stroke: #000000; stroke-width: 0.8"/>
      </g>
     </g>
     <g id="text_20">
      <!-- 40 -->
      <g transform="translate(232.667727 93.655219) scale(0.1 -0.1)">
       <use xlink:href="#DejaVuSans-34"/>
       <use xlink:href="#DejaVuSans-30" x="63.623047"/>
      </g>
     </g>
    </g>
    <g id="ytick_11">
     <g id="line2d_21">
      <g>
       <use xlink:href="#m43806da3b0" x="252.392727" y="41.472" style="stroke: #000000; stroke-width: 0.8"/>
      </g>
     </g>
     <g id="text_21">
      <!-- 50 -->
      <g transform="translate(232.667727 45.271219) scale(0.1 -0.1)">
       <use xlink:href="#DejaVuSans-35"/>
       <use xlink:href="#DejaVuSans-30" x="63.623047"/>
      </g>
     </g>
    </g>
   </g>
   <g id="line2d_22">
    <path d="M 293.055709 283.392 
L 374.138182 283.392 
L 374.138182 283.392 
" clip-path="url(#p6c740e17fb)" style="fill: none; stroke: #1f77b4; stroke-width: 1.5; stroke-linecap: square"/>
   </g>
   <g id="line2d_23">
    <path d="M 293.055709 123.769905 
L 293.2992 204.256357 
L 293.623855 227.671924 
L 294.029673 239.811481 
L 294.516655 247.42726 
L 295.0848 252.706588 
L 295.734109 256.602479 
L 296.464582 259.604711 
L 297.276218 261.99344 
L 298.169018 263.941517 
L 299.142982 265.561807 
L 300.279273 267.024157 
L 301.577891 268.325093 
L 303.038836 269.474904 
L 304.743273 270.534429 
L 306.772364 271.528988 
L 309.207273 272.465735 
L 312.129164 273.343758 
L 315.700364 274.176649 
L 320.0832 274.963541 
L 325.602327 275.71812 
L 332.501236 276.428095 
L 341.348073 277.104812 
L 352.792145 277.745485 
L 367.726255 278.347814 
L 374.138182 278.5536 
L 374.138182 278.5536 
" clip-path="url(#p6c740e17fb)" style="fill: none; stroke: #ff7f0e; stroke-width: 1.5; stroke-linecap: square"/>
   </g>
   <g id="line2d_24">
    <path d="M 293.085655 -1 
L 293.2992 125.120714 
L 293.623855 171.951848 
L 294.029673 196.230962 
L 294.516655 211.462521 
L 295.0848 222.021175 
L 295.734109 229.812958 
L 296.464582 235.817423 
L 297.276218 240.59488 
L 298.169018 244.491034 
L 299.142982 247.731614 
L 300.198109 250.470665 
L 301.3344 252.817112 
L 302.633018 254.971903 
L 304.0128 256.829186 
L 305.554909 258.530375 
L 307.259345 260.078861 
L 309.207273 261.539469 
L 311.398691 262.896116 
L 313.914764 264.181931 
L 316.755491 265.37982 
L 320.0832 266.535082 
L 323.979055 267.642665 
L 328.524218 268.696221 
L 333.881018 269.703977 
L 340.292945 270.676483 
L 348.003491 271.61183 
L 357.256145 272.502949 
L 368.537891 273.35862 
L 374.138182 273.7152 
L 374.138182 273.7152 
" clip-path="url(#p6c740e17fb)" style="fill: none; stroke: #2ca02c; stroke-width: 1.5; stroke-linecap: square"/>
   </g>
   <g id="line2d_25">
    <path d="M 293.205355 -1 
L 293.380364 71.339066 
L 293.705018 125.905581 
L 294.110836 157.463507 
L 294.597818 178.262787 
L 295.165964 193.07749 
L 295.815273 204.193954 
L 296.545745 212.855667 
L 297.357382 219.800789 
L 298.250182 225.496651 
L 299.224145 230.254156 
L 300.279273 234.288472 
L 301.415564 237.753397 
L 302.633018 240.761854 
L 303.931636 243.398671 
L 305.392582 245.853623 
L 306.934691 248.013018 
L 308.639127 250.016775 
L 310.505891 251.865466 
L 312.534982 253.565452 
L 314.807564 255.179424 
L 317.323636 256.694668 
L 320.164364 258.144854 
L 323.410909 259.545823 
L 327.063273 260.87513 
L 331.283782 262.166844 
L 336.072436 263.395175 
L 341.591564 264.578306 
L 348.003491 265.721745 
L 355.551709 266.834749 
L 364.398545 267.906614 
L 374.138182 268.8768 
L 374.138182 268.8768 
" clip-path="url(#p6c740e17fb)" style="fill: none; stroke: #d62728; stroke-width: 1.5; stroke-linecap: square"/>
   </g>
   <g id="line2d_26">
    <path d="M 293.376391 -1 
L 293.623855 60.511696 
L 294.029673 109.069924 
L 294.516655 139.533042 
L 295.0848 160.650351 
L 295.734109 176.233915 
L 296.464582 188.242845 
L 297.276218 197.79776 
L 298.169018 205.590068 
L 299.142982 212.071227 
L 300.198109 217.549331 
L 301.3344 222.242225 
L 302.551855 226.308512 
L 303.850473 229.86652 
L 305.230255 233.006393 
L 306.6912 235.798047 
L 308.314473 238.417489 
L 310.018909 240.752983 
L 311.885673 242.937935 
L 313.914764 244.971862 
L 316.106182 246.859335 
L 318.541091 248.663818 
L 321.219491 250.371591 
L 324.222545 252.017798 
L 327.550255 253.584275 
L 331.283782 255.091792 
L 335.504291 256.549885 
L 340.292945 257.960965 
L 345.730909 259.323335 
L 351.899345 260.633378 
L 358.960582 261.900453 
L 367.076945 263.125969 
L 374.138182 264.0384 
L 374.138182 264.0384 
" clip-path="url(#p6c740e17fb)" style="fill: none; stroke: #9467bd; stroke-width: 1.5; stroke-linecap: square"/>
   </g>
   <g id="line2d_27">
    <path d="M 293.599724 -1 
L 293.948509 56.480471 
L 294.435491 98.579466 
L 295.003636 126.888859 
L 295.652945 147.405147 
L 296.383418 163.030614 
L 297.195055 175.362708 
L 298.087855 185.361315 
L 299.061818 193.641375 
L 300.116945 200.616618 
L 301.253236 206.576409 
L 302.470691 211.729617 
L 303.769309 216.231008 
L 305.149091 220.197826 
L 306.610036 223.720589 
L 308.152145 226.870343 
L 309.856582 229.834455 
L 311.642182 232.491655 
L 313.590109 234.985517 
L 315.700364 237.315243 
L 317.972945 239.485198 
L 320.407855 241.502868 
L 323.086255 243.432069 
L 326.008145 245.261902 
L 329.254691 247.028827 
L 332.825891 248.716333 
L 336.802909 250.346264 
L 341.266909 251.929329 
L 346.217891 253.445759 
L 351.818182 254.923869 
L 358.148945 256.358758 
L 365.291345 257.744786 
L 373.407709 259.089049 
L 374.138182 259.2 
L 374.138182 259.2 
" clip-path="url(#p6c740e17fb)" style="fill: none; stroke: #8c564b; stroke-width: 1.5; stroke-linecap: square"/>
   </g>
   <g id="line2d_28">
    <path d="M 293.868414 -1 
L 294.273164 47.994138 
L 294.760145 83.035557 
L 295.328291 109.179162 
L 295.9776 129.388826 
L 296.708073 145.457803 
L 297.519709 158.529183 
L 298.412509 169.363801 
L 299.386473 178.486689 
L 300.4416 186.271365 
L 301.577891 192.990557 
L 302.795345 198.847913 
L 304.093964 203.998491 
L 305.473745 208.562388 
L 306.934691 212.634037 
L 308.4768 216.288697 
L 310.100073 219.587072 
L 311.885673 222.710902 
L 313.752436 225.534353 
L 315.781527 228.19957 
L 317.972945 230.703837 
L 320.326691 233.049603 
L 322.842764 235.242626 
L 325.602327 237.34872 
L 328.605382 239.35552 
L 331.851927 241.256812 
L 335.423127 243.089881 
L 339.400145 244.875903 
L 343.782982 246.594956 
L 348.6528 248.260689 
L 354.090764 249.879191 
L 360.096873 251.432057 
L 366.833455 252.942272 
L 374.138182 254.3616 
L 374.138182 254.3616 
" clip-path="url(#p6c740e17fb)" style="fill: none; stroke: #e377c2; stroke-width: 1.5; stroke-linecap: square"/>
   </g>
   <g id="line2d_29">
    <path d="M 294.18683 -1 
L 294.597818 38.090503 
L 295.165964 72.658144 
L 295.815273 98.59656 
L 296.545745 118.807222 
L 297.357382 135.012508 
L 298.250182 148.302852 
L 299.224145 159.403696 
L 300.279273 168.817102 
L 301.415564 176.901925 
L 302.633018 183.921659 
L 303.931636 190.074233 
L 305.311418 195.511271 
L 306.772364 200.350915 
L 308.314473 204.686606 
L 309.937745 208.593231 
L 311.642182 212.131517 
L 313.508945 215.487483 
L 315.456873 218.531879 
L 317.567127 221.411159 
L 319.758545 224.03191 
L 322.112291 226.509321 
L 324.709527 228.915204 
L 327.469091 231.166396 
L 330.472145 233.326944 
L 333.718691 235.38741 
L 337.289891 237.385986 
L 341.185745 239.306744 
L 345.487418 241.173101 
L 350.194909 242.968314 
L 355.389382 244.707592 
L 361.152 246.39859 
L 367.563927 248.043829 
L 374.138182 249.5232 
L 374.138182 249.5232 
" clip-path="url(#p6c740e17fb)" style="fill: none; stroke: #7f7f7f; stroke-width: 1.5; stroke-linecap: square"/>
   </g>
   <g id="line2d_30">
    <path d="M 294.553265 -1 
L 295.0848 37.908702 
L 295.734109 69.075831 
L 296.464582 93.09369 
L 297.276218 112.20352 
L 298.169018 127.788135 
L 299.142982 140.750455 
L 300.198109 151.706661 
L 301.3344 161.09245 
L 302.551855 169.225024 
L 303.850473 176.34104 
L 305.230255 182.620785 
L 306.6912 188.204093 
L 308.233309 193.201137 
L 309.856582 197.699928 
L 311.561018 201.771643 
L 313.346618 205.474476 
L 315.294545 208.993782 
L 317.323636 212.199115 
L 319.515055 215.237599 
L 321.787636 218.013513 
L 324.222545 220.643595 
L 326.819782 223.128764 
L 329.660509 225.537562 
L 332.744727 227.853654 
L 336.072436 230.067133 
L 339.643636 232.172991 
L 343.539491 234.209839 
L 347.76 236.16544 
L 352.386327 238.063973 
L 357.499636 239.919063 
L 363.099927 241.712348 
L 369.349527 243.474912 
L 374.138182 244.6848 
L 374.138182 244.6848 
" clip-path="url(#p6c740e17fb)" style="fill: none; stroke: #bcbd22; stroke-width: 1.5; stroke-linecap: square"/>
   </g>
   <g id="line2d_31">
    <path d="M 294.966562 -1 
L 295.490618 30.746244 
L 296.139927 58.460991 
L 296.8704 80.899848 
L 297.682036 99.3949 
L 298.574836 114.877193 
L 299.5488 128.012684 
L 300.603927 139.288177 
L 301.740218 149.066671 
L 302.957673 157.623761 
L 304.256291 165.17211 
L 305.636073 171.87824 
L 307.097018 177.874279 
L 308.639127 183.266326 
L 310.2624 188.140508 
L 311.966836 192.567437 
L 313.752436 196.605529 
L 315.700364 200.453837 
L 317.729455 203.967258 
L 319.839709 207.188673 
L 322.112291 210.257127 
L 324.5472 213.168373 
L 327.144436 215.922648 
L 329.904 218.523312 
L 332.825891 220.975799 
L 335.991273 223.344263 
L 339.400145 225.617855 
L 343.133673 227.835949 
L 347.191855 229.981058 
L 351.574691 232.041709 
L 356.363345 234.043171 
L 361.557818 235.971697 
L 367.320436 237.869077 
L 373.6512 239.713561 
L 374.138182 239.8464 
L 374.138182 239.8464 
" clip-path="url(#p6c740e17fb)" style="fill: none; stroke: #17becf; stroke-width: 1.5; stroke-linecap: square"/>
   </g>
   <g id="patch_8">
    <path d="M 252.392727 307.584 
L 252.392727 41.472 
" style="fill: none; stroke: #000000; stroke-width: 0.8; stroke-linejoin: miter; stroke-linecap: square"/>
   </g>
   <g id="patch_9">
    <path d="M 414.72 307.584 
L 414.72 41.472 
" style="fill: none; stroke: #000000; stroke-width: 0.8; stroke-linejoin: miter; stroke-linecap: square"/>
   </g>
   <g id="patch_10">
    <path d="M 252.392727 307.584 
L 414.72 307.584 
" style="fill: none; stroke: #000000; stroke-width: 0.8; stroke-linejoin: miter; stroke-linecap: square"/>
   </g>
   <g id="patch_11">
    <path d="M 252.392727 41.472 
L 414.72 41.472 
" style="fill: none; stroke: #000000; stroke-width: 0.8; stroke-linejoin: miter; stroke-linecap: square"/>
   </g>
  </g>
  <g id="text_22">
   <!-- t = 0.6 -->
   <g transform="translate(209.664375 16.030125) scale(0.12 -0.12)">
    <defs>
     <path id="DejaVuSans-74" d="M 1172 4494 
L 1172 3500 
L 2356 3500 
L 2356 3053 
L 1172 3053 
L 1172 1153 
Q 1172 725 1289 603 
Q 1406 481 1766 481 
L 2356 481 
L 2356 0 
L 1766 0 
Q 1100 0 847 248 
Q 594 497 594 1153 
L 594 3053 
L 172 3053 
L 172 3500 
L 594 3500 
L 594 4494 
L 1172 4494 
z
" transform="scale(0.015625)"/>
     <path id="DejaVuSans-20" transform="scale(0.015625)"/>
     <path id="DejaVuSans-3d" d="M 678 2906 
L 4684 2906 
L 4684 2381 
L 678 2381 
L 678 2906 
z
M 678 1631 
L 4684 1631 
L 4684 1100 
L 678 1100 
L 678 1631 
z
" transform="scale(0.015625)"/>
     <path id="DejaVuSans-36" d="M 2113 2584 
Q 1688 2584 1439 2293 
Q 1191 2003 1191 1497 
Q 1191 994 1439 701 
Q 1688 409 2113 409 
Q 2538 409 2786 701 
Q 3034 994 3034 1497 
Q 3034 2003 2786 2293 
Q 2538 2584 2113 2584 
z
M 3366 4563 
L 3366 3988 
Q 3128 4100 2886 4159 
Q 2644 4219 2406 4219 
Q 1781 4219 1451 3797 
Q 1122 3375 1075 2522 
Q 1259 2794 1537 2939 
Q 1816 3084 2150 3084 
Q 2853 3084 3261 2657 
Q 3669 2231 3669 1497 
Q 3669 778 3244 343 
Q 2819 -91 2113 -91 
Q 1303 -91 875 529 
Q 447 1150 447 2328 
Q 447 3434 972 4092 
Q 1497 4750 2381 4750 
Q 2619 4750 2861 4703 
Q 3103 4656 3366 4563 
z
" transform="scale(0.015625)"/>
    </defs>
    <use xlink:href="#DejaVuSans-74"/>
    <use xlink:href="#DejaVuSans-20" x="39.208984"/>
    <use xlink:href="#DejaVuSans-3d" x="70.996094"/>
    <use xlink:href="#DejaVuSans-20" x="154.785156"/>
    <use xlink:href="#DejaVuSans-30" x="186.572266"/>
    <use xlink:href="#DejaVuSans-2e" x="250.195312"/>
    <use xlink:href="#DejaVuSans-36" x="281.982422"/>
   </g>
  </g>
 </g>
 <defs>
  <clipPath id="p9361231686">
   <rect x="57.6" y="41.472" width="162.327273" height="266.112"/>
  </clipPath>
  <clipPath id="p6c740e17fb">
   <rect x="252.392727" y="41.472" width="162.327273" height="266.112"/>
  </clipPath>
 </defs>
</svg>
