<?xml version="1.0" encoding="utf-8" standalone="no"?>
<!DOCTYPE svg PUBLIC "-//W3C//DTD SVG 1.1//EN"
  "http://www.w3.org/Graphics/SVG/1.1/DTD/svg11.dtd">
<svg xmlns:xlink="http://www.w3.org/1999/xlink" width="460.8pt" height="345.6pt" viewBox="0 0 460.8 345.6" xmlns="http://www.w3.org/2000/svg" version="1.1">
 <metadata>
  <rdf:RDF xmlns:dc="http://purl.org/dc/elements/1.1/" xmlns:cc="http://creativecommons.org/ns#" xmlns:rdf="http://www.w3.org/1999/02/22-rdf-syntax-ns#">
   <cc:Work>
    <dc:type rdf:resource="http://purl.org/dc/dcmitype/StillImage"/>
    <dc:date>2023-01-17T23:38:59.100124</dc:date>
    <dc:format>image/svg+xml</dc:format>
    <dc:creator>
     <cc:Agent>
      <dc:title>Matplotlib v3.6.3, https://matplotlib.org/</dc:title>
     </cc:Agent>
    </dc:creator>
   </cc:Work>
  </rdf:RDF>
 </metadata>
 <defs>
  <style type="text/css">*{stroke-linejoin: round; stroke-linecap: butt}</style>
 </defs>
 <g id="figure_1">
  <g id="patch_1">
   <path d="M 0 345.6 
L 460.8 345.6 
L 460.8 0 
L 0 0 
z
" style="fill: #ffffff"/>
  </g>
  <g id="axes_1">
   <g id="patch_2">
    <path d="M 57.6 307.584 
L 219.927273 307.584 
L 219.927273 41.472 
L 57.6 41.472 
z
" style="fill: #ffffff"/>
   </g>
   <g id="Quiver_1">
    <path d="M 65.022347 295.047465 
L 75.844984 296.12434 
L 75.492117 295.199435 
L 79.765968 296.959382 
L 75.229112 297.842647 
L 75.757316 297.00541 
L 64.934678 295.928535 
L 65.022347 295.047465 
" clip-path="url(#p68bac0963b)"/>
    <path d="M 79.790179 295.048674 
L 87.666213 296.028276 
L 87.336172 295.094983 
L 91.565501 296.959382 
L 87.008318 297.730937 
L 87.556928 296.906928 
L 79.680895 295.927326 
L 79.790179 295.048674 
" clip-path="url(#p68bac0963b)"/>
    <path d="M 94.564991 295.051254 
L 99.506751 295.87078 
L 99.214862 294.92486 
L 103.365035 296.959382 
L 98.780291 297.545335 
L 99.361894 296.744272 
L 94.420133 295.924746 
L 94.564991 295.051254 
" clip-path="url(#p68bac0963b)"/>
    <path d="M 109.356456 295.058382 
L 111.404876 295.567937 
L 111.188998 294.601831 
L 115.164569 296.959382 
L 110.547779 297.179539 
L 111.191137 296.427173 
L 109.142717 295.917618 
L 109.356456 295.058382 
" clip-path="url(#p68bac0963b)"/>
    <path d="M 124.15375 295.192251 
L 124.449499 295.339389 
L 124.448026 294.600753 
L 126.964103 296.959382 
L 123.565197 296.375247 
L 124.155222 295.930887 
L 123.859473 295.783749 
L 124.15375 295.192251 
" clip-path="url(#p68bac0963b)"/>
    <path d="M 138.910775 295.488 
L 138.910775 295.635138 
L 139.205051 295.488 
L 138.763636 296.959382 
L 138.322222 295.488 
L 138.616498 295.635138 
L 138.616498 295.488 
L 138.910775 295.488 
" clip-path="url(#p68bac0963b)"/>
    <path d="M 153.667799 295.783749 
L 153.37205 295.930887 
L 153.962076 296.375247 
L 150.56317 296.959382 
L 153.079246 294.600753 
L 153.077774 295.339389 
L 153.373523 295.192251 
L 153.667799 295.783749 
" clip-path="url(#p68bac0963b)"/>
    <path d="M 168.384556 295.917618 
L 166.336136 296.427173 
L 166.979493 297.179539 
L 162.362704 296.959382 
L 166.338275 294.601831 
L 166.122397 295.567937 
L 168.170816 295.058382 
L 168.384556 295.917618 
" clip-path="url(#p68bac0963b)"/>
    <path d="M 183.107139 295.924746 
L 178.165379 296.744272 
L 178.746981 297.545335 
L 174.162238 296.959382 
L 178.31241 294.92486 
L 178.020521 295.87078 
L 182.962282 295.051254 
L 183.107139 295.924746 
" clip-path="url(#p68bac0963b)"/>
    <path d="M 197.846378 295.927326 
L 189.970344 296.906928 
L 190.518955 297.730937 
L 185.961771 296.959382 
L 190.191101 295.094983 
L 189.86106 296.028276 
L 197.737093 295.048674 
L 197.846378 295.927326 
" clip-path="url(#p68bac0963b)"/>
    <path d="M 212.592595 295.928535 
L 201.769957 297.00541 
L 202.298161 297.842647 
L 197.761305 296.959382 
L 202.035156 295.199435 
L 201.682289 296.12434 
L 212.504926 295.047465 
L 212.592595 295.928535 
" clip-path="url(#p68bac0963b)"/>
    <path d="M 65.013642 270.854685 
L 75.829264 271.715627 
L 75.458208 270.797868 
L 79.765968 272.473106 
L 75.247432 273.445756 
L 75.759005 272.598256 
L 64.943383 271.737315 
L 65.013642 270.854685 
" clip-path="url(#p68bac0963b)"/>
    <path d="M 79.779371 270.855465 
L 87.644518 271.638063 
L 87.291651 270.713158 
L 91.565501 272.473106 
L 87.028646 273.35637 
L 87.556849 272.519134 
L 79.691703 271.736535 
L 79.779371 270.855465 
" clip-path="url(#p68bac0963b)"/>
    <path d="M 94.550786 270.857135 
L 99.473471 271.510225 
L 99.151054 270.57427 
L 103.365035 272.473106 
L 98.80171 273.207462 
L 99.357023 272.387955 
L 94.434338 271.734865 
L 94.550786 270.857135 
" clip-path="url(#p68bac0963b)"/>
    <path d="M 109.335994 270.861803 
L 111.343207 271.261247 
L 111.081824 270.306447 
L 115.164569 272.473106 
L 110.563383 272.911626 
L 111.170393 272.12964 
L 109.16318 271.730197 
L 109.335994 270.861803 
" clip-path="url(#p68bac0963b)"/>
    <path d="M 124.124322 271.000251 
L 124.420071 271.117961 
L 124.359743 270.408753 
L 126.964103 272.473106 
L 123.65348 272.183247 
L 124.18465 271.70946 
L 123.888901 271.591749 
L 124.124322 271.000251 
" clip-path="url(#p68bac0963b)"/>
    <path d="M 138.881347 271.296 
L 138.881347 271.413711 
L 139.116768 271.296 
L 138.763636 272.473106 
L 138.410505 271.296 
L 138.645926 271.413711 
L 138.645926 271.296 
L 138.881347 271.296 
" clip-path="url(#p68bac0963b)"/>
    <path d="M 153.638372 271.591749 
L 153.342623 271.70946 
L 153.873793 272.183247 
L 150.56317 272.473106 
L 153.167529 270.408753 
L 153.107201 271.117961 
L 153.402951 271.000251 
L 153.638372 271.591749 
" clip-path="url(#p68bac0963b)"/>
    <path d="M 168.364093 271.730197 
L 166.35688 272.12964 
L 166.96389 272.911626 
L 162.362704 272.473106 
L 166.445449 270.306447 
L 166.184066 271.261247 
L 168.191279 270.861803 
L 168.364093 271.730197 
" clip-path="url(#p68bac0963b)"/>
    <path d="M 183.092935 271.734865 
L 178.170249 272.387955 
L 178.725563 273.207462 
L 174.162238 272.473106 
L 178.376219 270.57427 
L 178.053801 271.510225 
L 182.976487 270.857135 
L 183.092935 271.734865 
" clip-path="url(#p68bac0963b)"/>
    <path d="M 197.83557 271.736535 
L 189.970423 272.519134 
L 190.498627 273.35637 
L 185.961771 272.473106 
L 190.235622 270.713158 
L 189.882755 271.638063 
L 197.747901 270.855465 
L 197.83557 271.736535 
" clip-path="url(#p68bac0963b)"/>
    <path d="M 212.58389 271.737315 
L 201.768267 272.598256 
L 202.279841 273.445756 
L 197.761305 272.473106 
L 202.069065 270.797868 
L 201.698009 271.715627 
L 212.513631 270.854685 
L 212.58389 271.737315 
" clip-path="url(#p68bac0963b)"/>
    <path d="M 65.004896 246.662076 
L 75.815036 247.307455 
L 75.425879 246.397224 
L 79.765968 247.986829 
L 75.267579 249.048767 
L 75.762269 248.191303 
L 64.952129 247.545924 
L 65.004896 246.662076 
" clip-path="url(#p68bac0963b)"/>
    <path d="M 79.768484 246.662517 
L 87.6251 247.248829 
L 87.249509 246.332917 
L 91.565501 247.986829 
L 87.051831 248.981815 
L 87.559207 248.131795 
L 79.702591 247.545483 
L 79.768484 246.662517 
" clip-path="url(#p68bac0963b)"/>
    <path d="M 94.536396 246.663465 
L 99.444051 247.151787 
L 99.091184 246.226882 
L 103.365035 247.986829 
L 98.828179 248.870094 
L 99.356383 248.032857 
L 94.448728 247.544535 
L 94.536396 246.663465 
" clip-path="url(#p68bac0963b)"/>
    <path d="M 109.314939 246.666139 
L 111.289175 246.9608 
L 110.982019 246.019727 
L 115.164569 247.986829 
L 110.589907 248.646891 
L 111.158471 247.836522 
L 109.184235 247.541861 
L 109.314939 246.666139 
" clip-path="url(#p68bac0963b)"/>
    <path d="M 124.094895 246.808251 
L 124.390644 246.896534 
L 124.27146 246.216753 
L 126.964103 247.986829 
L 123.741763 247.991247 
L 124.214078 247.488032 
L 123.918329 247.399749 
L 124.094895 246.808251 
" clip-path="url(#p68bac0963b)"/>
    <path d="M 138.763636 247.546711 
L 139.147035 247.325355 
L 139.147035 246.882645 
L 138.763636 246.661289 
L 138.380238 246.882645 
L 138.380238 247.325355 
L 138.763636 247.546711 
L 139.147035 247.325355 
" clip-path="url(#p68bac0963b)"/>
    <path d="M 153.608944 247.399749 
L 153.313195 247.488032 
L 153.78551 247.991247 
L 150.56317 247.986829 
L 153.255812 246.216753 
L 153.136629 246.896534 
L 153.432378 246.808251 
L 153.608944 247.399749 
" clip-path="url(#p68bac0963b)"/>
    <path d="M 168.343038 247.541861 
L 166.368801 247.836522 
L 166.937366 248.646891 
L 162.362704 247.986829 
L 166.545254 246.019727 
L 166.238097 246.9608 
L 168.212334 246.666139 
L 168.343038 247.541861 
" clip-path="url(#p68bac0963b)"/>
    <path d="M 183.078545 247.544535 
L 178.17089 248.032857 
L 178.699093 248.870094 
L 174.162238 247.986829 
L 178.436088 246.226882 
L 178.083221 247.151787 
L 182.990877 246.663465 
L 183.078545 247.544535 
" clip-path="url(#p68bac0963b)"/>
    <path d="M 197.824682 247.545483 
L 189.968066 248.131795 
L 190.475442 248.981815 
L 185.961771 247.986829 
L 190.277763 246.332917 
L 189.902173 247.248829 
L 197.758789 246.662517 
L 197.824682 247.545483 
" clip-path="url(#p68bac0963b)"/>
    <path d="M 212.575144 247.545924 
L 201.765003 248.191303 
L 202.259694 249.048767 
L 197.761305 247.986829 
L 202.101394 246.397224 
L 201.712237 247.307455 
L 212.522377 246.662076 
L 212.575144 247.545924 
" clip-path="url(#p68bac0963b)"/>
    <path d="M 64.996119 222.469639 
L 75.802329 222.899736 
L 75.395181 221.997408 
L 79.765968 223.500553 
L 75.289544 224.651571 
L 75.767117 223.784457 
L 64.960906 223.354361 
L 64.996119 222.469639 
" clip-path="url(#p68bac0963b)"/>
    <path d="M 79.757535 222.469836 
L 87.608025 222.860406 
L 87.209857 221.95408 
L 91.565501 223.500553 
L 87.077868 224.607063 
L 87.564028 223.744734 
L 79.713539 223.354164 
L 79.757535 222.469836 
" clip-path="url(#p68bac0963b)"/>
    <path d="M 94.521865 222.47026 
L 99.418679 222.795089 
L 99.035544 221.882306 
L 103.365035 223.500553 
L 98.859728 224.532746 
L 99.360073 223.678569 
L 94.463259 223.35374 
L 94.521865 222.47026 
" clip-path="url(#p68bac0963b)"/>
    <path d="M 109.293421 222.471465 
L 111.243585 222.66551 
L 110.890718 221.740605 
L 115.164569 223.500553 
L 110.627713 224.383817 
L 111.155917 223.546581 
L 109.205753 223.352535 
L 109.293421 222.471465 
" clip-path="url(#p68bac0963b)"/>
    <path d="M 124.065467 222.616251 
L 124.361216 222.675106 
L 124.183177 222.024753 
L 126.964103 223.500553 
L 123.830046 223.799247 
L 124.243505 223.266604 
L 123.947756 223.207749 
L 124.065467 222.616251 
" clip-path="url(#p68bac0963b)"/>
    <path d="M 138.763636 223.354711 
L 139.147035 223.133355 
L 139.147035 222.690645 
L 138.763636 222.469289 
L 138.380238 222.690645 
L 138.380238 223.133355 
L 138.763636 223.354711 
L 139.147035 223.133355 
" clip-path="url(#p68bac0963b)"/>
    <path d="M 153.579516 223.207749 
L 153.283767 223.266604 
L 153.697227 223.799247 
L 150.56317 223.500553 
L 153.344095 222.024753 
L 153.166057 222.675106 
L 153.461806 222.616251 
L 153.579516 223.207749 
" clip-path="url(#p68bac0963b)"/>
    <path d="M 168.32152 223.352535 
L 166.371356 223.546581 
L 166.89956 224.383817 
L 162.362704 223.500553 
L 166.636555 221.740605 
L 166.283688 222.66551 
L 168.233852 222.471465 
L 168.32152 223.352535 
" clip-path="url(#p68bac0963b)"/>
    <path d="M 183.064013 223.35374 
L 178.1672 223.678569 
L 178.667545 224.532746 
L 174.162238 223.500553 
L 178.491729 221.882306 
L 178.108594 222.795089 
L 183.005408 222.47026 
L 183.064013 223.35374 
" clip-path="url(#p68bac0963b)"/>
    <path d="M 197.813734 223.354164 
L 189.963244 223.744734 
L 190.449404 224.607063 
L 185.961771 223.500553 
L 190.317416 221.95408 
L 189.919248 222.860406 
L 197.769737 222.469836 
L 197.813734 223.354164 
" clip-path="url(#p68bac0963b)"/>
    <path d="M 212.566367 223.354361 
L 201.760156 223.784457 
L 202.237729 224.651571 
L 197.761305 223.500553 
L 202.132091 221.997408 
L 201.724943 222.899736 
L 212.531154 222.469639 
L 212.566367 223.354361 
" clip-path="url(#p68bac0963b)"/>
    <path d="M 64.987321 198.277377 
L 75.791168 198.492378 
L 75.366162 197.598323 
L 79.765968 199.014276 
L 75.313311 200.254062 
L 75.773551 199.377624 
L 64.969704 199.162623 
L 64.987321 198.277377 
" clip-path="url(#p68bac0963b)"/>
    <path d="M 79.746546 198.277426 
L 87.593346 198.472619 
L 87.172791 197.576462 
L 91.565501 199.014276 
L 87.106735 200.231905 
L 87.571328 199.357767 
L 79.724528 199.162574 
L 79.746546 198.277426 
" clip-path="url(#p68bac0963b)"/>
    <path d="M 94.507237 198.277533 
L 99.397504 198.43973 
L 98.984387 197.540119 
L 103.365035 199.014276 
L 98.896334 200.194924 
L 99.368153 199.324665 
L 94.477887 199.162467 
L 94.507237 198.277533 
" clip-path="url(#p68bac0963b)"/>
    <path d="M 109.271585 198.277836 
L 111.207092 198.37413 
L 110.808925 197.467804 
L 115.164569 199.014276 
L 110.676936 200.120787 
L 111.163096 199.258457 
L 109.227589 199.162164 
L 109.271585 198.277836 
" clip-path="url(#p68bac0963b)"/>
    <path d="M 124.036039 198.424251 
L 124.331788 198.453679 
L 124.094895 197.832753 
L 126.964103 199.014276 
L 123.918329 199.607247 
L 124.272933 199.045177 
L 123.977184 199.015749 
L 124.036039 198.424251 
" clip-path="url(#p68bac0963b)"/>
    <path d="M 138.763636 199.162711 
L 139.147035 198.941355 
L 139.147035 198.498645 
L 138.763636 198.277289 
L 138.380238 198.498645 
L 138.380238 198.941355 
L 138.763636 199.162711 
L 139.147035 198.941355 
" clip-path="url(#p68bac0963b)"/>
    <path d="M 153.550089 199.015749 
L 153.25434 199.045177 
L 153.608944 199.607247 
L 150.56317 199.014276 
L 153.432378 197.832753 
L 153.195484 198.453679 
L 153.491234 198.424251 
L 153.550089 199.015749 
" clip-path="url(#p68bac0963b)"/>
    <path d="M 168.299684 199.162164 
L 166.364177 199.258457 
L 166.850337 200.120787 
L 162.362704 199.014276 
L 166.718348 197.467804 
L 166.320181 198.37413 
L 168.255688 198.277836 
L 168.299684 199.162164 
" clip-path="url(#p68bac0963b)"/>
    <path d="M 183.049386 199.162467 
L 178.15912 199.324665 
L 178.630938 200.194924 
L 174.162238 199.014276 
L 178.542886 197.540119 
L 178.129769 198.43973 
L 183.020035 198.277533 
L 183.049386 199.162467 
" clip-path="url(#p68bac0963b)"/>
    <path d="M 197.802745 199.162574 
L 189.955945 199.357767 
L 190.420537 200.231905 
L 185.961771 199.014276 
L 190.354482 197.576462 
L 189.933927 198.472619 
L 197.780726 198.277426 
L 197.802745 199.162574 
" clip-path="url(#p68bac0963b)"/>
    <path d="M 212.557569 199.162623 
L 201.753721 199.377624 
L 202.213961 200.254062 
L 197.761305 199.014276 
L 202.161111 197.598323 
L 201.736105 198.492378 
L 212.539952 198.277377 
L 212.557569 199.162623 
" clip-path="url(#p68bac0963b)"/>
    <path d="M 64.978512 174.085289 
L 75.781571 174.085289 
L 75.33886 173.199868 
L 79.765968 174.528 
L 75.33886 175.856132 
L 75.781571 174.970711 
L 64.978512 174.970711 
L 64.978512 174.085289 
" clip-path="url(#p68bac0963b)"/>
    <path d="M 79.735537 174.085289 
L 87.581105 174.085289 
L 87.138394 173.199868 
L 91.565501 174.528 
L 87.138394 175.856132 
L 87.581105 174.970711 
L 79.735537 174.970711 
L 79.735537 174.085289 
" clip-path="url(#p68bac0963b)"/>
    <path d="M 94.492562 174.085289 
L 99.380638 174.085289 
L 98.937928 173.199868 
L 103.365035 174.528 
L 98.937928 175.856132 
L 99.380638 174.970711 
L 94.492562 174.970711 
L 94.492562 174.085289 
" clip-path="url(#p68bac0963b)"/>
    <path d="M 109.249587 174.085289 
L 111.180172 174.085289 
L 110.737461 173.199868 
L 115.164569 174.528 
L 110.737461 175.856132 
L 111.180172 174.970711 
L 109.249587 174.970711 
L 109.249587 174.085289 
" clip-path="url(#p68bac0963b)"/>
    <path d="M 124.006612 174.232251 
L 124.302361 174.232251 
L 124.006612 173.640753 
L 126.964103 174.528 
L 124.006612 175.415247 
L 124.302361 174.823749 
L 124.006612 174.823749 
L 124.006612 174.232251 
" clip-path="url(#p68bac0963b)"/>
    <path d="M 139.206347 174.528 
L 138.984992 174.144601 
L 138.542281 174.144601 
L 138.320926 174.528 
L 138.542281 174.911399 
L 138.984992 174.911399 
L 139.206347 174.528 
L 138.984992 174.144601 
" clip-path="url(#p68bac0963b)"/>
    <path d="M 153.520661 174.823749 
L 153.224912 174.823749 
L 153.520661 175.415247 
L 150.56317 174.528 
L 153.520661 173.640753 
L 153.224912 174.232251 
L 153.520661 174.232251 
L 153.520661 174.823749 
" clip-path="url(#p68bac0963b)"/>
    <path d="M 168.277686 174.970711 
L 166.347101 174.970711 
L 166.789811 175.856132 
L 162.362704 174.528 
L 166.789811 173.199868 
L 166.347101 174.085289 
L 168.277686 174.085289 
L 168.277686 174.970711 
" clip-path="url(#p68bac0963b)"/>
    <path d="M 183.034711 174.970711 
L 178.146634 174.970711 
L 178.589345 175.856132 
L 174.162238 174.528 
L 178.589345 173.199868 
L 178.146634 174.085289 
L 183.034711 174.085289 
L 183.034711 174.970711 
" clip-path="url(#p68bac0963b)"/>
    <path d="M 197.791736 174.970711 
L 189.946168 174.970711 
L 190.388879 175.856132 
L 185.961771 174.528 
L 190.388879 173.199868 
L 189.946168 174.085289 
L 197.791736 174.085289 
L 197.791736 174.970711 
" clip-path="url(#p68bac0963b)"/>
    <path d="M 212.54876 174.970711 
L 201.745702 174.970711 
L 202.188413 175.856132 
L 197.761305 174.528 
L 202.188413 173.199868 
L 201.745702 174.085289 
L 212.54876 174.085289 
L 212.54876 174.970711 
" clip-path="url(#p68bac0963b)"/>
    <path d="M 64.969704 149.893377 
L 75.773551 149.678376 
L 75.313311 148.801938 
L 79.765968 150.041724 
L 75.366162 151.457677 
L 75.791168 150.563622 
L 64.987321 150.778623 
L 64.969704 149.893377 
" clip-path="url(#p68bac0963b)"/>
    <path d="M 79.724528 149.893426 
L 87.571328 149.698233 
L 87.106735 148.824095 
L 91.565501 150.041724 
L 87.172791 151.479538 
L 87.593346 150.583381 
L 79.746546 150.778574 
L 79.724528 149.893426 
" clip-path="url(#p68bac0963b)"/>
    <path d="M 94.477887 149.893533 
L 99.368153 149.731335 
L 98.896334 148.861076 
L 103.365035 150.041724 
L 98.984387 151.515881 
L 99.397504 150.61627 
L 94.507237 150.778467 
L 94.477887 149.893533 
" clip-path="url(#p68bac0963b)"/>
    <path d="M 109.227589 149.893836 
L 111.163096 149.797543 
L 110.676936 148.935213 
L 115.164569 150.041724 
L 110.808925 151.588196 
L 111.207092 150.68187 
L 109.271585 150.778164 
L 109.227589 149.893836 
" clip-path="url(#p68bac0963b)"/>
    <path d="M 123.977184 150.040251 
L 124.272933 150.010823 
L 123.918329 149.448753 
L 126.964103 150.041724 
L 124.094895 151.223247 
L 124.331788 150.602321 
L 124.036039 150.631749 
L 123.977184 150.040251 
" clip-path="url(#p68bac0963b)"/>
    <path d="M 138.763636 149.893289 
L 138.380238 150.114645 
L 138.380238 150.557355 
L 138.763636 150.778711 
L 139.147035 150.557355 
L 139.147035 150.114645 
L 138.763636 149.893289 
L 138.380238 150.114645 
" clip-path="url(#p68bac0963b)"/>
    <path d="M 153.491234 150.631749 
L 153.195484 150.602321 
L 153.432378 151.223247 
L 150.56317 150.041724 
L 153.608944 149.448753 
L 153.25434 150.010823 
L 153.550089 150.040251 
L 153.491234 150.631749 
" clip-path="url(#p68bac0963b)"/>
    <path d="M 168.255688 150.778164 
L 166.320181 150.68187 
L 166.718348 151.588196 
L 162.362704 150.041724 
L 166.850337 148.935213 
L 166.364177 149.797543 
L 168.299684 149.893836 
L 168.255688 150.778164 
" clip-path="url(#p68bac0963b)"/>
    <path d="M 183.020035 150.778467 
L 178.129769 150.61627 
L 178.542886 151.515881 
L 174.162238 150.041724 
L 178.630938 148.861076 
L 178.15912 149.731335 
L 183.049386 149.893533 
L 183.020035 150.778467 
" clip-path="url(#p68bac0963b)"/>
    <path d="M 197.780726 150.778574 
L 189.933927 150.583381 
L 190.354482 151.479538 
L 185.961771 150.041724 
L 190.420537 148.824095 
L 189.955945 149.698233 
L 197.802745 149.893426 
L 197.780726 150.778574 
" clip-path="url(#p68bac0963b)"/>
    <path d="M 212.539952 150.778623 
L 201.736105 150.563622 
L 202.161111 151.457677 
L 197.761305 150.041724 
L 202.213961 148.801938 
L 201.753721 149.678376 
L 212.557569 149.893377 
L 212.539952 150.778623 
" clip-path="url(#p68bac0963b)"/>
    <path d="M 64.960906 125.701639 
L 75.767117 125.271543 
L 75.289544 124.404429 
L 79.765968 125.555447 
L 75.395181 127.058592 
L 75.802329 126.156264 
L 64.996119 126.586361 
L 64.960906 125.701639 
" clip-path="url(#p68bac0963b)"/>
    <path d="M 79.713539 125.701836 
L 87.564028 125.311266 
L 87.077868 124.448937 
L 91.565501 125.555447 
L 87.209857 127.10192 
L 87.608025 126.195594 
L 79.757535 126.586164 
L 79.713539 125.701836 
" clip-path="url(#p68bac0963b)"/>
    <path d="M 94.463259 125.70226 
L 99.360073 125.377431 
L 98.859728 124.523254 
L 103.365035 125.555447 
L 99.035544 127.173694 
L 99.418679 126.260911 
L 94.521865 126.58574 
L 94.463259 125.70226 
" clip-path="url(#p68bac0963b)"/>
    <path d="M 109.205753 125.703465 
L 111.155917 125.509419 
L 110.627713 124.672183 
L 115.164569 125.555447 
L 110.890718 127.315395 
L 111.243585 126.39049 
L 109.293421 126.584535 
L 109.205753 125.703465 
" clip-path="url(#p68bac0963b)"/>
    <path d="M 123.947756 125.848251 
L 124.243505 125.789396 
L 123.830046 125.256753 
L 126.964103 125.555447 
L 124.183177 127.031247 
L 124.361216 126.380894 
L 124.065467 126.439749 
L 123.947756 125.848251 
" clip-path="url(#p68bac0963b)"/>
    <path d="M 138.763636 125.701289 
L 138.380238 125.922645 
L 138.380238 126.365355 
L 138.763636 126.586711 
L 139.147035 126.365355 
L 139.147035 125.922645 
L 138.763636 125.701289 
L 138.380238 125.922645 
" clip-path="url(#p68bac0963b)"/>
    <path d="M 153.461806 126.439749 
L 153.166057 126.380894 
L 153.344095 127.031247 
L 150.56317 125.555447 
L 153.697227 125.256753 
L 153.283767 125.789396 
L 153.579516 125.848251 
L 153.461806 126.439749 
" clip-path="url(#p68bac0963b)"/>
    <path d="M 168.233852 126.584535 
L 166.283688 126.39049 
L 166.636555 127.315395 
L 162.362704 125.555447 
L 166.89956 124.672183 
L 166.371356 125.509419 
L 168.32152 125.703465 
L 168.233852 126.584535 
" clip-path="url(#p68bac0963b)"/>
    <path d="M 183.005408 126.58574 
L 178.108594 126.260911 
L 178.491729 127.173694 
L 174.162238 125.555447 
L 178.667545 124.523254 
L 178.1672 125.377431 
L 183.064013 125.70226 
L 183.005408 126.58574 
" clip-path="url(#p68bac0963b)"/>
    <path d="M 197.769737 126.586164 
L 189.919248 126.195594 
L 190.317416 127.10192 
L 185.961771 125.555447 
L 190.449404 124.448937 
L 189.963244 125.311266 
L 197.813734 125.701836 
L 197.769737 126.586164 
" clip-path="url(#p68bac0963b)"/>
    <path d="M 212.531154 126.586361 
L 201.724943 126.156264 
L 202.132091 127.058592 
L 197.761305 125.555447 
L 202.237729 124.404429 
L 201.760156 125.271543 
L 212.566367 125.701639 
L 212.531154 126.586361 
" clip-path="url(#p68bac0963b)"/>
    <path d="M 64.952129 101.510076 
L 75.762269 100.864697 
L 75.267579 100.007233 
L 79.765968 101.069171 
L 75.425879 102.658776 
L 75.815036 101.748545 
L 65.004896 102.393924 
L 64.952129 101.510076 
" clip-path="url(#p68bac0963b)"/>
    <path d="M 79.702591 101.510517 
L 87.559207 100.924205 
L 87.051831 100.074185 
L 91.565501 101.069171 
L 87.249509 102.723083 
L 87.6251 101.807171 
L 79.768484 102.393483 
L 79.702591 101.510517 
" clip-path="url(#p68bac0963b)"/>
    <path d="M 94.448728 101.511465 
L 99.356383 101.023143 
L 98.828179 100.185906 
L 103.365035 101.069171 
L 99.091184 102.829118 
L 99.444051 101.904213 
L 94.536396 102.392535 
L 94.448728 101.511465 
" clip-path="url(#p68bac0963b)"/>
    <path d="M 109.184235 101.514139 
L 111.158471 101.219478 
L 110.589907 100.409109 
L 115.164569 101.069171 
L 110.982019 103.036273 
L 111.289175 102.0952 
L 109.314939 102.389861 
L 109.184235 101.514139 
" clip-path="url(#p68bac0963b)"/>
    <path d="M 123.918329 101.656251 
L 124.214078 101.567968 
L 123.741763 101.064753 
L 126.964103 101.069171 
L 124.27146 102.839247 
L 124.390644 102.159466 
L 124.094895 102.247749 
L 123.918329 101.656251 
" clip-path="url(#p68bac0963b)"/>
    <path d="M 138.763636 101.509289 
L 138.380238 101.730645 
L 138.380238 102.173355 
L 138.763636 102.394711 
L 139.147035 102.173355 
L 139.147035 101.730645 
L 138.763636 101.509289 
L 138.380238 101.730645 
" clip-path="url(#p68bac0963b)"/>
    <path d="M 153.432378 102.247749 
L 153.136629 102.159466 
L 153.255812 102.839247 
L 150.56317 101.069171 
L 153.78551 101.064753 
L 153.313195 101.567968 
L 153.608944 101.656251 
L 153.432378 102.247749 
" clip-path="url(#p68bac0963b)"/>
    <path d="M 168.212334 102.389861 
L 166.238097 102.0952 
L 166.545254 103.036273 
L 162.362704 101.069171 
L 166.937366 100.409109 
L 166.368801 101.219478 
L 168.343038 101.514139 
L 168.212334 102.389861 
" clip-path="url(#p68bac0963b)"/>
    <path d="M 182.990877 102.392535 
L 178.083221 101.904213 
L 178.436088 102.829118 
L 174.162238 101.069171 
L 178.699093 100.185906 
L 178.17089 101.023143 
L 183.078545 101.511465 
L 182.990877 102.392535 
" clip-path="url(#p68bac0963b)"/>
    <path d="M 197.758789 102.393483 
L 189.902173 101.807171 
L 190.277763 102.723083 
L 185.961771 101.069171 
L 190.475442 100.074185 
L 189.968066 100.924205 
L 197.824682 101.510517 
L 197.758789 102.393483 
" clip-path="url(#p68bac0963b)"/>
    <path d="M 212.522377 102.393924 
L 201.712237 101.748545 
L 202.101394 102.658776 
L 197.761305 101.069171 
L 202.259694 100.007233 
L 201.765003 100.864697 
L 212.575144 101.510076 
L 212.522377 102.393924 
" clip-path="url(#p68bac0963b)"/>
    <path d="M 64.943383 77.318685 
L 75.759005 76.457744 
L 75.247432 75.610244 
L 79.765968 76.582894 
L 75.458208 78.258132 
L 75.829264 77.340373 
L 65.013642 78.201315 
L 64.943383 77.318685 
" clip-path="url(#p68bac0963b)"/>
    <path d="M 79.691703 77.319465 
L 87.556849 76.536866 
L 87.028646 75.69963 
L 91.565501 76.582894 
L 87.291651 78.342842 
L 87.644518 77.417937 
L 79.779371 78.200535 
L 79.691703 77.319465 
" clip-path="url(#p68bac0963b)"/>
    <path d="M 94.434338 77.321135 
L 99.357023 76.668045 
L 98.80171 75.848538 
L 103.365035 76.582894 
L 99.151054 78.48173 
L 99.473471 77.545775 
L 94.550786 78.198865 
L 94.434338 77.321135 
" clip-path="url(#p68bac0963b)"/>
    <path d="M 109.16318 77.325803 
L 111.170393 76.92636 
L 110.563383 76.144374 
L 115.164569 76.582894 
L 111.081824 78.749553 
L 111.343207 77.794753 
L 109.335994 78.194197 
L 109.16318 77.325803 
" clip-path="url(#p68bac0963b)"/>
    <path d="M 123.888901 77.464251 
L 124.18465 77.34654 
L 123.65348 76.872753 
L 126.964103 76.582894 
L 124.359743 78.647247 
L 124.420071 77.938039 
L 124.124322 78.055749 
L 123.888901 77.464251 
" clip-path="url(#p68bac0963b)"/>
    <path d="M 138.645926 77.76 
L 138.645926 77.642289 
L 138.410505 77.76 
L 138.763636 76.582894 
L 139.116768 77.76 
L 138.881347 77.642289 
L 138.881347 77.76 
L 138.645926 77.76 
" clip-path="url(#p68bac0963b)"/>
    <path d="M 153.402951 78.055749 
L 153.107201 77.938039 
L 153.167529 78.647247 
L 150.56317 76.582894 
L 153.873793 76.872753 
L 153.342623 77.34654 
L 153.638372 77.464251 
L 153.402951 78.055749 
" clip-path="url(#p68bac0963b)"/>
    <path d="M 168.191279 78.194197 
L 166.184066 77.794753 
L 166.445449 78.749553 
L 162.362704 76.582894 
L 166.96389 76.144374 
L 166.35688 76.92636 
L 168.364093 77.325803 
L 168.191279 78.194197 
" clip-path="url(#p68bac0963b)"/>
    <path d="M 182.976487 78.198865 
L 178.053801 77.545775 
L 178.376219 78.48173 
L 174.162238 76.582894 
L 178.725563 75.848538 
L 178.170249 76.668045 
L 183.092935 77.321135 
L 182.976487 78.198865 
" clip-path="url(#p68bac0963b)"/>
    <path d="M 197.747901 78.200535 
L 189.882755 77.417937 
L 190.235622 78.342842 
L 185.961771 76.582894 
L 190.498627 75.69963 
L 189.970423 76.536866 
L 197.83557 77.319465 
L 197.747901 78.200535 
" clip-path="url(#p68bac0963b)"/>
    <path d="M 212.513631 78.201315 
L 201.698009 77.340373 
L 202.069065 78.258132 
L 197.761305 76.582894 
L 202.279841 75.610244 
L 201.768267 76.457744 
L 212.58389 77.318685 
L 212.513631 78.201315 
" clip-path="url(#p68bac0963b)"/>
    <path d="M 64.934678 53.127465 
L 75.757316 52.05059 
L 75.229112 51.213353 
L 79.765968 52.096618 
L 75.492117 53.856565 
L 75.844984 52.93166 
L 65.022347 54.008535 
L 64.934678 53.127465 
" clip-path="url(#p68bac0963b)"/>
    <path d="M 79.680895 53.128674 
L 87.556928 52.149072 
L 87.008318 51.325063 
L 91.565501 52.096618 
L 87.336172 53.961017 
L 87.666213 53.027724 
L 79.790179 54.007326 
L 79.680895 53.128674 
" clip-path="url(#p68bac0963b)"/>
    <path d="M 94.420133 53.131254 
L 99.361894 52.311728 
L 98.780291 51.510665 
L 103.365035 52.096618 
L 99.214862 54.13114 
L 99.506751 53.18522 
L 94.564991 54.004746 
L 94.420133 53.131254 
" clip-path="url(#p68bac0963b)"/>
    <path d="M 109.142717 53.138382 
L 111.191137 52.628827 
L 110.547779 51.876461 
L 115.164569 52.096618 
L 111.188998 54.454169 
L 111.404876 53.488063 
L 109.356456 53.997618 
L 109.142717 53.138382 
" clip-path="url(#p68bac0963b)"/>
    <path d="M 123.859473 53.272251 
L 124.155222 53.125113 
L 123.565197 52.680753 
L 126.964103 52.096618 
L 124.448026 54.455247 
L 124.449499 53.716611 
L 124.15375 53.863749 
L 123.859473 53.272251 
" clip-path="url(#p68bac0963b)"/>
    <path d="M 138.616498 53.568 
L 138.616498 53.420862 
L 138.322222 53.568 
L 138.763636 52.096618 
L 139.205051 53.568 
L 138.910775 53.420862 
L 138.910775 53.568 
L 138.616498 53.568 
" clip-path="url(#p68bac0963b)"/>
    <path d="M 153.373523 53.863749 
L 153.077774 53.716611 
L 153.079246 54.455247 
L 150.56317 52.096618 
L 153.962076 52.680753 
L 153.37205 53.125113 
L 153.667799 53.272251 
L 153.373523 53.863749 
" clip-path="url(#p68bac0963b)"/>
    <path d="M 168.170816 53.997618 
L 166.122397 53.488063 
L 166.338275 54.454169 
L 162.362704 52.096618 
L 166.979493 51.876461 
L 166.336136 52.628827 
L 168.384556 53.138382 
L 168.170816 53.997618 
" clip-path="url(#p68bac0963b)"/>
    <path d="M 182.962282 54.004746 
L 178.020521 53.18522 
L 178.31241 54.13114 
L 174.162238 52.096618 
L 178.746981 51.510665 
L 178.165379 52.311728 
L 183.107139 53.131254 
L 182.962282 54.004746 
" clip-path="url(#p68bac0963b)"/>
    <path d="M 197.737093 54.007326 
L 189.86106 53.027724 
L 190.191101 53.961017 
L 185.961771 52.096618 
L 190.518955 51.325063 
L 189.970344 52.149072 
L 197.846378 53.128674 
L 197.737093 54.007326 
" clip-path="url(#p68bac0963b)"/>
    <path d="M 212.504926 54.008535 
L 201.682289 52.93166 
L 202.035156 53.856565 
L 197.761305 52.096618 
L 202.298161 51.213353 
L 201.769957 52.05059 
L 212.592595 53.127465 
L 212.504926 54.008535 
" clip-path="url(#p68bac0963b)"/>
   </g>
   <g id="matplotlib.axis_1">
    <g id="xtick_1">
     <g id="line2d_1">
      <defs>
       <path id="mdd98592c34" d="M 0 0 
L 0 3.5 
" style="stroke: #000000; stroke-width: 0.8"/>
      </defs>
      <g>
       <use xlink:href="#mdd98592c34" x="64.978512" y="307.584" style="stroke: #000000; stroke-width: 0.8"/>
      </g>
     </g>
     <g id="text_1">
      <!-- −5.0 -->
      <g transform="translate(52.837106 322.182437) scale(0.1 -0.1)">
       <defs>
        <path id="DejaVuSans-2212" d="M 678 2272 
L 4684 2272 
L 4684 1741 
L 678 1741 
L 678 2272 
z
" transform="scale(0.015625)"/>
        <path id="DejaVuSans-35" d="M 691 4666 
L 3169 4666 
L 3169 4134 
L 1269 4134 
L 1269 2991 
Q 1406 3038 1543 3061 
Q 1681 3084 1819 3084 
Q 2600 3084 3056 2656 
Q 3513 2228 3513 1497 
Q 3513 744 3044 326 
Q 2575 -91 1722 -91 
Q 1428 -91 1123 -41 
Q 819 9 494 109 
L 494 744 
Q 775 591 1075 516 
Q 1375 441 1709 441 
Q 2250 441 2565 725 
Q 2881 1009 2881 1497 
Q 2881 1984 2565 2268 
Q 2250 2553 1709 2553 
Q 1456 2553 1204 2497 
Q 953 2441 691 2322 
L 691 4666 
z
" transform="scale(0.015625)"/>
        <path id="DejaVuSans-2e" d="M 684 794 
L 1344 794 
L 1344 0 
L 684 0 
L 684 794 
z
" transform="scale(0.015625)"/>
        <path id="DejaVuSans-30" d="M 2034 4250 
Q 1547 4250 1301 3770 
Q 1056 3291 1056 2328 
Q 1056 1369 1301 889 
Q 1547 409 2034 409 
Q 2525 409 2770 889 
Q 3016 1369 3016 2328 
Q 3016 3291 2770 3770 
Q 2525 4250 2034 4250 
z
M 2034 4750 
Q 2819 4750 3233 4129 
Q 3647 3509 3647 2328 
Q 3647 1150 3233 529 
Q 2819 -91 2034 -91 
Q 1250 -91 836 529 
Q 422 1150 422 2328 
Q 422 3509 836 4129 
Q 1250 4750 2034 4750 
z
" transform="scale(0.015625)"/>
       </defs>
       <use xlink:href="#DejaVuSans-2212"/>
       <use xlink:href="#DejaVuSans-35" x="83.789062"/>
       <use xlink:href="#DejaVuSans-2e" x="147.412109"/>
       <use xlink:href="#DejaVuSans-30" x="179.199219"/>
      </g>
     </g>
    </g>
    <g id="xtick_2">
     <g id="line2d_2">
      <g>
       <use xlink:href="#mdd98592c34" x="101.871074" y="307.584" style="stroke: #000000; stroke-width: 0.8"/>
      </g>
     </g>
     <g id="text_2">
      <!-- −2.5 -->
      <g transform="translate(89.729668 322.182437) scale(0.1 -0.1)">
       <defs>
        <path id="DejaVuSans-32" d="M 1228 531 
L 3431 531 
L 3431 0 
L 469 0 
L 469 531 
Q 828 903 1448 1529 
Q 2069 2156 2228 2338 
Q 2531 2678 2651 2914 
Q 2772 3150 2772 3378 
Q 2772 3750 2511 3984 
Q 2250 4219 1831 4219 
Q 1534 4219 1204 4116 
Q 875 4013 500 3803 
L 500 4441 
Q 881 4594 1212 4672 
Q 1544 4750 1819 4750 
Q 2544 4750 2975 4387 
Q 3406 4025 3406 3419 
Q 3406 3131 3298 2873 
Q 3191 2616 2906 2266 
Q 2828 2175 2409 1742 
Q 1991 1309 1228 531 
z
" transform="scale(0.015625)"/>
       </defs>
       <use xlink:href="#DejaVuSans-2212"/>
       <use xlink:href="#DejaVuSans-32" x="83.789062"/>
       <use xlink:href="#DejaVuSans-2e" x="147.412109"/>
       <use xlink:href="#DejaVuSans-35" x="179.199219"/>
      </g>
     </g>
    </g>
    <g id="xtick_3">
     <g id="line2d_3">
      <g>
       <use xlink:href="#mdd98592c34" x="138.763636" y="307.584" style="stroke: #000000; stroke-width: 0.8"/>
      </g>
     </g>
     <g id="text_3">
      <!-- 0.0 -->
      <g transform="translate(130.812074 322.182437) scale(0.1 -0.1)">
       <use xlink:href="#DejaVuSans-30"/>
       <use xlink:href="#DejaVuSans-2e" x="63.623047"/>
       <use xlink:href="#DejaVuSans-30" x="95.410156"/>
      </g>
     </g>
    </g>
    <g id="xtick_4">
     <g id="line2d_4">
      <g>
       <use xlink:href="#mdd98592c34" x="175.656198" y="307.584" style="stroke: #000000; stroke-width: 0.8"/>
      </g>
     </g>
     <g id="text_4">
      <!-- 2.5 -->
      <g transform="translate(167.704636 322.182437) scale(0.1 -0.1)">
       <use xlink:href="#DejaVuSans-32"/>
       <use xlink:href="#DejaVuSans-2e" x="63.623047"/>
       <use xlink:href="#DejaVuSans-35" x="95.410156"/>
      </g>
     </g>
    </g>
    <g id="xtick_5">
     <g id="line2d_5">
      <g>
       <use xlink:href="#mdd98592c34" x="212.54876" y="307.584" style="stroke: #000000; stroke-width: 0.8"/>
      </g>
     </g>
     <g id="text_5">
      <!-- 5.0 -->
      <g transform="translate(204.597198 322.182437) scale(0.1 -0.1)">
       <use xlink:href="#DejaVuSans-35"/>
       <use xlink:href="#DejaVuSans-2e" x="63.623047"/>
       <use xlink:href="#DejaVuSans-30" x="95.410156"/>
      </g>
     </g>
    </g>
   </g>
   <g id="matplotlib.axis_2">
    <g id="ytick_1">
     <g id="line2d_6">
      <defs>
       <path id="m730096d977" d="M 0 0 
L -3.5 0 
" style="stroke: #000000; stroke-width: 0.8"/>
      </defs>
      <g>
       <use xlink:href="#m730096d977" x="57.6" y="271.296" style="stroke: #000000; stroke-width: 0.8"/>
      </g>
     </g>
     <g id="text_6">
      <!-- −4 -->
      <g transform="translate(35.857813 275.095219) scale(0.1 -0.1)">
       <defs>
        <path id="DejaVuSans-34" d="M 2419 4116 
L 825 1625 
L 2419 1625 
L 2419 4116 
z
M 2253 4666 
L 3047 4666 
L 3047 1625 
L 3713 1625 
L 3713 1100 
L 3047 1100 
L 3047 0 
L 2419 0 
L 2419 1100 
L 313 1100 
L 313 1709 
L 2253 4666 
z
" transform="scale(0.015625)"/>
       </defs>
       <use xlink:href="#DejaVuSans-2212"/>
       <use xlink:href="#DejaVuSans-34" x="83.789062"/>
      </g>
     </g>
    </g>
    <g id="ytick_2">
     <g id="line2d_7">
      <g>
       <use xlink:href="#m730096d977" x="57.6" y="222.912" style="stroke: #000000; stroke-width: 0.8"/>
      </g>
     </g>
     <g id="text_7">
      <!-- −2 -->
      <g transform="translate(35.857813 226.711219) scale(0.1 -0.1)">
       <use xlink:href="#DejaVuSans-2212"/>
       <use xlink:href="#DejaVuSans-32" x="83.789062"/>
      </g>
     </g>
    </g>
    <g id="ytick_3">
     <g id="line2d_8">
      <g>
       <use xlink:href="#m730096d977" x="57.6" y="174.528" style="stroke: #000000; stroke-width: 0.8"/>
      </g>
     </g>
     <g id="text_8">
      <!-- 0 -->
      <g transform="translate(44.2375 178.327219) scale(0.1 -0.1)">
       <use xlink:href="#DejaVuSans-30"/>
      </g>
     </g>
    </g>
    <g id="ytick_4">
     <g id="line2d_9">
      <g>
       <use xlink:href="#m730096d977" x="57.6" y="126.144" style="stroke: #000000; stroke-width: 0.8"/>
      </g>
     </g>
     <g id="text_9">
      <!-- 2 -->
      <g transform="translate(44.2375 129.943219) scale(0.1 -0.1)">
       <use xlink:href="#DejaVuSans-32"/>
      </g>
     </g>
    </g>
    <g id="ytick_5">
     <g id="line2d_10">
      <g>
       <use xlink:href="#m730096d977" x="57.6" y="77.76" style="stroke: #000000; stroke-width: 0.8"/>
      </g>
     </g>
     <g id="text_10">
      <!-- 4 -->
      <g transform="translate(44.2375 81.559219) scale(0.1 -0.1)">
       <use xlink:href="#DejaVuSans-34"/>
      </g>
     </g>
    </g>
   </g>
   <g id="patch_3">
    <path d="M 57.6 307.584 
L 57.6 41.472 
" style="fill: none; stroke: #000000; stroke-width: 0.8; stroke-linejoin: miter; stroke-linecap: square"/>
   </g>
   <g id="patch_4">
    <path d="M 219.927273 307.584 
L 219.927273 41.472 
" style="fill: none; stroke: #000000; stroke-width: 0.8; stroke-linejoin: miter; stroke-linecap: square"/>
   </g>
   <g id="patch_5">
    <path d="M 57.6 307.584 
L 219.927273 307.584 
" style="fill: none; stroke: #000000; stroke-width: 0.8; stroke-linejoin: miter; stroke-linecap: square"/>
   </g>
   <g id="patch_6">
    <path d="M 57.6 41.472 
L 219.927273 41.472 
" style="fill: none; stroke: #000000; stroke-width: 0.8; stroke-linejoin: miter; stroke-linecap: square"/>
   </g>
  </g>
  <g id="axes_2">
   <g id="patch_7">
    <path d="M 252.392727 307.584 
L 414.72 307.584 
L 414.72 41.472 
L 252.392727 41.472 
z
" style="fill: #ffffff"/>
   </g>
   <g id="matplotlib.axis_3">
    <g id="xtick_6">
     <g id="line2d_11">
      <g>
       <use xlink:href="#mdd98592c34" x="252.392727" y="307.584" style="stroke: #000000; stroke-width: 0.8"/>
      </g>
     </g>
     <g id="text_11">
      <!-- −0.5 -->
      <g transform="translate(240.251321 322.182437) scale(0.1 -0.1)">
       <use xlink:href="#DejaVuSans-2212"/>
       <use xlink:href="#DejaVuSans-30" x="83.789062"/>
       <use xlink:href="#DejaVuSans-2e" x="147.412109"/>
       <use xlink:href="#DejaVuSans-35" x="179.199219"/>
      </g>
     </g>
    </g>
    <g id="xtick_7">
     <g id="line2d_12">
      <g>
       <use xlink:href="#mdd98592c34" x="292.974545" y="307.584" style="stroke: #000000; stroke-width: 0.8"/>
      </g>
     </g>
     <g id="text_12">
      <!-- 0.0 -->
      <g transform="translate(285.022983 322.182437) scale(0.1 -0.1)">
       <use xlink:href="#DejaVuSans-30"/>
       <use xlink:href="#DejaVuSans-2e" x="63.623047"/>
       <use xlink:href="#DejaVuSans-30" x="95.410156"/>
      </g>
     </g>
    </g>
    <g id="xtick_8">
     <g id="line2d_13">
      <g>
       <use xlink:href="#mdd98592c34" x="333.556364" y="307.584" style="stroke: #000000; stroke-width: 0.8"/>
      </g>
     </g>
     <g id="text_13">
      <!-- 0.5 -->
      <g transform="translate(325.604801 322.182437) scale(0.1 -0.1)">
       <use xlink:href="#DejaVuSans-30"/>
       <use xlink:href="#DejaVuSans-2e" x="63.623047"/>
       <use xlink:href="#DejaVuSans-35" x="95.410156"/>
      </g>
     </g>
    </g>
    <g id="xtick_9">
     <g id="line2d_14">
      <g>
       <use xlink:href="#mdd98592c34" x="374.138182" y="307.584" style="stroke: #000000; stroke-width: 0.8"/>
      </g>
     </g>
     <g id="text_14">
      <!-- 1.0 -->
      <g transform="translate(366.186619 322.182437) scale(0.1 -0.1)">
       <defs>
        <path id="DejaVuSans-31" d="M 794 531 
L 1825 531 
L 1825 4091 
L 703 3866 
L 703 4441 
L 1819 4666 
L 2450 4666 
L 2450 531 
L 3481 531 
L 3481 0 
L 794 0 
L 794 531 
z
" transform="scale(0.015625)"/>
       </defs>
       <use xlink:href="#DejaVuSans-31"/>
       <use xlink:href="#DejaVuSans-2e" x="63.623047"/>
       <use xlink:href="#DejaVuSans-30" x="95.410156"/>
      </g>
     </g>
    </g>
    <g id="xtick_10">
     <g id="line2d_15">
      <g>
       <use xlink:href="#mdd98592c34" x="414.72" y="307.584" style="stroke: #000000; stroke-width: 0.8"/>
      </g>
     </g>
     <g id="text_15">
      <!-- 1.5 -->
      <g transform="translate(406.768437 322.182437) scale(0.1 -0.1)">
       <use xlink:href="#DejaVuSans-31"/>
       <use xlink:href="#DejaVuSans-2e" x="63.623047"/>
       <use xlink:href="#DejaVuSans-35" x="95.410156"/>
      </g>
     </g>
    </g>
   </g>
   <g id="matplotlib.axis_4">
    <g id="ytick_6">
     <g id="line2d_16">
      <g>
       <use xlink:href="#m730096d977" x="252.392727" y="283.392" style="stroke: #000000; stroke-width: 0.8"/>
      </g>
     </g>
     <g id="text_16">
      <!-- 0 -->
      <g transform="translate(239.030227 287.191219) scale(0.1 -0.1)">
       <use xlink:href="#DejaVuSans-30"/>
      </g>
     </g>
    </g>
    <g id="ytick_7">
     <g id="line2d_17">
      <g>
       <use xlink:href="#m730096d977" x="252.392727" y="235.008" style="stroke: #000000; stroke-width: 0.8"/>
      </g>
     </g>
     <g id="text_17">
      <!-- 10 -->
      <g transform="translate(232.667727 238.807219) scale(0.1 -0.1)">
       <use xlink:href="#DejaVuSans-31"/>
       <use xlink:href="#DejaVuSans-30" x="63.623047"/>
      </g>
     </g>
    </g>
    <g id="ytick_8">
     <g id="line2d_18">
      <g>
       <use xlink:href="#m730096d977" x="252.392727" y="186.624" style="stroke: #000000; stroke-width: 0.8"/>
      </g>
     </g>
     <g id="text_18">
      <!-- 20 -->
      <g transform="translate(232.667727 190.423219) scale(0.1 -0.1)">
       <use xlink:href="#DejaVuSans-32"/>
       <use xlink:href="#DejaVuSans-30" x="63.623047"/>
      </g>
     </g>
    </g>
    <g id="ytick_9">
     <g id="line2d_19">
      <g>
       <use xlink:href="#m730096d977" x="252.392727" y="138.24" style="stroke: #000000; stroke-width: 0.8"/>
      </g>
     </g>
     <g id="text_19">
      <!-- 30 -->
      <g transform="translate(232.667727 142.039219) scale(0.1 -0.1)">
       <defs>
        <path id="DejaVuSans-33" d="M 2597 2516 
Q 3050 2419 3304 2112 
Q 3559 1806 3559 1356 
Q 3559 666 3084 287 
Q 2609 -91 1734 -91 
Q 1441 -91 1130 -33 
Q 819 25 488 141 
L 488 750 
Q 750 597 1062 519 
Q 1375 441 1716 441 
Q 2309 441 2620 675 
Q 2931 909 2931 1356 
Q 2931 1769 2642 2001 
Q 2353 2234 1838 2234 
L 1294 2234 
L 1294 2753 
L 1863 2753 
Q 2328 2753 2575 2939 
Q 2822 3125 2822 3475 
Q 2822 3834 2567 4026 
Q 2313 4219 1838 4219 
Q 1578 4219 1281 4162 
Q 984 4106 628 3988 
L 628 4550 
Q 988 4650 1302 4700 
Q 1616 4750 1894 4750 
Q 2613 4750 3031 4423 
Q 3450 4097 3450 3541 
Q 3450 3153 3228 2886 
Q 3006 2619 2597 2516 
z
" transform="scale(0.015625)"/>
       </defs>
       <use xlink:href="#DejaVuSans-33"/>
       <use xlink:href="#DejaVuSans-30" x="63.623047"/>
      </g>
     </g>
    </g>
    <g id="ytick_10">
     <g id="line2d_20">
      <g>
       <use xlink:href="#m730096d977" x="252.392727" y="89.856" style="stroke: #000000; stroke-width: 0.8"/>
      </g>
     </g>
     <g id="text_20">
      <!-- 40 -->
      <g transform="translate(232.667727 93.655219) scale(0.1 -0.1)">
       <use xlink:href="#DejaVuSans-34"/>
       <use xlink:href="#DejaVuSans-30" x="63.623047"/>
      </g>
     </g>
    </g>
    <g id="ytick_11">
     <g id="line2d_21">
      <g>
       <use xlink:href="#m730096d977" x="252.392727" y="41.472" style="stroke: #000000; stroke-width: 0.8"/>
      </g>
     </g>
     <g id="text_21">
      <!-- 50 -->
      <g transform="translate(232.667727 45.271219) scale(0.1 -0.1)">
       <use xlink:href="#DejaVuSans-35"/>
       <use xlink:href="#DejaVuSans-30" x="63.623047"/>
      </g>
     </g>
    </g>
   </g>
   <g id="line2d_22">
    <path d="M 293.055709 283.392 
L 374.138182 283.392 
L 374.138182 283.392 
" clip-path="url(#pc8c0cc2734)" style="fill: none; stroke: #1f77b4; stroke-width: 1.5; stroke-linecap: square"/>
   </g>
   <g id="line2d_23">
    <path d="M 293.055709 273.771271 
L 293.2992 275.010885 
L 293.705018 275.660587 
L 294.273164 276.090778 
L 295.165964 276.461185 
L 296.626909 276.804662 
L 299.142982 277.139364 
L 303.444655 277.460016 
L 310.911709 277.769414 
L 324.141382 278.070162 
L 347.841164 278.361369 
L 374.138182 278.5536 
L 374.138182 278.5536 
" clip-path="url(#pc8c0cc2734)" style="fill: none; stroke: #ff7f0e; stroke-width: 1.5; stroke-linecap: square"/>
   </g>
   <g id="line2d_24">
    <path d="M 293.055709 264.150541 
L 293.2992 266.629771 
L 293.623855 267.746889 
L 294.110836 268.594244 
L 294.760145 269.245007 
L 295.652945 269.804402 
L 296.951564 270.328487 
L 298.818327 270.819271 
L 301.577891 271.293937 
L 305.636073 271.750269 
L 311.723345 272.196237 
L 320.976 272.634293 
L 335.098473 273.062645 
L 356.850327 273.481798 
L 374.138182 273.7152 
L 374.138182 273.7152 
" clip-path="url(#pc8c0cc2734)" style="fill: none; stroke: #2ca02c; stroke-width: 1.5; stroke-linecap: square"/>
   </g>
   <g id="line2d_25">
    <path d="M 293.055709 254.529812 
L 293.2992 258.248656 
L 293.623855 259.924333 
L 294.110836 261.195365 
L 294.678982 262.073056 
L 295.490618 262.883416 
L 296.545745 263.585748 
L 297.925527 264.219214 
L 299.792291 264.819966 
L 302.389527 265.406961 
L 305.960727 265.97334 
L 310.992873 266.531818 
L 318.054109 267.077521 
L 328.037236 267.612503 
L 342.240873 268.137562 
L 362.612945 268.653911 
L 374.138182 268.8768 
L 374.138182 268.8768 
" clip-path="url(#pc8c0cc2734)" style="fill: none; stroke: #d62728; stroke-width: 1.5; stroke-linecap: square"/>
   </g>
   <g id="line2d_26">
    <path d="M 293.055709 244.909083 
L 293.2992 249.867542 
L 293.623855 252.101777 
L 294.110836 253.796487 
L 294.678982 254.966742 
L 295.409455 255.95786 
L 296.302255 256.79745 
L 297.438545 257.563553 
L 298.980655 258.315002 
L 300.928582 259.006208 
L 303.525818 259.68229 
L 307.015855 260.346945 
L 311.642182 260.990806 
L 317.891782 261.625302 
L 326.3328 262.24809 
L 337.858036 262.863314 
L 353.603782 263.468455 
L 374.138182 264.0384 
L 374.138182 264.0384 
" clip-path="url(#pc8c0cc2734)" style="fill: none; stroke: #9467bd; stroke-width: 1.5; stroke-linecap: square"/>
   </g>
   <g id="line2d_27">
    <path d="M 293.055709 235.288354 
L 293.2992 241.486427 
L 293.623855 244.279221 
L 294.110836 246.397609 
L 294.678982 247.860427 
L 295.409455 249.099325 
L 296.302255 250.148813 
L 297.357382 251.047442 
L 298.737164 251.916405 
L 300.4416 252.717532 
L 302.633018 253.492993 
L 305.473745 254.250282 
L 309.126109 254.984217 
L 313.914764 255.708765 
L 320.164364 256.418904 
L 328.361891 257.116946 
L 339.237818 257.808337 
L 353.603782 258.487568 
L 372.7584 259.158691 
L 374.138182 259.2 
L 374.138182 259.2 
" clip-path="url(#pc8c0cc2734)" style="fill: none; stroke: #8c564b; stroke-width: 1.5; stroke-linecap: square"/>
   </g>
   <g id="line2d_28">
    <path d="M 293.055709 225.667624 
L 293.2992 233.105313 
L 293.623855 236.456666 
L 294.110836 238.998731 
L 294.678982 240.754112 
L 295.409455 242.24079 
L 296.221091 243.402042 
L 297.276218 244.506273 
L 298.574836 245.513747 
L 300.116945 246.419469 
L 302.064873 247.296106 
L 304.499782 248.138512 
L 307.584 248.960579 
L 311.479855 249.760996 
L 316.512 250.556356 
L 322.923927 251.33412 
L 331.202618 252.103257 
L 341.835055 252.858005 
L 355.632873 253.604412 
L 373.570036 254.341302 
L 374.138182 254.3616 
L 374.138182 254.3616 
" clip-path="url(#pc8c0cc2734)" style="fill: none; stroke: #e377c2; stroke-width: 1.5; stroke-linecap: square"/>
   </g>
   <g id="line2d_29">
    <path d="M 293.055709 216.046895 
L 293.2992 224.724198 
L 293.623855 228.63411 
L 294.110836 231.599853 
L 294.678982 233.647798 
L 295.409455 235.382254 
L 296.221091 236.737049 
L 297.195055 237.939252 
L 298.412509 239.071178 
L 299.873455 240.108253 
L 301.659055 241.088321 
L 303.850473 242.024936 
L 306.528873 242.921261 
L 309.856582 243.795762 
L 314.077091 244.665239 
L 319.352727 245.515623 
L 326.008145 246.354132 
L 334.449164 247.183333 
L 345.162764 248.001784 
L 358.798255 248.809816 
L 374.138182 249.5232 
L 374.138182 249.5232 
" clip-path="url(#pc8c0cc2734)" style="fill: none; stroke: #7f7f7f; stroke-width: 1.5; stroke-linecap: square"/>
   </g>
   <g id="line2d_30">
    <path d="M 293.055709 206.426166 
L 293.2992 216.343084 
L 293.623855 220.811554 
L 294.110836 224.200975 
L 294.678982 226.541483 
L 295.328291 228.338321 
L 296.139927 229.937564 
L 297.113891 231.345539 
L 298.250182 232.586663 
L 299.629964 233.747684 
L 301.253236 234.814172 
L 303.201164 235.824891 
L 305.636073 236.825078 
L 308.557964 237.777305 
L 312.210327 238.723065 
L 316.674327 239.641072 
L 322.193455 240.543011 
L 329.092364 241.437296 
L 337.695709 242.319824 
L 348.490473 243.19404 
L 361.963636 244.053779 
L 374.138182 244.6848 
L 374.138182 244.6848 
" clip-path="url(#pc8c0cc2734)" style="fill: none; stroke: #bcbd22; stroke-width: 1.5; stroke-linecap: square"/>
   </g>
   <g id="line2d_31">
    <path d="M 293.055709 196.805436 
L 293.2992 207.961969 
L 293.623855 212.988998 
L 294.110836 216.802096 
L 294.678982 219.435168 
L 295.328291 221.456611 
L 296.139927 223.25576 
L 297.113891 224.839731 
L 298.250182 226.235995 
L 299.5488 227.473916 
L 301.090909 228.634154 
L 302.957673 229.750538 
L 305.149091 230.799368 
L 307.827491 231.829742 
L 311.074036 232.834068 
L 315.051055 233.823492 
L 319.920873 234.79695 
L 325.926982 235.760227 
L 333.312873 236.709141 
L 342.4032 237.643664 
L 353.603782 238.564023 
L 367.482764 239.474106 
L 374.138182 239.8464 
L 374.138182 239.8464 
" clip-path="url(#pc8c0cc2734)" style="fill: none; stroke: #17becf; stroke-width: 1.5; stroke-linecap: square"/>
   </g>
   <g id="patch_8">
    <path d="M 252.392727 307.584 
L 252.392727 41.472 
" style="fill: none; stroke: #000000; stroke-width: 0.8; stroke-linejoin: miter; stroke-linecap: square"/>
   </g>
   <g id="patch_9">
    <path d="M 414.72 307.584 
L 414.72 41.472 
" style="fill: none; stroke: #000000; stroke-width: 0.8; stroke-linejoin: miter; stroke-linecap: square"/>
   </g>
   <g id="patch_10">
    <path d="M 252.392727 307.584 
L 414.72 307.584 
" style="fill: none; stroke: #000000; stroke-width: 0.8; stroke-linejoin: miter; stroke-linecap: square"/>
   </g>
   <g id="patch_11">
    <path d="M 252.392727 41.472 
L 414.72 41.472 
" style="fill: none; stroke: #000000; stroke-width: 0.8; stroke-linejoin: miter; stroke-linecap: square"/>
   </g>
  </g>
  <g id="text_22">
   <!-- t = 0.1 -->
   <g transform="translate(209.664375 16.030125) scale(0.12 -0.12)">
    <defs>
     <path id="DejaVuSans-74" d="M 1172 4494 
L 1172 3500 
L 2356 3500 
L 2356 3053 
L 1172 3053 
L 1172 1153 
Q 1172 725 1289 603 
Q 1406 481 1766 481 
L 2356 481 
L 2356 0 
L 1766 0 
Q 1100 0 847 248 
Q 594 497 594 1153 
L 594 3053 
L 172 3053 
L 172 3500 
L 594 3500 
L 594 4494 
L 1172 4494 
z
" transform="scale(0.015625)"/>
     <path id="DejaVuSans-20" transform="scale(0.015625)"/>
     <path id="DejaVuSans-3d" d="M 678 2906 
L 4684 2906 
L 4684 2381 
L 678 2381 
L 678 2906 
z
M 678 1631 
L 4684 1631 
L 4684 1100 
L 678 1100 
L 678 1631 
z
" transform="scale(0.015625)"/>
    </defs>
    <use xlink:href="#DejaVuSans-74"/>
    <use xlink:href="#DejaVuSans-20" x="39.208984"/>
    <use xlink:href="#DejaVuSans-3d" x="70.996094"/>
    <use xlink:href="#DejaVuSans-20" x="154.785156"/>
    <use xlink:href="#DejaVuSans-30" x="186.572266"/>
    <use xlink:href="#DejaVuSans-2e" x="250.195312"/>
    <use xlink:href="#DejaVuSans-31" x="281.982422"/>
   </g>
  </g>
 </g>
 <defs>
  <clipPath id="p68bac0963b">
   <rect x="57.6" y="41.472" width="162.327273" height="266.112"/>
  </clipPath>
  <clipPath id="pc8c0cc2734">
   <rect x="252.392727" y="41.472" width="162.327273" height="266.112"/>
  </clipPath>
 </defs>
</svg>
