<?xml version="1.0" encoding="utf-8" standalone="no"?>
<!DOCTYPE svg PUBLIC "-//W3C//DTD SVG 1.1//EN"
  "http://www.w3.org/Graphics/SVG/1.1/DTD/svg11.dtd">
<svg xmlns:xlink="http://www.w3.org/1999/xlink" width="460.8pt" height="345.6pt" viewBox="0 0 460.8 345.6" xmlns="http://www.w3.org/2000/svg" version="1.1">
 <metadata>
  <rdf:RDF xmlns:dc="http://purl.org/dc/elements/1.1/" xmlns:cc="http://creativecommons.org/ns#" xmlns:rdf="http://www.w3.org/1999/02/22-rdf-syntax-ns#">
   <cc:Work>
    <dc:type rdf:resource="http://purl.org/dc/dcmitype/StillImage"/>
    <dc:date>2023-01-17T23:39:00.169306</dc:date>
    <dc:format>image/svg+xml</dc:format>
    <dc:creator>
     <cc:Agent>
      <dc:title>Matplotlib v3.6.3, https://matplotlib.org/</dc:title>
     </cc:Agent>
    </dc:creator>
   </cc:Work>
  </rdf:RDF>
 </metadata>
 <defs>
  <style type="text/css">*{stroke-linejoin: round; stroke-linecap: butt}</style>
 </defs>
 <g id="figure_1">
  <g id="patch_1">
   <path d="M 0 345.6 
L 460.8 345.6 
L 460.8 0 
L 0 0 
z
" style="fill: #ffffff"/>
  </g>
  <g id="axes_1">
   <g id="patch_2">
    <path d="M 57.6 307.584 
L 219.927273 307.584 
L 219.927273 41.472 
L 57.6 41.472 
z
" style="fill: #ffffff"/>
   </g>
   <g id="Quiver_1">
    <path d="M 65.157964 295.083291 
L 74.47597 299.214982 
L 74.430165 298.226111 
L 77.938904 301.23476 
L 73.353453 300.654368 
L 74.117066 300.024401 
L 64.79906 295.892709 
L 65.157964 295.083291 
" clip-path="url(#p708e823dc9)"/>
    <path d="M 79.950154 295.100789 
L 86.833565 298.916001 
L 86.875586 297.926962 
L 90.10385 301.23476 
L 85.587888 300.250229 
L 86.404332 299.690423 
L 79.520921 295.875211 
L 79.950154 295.100789 
" clip-path="url(#p708e823dc9)"/>
    <path d="M 94.755679 295.131963 
L 99.327581 298.510671 
L 99.497778 297.53548 
L 102.268797 301.23476 
L 97.919077 299.671702 
L 98.801347 299.222745 
L 94.229445 295.844037 
L 94.755679 295.131963 
" clip-path="url(#p708e823dc9)"/>
    <path d="M 109.578307 295.191461 
L 112.093611 297.979734 
L 112.454513 297.057935 
L 114.433743 301.23476 
L 110.482189 298.83717 
L 111.43617 298.572813 
L 108.920866 295.784539 
L 109.578307 295.191461 
" clip-path="url(#p708e823dc9)"/>
    <path d="M 124.41017 295.305975 
L 125.364021 297.420707 
L 125.989113 296.653097 
L 126.59869 301.23476 
L 123.567761 297.745249 
L 124.556904 297.784757 
L 123.603053 295.670025 
L 124.41017 295.305975 
" clip-path="url(#p708e823dc9)"/>
    <path d="M 139.206347 295.488 
L 139.206347 297.250363 
L 140.091769 296.807652 
L 138.763636 301.23476 
L 137.435504 296.807652 
L 138.320926 297.250363 
L 138.320926 295.488 
L 139.206347 295.488 
" clip-path="url(#p708e823dc9)"/>
    <path d="M 153.92422 295.670025 
L 152.970369 297.784757 
L 153.959512 297.745249 
L 150.928583 301.23476 
L 151.53816 296.653097 
L 152.163252 297.420707 
L 153.117102 295.305975 
L 153.92422 295.670025 
" clip-path="url(#p708e823dc9)"/>
    <path d="M 168.606407 295.784539 
L 166.091103 298.572813 
L 167.045084 298.83717 
L 163.093529 301.23476 
L 165.072759 297.057935 
L 165.433662 297.979734 
L 167.948965 295.191461 
L 168.606407 295.784539 
" clip-path="url(#p708e823dc9)"/>
    <path d="M 183.297828 295.844037 
L 178.725925 299.222745 
L 179.608196 299.671702 
L 175.258476 301.23476 
L 178.029495 297.53548 
L 178.199692 298.510671 
L 182.771594 295.131963 
L 183.297828 295.844037 
" clip-path="url(#p708e823dc9)"/>
    <path d="M 198.006352 295.875211 
L 191.122941 299.690423 
L 191.939385 300.250229 
L 187.423423 301.23476 
L 190.651686 297.926962 
L 190.693708 298.916001 
L 197.577119 295.100789 
L 198.006352 295.875211 
" clip-path="url(#p708e823dc9)"/>
    <path d="M 212.728212 295.892709 
L 203.410207 300.024401 
L 204.17382 300.654368 
L 199.588369 301.23476 
L 203.097108 298.226111 
L 203.051303 299.214982 
L 212.369308 295.083291 
L 212.728212 295.892709 
" clip-path="url(#p708e823dc9)"/>
    <path d="M 65.126518 270.878762 
L 74.331772 274.14412 
L 74.210545 273.161639 
L 77.938904 275.893408 
L 73.322512 275.665064 
L 74.03576 274.978595 
L 64.830507 271.713238 
L 65.126518 270.878762 
" clip-path="url(#p708e823dc9)"/>
    <path d="M 79.914989 270.891291 
L 86.640917 273.87363 
L 86.595111 272.884759 
L 90.10385 275.893408 
L 85.518399 275.313016 
L 86.282013 274.683049 
L 79.556085 271.700709 
L 79.914989 270.891291 
" clip-path="url(#p708e823dc9)"/>
    <path d="M 94.717868 270.914909 
L 99.064286 273.484566 
L 99.133806 272.497079 
L 102.268797 275.893408 
L 97.781972 274.783624 
L 98.613674 274.246748 
L 94.267256 271.677091 
L 94.717868 270.914909 
" clip-path="url(#p708e823dc9)"/>
    <path d="M 109.543325 270.964774 
L 111.746444 272.918541 
L 112.002693 271.962351 
L 114.433743 275.893408 
L 110.240266 273.949709 
L 111.158968 273.580994 
L 108.955849 271.627226 
L 109.543325 270.964774 
" clip-path="url(#p708e823dc9)"/>
    <path d="M 124.392251 271.078572 
L 125.027473 272.205226 
L 125.581323 271.384729 
L 126.59869 275.893408 
L 123.267487 272.6893 
L 124.256194 272.640083 
L 123.620972 271.513428 
L 124.392251 271.078572 
" clip-path="url(#p708e823dc9)"/>
    <path d="M 139.206347 271.296 
L 139.206347 271.909011 
L 140.091769 271.4663 
L 138.763636 275.893408 
L 137.435504 271.4663 
L 138.320926 271.909011 
L 138.320926 271.296 
L 139.206347 271.296 
" clip-path="url(#p708e823dc9)"/>
    <path d="M 153.9063 271.513428 
L 153.271078 272.640083 
L 154.259785 272.6893 
L 150.928583 275.893408 
L 151.945949 271.384729 
L 152.4998 272.205226 
L 153.135022 271.078572 
L 153.9063 271.513428 
" clip-path="url(#p708e823dc9)"/>
    <path d="M 168.571424 271.627226 
L 166.368305 273.580994 
L 167.287007 273.949709 
L 163.093529 275.893408 
L 165.52458 271.962351 
L 165.780829 272.918541 
L 167.983948 270.964774 
L 168.571424 271.627226 
" clip-path="url(#p708e823dc9)"/>
    <path d="M 183.260016 271.677091 
L 178.913599 274.246748 
L 179.745301 274.783624 
L 175.258476 275.893408 
L 178.393467 272.497079 
L 178.462987 273.484566 
L 182.809405 270.914909 
L 183.260016 271.677091 
" clip-path="url(#p708e823dc9)"/>
    <path d="M 197.971188 271.700709 
L 191.24526 274.683049 
L 192.008874 275.313016 
L 187.423423 275.893408 
L 190.932162 272.884759 
L 190.886356 273.87363 
L 197.612284 270.891291 
L 197.971188 271.700709 
" clip-path="url(#p708e823dc9)"/>
    <path d="M 212.696766 271.713238 
L 203.491512 274.978595 
L 204.204761 275.665064 
L 199.588369 275.893408 
L 203.316727 273.161639 
L 203.195501 274.14412 
L 212.400755 270.878762 
L 212.696766 271.713238 
" clip-path="url(#p708e823dc9)"/>
    <path d="M 65.092334 246.676171 
L 74.202268 249.09983 
L 74.002083 248.13035 
L 77.938904 250.552056 
L 73.319151 250.697322 
L 73.974624 249.955487 
L 64.86469 247.531829 
L 65.092334 246.676171 
" clip-path="url(#p708e823dc9)"/>
    <path d="M 79.875241 246.68391 
L 86.462744 248.874631 
L 86.322062 247.894747 
L 90.10385 250.552056 
L 85.483838 250.415287 
L 86.183336 249.714811 
L 79.595833 247.52409 
L 79.875241 246.68391 
" clip-path="url(#p708e823dc9)"/>
    <path d="M 94.672014 246.699291 
L 98.805863 248.532278 
L 98.760058 247.543407 
L 102.268797 250.552056 
L 97.683346 249.971664 
L 98.446959 249.341697 
L 94.31311 247.508709 
L 94.672014 246.699291 
" clip-path="url(#p708e823dc9)"/>
    <path d="M 109.494762 246.735378 
L 111.361325 247.976856 
L 111.483054 246.994437 
L 114.433743 250.552056 
L 110.012002 249.206166 
L 110.870974 248.714099 
L 109.004411 247.472622 
L 109.494762 246.735378 
" clip-path="url(#p708e823dc9)"/>
    <path d="M 124.351417 246.844792 
L 124.610625 247.189598 
L 125.041028 246.326377 
L 126.59869 250.552056 
L 122.972195 247.881623 
L 123.921014 247.708013 
L 123.661806 247.363208 
L 124.351417 246.844792 
" clip-path="url(#p708e823dc9)"/>
    <path d="M 139.108442 247.104 
L 139.108442 247.448806 
L 139.798053 247.104 
L 138.763636 250.552056 
L 137.72922 247.104 
L 138.418831 247.448806 
L 138.418831 247.104 
L 139.108442 247.104 
" clip-path="url(#p708e823dc9)"/>
    <path d="M 153.865467 247.363208 
L 153.606259 247.708013 
L 154.555078 247.881623 
L 150.928583 250.552056 
L 152.486244 246.326377 
L 152.916648 247.189598 
L 153.175856 246.844792 
L 153.865467 247.363208 
" clip-path="url(#p708e823dc9)"/>
    <path d="M 168.522861 247.472622 
L 166.656299 248.714099 
L 167.515271 249.206166 
L 163.093529 250.552056 
L 166.044219 246.994437 
L 166.165948 247.976856 
L 168.032511 246.735378 
L 168.522861 247.472622 
" clip-path="url(#p708e823dc9)"/>
    <path d="M 183.214163 247.508709 
L 179.080314 249.341697 
L 179.843927 249.971664 
L 175.258476 250.552056 
L 178.767215 247.543407 
L 178.72141 248.532278 
L 182.855259 246.699291 
L 183.214163 247.508709 
" clip-path="url(#p708e823dc9)"/>
    <path d="M 197.931439 247.52409 
L 191.343937 249.714811 
L 192.043434 250.415287 
L 187.423423 250.552056 
L 191.205211 247.894747 
L 191.064529 248.874631 
L 197.652032 246.68391 
L 197.931439 247.52409 
" clip-path="url(#p708e823dc9)"/>
    <path d="M 212.662582 247.531829 
L 203.552649 249.955487 
L 204.208122 250.697322 
L 199.588369 250.552056 
L 203.52519 248.13035 
L 203.325005 249.09983 
L 212.434938 246.676171 
L 212.662582 247.531829 
" clip-path="url(#p708e823dc9)"/>
    <path d="M 65.055827 222.476093 
L 74.093051 224.078969 
L 73.811771 223.12984 
L 77.938904 225.210704 
L 73.347886 225.745284 
L 73.938422 224.950784 
L 64.901198 223.347907 
L 65.055827 222.476093 
" clip-path="url(#p708e823dc9)"/>
    <path d="M 79.831361 222.479784 
L 86.309732 223.91607 
L 86.069165 222.955814 
L 90.10385 225.210704 
L 85.494219 225.549109 
L 86.118084 224.780501 
L 79.639713 223.344216 
L 79.831361 222.479784 
" clip-path="url(#p708e823dc9)"/>
    <path d="M 94.618062 222.48745 
L 98.573347 223.656657 
L 98.399796 222.682058 
L 102.268797 225.210704 
L 97.646798 225.229357 
L 98.322348 224.505757 
L 94.367062 223.33655 
L 94.618062 222.48745 
" clip-path="url(#p708e823dc9)"/>
    <path d="M 109.429039 222.507291 
L 110.97081 223.190926 
L 110.925004 222.202055 
L 114.433743 225.210704 
L 109.848292 224.630312 
L 110.611906 224.000345 
L 109.070135 223.316709 
L 109.429039 222.507291 
" clip-path="url(#p708e823dc9)"/>
    <path d="M 124.236482 222.652792 
L 124.49569 222.882663 
L 124.696223 222.134377 
L 126.59869 225.210704 
L 123.317 223.689623 
L 124.035949 223.401078 
L 123.776741 223.171208 
L 124.236482 222.652792 
" clip-path="url(#p708e823dc9)"/>
    <path d="M 138.993507 222.912 
L 138.993507 223.14187 
L 139.453248 222.912 
L 138.763636 225.210704 
L 138.074025 222.912 
L 138.533766 223.14187 
L 138.533766 222.912 
L 138.993507 222.912 
" clip-path="url(#p708e823dc9)"/>
    <path d="M 153.750532 223.171208 
L 153.491324 223.401078 
L 154.210272 223.689623 
L 150.928583 225.210704 
L 152.83105 222.134377 
L 153.031583 222.882663 
L 153.290791 222.652792 
L 153.750532 223.171208 
" clip-path="url(#p708e823dc9)"/>
    <path d="M 168.457138 223.316709 
L 166.915367 224.000345 
L 167.678981 224.630312 
L 163.093529 225.210704 
L 166.602268 222.202055 
L 166.556463 223.190926 
L 168.098234 222.507291 
L 168.457138 223.316709 
" clip-path="url(#p708e823dc9)"/>
    <path d="M 183.16021 223.33655 
L 179.204925 224.505757 
L 179.880474 225.229357 
L 175.258476 225.210704 
L 179.127476 222.682058 
L 178.953926 223.656657 
L 182.909211 222.48745 
L 183.16021 223.33655 
" clip-path="url(#p708e823dc9)"/>
    <path d="M 197.88756 223.344216 
L 191.409189 224.780501 
L 192.033054 225.549109 
L 187.423423 225.210704 
L 191.458108 222.955814 
L 191.217541 223.91607 
L 197.695911 222.479784 
L 197.88756 223.344216 
" clip-path="url(#p708e823dc9)"/>
    <path d="M 212.626075 223.347907 
L 203.588851 224.950784 
L 204.179386 225.745284 
L 199.588369 225.210704 
L 203.715501 223.12984 
L 203.434222 224.078969 
L 212.471446 222.476093 
L 212.626075 223.347907 
" clip-path="url(#p708e823dc9)"/>
    <path d="M 65.017619 198.27902 
L 74.00919 199.076409 
L 73.646423 198.155342 
L 77.938904 199.869352 
L 73.411782 200.801223 
L 73.930976 199.95837 
L 64.939405 199.16098 
L 65.017619 198.27902 
" clip-path="url(#p708e823dc9)"/>
    <path d="M 79.784314 198.279985 
L 86.192487 198.990346 
L 85.850025 198.061538 
L 90.10385 199.869352 
L 85.557365 200.701631 
L 86.094934 199.870377 
L 79.68676 199.160015 
L 79.784314 198.279985 
" clip-path="url(#p708e823dc9)"/>
    <path d="M 94.557293 198.282047 
L 98.391952 198.848822 
L 98.08346 197.908185 
L 102.268797 199.869352 
L 97.695075 200.535902 
L 98.26249 199.724728 
L 94.427831 199.157953 
L 94.557293 198.282047 
" clip-path="url(#p708e823dc9)"/>
    <path d="M 109.345411 198.287784 
L 110.639625 198.574718 
L 110.399058 197.614462 
L 114.433743 199.869352 
L 109.824112 200.207757 
L 110.447977 199.439149 
L 109.153762 199.152216 
L 109.345411 198.287784 
" clip-path="url(#p708e823dc9)"/>
    <path d="M 124.121547 198.460792 
L 124.380755 198.575727 
L 124.351417 197.942377 
L 126.59869 199.869352 
L 123.661806 199.497623 
L 124.150884 199.094143 
L 123.891676 198.979208 
L 124.121547 198.460792 
" clip-path="url(#p708e823dc9)"/>
    <path d="M 138.878572 198.72 
L 138.878572 198.834935 
L 139.108442 198.72 
L 138.763636 199.869352 
L 138.418831 198.72 
L 138.648701 198.834935 
L 138.648701 198.72 
L 138.878572 198.72 
" clip-path="url(#p708e823dc9)"/>
    <path d="M 153.635596 198.979208 
L 153.376389 199.094143 
L 153.865467 199.497623 
L 150.928583 199.869352 
L 153.175856 197.942377 
L 153.146518 198.575727 
L 153.405726 198.460792 
L 153.635596 198.979208 
" clip-path="url(#p708e823dc9)"/>
    <path d="M 168.37351 199.152216 
L 167.079296 199.439149 
L 167.70316 200.207757 
L 163.093529 199.869352 
L 167.128215 197.614462 
L 166.887648 198.574718 
L 168.181862 198.287784 
L 168.37351 199.152216 
" clip-path="url(#p708e823dc9)"/>
    <path d="M 183.099442 199.157953 
L 179.264783 199.724728 
L 179.832197 200.535902 
L 175.258476 199.869352 
L 179.443812 197.908185 
L 179.135321 198.848822 
L 182.96998 198.282047 
L 183.099442 199.157953 
" clip-path="url(#p708e823dc9)"/>
    <path d="M 197.840512 199.160015 
L 191.432339 199.870377 
L 191.969908 200.701631 
L 187.423423 199.869352 
L 191.677247 198.061538 
L 191.334785 198.990346 
L 197.742959 198.279985 
L 197.840512 199.160015 
" clip-path="url(#p708e823dc9)"/>
    <path d="M 212.587867 199.16098 
L 203.596297 199.95837 
L 204.115491 200.801223 
L 199.588369 199.869352 
L 203.880849 198.155342 
L 203.518083 199.076409 
L 212.509653 198.27902 
L 212.587867 199.16098 
" clip-path="url(#p708e823dc9)"/>
    <path d="M 64.978512 174.085289 
L 73.954507 174.085289 
L 73.511796 173.199868 
L 77.938904 174.528 
L 73.511796 175.856132 
L 73.954507 174.970711 
L 64.978512 174.970711 
L 64.978512 174.085289 
" clip-path="url(#p708e823dc9)"/>
    <path d="M 79.735537 174.085289 
L 86.119453 174.085289 
L 85.676743 173.199868 
L 90.10385 174.528 
L 85.676743 175.856132 
L 86.119453 174.970711 
L 79.735537 174.970711 
L 79.735537 174.085289 
" clip-path="url(#p708e823dc9)"/>
    <path d="M 94.492562 174.085289 
L 98.2844 174.085289 
L 97.841689 173.199868 
L 102.268797 174.528 
L 97.841689 175.856132 
L 98.2844 174.970711 
L 94.492562 174.970711 
L 94.492562 174.085289 
" clip-path="url(#p708e823dc9)"/>
    <path d="M 109.249587 174.085289 
L 110.449347 174.085289 
L 110.006636 173.199868 
L 114.433743 174.528 
L 110.006636 175.856132 
L 110.449347 174.970711 
L 109.249587 174.970711 
L 109.249587 174.085289 
" clip-path="url(#p708e823dc9)"/>
    <path d="M 124.006612 174.268792 
L 124.265819 174.268792 
L 124.006612 173.750377 
L 126.59869 174.528 
L 124.006612 175.305623 
L 124.265819 174.787208 
L 124.006612 174.787208 
L 124.006612 174.268792 
" clip-path="url(#p708e823dc9)"/>
    <path d="M 139.206347 174.528 
L 138.984992 174.144601 
L 138.542281 174.144601 
L 138.320926 174.528 
L 138.542281 174.911399 
L 138.984992 174.911399 
L 139.206347 174.528 
L 138.984992 174.144601 
" clip-path="url(#p708e823dc9)"/>
    <path d="M 153.520661 174.787208 
L 153.261453 174.787208 
L 153.520661 175.305623 
L 150.928583 174.528 
L 153.520661 173.750377 
L 153.261453 174.268792 
L 153.520661 174.268792 
L 153.520661 174.787208 
" clip-path="url(#p708e823dc9)"/>
    <path d="M 168.277686 174.970711 
L 167.077926 174.970711 
L 167.520637 175.856132 
L 163.093529 174.528 
L 167.520637 173.199868 
L 167.077926 174.085289 
L 168.277686 174.085289 
L 168.277686 174.970711 
" clip-path="url(#p708e823dc9)"/>
    <path d="M 183.034711 174.970711 
L 179.242873 174.970711 
L 179.685583 175.856132 
L 175.258476 174.528 
L 179.685583 173.199868 
L 179.242873 174.085289 
L 183.034711 174.085289 
L 183.034711 174.970711 
" clip-path="url(#p708e823dc9)"/>
    <path d="M 197.791736 174.970711 
L 191.407819 174.970711 
L 191.85053 175.856132 
L 187.423423 174.528 
L 191.85053 173.199868 
L 191.407819 174.085289 
L 197.791736 174.085289 
L 197.791736 174.970711 
" clip-path="url(#p708e823dc9)"/>
    <path d="M 212.54876 174.970711 
L 203.572766 174.970711 
L 204.015477 175.856132 
L 199.588369 174.528 
L 204.015477 173.199868 
L 203.572766 174.085289 
L 212.54876 174.085289 
L 212.54876 174.970711 
" clip-path="url(#p708e823dc9)"/>
    <path d="M 64.939405 149.89502 
L 73.930976 149.09763 
L 73.411782 148.254777 
L 77.938904 149.186648 
L 73.646423 150.900658 
L 74.00919 149.979591 
L 65.017619 150.77698 
L 64.939405 149.89502 
" clip-path="url(#p708e823dc9)"/>
    <path d="M 79.68676 149.895985 
L 86.094934 149.185623 
L 85.557365 148.354369 
L 90.10385 149.186648 
L 85.850025 150.994462 
L 86.192487 150.065654 
L 79.784314 150.776015 
L 79.68676 149.895985 
" clip-path="url(#p708e823dc9)"/>
    <path d="M 94.427831 149.898047 
L 98.26249 149.331272 
L 97.695075 148.520098 
L 102.268797 149.186648 
L 98.08346 151.147815 
L 98.391952 150.207178 
L 94.557293 150.773953 
L 94.427831 149.898047 
" clip-path="url(#p708e823dc9)"/>
    <path d="M 109.153762 149.903784 
L 110.447977 149.616851 
L 109.824112 148.848243 
L 114.433743 149.186648 
L 110.399058 151.441538 
L 110.639625 150.481282 
L 109.345411 150.768216 
L 109.153762 149.903784 
" clip-path="url(#p708e823dc9)"/>
    <path d="M 123.891676 150.076792 
L 124.150884 149.961857 
L 123.661806 149.558377 
L 126.59869 149.186648 
L 124.351417 151.113623 
L 124.380755 150.480273 
L 124.121547 150.595208 
L 123.891676 150.076792 
" clip-path="url(#p708e823dc9)"/>
    <path d="M 138.648701 150.336 
L 138.648701 150.221065 
L 138.418831 150.336 
L 138.763636 149.186648 
L 139.108442 150.336 
L 138.878572 150.221065 
L 138.878572 150.336 
L 138.648701 150.336 
" clip-path="url(#p708e823dc9)"/>
    <path d="M 153.405726 150.595208 
L 153.146518 150.480273 
L 153.175856 151.113623 
L 150.928583 149.186648 
L 153.865467 149.558377 
L 153.376389 149.961857 
L 153.635596 150.076792 
L 153.405726 150.595208 
" clip-path="url(#p708e823dc9)"/>
    <path d="M 168.181862 150.768216 
L 166.887648 150.481282 
L 167.128215 151.441538 
L 163.093529 149.186648 
L 167.70316 148.848243 
L 167.079296 149.616851 
L 168.37351 149.903784 
L 168.181862 150.768216 
" clip-path="url(#p708e823dc9)"/>
    <path d="M 182.96998 150.773953 
L 179.135321 150.207178 
L 179.443812 151.147815 
L 175.258476 149.186648 
L 179.832197 148.520098 
L 179.264783 149.331272 
L 183.099442 149.898047 
L 182.96998 150.773953 
" clip-path="url(#p708e823dc9)"/>
    <path d="M 197.742959 150.776015 
L 191.334785 150.065654 
L 191.677247 150.994462 
L 187.423423 149.186648 
L 191.969908 148.354369 
L 191.432339 149.185623 
L 197.840512 149.895985 
L 197.742959 150.776015 
" clip-path="url(#p708e823dc9)"/>
    <path d="M 212.509653 150.77698 
L 203.518083 149.979591 
L 203.880849 150.900658 
L 199.588369 149.186648 
L 204.115491 148.254777 
L 203.596297 149.09763 
L 212.587867 149.89502 
L 212.509653 150.77698 
" clip-path="url(#p708e823dc9)"/>
    <path d="M 64.901198 125.708093 
L 73.938422 124.105216 
L 73.347886 123.310716 
L 77.938904 123.845296 
L 73.811771 125.92616 
L 74.093051 124.977031 
L 65.055827 126.579907 
L 64.901198 125.708093 
" clip-path="url(#p708e823dc9)"/>
    <path d="M 79.639713 125.711784 
L 86.118084 124.275499 
L 85.494219 123.506891 
L 90.10385 123.845296 
L 86.069165 126.100186 
L 86.309732 125.13993 
L 79.831361 126.576216 
L 79.639713 125.711784 
" clip-path="url(#p708e823dc9)"/>
    <path d="M 94.367062 125.71945 
L 98.322348 124.550243 
L 97.646798 123.826643 
L 102.268797 123.845296 
L 98.399796 126.373942 
L 98.573347 125.399343 
L 94.618062 126.56855 
L 94.367062 125.71945 
" clip-path="url(#p708e823dc9)"/>
    <path d="M 109.070135 125.739291 
L 110.611906 125.055655 
L 109.848292 124.425688 
L 114.433743 123.845296 
L 110.925004 126.853945 
L 110.97081 125.865074 
L 109.429039 126.548709 
L 109.070135 125.739291 
" clip-path="url(#p708e823dc9)"/>
    <path d="M 123.776741 125.884792 
L 124.035949 125.654922 
L 123.317 125.366377 
L 126.59869 123.845296 
L 124.696223 126.921623 
L 124.49569 126.173337 
L 124.236482 126.403208 
L 123.776741 125.884792 
" clip-path="url(#p708e823dc9)"/>
    <path d="M 138.533766 126.144 
L 138.533766 125.91413 
L 138.074025 126.144 
L 138.763636 123.845296 
L 139.453248 126.144 
L 138.993507 125.91413 
L 138.993507 126.144 
L 138.533766 126.144 
" clip-path="url(#p708e823dc9)"/>
    <path d="M 153.290791 126.403208 
L 153.031583 126.173337 
L 152.83105 126.921623 
L 150.928583 123.845296 
L 154.210272 125.366377 
L 153.491324 125.654922 
L 153.750532 125.884792 
L 153.290791 126.403208 
" clip-path="url(#p708e823dc9)"/>
    <path d="M 168.098234 126.548709 
L 166.556463 125.865074 
L 166.602268 126.853945 
L 163.093529 123.845296 
L 167.678981 124.425688 
L 166.915367 125.055655 
L 168.457138 125.739291 
L 168.098234 126.548709 
" clip-path="url(#p708e823dc9)"/>
    <path d="M 182.909211 126.56855 
L 178.953926 125.399343 
L 179.127476 126.373942 
L 175.258476 123.845296 
L 179.880474 123.826643 
L 179.204925 124.550243 
L 183.16021 125.71945 
L 182.909211 126.56855 
" clip-path="url(#p708e823dc9)"/>
    <path d="M 197.695911 126.576216 
L 191.217541 125.13993 
L 191.458108 126.100186 
L 187.423423 123.845296 
L 192.033054 123.506891 
L 191.409189 124.275499 
L 197.88756 125.711784 
L 197.695911 126.576216 
" clip-path="url(#p708e823dc9)"/>
    <path d="M 212.471446 126.579907 
L 203.434222 124.977031 
L 203.715501 125.92616 
L 199.588369 123.845296 
L 204.179386 123.310716 
L 203.588851 124.105216 
L 212.626075 125.708093 
L 212.471446 126.579907 
" clip-path="url(#p708e823dc9)"/>
    <path d="M 64.86469 101.524171 
L 73.974624 99.100513 
L 73.319151 98.358678 
L 77.938904 98.503944 
L 74.002083 100.92565 
L 74.202268 99.95617 
L 65.092334 102.379829 
L 64.86469 101.524171 
" clip-path="url(#p708e823dc9)"/>
    <path d="M 79.595833 101.53191 
L 86.183336 99.341189 
L 85.483838 98.640713 
L 90.10385 98.503944 
L 86.322062 101.161253 
L 86.462744 100.181369 
L 79.875241 102.37209 
L 79.595833 101.53191 
" clip-path="url(#p708e823dc9)"/>
    <path d="M 94.31311 101.547291 
L 98.446959 99.714303 
L 97.683346 99.084336 
L 102.268797 98.503944 
L 98.760058 101.512593 
L 98.805863 100.523722 
L 94.672014 102.356709 
L 94.31311 101.547291 
" clip-path="url(#p708e823dc9)"/>
    <path d="M 109.004411 101.583378 
L 110.870974 100.341901 
L 110.012002 99.849834 
L 114.433743 98.503944 
L 111.483054 102.061563 
L 111.361325 101.079144 
L 109.494762 102.320622 
L 109.004411 101.583378 
" clip-path="url(#p708e823dc9)"/>
    <path d="M 123.661806 101.692792 
L 123.921014 101.347987 
L 122.972195 101.174377 
L 126.59869 98.503944 
L 125.041028 102.729623 
L 124.610625 101.866402 
L 124.351417 102.211208 
L 123.661806 101.692792 
" clip-path="url(#p708e823dc9)"/>
    <path d="M 138.418831 101.952 
L 138.418831 101.607194 
L 137.72922 101.952 
L 138.763636 98.503944 
L 139.798053 101.952 
L 139.108442 101.607194 
L 139.108442 101.952 
L 138.418831 101.952 
" clip-path="url(#p708e823dc9)"/>
    <path d="M 153.175856 102.211208 
L 152.916648 101.866402 
L 152.486244 102.729623 
L 150.928583 98.503944 
L 154.555078 101.174377 
L 153.606259 101.347987 
L 153.865467 101.692792 
L 153.175856 102.211208 
" clip-path="url(#p708e823dc9)"/>
    <path d="M 168.032511 102.320622 
L 166.165948 101.079144 
L 166.044219 102.061563 
L 163.093529 98.503944 
L 167.515271 99.849834 
L 166.656299 100.341901 
L 168.522861 101.583378 
L 168.032511 102.320622 
" clip-path="url(#p708e823dc9)"/>
    <path d="M 182.855259 102.356709 
L 178.72141 100.523722 
L 178.767215 101.512593 
L 175.258476 98.503944 
L 179.843927 99.084336 
L 179.080314 99.714303 
L 183.214163 101.547291 
L 182.855259 102.356709 
" clip-path="url(#p708e823dc9)"/>
    <path d="M 197.652032 102.37209 
L 191.064529 100.181369 
L 191.205211 101.161253 
L 187.423423 98.503944 
L 192.043434 98.640713 
L 191.343937 99.341189 
L 197.931439 101.53191 
L 197.652032 102.37209 
" clip-path="url(#p708e823dc9)"/>
    <path d="M 212.434938 102.379829 
L 203.325005 99.95617 
L 203.52519 100.92565 
L 199.588369 98.503944 
L 204.208122 98.358678 
L 203.552649 99.100513 
L 212.662582 101.524171 
L 212.434938 102.379829 
" clip-path="url(#p708e823dc9)"/>
    <path d="M 64.830507 77.342762 
L 74.03576 74.077405 
L 73.322512 73.390936 
L 77.938904 73.162592 
L 74.210545 75.894361 
L 74.331772 74.91188 
L 65.126518 78.177238 
L 64.830507 77.342762 
" clip-path="url(#p708e823dc9)"/>
    <path d="M 79.556085 77.355291 
L 86.282013 74.372951 
L 85.518399 73.742984 
L 90.10385 73.162592 
L 86.595111 76.171241 
L 86.640917 75.18237 
L 79.914989 78.164709 
L 79.556085 77.355291 
" clip-path="url(#p708e823dc9)"/>
    <path d="M 94.267256 77.378909 
L 98.613674 74.809252 
L 97.781972 74.272376 
L 102.268797 73.162592 
L 99.133806 76.558921 
L 99.064286 75.571434 
L 94.717868 78.141091 
L 94.267256 77.378909 
" clip-path="url(#p708e823dc9)"/>
    <path d="M 108.955849 77.428774 
L 111.158968 75.475006 
L 110.240266 75.106291 
L 114.433743 73.162592 
L 112.002693 77.093649 
L 111.746444 76.137459 
L 109.543325 78.091226 
L 108.955849 77.428774 
" clip-path="url(#p708e823dc9)"/>
    <path d="M 123.620972 77.542572 
L 124.256194 76.415917 
L 123.267487 76.3667 
L 126.59869 73.162592 
L 125.581323 77.671271 
L 125.027473 76.850774 
L 124.392251 77.977428 
L 123.620972 77.542572 
" clip-path="url(#p708e823dc9)"/>
    <path d="M 138.320926 77.76 
L 138.320926 77.146989 
L 137.435504 77.5897 
L 138.763636 73.162592 
L 140.091769 77.5897 
L 139.206347 77.146989 
L 139.206347 77.76 
L 138.320926 77.76 
" clip-path="url(#p708e823dc9)"/>
    <path d="M 153.135022 77.977428 
L 152.4998 76.850774 
L 151.945949 77.671271 
L 150.928583 73.162592 
L 154.259785 76.3667 
L 153.271078 76.415917 
L 153.9063 77.542572 
L 153.135022 77.977428 
" clip-path="url(#p708e823dc9)"/>
    <path d="M 167.983948 78.091226 
L 165.780829 76.137459 
L 165.52458 77.093649 
L 163.093529 73.162592 
L 167.287007 75.106291 
L 166.368305 75.475006 
L 168.571424 77.428774 
L 167.983948 78.091226 
" clip-path="url(#p708e823dc9)"/>
    <path d="M 182.809405 78.141091 
L 178.462987 75.571434 
L 178.393467 76.558921 
L 175.258476 73.162592 
L 179.745301 74.272376 
L 178.913599 74.809252 
L 183.260016 77.378909 
L 182.809405 78.141091 
" clip-path="url(#p708e823dc9)"/>
    <path d="M 197.612284 78.164709 
L 190.886356 75.18237 
L 190.932162 76.171241 
L 187.423423 73.162592 
L 192.008874 73.742984 
L 191.24526 74.372951 
L 197.971188 77.355291 
L 197.612284 78.164709 
" clip-path="url(#p708e823dc9)"/>
    <path d="M 212.400755 78.177238 
L 203.195501 74.91188 
L 203.316727 75.894361 
L 199.588369 73.162592 
L 204.204761 73.390936 
L 203.491512 74.077405 
L 212.696766 77.342762 
L 212.400755 78.177238 
" clip-path="url(#p708e823dc9)"/>
    <path d="M 64.79906 53.163291 
L 74.117066 49.031599 
L 73.353453 48.401632 
L 77.938904 47.82124 
L 74.430165 50.829889 
L 74.47597 49.841018 
L 65.157964 53.972709 
L 64.79906 53.163291 
" clip-path="url(#p708e823dc9)"/>
    <path d="M 79.520921 53.180789 
L 86.404332 49.365577 
L 85.587888 48.805771 
L 90.10385 47.82124 
L 86.875586 51.129038 
L 86.833565 50.139999 
L 79.950154 53.955211 
L 79.520921 53.180789 
" clip-path="url(#p708e823dc9)"/>
    <path d="M 94.229445 53.211963 
L 98.801347 49.833255 
L 97.919077 49.384298 
L 102.268797 47.82124 
L 99.497778 51.52052 
L 99.327581 50.545329 
L 94.755679 53.924037 
L 94.229445 53.211963 
" clip-path="url(#p708e823dc9)"/>
    <path d="M 108.920866 53.271461 
L 111.43617 50.483187 
L 110.482189 50.21883 
L 114.433743 47.82124 
L 112.454513 51.998065 
L 112.093611 51.076266 
L 109.578307 53.864539 
L 108.920866 53.271461 
" clip-path="url(#p708e823dc9)"/>
    <path d="M 123.603053 53.385975 
L 124.556904 51.271243 
L 123.567761 51.310751 
L 126.59869 47.82124 
L 125.989113 52.402903 
L 125.364021 51.635293 
L 124.41017 53.750025 
L 123.603053 53.385975 
" clip-path="url(#p708e823dc9)"/>
    <path d="M 138.320926 53.568 
L 138.320926 51.805637 
L 137.435504 52.248348 
L 138.763636 47.82124 
L 140.091769 52.248348 
L 139.206347 51.805637 
L 139.206347 53.568 
L 138.320926 53.568 
" clip-path="url(#p708e823dc9)"/>
    <path d="M 153.117102 53.750025 
L 152.163252 51.635293 
L 151.53816 52.402903 
L 150.928583 47.82124 
L 153.959512 51.310751 
L 152.970369 51.271243 
L 153.92422 53.385975 
L 153.117102 53.750025 
" clip-path="url(#p708e823dc9)"/>
    <path d="M 167.948965 53.864539 
L 165.433662 51.076266 
L 165.072759 51.998065 
L 163.093529 47.82124 
L 167.045084 50.21883 
L 166.091103 50.483187 
L 168.606407 53.271461 
L 167.948965 53.864539 
" clip-path="url(#p708e823dc9)"/>
    <path d="M 182.771594 53.924037 
L 178.199692 50.545329 
L 178.029495 51.52052 
L 175.258476 47.82124 
L 179.608196 49.384298 
L 178.725925 49.833255 
L 183.297828 53.211963 
L 182.771594 53.924037 
" clip-path="url(#p708e823dc9)"/>
    <path d="M 197.577119 53.955211 
L 190.693708 50.139999 
L 190.651686 51.129038 
L 187.423423 47.82124 
L 191.939385 48.805771 
L 191.122941 49.365577 
L 198.006352 53.180789 
L 197.577119 53.955211 
" clip-path="url(#p708e823dc9)"/>
    <path d="M 212.369308 53.972709 
L 203.051303 49.841018 
L 203.097108 50.829889 
L 199.588369 47.82124 
L 204.17382 48.401632 
L 203.410207 49.031599 
L 212.728212 53.163291 
L 212.369308 53.972709 
" clip-path="url(#p708e823dc9)"/>
   </g>
   <g id="matplotlib.axis_1">
    <g id="xtick_1">
     <g id="line2d_1">
      <defs>
       <path id="m583f4c55a8" d="M 0 0 
L 0 3.5 
" style="stroke: #000000; stroke-width: 0.8"/>
      </defs>
      <g>
       <use xlink:href="#m583f4c55a8" x="64.978512" y="307.584" style="stroke: #000000; stroke-width: 0.8"/>
      </g>
     </g>
     <g id="text_1">
      <!-- −5.0 -->
      <g transform="translate(52.837106 322.182437) scale(0.1 -0.1)">
       <defs>
        <path id="DejaVuSans-2212" d="M 678 2272 
L 4684 2272 
L 4684 1741 
L 678 1741 
L 678 2272 
z
" transform="scale(0.015625)"/>
        <path id="DejaVuSans-35" d="M 691 4666 
L 3169 4666 
L 3169 4134 
L 1269 4134 
L 1269 2991 
Q 1406 3038 1543 3061 
Q 1681 3084 1819 3084 
Q 2600 3084 3056 2656 
Q 3513 2228 3513 1497 
Q 3513 744 3044 326 
Q 2575 -91 1722 -91 
Q 1428 -91 1123 -41 
Q 819 9 494 109 
L 494 744 
Q 775 591 1075 516 
Q 1375 441 1709 441 
Q 2250 441 2565 725 
Q 2881 1009 2881 1497 
Q 2881 1984 2565 2268 
Q 2250 2553 1709 2553 
Q 1456 2553 1204 2497 
Q 953 2441 691 2322 
L 691 4666 
z
" transform="scale(0.015625)"/>
        <path id="DejaVuSans-2e" d="M 684 794 
L 1344 794 
L 1344 0 
L 684 0 
L 684 794 
z
" transform="scale(0.015625)"/>
        <path id="DejaVuSans-30" d="M 2034 4250 
Q 1547 4250 1301 3770 
Q 1056 3291 1056 2328 
Q 1056 1369 1301 889 
Q 1547 409 2034 409 
Q 2525 409 2770 889 
Q 3016 1369 3016 2328 
Q 3016 3291 2770 3770 
Q 2525 4250 2034 4250 
z
M 2034 4750 
Q 2819 4750 3233 4129 
Q 3647 3509 3647 2328 
Q 3647 1150 3233 529 
Q 2819 -91 2034 -91 
Q 1250 -91 836 529 
Q 422 1150 422 2328 
Q 422 3509 836 4129 
Q 1250 4750 2034 4750 
z
" transform="scale(0.015625)"/>
       </defs>
       <use xlink:href="#DejaVuSans-2212"/>
       <use xlink:href="#DejaVuSans-35" x="83.789062"/>
       <use xlink:href="#DejaVuSans-2e" x="147.412109"/>
       <use xlink:href="#DejaVuSans-30" x="179.199219"/>
      </g>
     </g>
    </g>
    <g id="xtick_2">
     <g id="line2d_2">
      <g>
       <use xlink:href="#m583f4c55a8" x="101.871074" y="307.584" style="stroke: #000000; stroke-width: 0.8"/>
      </g>
     </g>
     <g id="text_2">
      <!-- −2.5 -->
      <g transform="translate(89.729668 322.182437) scale(0.1 -0.1)">
       <defs>
        <path id="DejaVuSans-32" d="M 1228 531 
L 3431 531 
L 3431 0 
L 469 0 
L 469 531 
Q 828 903 1448 1529 
Q 2069 2156 2228 2338 
Q 2531 2678 2651 2914 
Q 2772 3150 2772 3378 
Q 2772 3750 2511 3984 
Q 2250 4219 1831 4219 
Q 1534 4219 1204 4116 
Q 875 4013 500 3803 
L 500 4441 
Q 881 4594 1212 4672 
Q 1544 4750 1819 4750 
Q 2544 4750 2975 4387 
Q 3406 4025 3406 3419 
Q 3406 3131 3298 2873 
Q 3191 2616 2906 2266 
Q 2828 2175 2409 1742 
Q 1991 1309 1228 531 
z
" transform="scale(0.015625)"/>
       </defs>
       <use xlink:href="#DejaVuSans-2212"/>
       <use xlink:href="#DejaVuSans-32" x="83.789062"/>
       <use xlink:href="#DejaVuSans-2e" x="147.412109"/>
       <use xlink:href="#DejaVuSans-35" x="179.199219"/>
      </g>
     </g>
    </g>
    <g id="xtick_3">
     <g id="line2d_3">
      <g>
       <use xlink:href="#m583f4c55a8" x="138.763636" y="307.584" style="stroke: #000000; stroke-width: 0.8"/>
      </g>
     </g>
     <g id="text_3">
      <!-- 0.0 -->
      <g transform="translate(130.812074 322.182437) scale(0.1 -0.1)">
       <use xlink:href="#DejaVuSans-30"/>
       <use xlink:href="#DejaVuSans-2e" x="63.623047"/>
       <use xlink:href="#DejaVuSans-30" x="95.410156"/>
      </g>
     </g>
    </g>
    <g id="xtick_4">
     <g id="line2d_4">
      <g>
       <use xlink:href="#m583f4c55a8" x="175.656198" y="307.584" style="stroke: #000000; stroke-width: 0.8"/>
      </g>
     </g>
     <g id="text_4">
      <!-- 2.5 -->
      <g transform="translate(167.704636 322.182437) scale(0.1 -0.1)">
       <use xlink:href="#DejaVuSans-32"/>
       <use xlink:href="#DejaVuSans-2e" x="63.623047"/>
       <use xlink:href="#DejaVuSans-35" x="95.410156"/>
      </g>
     </g>
    </g>
    <g id="xtick_5">
     <g id="line2d_5">
      <g>
       <use xlink:href="#m583f4c55a8" x="212.54876" y="307.584" style="stroke: #000000; stroke-width: 0.8"/>
      </g>
     </g>
     <g id="text_5">
      <!-- 5.0 -->
      <g transform="translate(204.597198 322.182437) scale(0.1 -0.1)">
       <use xlink:href="#DejaVuSans-35"/>
       <use xlink:href="#DejaVuSans-2e" x="63.623047"/>
       <use xlink:href="#DejaVuSans-30" x="95.410156"/>
      </g>
     </g>
    </g>
   </g>
   <g id="matplotlib.axis_2">
    <g id="ytick_1">
     <g id="line2d_6">
      <defs>
       <path id="m1e792c5ab7" d="M 0 0 
L -3.5 0 
" style="stroke: #000000; stroke-width: 0.8"/>
      </defs>
      <g>
       <use xlink:href="#m1e792c5ab7" x="57.6" y="271.296" style="stroke: #000000; stroke-width: 0.8"/>
      </g>
     </g>
     <g id="text_6">
      <!-- −4 -->
      <g transform="translate(35.857813 275.095219) scale(0.1 -0.1)">
       <defs>
        <path id="DejaVuSans-34" d="M 2419 4116 
L 825 1625 
L 2419 1625 
L 2419 4116 
z
M 2253 4666 
L 3047 4666 
L 3047 1625 
L 3713 1625 
L 3713 1100 
L 3047 1100 
L 3047 0 
L 2419 0 
L 2419 1100 
L 313 1100 
L 313 1709 
L 2253 4666 
z
" transform="scale(0.015625)"/>
       </defs>
       <use xlink:href="#DejaVuSans-2212"/>
       <use xlink:href="#DejaVuSans-34" x="83.789062"/>
      </g>
     </g>
    </g>
    <g id="ytick_2">
     <g id="line2d_7">
      <g>
       <use xlink:href="#m1e792c5ab7" x="57.6" y="222.912" style="stroke: #000000; stroke-width: 0.8"/>
      </g>
     </g>
     <g id="text_7">
      <!-- −2 -->
      <g transform="translate(35.857813 226.711219) scale(0.1 -0.1)">
       <use xlink:href="#DejaVuSans-2212"/>
       <use xlink:href="#DejaVuSans-32" x="83.789062"/>
      </g>
     </g>
    </g>
    <g id="ytick_3">
     <g id="line2d_8">
      <g>
       <use xlink:href="#m1e792c5ab7" x="57.6" y="174.528" style="stroke: #000000; stroke-width: 0.8"/>
      </g>
     </g>
     <g id="text_8">
      <!-- 0 -->
      <g transform="translate(44.2375 178.327219) scale(0.1 -0.1)">
       <use xlink:href="#DejaVuSans-30"/>
      </g>
     </g>
    </g>
    <g id="ytick_4">
     <g id="line2d_9">
      <g>
       <use xlink:href="#m1e792c5ab7" x="57.6" y="126.144" style="stroke: #000000; stroke-width: 0.8"/>
      </g>
     </g>
     <g id="text_9">
      <!-- 2 -->
      <g transform="translate(44.2375 129.943219) scale(0.1 -0.1)">
       <use xlink:href="#DejaVuSans-32"/>
      </g>
     </g>
    </g>
    <g id="ytick_5">
     <g id="line2d_10">
      <g>
       <use xlink:href="#m1e792c5ab7" x="57.6" y="77.76" style="stroke: #000000; stroke-width: 0.8"/>
      </g>
     </g>
     <g id="text_10">
      <!-- 4 -->
      <g transform="translate(44.2375 81.559219) scale(0.1 -0.1)">
       <use xlink:href="#DejaVuSans-34"/>
      </g>
     </g>
    </g>
   </g>
   <g id="patch_3">
    <path d="M 57.6 307.584 
L 57.6 41.472 
" style="fill: none; stroke: #000000; stroke-width: 0.8; stroke-linejoin: miter; stroke-linecap: square"/>
   </g>
   <g id="patch_4">
    <path d="M 219.927273 307.584 
L 219.927273 41.472 
" style="fill: none; stroke: #000000; stroke-width: 0.8; stroke-linejoin: miter; stroke-linecap: square"/>
   </g>
   <g id="patch_5">
    <path d="M 57.6 307.584 
L 219.927273 307.584 
" style="fill: none; stroke: #000000; stroke-width: 0.8; stroke-linejoin: miter; stroke-linecap: square"/>
   </g>
   <g id="patch_6">
    <path d="M 57.6 41.472 
L 219.927273 41.472 
" style="fill: none; stroke: #000000; stroke-width: 0.8; stroke-linejoin: miter; stroke-linecap: square"/>
   </g>
  </g>
  <g id="axes_2">
   <g id="patch_7">
    <path d="M 252.392727 307.584 
L 414.72 307.584 
L 414.72 41.472 
L 252.392727 41.472 
z
" style="fill: #ffffff"/>
   </g>
   <g id="matplotlib.axis_3">
    <g id="xtick_6">
     <g id="line2d_11">
      <g>
       <use xlink:href="#m583f4c55a8" x="252.392727" y="307.584" style="stroke: #000000; stroke-width: 0.8"/>
      </g>
     </g>
     <g id="text_11">
      <!-- −0.5 -->
      <g transform="translate(240.251321 322.182437) scale(0.1 -0.1)">
       <use xlink:href="#DejaVuSans-2212"/>
       <use xlink:href="#DejaVuSans-30" x="83.789062"/>
       <use xlink:href="#DejaVuSans-2e" x="147.412109"/>
       <use xlink:href="#DejaVuSans-35" x="179.199219"/>
      </g>
     </g>
    </g>
    <g id="xtick_7">
     <g id="line2d_12">
      <g>
       <use xlink:href="#m583f4c55a8" x="292.974545" y="307.584" style="stroke: #000000; stroke-width: 0.8"/>
      </g>
     </g>
     <g id="text_12">
      <!-- 0.0 -->
      <g transform="translate(285.022983 322.182437) scale(0.1 -0.1)">
       <use xlink:href="#DejaVuSans-30"/>
       <use xlink:href="#DejaVuSans-2e" x="63.623047"/>
       <use xlink:href="#DejaVuSans-30" x="95.410156"/>
      </g>
     </g>
    </g>
    <g id="xtick_8">
     <g id="line2d_13">
      <g>
       <use xlink:href="#m583f4c55a8" x="333.556364" y="307.584" style="stroke: #000000; stroke-width: 0.8"/>
      </g>
     </g>
     <g id="text_13">
      <!-- 0.5 -->
      <g transform="translate(325.604801 322.182437) scale(0.1 -0.1)">
       <use xlink:href="#DejaVuSans-30"/>
       <use xlink:href="#DejaVuSans-2e" x="63.623047"/>
       <use xlink:href="#DejaVuSans-35" x="95.410156"/>
      </g>
     </g>
    </g>
    <g id="xtick_9">
     <g id="line2d_14">
      <g>
       <use xlink:href="#m583f4c55a8" x="374.138182" y="307.584" style="stroke: #000000; stroke-width: 0.8"/>
      </g>
     </g>
     <g id="text_14">
      <!-- 1.0 -->
      <g transform="translate(366.186619 322.182437) scale(0.1 -0.1)">
       <defs>
        <path id="DejaVuSans-31" d="M 794 531 
L 1825 531 
L 1825 4091 
L 703 3866 
L 703 4441 
L 1819 4666 
L 2450 4666 
L 2450 531 
L 3481 531 
L 3481 0 
L 794 0 
L 794 531 
z
" transform="scale(0.015625)"/>
       </defs>
       <use xlink:href="#DejaVuSans-31"/>
       <use xlink:href="#DejaVuSans-2e" x="63.623047"/>
       <use xlink:href="#DejaVuSans-30" x="95.410156"/>
      </g>
     </g>
    </g>
    <g id="xtick_10">
     <g id="line2d_15">
      <g>
       <use xlink:href="#m583f4c55a8" x="414.72" y="307.584" style="stroke: #000000; stroke-width: 0.8"/>
      </g>
     </g>
     <g id="text_15">
      <!-- 1.5 -->
      <g transform="translate(406.768437 322.182437) scale(0.1 -0.1)">
       <use xlink:href="#DejaVuSans-31"/>
       <use xlink:href="#DejaVuSans-2e" x="63.623047"/>
       <use xlink:href="#DejaVuSans-35" x="95.410156"/>
      </g>
     </g>
    </g>
   </g>
   <g id="matplotlib.axis_4">
    <g id="ytick_6">
     <g id="line2d_16">
      <g>
       <use xlink:href="#m1e792c5ab7" x="252.392727" y="283.392" style="stroke: #000000; stroke-width: 0.8"/>
      </g>
     </g>
     <g id="text_16">
      <!-- 0 -->
      <g transform="translate(239.030227 287.191219) scale(0.1 -0.1)">
       <use xlink:href="#DejaVuSans-30"/>
      </g>
     </g>
    </g>
    <g id="ytick_7">
     <g id="line2d_17">
      <g>
       <use xlink:href="#m1e792c5ab7" x="252.392727" y="235.008" style="stroke: #000000; stroke-width: 0.8"/>
      </g>
     </g>
     <g id="text_17">
      <!-- 10 -->
      <g transform="translate(232.667727 238.807219) scale(0.1 -0.1)">
       <use xlink:href="#DejaVuSans-31"/>
       <use xlink:href="#DejaVuSans-30" x="63.623047"/>
      </g>
     </g>
    </g>
    <g id="ytick_8">
     <g id="line2d_18">
      <g>
       <use xlink:href="#m1e792c5ab7" x="252.392727" y="186.624" style="stroke: #000000; stroke-width: 0.8"/>
      </g>
     </g>
     <g id="text_18">
      <!-- 20 -->
      <g transform="translate(232.667727 190.423219) scale(0.1 -0.1)">
       <use xlink:href="#DejaVuSans-32"/>
       <use xlink:href="#DejaVuSans-30" x="63.623047"/>
      </g>
     </g>
    </g>
    <g id="ytick_9">
     <g id="line2d_19">
      <g>
       <use xlink:href="#m1e792c5ab7" x="252.392727" y="138.24" style="stroke: #000000; stroke-width: 0.8"/>
      </g>
     </g>
     <g id="text_19">
      <!-- 30 -->
      <g transform="translate(232.667727 142.039219) scale(0.1 -0.1)">
       <defs>
        <path id="DejaVuSans-33" d="M 2597 2516 
Q 3050 2419 3304 2112 
Q 3559 1806 3559 1356 
Q 3559 666 3084 287 
Q 2609 -91 1734 -91 
Q 1441 -91 1130 -33 
Q 819 25 488 141 
L 488 750 
Q 750 597 1062 519 
Q 1375 441 1716 441 
Q 2309 441 2620 675 
Q 2931 909 2931 1356 
Q 2931 1769 2642 2001 
Q 2353 2234 1838 2234 
L 1294 2234 
L 1294 2753 
L 1863 2753 
Q 2328 2753 2575 2939 
Q 2822 3125 2822 3475 
Q 2822 3834 2567 4026 
Q 2313 4219 1838 4219 
Q 1578 4219 1281 4162 
Q 984 4106 628 3988 
L 628 4550 
Q 988 4650 1302 4700 
Q 1616 4750 1894 4750 
Q 2613 4750 3031 4423 
Q 3450 4097 3450 3541 
Q 3450 3153 3228 2886 
Q 3006 2619 2597 2516 
z
" transform="scale(0.015625)"/>
       </defs>
       <use xlink:href="#DejaVuSans-33"/>
       <use xlink:href="#DejaVuSans-30" x="63.623047"/>
      </g>
     </g>
    </g>
    <g id="ytick_10">
     <g id="line2d_20">
      <g>
       <use xlink:href="#m1e792c5ab7" x="252.392727" y="89.856" style="stroke: #000000; stroke-width: 0.8"/>
      </g>
     </g>
     <g id="text_20">
      <!-- 40 -->
      <g transform="translate(232.667727 93.655219) scale(0.1 -0.1)">
       <use xlink:href="#DejaVuSans-34"/>
       <use xlink:href="#DejaVuSans-30" x="63.623047"/>
      </g>
     </g>
    </g>
    <g id="ytick_11">
     <g id="line2d_21">
      <g>
       <use xlink:href="#m1e792c5ab7" x="252.392727" y="41.472" style="stroke: #000000; stroke-width: 0.8"/>
      </g>
     </g>
     <g id="text_21">
      <!-- 50 -->
      <g transform="translate(232.667727 45.271219) scale(0.1 -0.1)">
       <use xlink:href="#DejaVuSans-35"/>
       <use xlink:href="#DejaVuSans-30" x="63.623047"/>
      </g>
     </g>
    </g>
   </g>
   <g id="line2d_22">
    <path d="M 293.055709 283.392 
L 374.138182 283.392 
L 374.138182 283.392 
" clip-path="url(#p785ffc670c)" style="fill: none; stroke: #1f77b4; stroke-width: 1.5; stroke-linecap: square"/>
   </g>
   <g id="line2d_23">
    <path d="M 293.055709 179.894444 
L 293.2992 227.419976 
L 293.623855 242.230474 
L 294.029673 250.202776 
L 294.516655 255.342917 
L 295.0848 258.984823 
L 295.734109 261.722051 
L 296.464582 263.865034 
L 297.276218 265.594054 
L 298.250182 267.133997 
L 299.305309 268.39662 
L 300.522764 269.52169 
L 301.983709 270.568264 
L 303.688145 271.516618 
L 305.7984 272.426592 
L 308.314473 273.263959 
L 311.479855 274.072352 
L 315.375709 274.829355 
L 320.326691 275.554905 
L 326.657455 276.246003 
L 334.773818 276.898346 
L 345.406255 277.519183 
L 359.447564 278.105691 
L 374.138182 278.5536 
L 374.138182 278.5536 
" clip-path="url(#p785ffc670c)" style="fill: none; stroke: #ff7f0e; stroke-width: 1.5; stroke-linecap: square"/>
   </g>
   <g id="line2d_24">
    <path d="M 293.055709 76.396888 
L 293.2992 171.447952 
L 293.623855 201.068948 
L 294.029673 217.013552 
L 294.516655 227.293833 
L 295.0848 234.577646 
L 295.734109 240.052103 
L 296.464582 244.338069 
L 297.276218 247.796107 
L 298.169018 250.651686 
L 299.142982 253.053816 
L 300.279273 255.245104 
L 301.496727 257.104719 
L 302.876509 258.796908 
L 304.418618 260.325801 
L 306.123055 261.702963 
L 308.070982 262.991697 
L 310.343564 264.221536 
L 312.9408 265.370253 
L 316.025018 266.482313 
L 319.596218 267.528542 
L 323.897891 268.54791 
L 329.0112 269.521712 
L 335.179636 270.460212 
L 342.646691 271.361375 
L 351.737018 272.225296 
L 362.856436 273.051251 
L 374.138182 273.7152 
L 374.138182 273.7152 
" clip-path="url(#p785ffc670c)" style="fill: none; stroke: #2ca02c; stroke-width: 1.5; stroke-linecap: square"/>
   </g>
   <g id="line2d_25">
    <path d="M 293.081494 -1 
L 293.2992 115.475928 
L 293.623855 159.907422 
L 294.029673 183.824329 
L 294.516655 199.24475 
L 295.0848 210.170469 
L 295.734109 218.382154 
L 296.464582 224.811103 
L 297.276218 229.998161 
L 298.169018 234.281529 
L 299.142982 237.884724 
L 300.198109 240.961963 
L 301.3344 243.623398 
L 302.633018 246.089819 
L 304.0128 248.234333 
L 305.554909 250.214963 
L 307.259345 252.032449 
L 309.126109 253.694616 
L 311.236364 255.268368 
L 313.590109 256.740272 
L 316.268509 258.145376 
L 319.271564 259.466998 
L 322.7616 260.753158 
L 326.738618 261.976874 
L 331.364945 263.16215 
L 336.721745 264.300542 
L 343.052509 265.411053 
L 350.4384 266.475142 
L 359.204073 267.507248 
L 369.674182 268.508098 
L 374.138182 268.8768 
L 374.138182 268.8768 
" clip-path="url(#p785ffc670c)" style="fill: none; stroke: #d62728; stroke-width: 1.5; stroke-linecap: square"/>
   </g>
   <g id="line2d_26">
    <path d="M 293.169363 -1 
L 293.380364 80.595625 
L 293.705018 127.124038 
L 294.110836 154.926624 
L 294.597818 173.718652 
L 295.165964 187.383457 
L 295.815273 197.819201 
L 296.545745 206.076307 
L 297.357382 212.787833 
L 298.250182 218.359989 
L 299.224145 223.066312 
L 300.279273 227.098208 
L 301.415564 230.59388 
L 302.633018 233.655758 
L 304.0128 236.51511 
L 305.473745 239.028812 
L 307.097018 241.366838 
L 308.801455 243.43737 
L 310.668218 245.364621 
L 312.778473 247.217803 
L 315.051055 248.918987 
L 317.648291 250.5779 
L 320.489018 252.12576 
L 323.735564 253.634454 
L 327.387927 255.07865 
L 331.527273 256.469284 
L 336.234764 257.810059 
L 341.591564 259.100585 
L 347.76 260.353719 
L 354.9024 261.572164 
L 363.181091 262.752964 
L 372.839564 263.899488 
L 374.138182 264.0384 
L 374.138182 264.0384 
" clip-path="url(#p785ffc670c)" style="fill: none; stroke: #9467bd; stroke-width: 1.5; stroke-linecap: square"/>
   </g>
   <g id="line2d_27">
    <path d="M 293.28954 -1 
L 293.461527 49.583396 
L 293.786182 96.972792 
L 294.192 127.648428 
L 294.678982 149.234307 
L 295.247127 165.301064 
L 295.896436 177.753828 
L 296.626909 187.705634 
L 297.438545 195.851938 
L 298.331345 202.65044 
L 299.305309 208.415099 
L 300.360436 213.368688 
L 301.496727 217.673797 
L 302.714182 221.451957 
L 304.0128 224.795888 
L 305.473745 227.938015 
L 307.015855 230.726122 
L 308.720291 233.334724 
L 310.505891 235.663118 
L 312.453818 237.841625 
L 314.564073 239.872421 
L 316.917818 241.824137 
L 319.515055 243.679623 
L 322.355782 245.430395 
L 325.521164 247.11417 
L 329.0112 248.716279 
L 332.907055 250.25926 
L 337.289891 251.754436 
L 342.240873 253.205834 
L 347.841164 254.613045 
L 354.253091 255.989433 
L 361.557818 257.324211 
L 369.917673 258.620336 
L 374.138182 259.2 
L 374.138182 259.2 
" clip-path="url(#p785ffc670c)" style="fill: none; stroke: #8c564b; stroke-width: 1.5; stroke-linecap: square"/>
   </g>
   <g id="line2d_28">
    <path d="M 293.448397 -1 
L 293.705018 48.990057 
L 294.110836 90.693935 
L 294.597818 118.881978 
L 295.165964 139.379186 
L 295.815273 155.032802 
L 296.545745 167.418461 
L 297.357382 177.485749 
L 298.250182 185.843983 
L 299.224145 192.903467 
L 300.279273 198.951312 
L 301.415564 204.19482 
L 302.633018 208.787637 
L 303.931636 212.846188 
L 305.311418 216.460386 
L 306.853527 219.866252 
L 308.4768 222.906731 
L 310.181236 225.640661 
L 312.048 228.21889 
L 314.077091 230.637518 
L 316.268509 232.898752 
L 318.622255 235.008588 
L 321.219491 237.034382 
L 324.060218 238.962992 
L 327.144436 240.788048 
L 330.553309 242.547125 
L 334.368 244.261161 
L 338.588509 245.910039 
L 343.296 247.507367 
L 348.571636 249.059188 
L 354.496582 250.56669 
L 361.233164 252.044769 
L 368.781382 253.469251 
L 374.138182 254.3616 
L 374.138182 254.3616 
" clip-path="url(#p785ffc670c)" style="fill: none; stroke: #e377c2; stroke-width: 1.5; stroke-linecap: square"/>
   </g>
   <g id="line2d_29">
    <path d="M 293.644551 -1 
L 294.029673 51.067434 
L 294.516655 87.048416 
L 295.0848 112.54176 
L 295.734109 131.702359 
L 296.464582 146.703241 
L 297.276218 158.806375 
L 298.169018 168.800902 
L 299.142982 177.208355 
L 300.198109 184.388579 
L 301.3344 190.598596 
L 302.551855 196.02728 
L 303.850473 200.816772 
L 305.230255 205.076237 
L 306.6912 208.890994 
L 308.314473 212.495715 
L 310.018909 215.73166 
L 311.804509 218.655617 
L 313.752436 221.42053 
L 315.862691 224.022342 
L 318.135273 226.462832 
L 320.570182 228.747497 
L 323.167418 230.884043 
L 326.008145 232.936405 
L 329.173527 234.94264 
L 332.5824 236.837957 
L 336.397091 238.697889 
L 340.536436 240.466417 
L 345.162764 242.197345 
L 350.276073 243.869789 
L 355.957527 245.492266 
L 362.369455 247.08698 
L 369.511855 248.630255 
L 374.138182 249.5232 
L 374.138182 249.5232 
" clip-path="url(#p785ffc670c)" style="fill: none; stroke: #7f7f7f; stroke-width: 1.5; stroke-linecap: square"/>
   </g>
   <g id="line2d_30">
    <path d="M 293.878866 -1 
L 294.354327 47.655184 
L 294.922473 81.08012 
L 295.571782 105.309038 
L 296.302255 123.842116 
L 297.113891 138.559061 
L 298.006691 150.574077 
L 298.980655 160.595754 
L 300.035782 169.099184 
L 301.172073 176.416319 
L 302.389527 182.786918 
L 303.688145 188.388943 
L 305.067927 193.357538 
L 306.528873 197.797352 
L 308.070982 201.790787 
L 309.694255 205.40369 
L 311.479855 208.834814 
L 313.346618 211.945313 
L 315.375709 214.890836 
L 317.567127 217.667848 
L 319.839709 220.193822 
L 322.355782 222.653433 
L 325.034182 224.958162 
L 327.956073 227.174959 
L 331.121455 229.293321 
L 334.530327 231.308016 
L 338.263855 233.257517 
L 342.4032 235.16453 
L 346.948364 237.009483 
L 351.980509 238.807007 
L 357.499636 240.540117 
L 363.668073 242.240253 
L 370.566982 243.904748 
L 374.138182 244.6848 
L 374.138182 244.6848 
" clip-path="url(#p785ffc670c)" style="fill: none; stroke: #bcbd22; stroke-width: 1.5; stroke-linecap: square"/>
   </g>
   <g id="line2d_31">
    <path d="M 294.154221 -1 
L 294.597818 36.626966 
L 295.165964 67.372778 
L 295.815273 90.853203 
L 296.545745 109.431691 
L 297.357382 124.532623 
L 298.250182 137.069974 
L 299.224145 147.659201 
L 300.279273 156.730967 
L 301.415564 164.59623 
L 302.633018 171.485456 
L 303.931636 177.573282 
L 305.311418 182.994579 
L 306.772364 187.855243 
L 308.314473 192.239634 
L 309.937745 196.21582 
L 311.723345 199.999934 
L 313.590109 203.436816 
L 315.6192 206.696725 
L 317.729455 209.66771 
L 320.002036 212.48371 
L 322.436945 215.144643 
L 325.034182 217.653932 
L 327.874909 220.082654 
L 330.877964 222.357935 
L 334.124509 224.541991 
L 337.695709 226.674105 
L 341.591564 228.736317 
L 345.812073 230.717038 
L 350.4384 232.641427 
L 355.551709 234.523902 
L 361.152 236.346341 
L 367.4016 238.140803 
L 374.138182 239.8464 
L 374.138182 239.8464 
" clip-path="url(#p785ffc670c)" style="fill: none; stroke: #17becf; stroke-width: 1.5; stroke-linecap: square"/>
   </g>
   <g id="patch_8">
    <path d="M 252.392727 307.584 
L 252.392727 41.472 
" style="fill: none; stroke: #000000; stroke-width: 0.8; stroke-linejoin: miter; stroke-linecap: square"/>
   </g>
   <g id="patch_9">
    <path d="M 414.72 307.584 
L 414.72 41.472 
" style="fill: none; stroke: #000000; stroke-width: 0.8; stroke-linejoin: miter; stroke-linecap: square"/>
   </g>
   <g id="patch_10">
    <path d="M 252.392727 307.584 
L 414.72 307.584 
" style="fill: none; stroke: #000000; stroke-width: 0.8; stroke-linejoin: miter; stroke-linecap: square"/>
   </g>
   <g id="patch_11">
    <path d="M 252.392727 41.472 
L 414.72 41.472 
" style="fill: none; stroke: #000000; stroke-width: 0.8; stroke-linejoin: miter; stroke-linecap: square"/>
   </g>
  </g>
  <g id="text_22">
   <!-- t = 0.5 -->
   <g transform="translate(209.664375 16.030125) scale(0.12 -0.12)">
    <defs>
     <path id="DejaVuSans-74" d="M 1172 4494 
L 1172 3500 
L 2356 3500 
L 2356 3053 
L 1172 3053 
L 1172 1153 
Q 1172 725 1289 603 
Q 1406 481 1766 481 
L 2356 481 
L 2356 0 
L 1766 0 
Q 1100 0 847 248 
Q 594 497 594 1153 
L 594 3053 
L 172 3053 
L 172 3500 
L 594 3500 
L 594 4494 
L 1172 4494 
z
" transform="scale(0.015625)"/>
     <path id="DejaVuSans-20" transform="scale(0.015625)"/>
     <path id="DejaVuSans-3d" d="M 678 2906 
L 4684 2906 
L 4684 2381 
L 678 2381 
L 678 2906 
z
M 678 1631 
L 4684 1631 
L 4684 1100 
L 678 1100 
L 678 1631 
z
" transform="scale(0.015625)"/>
    </defs>
    <use xlink:href="#DejaVuSans-74"/>
    <use xlink:href="#DejaVuSans-20" x="39.208984"/>
    <use xlink:href="#DejaVuSans-3d" x="70.996094"/>
    <use xlink:href="#DejaVuSans-20" x="154.785156"/>
    <use xlink:href="#DejaVuSans-30" x="186.572266"/>
    <use xlink:href="#DejaVuSans-2e" x="250.195312"/>
    <use xlink:href="#DejaVuSans-35" x="281.982422"/>
   </g>
  </g>
 </g>
 <defs>
  <clipPath id="p708e823dc9">
   <rect x="57.6" y="41.472" width="162.327273" height="266.112"/>
  </clipPath>
  <clipPath id="p785ffc670c">
   <rect x="252.392727" y="41.472" width="162.327273" height="266.112"/>
  </clipPath>
 </defs>
</svg>
