<?xml version="1.0" encoding="utf-8" standalone="no"?>
<!DOCTYPE svg PUBLIC "-//W3C//DTD SVG 1.1//EN"
  "http://www.w3.org/Graphics/SVG/1.1/DTD/svg11.dtd">
<svg xmlns:xlink="http://www.w3.org/1999/xlink" width="460.8pt" height="345.6pt" viewBox="0 0 460.8 345.6" xmlns="http://www.w3.org/2000/svg" version="1.1">
 <metadata>
  <rdf:RDF xmlns:dc="http://purl.org/dc/elements/1.1/" xmlns:cc="http://creativecommons.org/ns#" xmlns:rdf="http://www.w3.org/1999/02/22-rdf-syntax-ns#">
   <cc:Work>
    <dc:type rdf:resource="http://purl.org/dc/dcmitype/StillImage"/>
    <dc:date>2023-01-17T23:39:01.786178</dc:date>
    <dc:format>image/svg+xml</dc:format>
    <dc:creator>
     <cc:Agent>
      <dc:title>Matplotlib v3.6.3, https://matplotlib.org/</dc:title>
     </cc:Agent>
    </dc:creator>
   </cc:Work>
  </rdf:RDF>
 </metadata>
 <defs>
  <style type="text/css">*{stroke-linejoin: round; stroke-linecap: butt}</style>
 </defs>
 <g id="figure_1">
  <g id="patch_1">
   <path d="M 0 345.6 
L 460.8 345.6 
L 460.8 0 
L 0 0 
z
" style="fill: #ffffff"/>
  </g>
  <g id="axes_1">
   <g id="patch_2">
    <path d="M 57.6 307.584 
L 219.927273 307.584 
L 219.927273 41.472 
L 57.6 41.472 
z
" style="fill: #ffffff"/>
   </g>
   <g id="Quiver_1">
    <path d="M 65.219276 295.116482 
L 73.576513 300.532425 
L 73.686523 299.548626 
L 76.679411 303.070817 
L 72.24194 301.777733 
L 73.094986 301.275461 
L 64.737749 295.859518 
L 65.219276 295.116482 
" clip-path="url(#pa14603dddf)"/>
    <path d="M 80.014203 295.143997 
L 86.278894 300.218822 
L 86.492223 299.25215 
L 89.096256 303.070817 
L 84.820227 301.316168 
L 85.721562 300.906828 
L 79.456871 295.832003 
L 80.014203 295.143997 
" clip-path="url(#pa14603dddf)"/>
    <path d="M 94.817418 295.187232 
L 99.131048 299.846343 
L 99.479993 298.919952 
L 101.513101 303.070817 
L 97.530856 300.724558 
L 98.481336 300.447878 
L 94.167706 295.788768 
L 94.817418 295.187232 
" clip-path="url(#pa14603dddf)"/>
    <path d="M 109.626314 295.255472 
L 112.21392 299.447744 
L 112.734846 298.60596 
L 113.929946 303.070817 
L 110.474482 300.001129 
L 111.460465 299.9128 
L 108.87286 295.720528 
L 109.626314 295.255472 
" clip-path="url(#pa14603dddf)"/>
    <path d="M 124.429635 295.357448 
L 125.594848 299.133053 
L 126.310343 298.448925 
L 126.346791 303.070817 
L 123.772201 299.232237 
L 124.7488 299.394157 
L 123.583588 295.618552 
L 124.429635 295.357448 
" clip-path="url(#pa14603dddf)"/>
    <path d="M 139.206347 295.488 
L 139.206347 299.086421 
L 140.091769 298.64371 
L 138.763636 303.070817 
L 137.435504 298.64371 
L 138.320926 299.086421 
L 138.320926 295.488 
L 139.206347 295.488 
" clip-path="url(#pa14603dddf)"/>
    <path d="M 153.943685 295.618552 
L 152.778472 299.394157 
L 153.755071 299.232237 
L 151.180481 303.070817 
L 151.21693 298.448925 
L 151.932425 299.133053 
L 153.097638 295.357448 
L 153.943685 295.618552 
" clip-path="url(#pa14603dddf)"/>
    <path d="M 168.654413 295.720528 
L 166.066808 299.9128 
L 167.05279 300.001129 
L 163.597326 303.070817 
L 164.792427 298.60596 
L 165.313353 299.447744 
L 167.900959 295.255472 
L 168.654413 295.720528 
" clip-path="url(#pa14603dddf)"/>
    <path d="M 183.359567 295.788768 
L 179.045937 300.447878 
L 179.996417 300.724558 
L 176.014171 303.070817 
L 178.047279 298.919952 
L 178.396224 299.846343 
L 182.709854 295.187232 
L 183.359567 295.788768 
" clip-path="url(#pa14603dddf)"/>
    <path d="M 198.070401 295.832003 
L 191.80571 300.906828 
L 192.707045 301.316168 
L 188.431017 303.070817 
L 191.03505 299.25215 
L 191.248379 300.218822 
L 197.51307 295.143997 
L 198.070401 295.832003 
" clip-path="url(#pa14603dddf)"/>
    <path d="M 212.789524 295.859518 
L 204.432287 301.275461 
L 205.285333 301.777733 
L 200.847862 303.070817 
L 203.84075 299.548626 
L 203.950759 300.532425 
L 212.307997 295.116482 
L 212.789524 295.859518 
" clip-path="url(#pa14603dddf)"/>
    <path d="M 65.182276 270.902969 
L 73.3459 275.135347 
L 73.360398 274.145521 
L 76.679411 277.362254 
L 72.137814 276.503705 
L 72.938372 275.921408 
L 64.774748 271.689031 
L 65.182276 270.902969 
" clip-path="url(#pa14603dddf)"/>
    <path d="M 79.976301 270.924482 
L 85.993358 274.823862 
L 86.103368 273.840062 
L 89.096256 277.362254 
L 84.658785 276.06917 
L 85.511831 275.566898 
L 79.494773 271.667518 
L 79.976301 270.924482 
" clip-path="url(#pa14603dddf)"/>
    <path d="M 94.78201 270.961019 
L 98.787717 274.422239 
L 99.031632 273.462828 
L 101.513101 277.362254 
L 97.294943 275.472716 
L 98.20882 275.092202 
L 94.203114 271.630981 
L 94.78201 270.961019 
" clip-path="url(#pa14603dddf)"/>
    <path d="M 109.600098 271.025566 
L 111.846554 273.937216 
L 112.277143 273.045837 
L 113.929946 277.362254 
L 110.174074 274.66844 
L 111.14553 274.478084 
L 108.899075 271.566434 
L 109.600098 271.025566 
" clip-path="url(#pa14603dddf)"/>
    <path d="M 124.419654 271.136661 
L 125.32578 273.485536 
L 125.992524 272.753815 
L 126.346791 277.362254 
L 123.514272 273.709851 
L 124.499695 273.804214 
L 123.593569 271.455339 
L 124.419654 271.136661 
" clip-path="url(#pa14603dddf)"/>
    <path d="M 139.206347 271.296 
L 139.206347 273.377857 
L 140.091769 272.935147 
L 138.763636 277.362254 
L 137.435504 272.935147 
L 138.320926 273.377857 
L 138.320926 271.296 
L 139.206347 271.296 
" clip-path="url(#pa14603dddf)"/>
    <path d="M 153.933703 271.455339 
L 153.027577 273.804214 
L 154.013001 273.709851 
L 151.180481 277.362254 
L 151.534748 272.753815 
L 152.201493 273.485536 
L 153.107619 271.136661 
L 153.933703 271.455339 
" clip-path="url(#pa14603dddf)"/>
    <path d="M 168.628198 271.566434 
L 166.381742 274.478084 
L 167.353199 274.66844 
L 163.597326 277.362254 
L 165.25013 273.045837 
L 165.680719 273.937216 
L 167.927174 271.025566 
L 168.628198 271.566434 
" clip-path="url(#pa14603dddf)"/>
    <path d="M 183.324159 271.630981 
L 179.318452 275.092202 
L 180.23233 275.472716 
L 176.014171 277.362254 
L 178.495641 273.462828 
L 178.739556 274.422239 
L 182.745263 270.961019 
L 183.324159 271.630981 
" clip-path="url(#pa14603dddf)"/>
    <path d="M 198.032499 271.667518 
L 192.015442 275.566898 
L 192.868488 276.06917 
L 188.431017 277.362254 
L 191.423905 273.840062 
L 191.533914 274.823862 
L 197.550972 270.924482 
L 198.032499 271.667518 
" clip-path="url(#pa14603dddf)"/>
    <path d="M 212.752524 271.689031 
L 204.5889 275.921408 
L 205.389459 276.503705 
L 200.847862 277.362254 
L 204.166875 274.145521 
L 204.181372 275.135347 
L 212.344996 270.902969 
L 212.752524 271.689031 
" clip-path="url(#pa14603dddf)"/>
    <path d="M 65.138951 246.691384 
L 73.126303 249.797126 
L 73.034564 248.811455 
L 76.679411 251.65369 
L 72.071932 251.287153 
L 72.805426 250.622359 
L 64.818074 247.516616 
L 65.138951 246.691384 
" clip-path="url(#pa14603dddf)"/>
    <path d="M 79.929064 246.705829 
L 85.706246 249.513775 
L 85.69513 248.523906 
L 89.096256 251.65369 
L 84.533966 250.912931 
L 85.319191 250.310116 
L 79.54201 247.502171 
L 79.929064 246.705829 
" clip-path="url(#pa14603dddf)"/>
    <path d="M 94.733326 246.732482 
L 98.410203 249.115298 
L 98.520213 248.131499 
L 101.513101 251.65369 
L 97.07563 250.360606 
L 97.928676 249.858334 
L 94.251798 247.475518 
L 94.733326 246.732482 
" clip-path="url(#pa14603dddf)"/>
    <path d="M 109.558168 246.786556 
L 111.381534 248.559017 
L 111.681253 247.615548 
L 113.929946 251.65369 
L 109.829766 249.52021 
L 110.764372 249.193904 
L 108.941006 247.421444 
L 109.558168 246.786556 
" clip-path="url(#pa14603dddf)"/>
    <path d="M 124.400297 246.901504 
L 124.918012 247.908026 
L 125.502887 247.109349 
L 126.346791 251.65369 
L 123.140775 248.324325 
L 124.130641 248.313019 
L 123.612926 247.306496 
L 124.400297 246.901504 
" clip-path="url(#pa14603dddf)"/>
    <path d="M 139.206347 247.104 
L 139.206347 247.669294 
L 140.091769 247.226583 
L 138.763636 251.65369 
L 137.435504 247.226583 
L 138.320926 247.669294 
L 138.320926 247.104 
L 139.206347 247.104 
" clip-path="url(#pa14603dddf)"/>
    <path d="M 153.914346 247.306496 
L 153.396631 248.313019 
L 154.386498 248.324325 
L 151.180481 251.65369 
L 152.024386 247.109349 
L 152.609261 247.908026 
L 153.126976 246.901504 
L 153.914346 247.306496 
" clip-path="url(#pa14603dddf)"/>
    <path d="M 168.586267 247.421444 
L 166.762901 249.193904 
L 167.697507 249.52021 
L 163.597326 251.65369 
L 165.84602 247.615548 
L 166.145739 248.559017 
L 167.969105 246.786556 
L 168.586267 247.421444 
" clip-path="url(#pa14603dddf)"/>
    <path d="M 183.275475 247.475518 
L 179.598597 249.858334 
L 180.451642 250.360606 
L 176.014171 251.65369 
L 179.00706 248.131499 
L 179.117069 249.115298 
L 182.793947 246.732482 
L 183.275475 247.475518 
" clip-path="url(#pa14603dddf)"/>
    <path d="M 197.985263 247.502171 
L 192.208081 250.310116 
L 192.993307 250.912931 
L 188.431017 251.65369 
L 191.832143 248.523906 
L 191.821027 249.513775 
L 197.598208 246.705829 
L 197.985263 247.502171 
" clip-path="url(#pa14603dddf)"/>
    <path d="M 212.709199 247.516616 
L 204.721847 250.622359 
L 205.455341 251.287153 
L 200.847862 251.65369 
L 204.492709 248.811455 
L 204.40097 249.797126 
L 212.388322 246.691384 
L 212.709199 247.516616 
" clip-path="url(#pa14603dddf)"/>
    <path d="M 65.089601 222.483453 
L 72.933581 224.516783 
L 72.727211 223.548602 
L 76.679411 225.945127 
L 72.06068 226.119881 
L 72.711404 225.373876 
L 64.867424 223.340547 
L 65.089601 222.483453 
" clip-path="url(#pa14603dddf)"/>
    <path d="M 79.872002 222.490847 
L 85.442342 224.295788 
L 85.294119 223.317016 
L 89.096256 225.945127 
L 84.475328 225.843936 
L 85.169412 225.138094 
L 79.599072 223.333153 
L 79.872002 222.490847 
" clip-path="url(#pa14603dddf)"/>
    <path d="M 94.668143 222.505596 
L 98.031048 223.958493 
L 97.975807 222.970104 
L 101.513101 225.945127 
L 96.92232 225.408527 
L 97.679886 224.7713 
L 94.316981 223.318404 
L 94.668143 222.505596 
" clip-path="url(#pa14603dddf)"/>
    <path d="M 109.490351 222.540482 
L 110.827048 223.406735 
L 110.937058 222.422935 
L 113.929946 225.945127 
L 109.492475 224.652043 
L 110.345521 224.149771 
L 109.008823 223.283518 
L 109.490351 222.540482 
" clip-path="url(#pa14603dddf)"/>
    <path d="M 124.309924 222.677982 
L 124.543942 222.981295 
L 124.91655 222.209946 
L 126.346791 225.945127 
L 123.096673 223.614054 
L 123.937317 223.449331 
L 123.703299 223.146018 
L 124.309924 222.677982 
" clip-path="url(#pa14603dddf)"/>
    <path d="M 139.066949 222.912 
L 139.066949 223.215313 
L 139.673574 222.912 
L 138.763636 225.945127 
L 137.853698 222.912 
L 138.460324 223.215313 
L 138.460324 222.912 
L 139.066949 222.912 
" clip-path="url(#pa14603dddf)"/>
    <path d="M 153.823974 223.146018 
L 153.589956 223.449331 
L 154.430599 223.614054 
L 151.180481 225.945127 
L 152.610723 222.209946 
L 152.98333 222.981295 
L 153.217348 222.677982 
L 153.823974 223.146018 
" clip-path="url(#pa14603dddf)"/>
    <path d="M 168.51845 223.283518 
L 167.181752 224.149771 
L 168.034797 224.652043 
L 163.597326 225.945127 
L 166.590215 222.422935 
L 166.700224 223.406735 
L 168.036922 222.540482 
L 168.51845 223.283518 
" clip-path="url(#pa14603dddf)"/>
    <path d="M 183.210292 223.318404 
L 179.847387 224.7713 
L 180.604953 225.408527 
L 176.014171 225.945127 
L 179.551466 222.970104 
L 179.496225 223.958493 
L 182.85913 222.505596 
L 183.210292 223.318404 
" clip-path="url(#pa14603dddf)"/>
    <path d="M 197.928201 223.333153 
L 192.357861 225.138094 
L 193.051945 225.843936 
L 188.431017 225.945127 
L 192.233154 223.317016 
L 192.084931 224.295788 
L 197.65527 222.490847 
L 197.928201 223.333153 
" clip-path="url(#pa14603dddf)"/>
    <path d="M 212.659849 223.340547 
L 204.815869 225.373876 
L 205.466593 226.119881 
L 200.847862 225.945127 
L 204.800061 223.548602 
L 204.593692 224.516783 
L 212.437672 222.483453 
L 212.659849 223.340547 
" clip-path="url(#pa14603dddf)"/>
    <path d="M 65.035417 198.280962 
L 72.78497 199.285388 
L 72.45974 198.350407 
L 76.679411 200.236563 
L 72.118315 200.984637 
L 72.671161 200.163465 
L 64.921608 199.159038 
L 65.035417 198.280962 
" clip-path="url(#pa14603dddf)"/>
    <path d="M 79.806339 198.282988 
L 85.233946 199.162334 
L 84.938537 198.217507 
L 89.096256 200.236563 
L 84.513726 200.839581 
L 85.092342 200.036358 
L 79.664735 199.157012 
L 79.806339 198.282988 
" clip-path="url(#pa14603dddf)"/>
    <path d="M 94.586039 198.287271 
L 97.712014 198.962538 
L 97.466239 198.003601 
L 101.513101 200.236563 
L 96.905375 200.599978 
L 97.525059 199.827996 
L 94.399085 199.152729 
L 94.586039 198.287271 
" clip-path="url(#pa14603dddf)"/>
    <path d="M 109.386052 198.298847 
L 110.276032 198.587224 
L 110.127809 197.608453 
L 113.929946 200.236563 
L 109.309018 200.135372 
L 110.003102 199.429531 
L 109.113122 199.141153 
L 109.386052 198.298847 
" clip-path="url(#pa14603dddf)"/>
    <path d="M 124.158268 198.485982 
L 124.392286 198.637638 
L 124.461581 198.017946 
L 126.346791 200.236563 
L 123.551643 199.422054 
L 124.088973 199.105674 
L 123.854955 198.954018 
L 124.158268 198.485982 
" clip-path="url(#pa14603dddf)"/>
    <path d="M 138.915293 198.72 
L 138.915293 198.871656 
L 139.218605 198.72 
L 138.763636 200.236563 
L 138.308667 198.72 
L 138.61198 198.871656 
L 138.61198 198.72 
L 138.915293 198.72 
" clip-path="url(#pa14603dddf)"/>
    <path d="M 153.672318 198.954018 
L 153.4383 199.105674 
L 153.97563 199.422054 
L 151.180481 200.236563 
L 153.065692 198.017946 
L 153.134987 198.637638 
L 153.369005 198.485982 
L 153.672318 198.954018 
" clip-path="url(#pa14603dddf)"/>
    <path d="M 168.414151 199.141153 
L 167.524171 199.429531 
L 168.218254 200.135372 
L 163.597326 200.236563 
L 167.399464 197.608453 
L 167.251241 198.587224 
L 168.141221 198.298847 
L 168.414151 199.141153 
" clip-path="url(#pa14603dddf)"/>
    <path d="M 183.128188 199.152729 
L 180.002214 199.827996 
L 180.621898 200.599978 
L 176.014171 200.236563 
L 180.061034 198.003601 
L 179.815259 198.962538 
L 182.941233 198.287271 
L 183.128188 199.152729 
" clip-path="url(#pa14603dddf)"/>
    <path d="M 197.862537 199.157012 
L 192.434931 200.036358 
L 193.013547 200.839581 
L 188.431017 200.236563 
L 192.588735 198.217507 
L 192.293327 199.162334 
L 197.720934 198.282988 
L 197.862537 199.157012 
" clip-path="url(#pa14603dddf)"/>
    <path d="M 212.605664 199.159038 
L 204.856111 200.163465 
L 205.408958 200.984637 
L 200.847862 200.236563 
L 205.067533 198.350407 
L 204.742303 199.285388 
L 212.491856 198.280962 
L 212.605664 199.159038 
" clip-path="url(#pa14603dddf)"/>
    <path d="M 64.978512 174.085289 
L 72.695014 174.085289 
L 72.252304 173.199868 
L 76.679411 174.528 
L 72.252304 175.856132 
L 72.695014 174.970711 
L 64.978512 174.970711 
L 64.978512 174.085289 
" clip-path="url(#pa14603dddf)"/>
    <path d="M 79.735537 174.085289 
L 85.11186 174.085289 
L 84.669149 173.199868 
L 89.096256 174.528 
L 84.669149 175.856132 
L 85.11186 174.970711 
L 79.735537 174.970711 
L 79.735537 174.085289 
" clip-path="url(#pa14603dddf)"/>
    <path d="M 94.492562 174.085289 
L 97.528705 174.085289 
L 97.085994 173.199868 
L 101.513101 174.528 
L 97.085994 175.856132 
L 97.528705 174.970711 
L 94.492562 174.970711 
L 94.492562 174.085289 
" clip-path="url(#pa14603dddf)"/>
    <path d="M 109.249587 174.085289 
L 109.94555 174.085289 
L 109.502839 173.199868 
L 113.929946 174.528 
L 109.502839 175.856132 
L 109.94555 174.970711 
L 109.249587 174.970711 
L 109.249587 174.085289 
" clip-path="url(#pa14603dddf)"/>
    <path d="M 124.006612 174.293982 
L 124.24063 174.293982 
L 124.006612 173.825946 
L 126.346791 174.528 
L 124.006612 175.230054 
L 124.24063 174.762018 
L 124.006612 174.762018 
L 124.006612 174.293982 
" clip-path="url(#pa14603dddf)"/>
    <path d="M 139.206347 174.528 
L 138.984992 174.144601 
L 138.542281 174.144601 
L 138.320926 174.528 
L 138.542281 174.911399 
L 138.984992 174.911399 
L 139.206347 174.528 
L 138.984992 174.144601 
" clip-path="url(#pa14603dddf)"/>
    <path d="M 153.520661 174.762018 
L 153.286643 174.762018 
L 153.520661 175.230054 
L 151.180481 174.528 
L 153.520661 173.825946 
L 153.286643 174.293982 
L 153.520661 174.293982 
L 153.520661 174.762018 
" clip-path="url(#pa14603dddf)"/>
    <path d="M 168.277686 174.970711 
L 167.581723 174.970711 
L 168.024434 175.856132 
L 163.597326 174.528 
L 168.024434 173.199868 
L 167.581723 174.085289 
L 168.277686 174.085289 
L 168.277686 174.970711 
" clip-path="url(#pa14603dddf)"/>
    <path d="M 183.034711 174.970711 
L 179.998568 174.970711 
L 180.441279 175.856132 
L 176.014171 174.528 
L 180.441279 173.199868 
L 179.998568 174.085289 
L 183.034711 174.085289 
L 183.034711 174.970711 
" clip-path="url(#pa14603dddf)"/>
    <path d="M 197.791736 174.970711 
L 192.415413 174.970711 
L 192.858124 175.856132 
L 188.431017 174.528 
L 192.858124 173.199868 
L 192.415413 174.085289 
L 197.791736 174.085289 
L 197.791736 174.970711 
" clip-path="url(#pa14603dddf)"/>
    <path d="M 212.54876 174.970711 
L 204.832258 174.970711 
L 205.274969 175.856132 
L 200.847862 174.528 
L 205.274969 173.199868 
L 204.832258 174.085289 
L 212.54876 174.085289 
L 212.54876 174.970711 
" clip-path="url(#pa14603dddf)"/>
    <path d="M 64.921608 149.896962 
L 72.671161 148.892535 
L 72.118315 148.071363 
L 76.679411 148.819437 
L 72.45974 150.705593 
L 72.78497 149.770612 
L 65.035417 150.775038 
L 64.921608 149.896962 
" clip-path="url(#pa14603dddf)"/>
    <path d="M 79.664735 149.898988 
L 85.092342 149.019642 
L 84.513726 148.216419 
L 89.096256 148.819437 
L 84.938537 150.838493 
L 85.233946 149.893666 
L 79.806339 150.773012 
L 79.664735 149.898988 
" clip-path="url(#pa14603dddf)"/>
    <path d="M 94.399085 149.903271 
L 97.525059 149.228004 
L 96.905375 148.456022 
L 101.513101 148.819437 
L 97.466239 151.052399 
L 97.712014 150.093462 
L 94.586039 150.768729 
L 94.399085 149.903271 
" clip-path="url(#pa14603dddf)"/>
    <path d="M 109.113122 149.914847 
L 110.003102 149.626469 
L 109.309018 148.920628 
L 113.929946 148.819437 
L 110.127809 151.447547 
L 110.276032 150.468776 
L 109.386052 150.757153 
L 109.113122 149.914847 
" clip-path="url(#pa14603dddf)"/>
    <path d="M 123.854955 150.101982 
L 124.088973 149.950326 
L 123.551643 149.633946 
L 126.346791 148.819437 
L 124.461581 151.038054 
L 124.392286 150.418362 
L 124.158268 150.570018 
L 123.854955 150.101982 
" clip-path="url(#pa14603dddf)"/>
    <path d="M 138.61198 150.336 
L 138.61198 150.184344 
L 138.308667 150.336 
L 138.763636 148.819437 
L 139.218605 150.336 
L 138.915293 150.184344 
L 138.915293 150.336 
L 138.61198 150.336 
" clip-path="url(#pa14603dddf)"/>
    <path d="M 153.369005 150.570018 
L 153.134987 150.418362 
L 153.065692 151.038054 
L 151.180481 148.819437 
L 153.97563 149.633946 
L 153.4383 149.950326 
L 153.672318 150.101982 
L 153.369005 150.570018 
" clip-path="url(#pa14603dddf)"/>
    <path d="M 168.141221 150.757153 
L 167.251241 150.468776 
L 167.399464 151.447547 
L 163.597326 148.819437 
L 168.218254 148.920628 
L 167.524171 149.626469 
L 168.414151 149.914847 
L 168.141221 150.757153 
" clip-path="url(#pa14603dddf)"/>
    <path d="M 182.941233 150.768729 
L 179.815259 150.093462 
L 180.061034 151.052399 
L 176.014171 148.819437 
L 180.621898 148.456022 
L 180.002214 149.228004 
L 183.128188 149.903271 
L 182.941233 150.768729 
" clip-path="url(#pa14603dddf)"/>
    <path d="M 197.720934 150.773012 
L 192.293327 149.893666 
L 192.588735 150.838493 
L 188.431017 148.819437 
L 193.013547 148.216419 
L 192.434931 149.019642 
L 197.862537 149.898988 
L 197.720934 150.773012 
" clip-path="url(#pa14603dddf)"/>
    <path d="M 212.491856 150.775038 
L 204.742303 149.770612 
L 205.067533 150.705593 
L 200.847862 148.819437 
L 205.408958 148.071363 
L 204.856111 148.892535 
L 212.605664 149.896962 
L 212.491856 150.775038 
" clip-path="url(#pa14603dddf)"/>
    <path d="M 64.867424 125.715453 
L 72.711404 123.682124 
L 72.06068 122.936119 
L 76.679411 123.110873 
L 72.727211 125.507398 
L 72.933581 124.539217 
L 65.089601 126.572547 
L 64.867424 125.715453 
" clip-path="url(#pa14603dddf)"/>
    <path d="M 79.599072 125.722847 
L 85.169412 123.917906 
L 84.475328 123.212064 
L 89.096256 123.110873 
L 85.294119 125.738984 
L 85.442342 124.760212 
L 79.872002 126.565153 
L 79.599072 125.722847 
" clip-path="url(#pa14603dddf)"/>
    <path d="M 94.316981 125.737596 
L 97.679886 124.2847 
L 96.92232 123.647473 
L 101.513101 123.110873 
L 97.975807 126.085896 
L 98.031048 125.097507 
L 94.668143 126.550404 
L 94.316981 125.737596 
" clip-path="url(#pa14603dddf)"/>
    <path d="M 109.008823 125.772482 
L 110.345521 124.906229 
L 109.492475 124.403957 
L 113.929946 123.110873 
L 110.937058 126.633065 
L 110.827048 125.649265 
L 109.490351 126.515518 
L 109.008823 125.772482 
" clip-path="url(#pa14603dddf)"/>
    <path d="M 123.703299 125.909982 
L 123.937317 125.606669 
L 123.096673 125.441946 
L 126.346791 123.110873 
L 124.91655 126.846054 
L 124.543942 126.074705 
L 124.309924 126.378018 
L 123.703299 125.909982 
" clip-path="url(#pa14603dddf)"/>
    <path d="M 138.460324 126.144 
L 138.460324 125.840687 
L 137.853698 126.144 
L 138.763636 123.110873 
L 139.673574 126.144 
L 139.066949 125.840687 
L 139.066949 126.144 
L 138.460324 126.144 
" clip-path="url(#pa14603dddf)"/>
    <path d="M 153.217348 126.378018 
L 152.98333 126.074705 
L 152.610723 126.846054 
L 151.180481 123.110873 
L 154.430599 125.441946 
L 153.589956 125.606669 
L 153.823974 125.909982 
L 153.217348 126.378018 
" clip-path="url(#pa14603dddf)"/>
    <path d="M 168.036922 126.515518 
L 166.700224 125.649265 
L 166.590215 126.633065 
L 163.597326 123.110873 
L 168.034797 124.403957 
L 167.181752 124.906229 
L 168.51845 125.772482 
L 168.036922 126.515518 
" clip-path="url(#pa14603dddf)"/>
    <path d="M 182.85913 126.550404 
L 179.496225 125.097507 
L 179.551466 126.085896 
L 176.014171 123.110873 
L 180.604953 123.647473 
L 179.847387 124.2847 
L 183.210292 125.737596 
L 182.85913 126.550404 
" clip-path="url(#pa14603dddf)"/>
    <path d="M 197.65527 126.565153 
L 192.084931 124.760212 
L 192.233154 125.738984 
L 188.431017 123.110873 
L 193.051945 123.212064 
L 192.357861 123.917906 
L 197.928201 125.722847 
L 197.65527 126.565153 
" clip-path="url(#pa14603dddf)"/>
    <path d="M 212.437672 126.572547 
L 204.593692 124.539217 
L 204.800061 125.507398 
L 200.847862 123.110873 
L 205.466593 122.936119 
L 204.815869 123.682124 
L 212.659849 125.715453 
L 212.437672 126.572547 
" clip-path="url(#pa14603dddf)"/>
    <path d="M 64.818074 101.539384 
L 72.805426 98.433641 
L 72.071932 97.768847 
L 76.679411 97.40231 
L 73.034564 100.244545 
L 73.126303 99.258874 
L 65.138951 102.364616 
L 64.818074 101.539384 
" clip-path="url(#pa14603dddf)"/>
    <path d="M 79.54201 101.553829 
L 85.319191 98.745884 
L 84.533966 98.143069 
L 89.096256 97.40231 
L 85.69513 100.532094 
L 85.706246 99.542225 
L 79.929064 102.350171 
L 79.54201 101.553829 
" clip-path="url(#pa14603dddf)"/>
    <path d="M 94.251798 101.580482 
L 97.928676 99.197666 
L 97.07563 98.695394 
L 101.513101 97.40231 
L 98.520213 100.924501 
L 98.410203 99.940702 
L 94.733326 102.323518 
L 94.251798 101.580482 
" clip-path="url(#pa14603dddf)"/>
    <path d="M 108.941006 101.634556 
L 110.764372 99.862096 
L 109.829766 99.53579 
L 113.929946 97.40231 
L 111.681253 101.440452 
L 111.381534 100.496983 
L 109.558168 102.269444 
L 108.941006 101.634556 
" clip-path="url(#pa14603dddf)"/>
    <path d="M 123.612926 101.749504 
L 124.130641 100.742981 
L 123.140775 100.731675 
L 126.346791 97.40231 
L 125.502887 101.946651 
L 124.918012 101.147974 
L 124.400297 102.154496 
L 123.612926 101.749504 
" clip-path="url(#pa14603dddf)"/>
    <path d="M 138.320926 101.952 
L 138.320926 101.386706 
L 137.435504 101.829417 
L 138.763636 97.40231 
L 140.091769 101.829417 
L 139.206347 101.386706 
L 139.206347 101.952 
L 138.320926 101.952 
" clip-path="url(#pa14603dddf)"/>
    <path d="M 153.126976 102.154496 
L 152.609261 101.147974 
L 152.024386 101.946651 
L 151.180481 97.40231 
L 154.386498 100.731675 
L 153.396631 100.742981 
L 153.914346 101.749504 
L 153.126976 102.154496 
" clip-path="url(#pa14603dddf)"/>
    <path d="M 167.969105 102.269444 
L 166.145739 100.496983 
L 165.84602 101.440452 
L 163.597326 97.40231 
L 167.697507 99.53579 
L 166.762901 99.862096 
L 168.586267 101.634556 
L 167.969105 102.269444 
" clip-path="url(#pa14603dddf)"/>
    <path d="M 182.793947 102.323518 
L 179.117069 99.940702 
L 179.00706 100.924501 
L 176.014171 97.40231 
L 180.451642 98.695394 
L 179.598597 99.197666 
L 183.275475 101.580482 
L 182.793947 102.323518 
" clip-path="url(#pa14603dddf)"/>
    <path d="M 197.598208 102.350171 
L 191.821027 99.542225 
L 191.832143 100.532094 
L 188.431017 97.40231 
L 192.993307 98.143069 
L 192.208081 98.745884 
L 197.985263 101.553829 
L 197.598208 102.350171 
" clip-path="url(#pa14603dddf)"/>
    <path d="M 212.388322 102.364616 
L 204.40097 99.258874 
L 204.492709 100.244545 
L 200.847862 97.40231 
L 205.455341 97.768847 
L 204.721847 98.433641 
L 212.709199 101.539384 
L 212.388322 102.364616 
" clip-path="url(#pa14603dddf)"/>
    <path d="M 64.774748 77.366969 
L 72.938372 73.134592 
L 72.137814 72.552295 
L 76.679411 71.693746 
L 73.360398 74.910479 
L 73.3459 73.920653 
L 65.182276 78.153031 
L 64.774748 77.366969 
" clip-path="url(#pa14603dddf)"/>
    <path d="M 79.494773 77.388482 
L 85.511831 73.489102 
L 84.658785 72.98683 
L 89.096256 71.693746 
L 86.103368 75.215938 
L 85.993358 74.232138 
L 79.976301 78.131518 
L 79.494773 77.388482 
" clip-path="url(#pa14603dddf)"/>
    <path d="M 94.203114 77.425019 
L 98.20882 73.963798 
L 97.294943 73.583284 
L 101.513101 71.693746 
L 99.031632 75.593172 
L 98.787717 74.633761 
L 94.78201 78.094981 
L 94.203114 77.425019 
" clip-path="url(#pa14603dddf)"/>
    <path d="M 108.899075 77.489566 
L 111.14553 74.577916 
L 110.174074 74.38756 
L 113.929946 71.693746 
L 112.277143 76.010163 
L 111.846554 75.118784 
L 109.600098 78.030434 
L 108.899075 77.489566 
" clip-path="url(#pa14603dddf)"/>
    <path d="M 123.593569 77.600661 
L 124.499695 75.251786 
L 123.514272 75.346149 
L 126.346791 71.693746 
L 125.992524 76.302185 
L 125.32578 75.570464 
L 124.419654 77.919339 
L 123.593569 77.600661 
" clip-path="url(#pa14603dddf)"/>
    <path d="M 138.320926 77.76 
L 138.320926 75.678143 
L 137.435504 76.120853 
L 138.763636 71.693746 
L 140.091769 76.120853 
L 139.206347 75.678143 
L 139.206347 77.76 
L 138.320926 77.76 
" clip-path="url(#pa14603dddf)"/>
    <path d="M 153.107619 77.919339 
L 152.201493 75.570464 
L 151.534748 76.302185 
L 151.180481 71.693746 
L 154.013001 75.346149 
L 153.027577 75.251786 
L 153.933703 77.600661 
L 153.107619 77.919339 
" clip-path="url(#pa14603dddf)"/>
    <path d="M 167.927174 78.030434 
L 165.680719 75.118784 
L 165.25013 76.010163 
L 163.597326 71.693746 
L 167.353199 74.38756 
L 166.381742 74.577916 
L 168.628198 77.489566 
L 167.927174 78.030434 
" clip-path="url(#pa14603dddf)"/>
    <path d="M 182.745263 78.094981 
L 178.739556 74.633761 
L 178.495641 75.593172 
L 176.014171 71.693746 
L 180.23233 73.583284 
L 179.318452 73.963798 
L 183.324159 77.425019 
L 182.745263 78.094981 
" clip-path="url(#pa14603dddf)"/>
    <path d="M 197.550972 78.131518 
L 191.533914 74.232138 
L 191.423905 75.215938 
L 188.431017 71.693746 
L 192.868488 72.98683 
L 192.015442 73.489102 
L 198.032499 77.388482 
L 197.550972 78.131518 
" clip-path="url(#pa14603dddf)"/>
    <path d="M 212.344996 78.153031 
L 204.181372 73.920653 
L 204.166875 74.910479 
L 200.847862 71.693746 
L 205.389459 72.552295 
L 204.5889 73.134592 
L 212.752524 77.366969 
L 212.344996 78.153031 
" clip-path="url(#pa14603dddf)"/>
    <path d="M 64.737749 53.196482 
L 73.094986 47.780539 
L 72.24194 47.278267 
L 76.679411 45.985183 
L 73.686523 49.507374 
L 73.576513 48.523575 
L 65.219276 53.939518 
L 64.737749 53.196482 
" clip-path="url(#pa14603dddf)"/>
    <path d="M 79.456871 53.223997 
L 85.721562 48.149172 
L 84.820227 47.739832 
L 89.096256 45.985183 
L 86.492223 49.80385 
L 86.278894 48.837178 
L 80.014203 53.912003 
L 79.456871 53.223997 
" clip-path="url(#pa14603dddf)"/>
    <path d="M 94.167706 53.267232 
L 98.481336 48.608122 
L 97.530856 48.331442 
L 101.513101 45.985183 
L 99.479993 50.136048 
L 99.131048 49.209657 
L 94.817418 53.868768 
L 94.167706 53.267232 
" clip-path="url(#pa14603dddf)"/>
    <path d="M 108.87286 53.335472 
L 111.460465 49.1432 
L 110.474482 49.054871 
L 113.929946 45.985183 
L 112.734846 50.45004 
L 112.21392 49.608256 
L 109.626314 53.800528 
L 108.87286 53.335472 
" clip-path="url(#pa14603dddf)"/>
    <path d="M 123.583588 53.437448 
L 124.7488 49.661843 
L 123.772201 49.823763 
L 126.346791 45.985183 
L 126.310343 50.607075 
L 125.594848 49.922947 
L 124.429635 53.698552 
L 123.583588 53.437448 
" clip-path="url(#pa14603dddf)"/>
    <path d="M 138.320926 53.568 
L 138.320926 49.969579 
L 137.435504 50.41229 
L 138.763636 45.985183 
L 140.091769 50.41229 
L 139.206347 49.969579 
L 139.206347 53.568 
L 138.320926 53.568 
" clip-path="url(#pa14603dddf)"/>
    <path d="M 153.097638 53.698552 
L 151.932425 49.922947 
L 151.21693 50.607075 
L 151.180481 45.985183 
L 153.755071 49.823763 
L 152.778472 49.661843 
L 153.943685 53.437448 
L 153.097638 53.698552 
" clip-path="url(#pa14603dddf)"/>
    <path d="M 167.900959 53.800528 
L 165.313353 49.608256 
L 164.792427 50.45004 
L 163.597326 45.985183 
L 167.05279 49.054871 
L 166.066808 49.1432 
L 168.654413 53.335472 
L 167.900959 53.800528 
" clip-path="url(#pa14603dddf)"/>
    <path d="M 182.709854 53.868768 
L 178.396224 49.209657 
L 178.047279 50.136048 
L 176.014171 45.985183 
L 179.996417 48.331442 
L 179.045937 48.608122 
L 183.359567 53.267232 
L 182.709854 53.868768 
" clip-path="url(#pa14603dddf)"/>
    <path d="M 197.51307 53.912003 
L 191.248379 48.837178 
L 191.03505 49.80385 
L 188.431017 45.985183 
L 192.707045 47.739832 
L 191.80571 48.149172 
L 198.070401 53.223997 
L 197.51307 53.912003 
" clip-path="url(#pa14603dddf)"/>
    <path d="M 212.307997 53.939518 
L 203.950759 48.523575 
L 203.84075 49.507374 
L 200.847862 45.985183 
L 205.285333 47.278267 
L 204.432287 47.780539 
L 212.789524 53.196482 
L 212.307997 53.939518 
" clip-path="url(#pa14603dddf)"/>
   </g>
   <g id="matplotlib.axis_1">
    <g id="xtick_1">
     <g id="line2d_1">
      <defs>
       <path id="m433d22c808" d="M 0 0 
L 0 3.5 
" style="stroke: #000000; stroke-width: 0.8"/>
      </defs>
      <g>
       <use xlink:href="#m433d22c808" x="64.978512" y="307.584" style="stroke: #000000; stroke-width: 0.8"/>
      </g>
     </g>
     <g id="text_1">
      <!-- −5.0 -->
      <g transform="translate(52.837106 322.182437) scale(0.1 -0.1)">
       <defs>
        <path id="DejaVuSans-2212" d="M 678 2272 
L 4684 2272 
L 4684 1741 
L 678 1741 
L 678 2272 
z
" transform="scale(0.015625)"/>
        <path id="DejaVuSans-35" d="M 691 4666 
L 3169 4666 
L 3169 4134 
L 1269 4134 
L 1269 2991 
Q 1406 3038 1543 3061 
Q 1681 3084 1819 3084 
Q 2600 3084 3056 2656 
Q 3513 2228 3513 1497 
Q 3513 744 3044 326 
Q 2575 -91 1722 -91 
Q 1428 -91 1123 -41 
Q 819 9 494 109 
L 494 744 
Q 775 591 1075 516 
Q 1375 441 1709 441 
Q 2250 441 2565 725 
Q 2881 1009 2881 1497 
Q 2881 1984 2565 2268 
Q 2250 2553 1709 2553 
Q 1456 2553 1204 2497 
Q 953 2441 691 2322 
L 691 4666 
z
" transform="scale(0.015625)"/>
        <path id="DejaVuSans-2e" d="M 684 794 
L 1344 794 
L 1344 0 
L 684 0 
L 684 794 
z
" transform="scale(0.015625)"/>
        <path id="DejaVuSans-30" d="M 2034 4250 
Q 1547 4250 1301 3770 
Q 1056 3291 1056 2328 
Q 1056 1369 1301 889 
Q 1547 409 2034 409 
Q 2525 409 2770 889 
Q 3016 1369 3016 2328 
Q 3016 3291 2770 3770 
Q 2525 4250 2034 4250 
z
M 2034 4750 
Q 2819 4750 3233 4129 
Q 3647 3509 3647 2328 
Q 3647 1150 3233 529 
Q 2819 -91 2034 -91 
Q 1250 -91 836 529 
Q 422 1150 422 2328 
Q 422 3509 836 4129 
Q 1250 4750 2034 4750 
z
" transform="scale(0.015625)"/>
       </defs>
       <use xlink:href="#DejaVuSans-2212"/>
       <use xlink:href="#DejaVuSans-35" x="83.789062"/>
       <use xlink:href="#DejaVuSans-2e" x="147.412109"/>
       <use xlink:href="#DejaVuSans-30" x="179.199219"/>
      </g>
     </g>
    </g>
    <g id="xtick_2">
     <g id="line2d_2">
      <g>
       <use xlink:href="#m433d22c808" x="101.871074" y="307.584" style="stroke: #000000; stroke-width: 0.8"/>
      </g>
     </g>
     <g id="text_2">
      <!-- −2.5 -->
      <g transform="translate(89.729668 322.182437) scale(0.1 -0.1)">
       <defs>
        <path id="DejaVuSans-32" d="M 1228 531 
L 3431 531 
L 3431 0 
L 469 0 
L 469 531 
Q 828 903 1448 1529 
Q 2069 2156 2228 2338 
Q 2531 2678 2651 2914 
Q 2772 3150 2772 3378 
Q 2772 3750 2511 3984 
Q 2250 4219 1831 4219 
Q 1534 4219 1204 4116 
Q 875 4013 500 3803 
L 500 4441 
Q 881 4594 1212 4672 
Q 1544 4750 1819 4750 
Q 2544 4750 2975 4387 
Q 3406 4025 3406 3419 
Q 3406 3131 3298 2873 
Q 3191 2616 2906 2266 
Q 2828 2175 2409 1742 
Q 1991 1309 1228 531 
z
" transform="scale(0.015625)"/>
       </defs>
       <use xlink:href="#DejaVuSans-2212"/>
       <use xlink:href="#DejaVuSans-32" x="83.789062"/>
       <use xlink:href="#DejaVuSans-2e" x="147.412109"/>
       <use xlink:href="#DejaVuSans-35" x="179.199219"/>
      </g>
     </g>
    </g>
    <g id="xtick_3">
     <g id="line2d_3">
      <g>
       <use xlink:href="#m433d22c808" x="138.763636" y="307.584" style="stroke: #000000; stroke-width: 0.8"/>
      </g>
     </g>
     <g id="text_3">
      <!-- 0.0 -->
      <g transform="translate(130.812074 322.182437) scale(0.1 -0.1)">
       <use xlink:href="#DejaVuSans-30"/>
       <use xlink:href="#DejaVuSans-2e" x="63.623047"/>
       <use xlink:href="#DejaVuSans-30" x="95.410156"/>
      </g>
     </g>
    </g>
    <g id="xtick_4">
     <g id="line2d_4">
      <g>
       <use xlink:href="#m433d22c808" x="175.656198" y="307.584" style="stroke: #000000; stroke-width: 0.8"/>
      </g>
     </g>
     <g id="text_4">
      <!-- 2.5 -->
      <g transform="translate(167.704636 322.182437) scale(0.1 -0.1)">
       <use xlink:href="#DejaVuSans-32"/>
       <use xlink:href="#DejaVuSans-2e" x="63.623047"/>
       <use xlink:href="#DejaVuSans-35" x="95.410156"/>
      </g>
     </g>
    </g>
    <g id="xtick_5">
     <g id="line2d_5">
      <g>
       <use xlink:href="#m433d22c808" x="212.54876" y="307.584" style="stroke: #000000; stroke-width: 0.8"/>
      </g>
     </g>
     <g id="text_5">
      <!-- 5.0 -->
      <g transform="translate(204.597198 322.182437) scale(0.1 -0.1)">
       <use xlink:href="#DejaVuSans-35"/>
       <use xlink:href="#DejaVuSans-2e" x="63.623047"/>
       <use xlink:href="#DejaVuSans-30" x="95.410156"/>
      </g>
     </g>
    </g>
   </g>
   <g id="matplotlib.axis_2">
    <g id="ytick_1">
     <g id="line2d_6">
      <defs>
       <path id="mceee823ab6" d="M 0 0 
L -3.5 0 
" style="stroke: #000000; stroke-width: 0.8"/>
      </defs>
      <g>
       <use xlink:href="#mceee823ab6" x="57.6" y="271.296" style="stroke: #000000; stroke-width: 0.8"/>
      </g>
     </g>
     <g id="text_6">
      <!-- −4 -->
      <g transform="translate(35.857813 275.095219) scale(0.1 -0.1)">
       <defs>
        <path id="DejaVuSans-34" d="M 2419 4116 
L 825 1625 
L 2419 1625 
L 2419 4116 
z
M 2253 4666 
L 3047 4666 
L 3047 1625 
L 3713 1625 
L 3713 1100 
L 3047 1100 
L 3047 0 
L 2419 0 
L 2419 1100 
L 313 1100 
L 313 1709 
L 2253 4666 
z
" transform="scale(0.015625)"/>
       </defs>
       <use xlink:href="#DejaVuSans-2212"/>
       <use xlink:href="#DejaVuSans-34" x="83.789062"/>
      </g>
     </g>
    </g>
    <g id="ytick_2">
     <g id="line2d_7">
      <g>
       <use xlink:href="#mceee823ab6" x="57.6" y="222.912" style="stroke: #000000; stroke-width: 0.8"/>
      </g>
     </g>
     <g id="text_7">
      <!-- −2 -->
      <g transform="translate(35.857813 226.711219) scale(0.1 -0.1)">
       <use xlink:href="#DejaVuSans-2212"/>
       <use xlink:href="#DejaVuSans-32" x="83.789062"/>
      </g>
     </g>
    </g>
    <g id="ytick_3">
     <g id="line2d_8">
      <g>
       <use xlink:href="#mceee823ab6" x="57.6" y="174.528" style="stroke: #000000; stroke-width: 0.8"/>
      </g>
     </g>
     <g id="text_8">
      <!-- 0 -->
      <g transform="translate(44.2375 178.327219) scale(0.1 -0.1)">
       <use xlink:href="#DejaVuSans-30"/>
      </g>
     </g>
    </g>
    <g id="ytick_4">
     <g id="line2d_9">
      <g>
       <use xlink:href="#mceee823ab6" x="57.6" y="126.144" style="stroke: #000000; stroke-width: 0.8"/>
      </g>
     </g>
     <g id="text_9">
      <!-- 2 -->
      <g transform="translate(44.2375 129.943219) scale(0.1 -0.1)">
       <use xlink:href="#DejaVuSans-32"/>
      </g>
     </g>
    </g>
    <g id="ytick_5">
     <g id="line2d_10">
      <g>
       <use xlink:href="#mceee823ab6" x="57.6" y="77.76" style="stroke: #000000; stroke-width: 0.8"/>
      </g>
     </g>
     <g id="text_10">
      <!-- 4 -->
      <g transform="translate(44.2375 81.559219) scale(0.1 -0.1)">
       <use xlink:href="#DejaVuSans-34"/>
      </g>
     </g>
    </g>
   </g>
   <g id="patch_3">
    <path d="M 57.6 307.584 
L 57.6 41.472 
" style="fill: none; stroke: #000000; stroke-width: 0.8; stroke-linejoin: miter; stroke-linecap: square"/>
   </g>
   <g id="patch_4">
    <path d="M 219.927273 307.584 
L 219.927273 41.472 
" style="fill: none; stroke: #000000; stroke-width: 0.8; stroke-linejoin: miter; stroke-linecap: square"/>
   </g>
   <g id="patch_5">
    <path d="M 57.6 307.584 
L 219.927273 307.584 
" style="fill: none; stroke: #000000; stroke-width: 0.8; stroke-linejoin: miter; stroke-linecap: square"/>
   </g>
   <g id="patch_6">
    <path d="M 57.6 41.472 
L 219.927273 41.472 
" style="fill: none; stroke: #000000; stroke-width: 0.8; stroke-linejoin: miter; stroke-linecap: square"/>
   </g>
  </g>
  <g id="axes_2">
   <g id="patch_7">
    <path d="M 252.392727 307.584 
L 414.72 307.584 
L 414.72 41.472 
L 252.392727 41.472 
z
" style="fill: #ffffff"/>
   </g>
   <g id="matplotlib.axis_3">
    <g id="xtick_6">
     <g id="line2d_11">
      <g>
       <use xlink:href="#m433d22c808" x="252.392727" y="307.584" style="stroke: #000000; stroke-width: 0.8"/>
      </g>
     </g>
     <g id="text_11">
      <!-- −0.5 -->
      <g transform="translate(240.251321 322.182437) scale(0.1 -0.1)">
       <use xlink:href="#DejaVuSans-2212"/>
       <use xlink:href="#DejaVuSans-30" x="83.789062"/>
       <use xlink:href="#DejaVuSans-2e" x="147.412109"/>
       <use xlink:href="#DejaVuSans-35" x="179.199219"/>
      </g>
     </g>
    </g>
    <g id="xtick_7">
     <g id="line2d_12">
      <g>
       <use xlink:href="#m433d22c808" x="292.974545" y="307.584" style="stroke: #000000; stroke-width: 0.8"/>
      </g>
     </g>
     <g id="text_12">
      <!-- 0.0 -->
      <g transform="translate(285.022983 322.182437) scale(0.1 -0.1)">
       <use xlink:href="#DejaVuSans-30"/>
       <use xlink:href="#DejaVuSans-2e" x="63.623047"/>
       <use xlink:href="#DejaVuSans-30" x="95.410156"/>
      </g>
     </g>
    </g>
    <g id="xtick_8">
     <g id="line2d_13">
      <g>
       <use xlink:href="#m433d22c808" x="333.556364" y="307.584" style="stroke: #000000; stroke-width: 0.8"/>
      </g>
     </g>
     <g id="text_13">
      <!-- 0.5 -->
      <g transform="translate(325.604801 322.182437) scale(0.1 -0.1)">
       <use xlink:href="#DejaVuSans-30"/>
       <use xlink:href="#DejaVuSans-2e" x="63.623047"/>
       <use xlink:href="#DejaVuSans-35" x="95.410156"/>
      </g>
     </g>
    </g>
    <g id="xtick_9">
     <g id="line2d_14">
      <g>
       <use xlink:href="#m433d22c808" x="374.138182" y="307.584" style="stroke: #000000; stroke-width: 0.8"/>
      </g>
     </g>
     <g id="text_14">
      <!-- 1.0 -->
      <g transform="translate(366.186619 322.182437) scale(0.1 -0.1)">
       <defs>
        <path id="DejaVuSans-31" d="M 794 531 
L 1825 531 
L 1825 4091 
L 703 3866 
L 703 4441 
L 1819 4666 
L 2450 4666 
L 2450 531 
L 3481 531 
L 3481 0 
L 794 0 
L 794 531 
z
" transform="scale(0.015625)"/>
       </defs>
       <use xlink:href="#DejaVuSans-31"/>
       <use xlink:href="#DejaVuSans-2e" x="63.623047"/>
       <use xlink:href="#DejaVuSans-30" x="95.410156"/>
      </g>
     </g>
    </g>
    <g id="xtick_10">
     <g id="line2d_15">
      <g>
       <use xlink:href="#m433d22c808" x="414.72" y="307.584" style="stroke: #000000; stroke-width: 0.8"/>
      </g>
     </g>
     <g id="text_15">
      <!-- 1.5 -->
      <g transform="translate(406.768437 322.182437) scale(0.1 -0.1)">
       <use xlink:href="#DejaVuSans-31"/>
       <use xlink:href="#DejaVuSans-2e" x="63.623047"/>
       <use xlink:href="#DejaVuSans-35" x="95.410156"/>
      </g>
     </g>
    </g>
   </g>
   <g id="matplotlib.axis_4">
    <g id="ytick_6">
     <g id="line2d_16">
      <g>
       <use xlink:href="#mceee823ab6" x="252.392727" y="283.392" style="stroke: #000000; stroke-width: 0.8"/>
      </g>
     </g>
     <g id="text_16">
      <!-- 0 -->
      <g transform="translate(239.030227 287.191219) scale(0.1 -0.1)">
       <use xlink:href="#DejaVuSans-30"/>
      </g>
     </g>
    </g>
    <g id="ytick_7">
     <g id="line2d_17">
      <g>
       <use xlink:href="#mceee823ab6" x="252.392727" y="235.008" style="stroke: #000000; stroke-width: 0.8"/>
      </g>
     </g>
     <g id="text_17">
      <!-- 10 -->
      <g transform="translate(232.667727 238.807219) scale(0.1 -0.1)">
       <use xlink:href="#DejaVuSans-31"/>
       <use xlink:href="#DejaVuSans-30" x="63.623047"/>
      </g>
     </g>
    </g>
    <g id="ytick_8">
     <g id="line2d_18">
      <g>
       <use xlink:href="#mceee823ab6" x="252.392727" y="186.624" style="stroke: #000000; stroke-width: 0.8"/>
      </g>
     </g>
     <g id="text_18">
      <!-- 20 -->
      <g transform="translate(232.667727 190.423219) scale(0.1 -0.1)">
       <use xlink:href="#DejaVuSans-32"/>
       <use xlink:href="#DejaVuSans-30" x="63.623047"/>
      </g>
     </g>
    </g>
    <g id="ytick_9">
     <g id="line2d_19">
      <g>
       <use xlink:href="#mceee823ab6" x="252.392727" y="138.24" style="stroke: #000000; stroke-width: 0.8"/>
      </g>
     </g>
     <g id="text_19">
      <!-- 30 -->
      <g transform="translate(232.667727 142.039219) scale(0.1 -0.1)">
       <defs>
        <path id="DejaVuSans-33" d="M 2597 2516 
Q 3050 2419 3304 2112 
Q 3559 1806 3559 1356 
Q 3559 666 3084 287 
Q 2609 -91 1734 -91 
Q 1441 -91 1130 -33 
Q 819 25 488 141 
L 488 750 
Q 750 597 1062 519 
Q 1375 441 1716 441 
Q 2309 441 2620 675 
Q 2931 909 2931 1356 
Q 2931 1769 2642 2001 
Q 2353 2234 1838 2234 
L 1294 2234 
L 1294 2753 
L 1863 2753 
Q 2328 2753 2575 2939 
Q 2822 3125 2822 3475 
Q 2822 3834 2567 4026 
Q 2313 4219 1838 4219 
Q 1578 4219 1281 4162 
Q 984 4106 628 3988 
L 628 4550 
Q 988 4650 1302 4700 
Q 1616 4750 1894 4750 
Q 2613 4750 3031 4423 
Q 3450 4097 3450 3541 
Q 3450 3153 3228 2886 
Q 3006 2619 2597 2516 
z
" transform="scale(0.015625)"/>
       </defs>
       <use xlink:href="#DejaVuSans-33"/>
       <use xlink:href="#DejaVuSans-30" x="63.623047"/>
      </g>
     </g>
    </g>
    <g id="ytick_10">
     <g id="line2d_20">
      <g>
       <use xlink:href="#mceee823ab6" x="252.392727" y="89.856" style="stroke: #000000; stroke-width: 0.8"/>
      </g>
     </g>
     <g id="text_20">
      <!-- 40 -->
      <g transform="translate(232.667727 93.655219) scale(0.1 -0.1)">
       <use xlink:href="#DejaVuSans-34"/>
       <use xlink:href="#DejaVuSans-30" x="63.623047"/>
      </g>
     </g>
    </g>
    <g id="ytick_11">
     <g id="line2d_21">
      <g>
       <use xlink:href="#mceee823ab6" x="252.392727" y="41.472" style="stroke: #000000; stroke-width: 0.8"/>
      </g>
     </g>
     <g id="text_21">
      <!-- 50 -->
      <g transform="translate(232.667727 45.271219) scale(0.1 -0.1)">
       <use xlink:href="#DejaVuSans-35"/>
       <use xlink:href="#DejaVuSans-30" x="63.623047"/>
      </g>
     </g>
    </g>
   </g>
   <g id="line2d_22">
    <path d="M 293.055709 283.392 
L 374.138182 283.392 
L 374.138182 283.392 
" clip-path="url(#p4b70f48cbb)" style="fill: none; stroke: #1f77b4; stroke-width: 1.5; stroke-linecap: square"/>
   </g>
   <g id="line2d_23">
    <path d="M 293.13008 -1 
L 293.2992 110.132507 
L 293.623855 172.828122 
L 294.029673 202.674288 
L 294.516655 220.272601 
L 295.003636 230.556771 
L 295.571782 238.36783 
L 296.221091 244.429863 
L 296.951564 249.231376 
L 297.7632 253.104992 
L 298.656 256.281288 
L 299.629964 258.923387 
L 300.685091 261.149052 
L 301.821382 263.044941 
L 303.12 264.77314 
L 304.580945 266.327646 
L 306.204218 267.715578 
L 307.989818 268.950435 
L 310.100073 270.130171 
L 312.534982 271.224867 
L 315.375709 272.248464 
L 318.703418 273.205091 
L 322.680436 274.111108 
L 327.469091 274.967853 
L 333.312873 275.780341 
L 340.536436 276.551045 
L 349.5456 277.278422 
L 360.908509 277.96225 
L 374.138182 278.5536 
L 374.138182 278.5536 
" clip-path="url(#p4b70f48cbb)" style="fill: none; stroke: #ff7f0e; stroke-width: 1.5; stroke-linecap: square"/>
   </g>
   <g id="line2d_24">
    <path d="M 293.417942 -1 
L 293.705018 78.514791 
L 294.110836 129.526443 
L 294.597818 161.280508 
L 295.165964 182.862579 
L 295.815273 198.424138 
L 296.464582 209.035597 
L 297.195055 217.65176 
L 298.006691 224.733968 
L 298.899491 230.625262 
L 299.873455 235.581157 
L 300.928582 239.793453 
L 302.064873 243.407646 
L 303.282327 246.535372 
L 304.580945 249.263291 
L 305.960727 251.659433 
L 307.502836 253.885102 
L 309.126109 255.842544 
L 310.911709 257.652438 
L 312.859636 259.315947 
L 315.051055 260.893073 
L 317.485964 262.367993 
L 320.245527 263.772424 
L 323.329745 265.0885 
L 326.819782 266.334938 
L 330.877964 267.541887 
L 335.504291 268.681741 
L 340.942255 269.785217 
L 347.273018 270.835601 
L 354.740073 271.841496 
L 363.586909 272.801254 
L 374.138182 273.7152 
L 374.138182 273.7152 
" clip-path="url(#p4b70f48cbb)" style="fill: none; stroke: #2ca02c; stroke-width: 1.5; stroke-linecap: square"/>
   </g>
   <g id="line2d_25">
    <path d="M 293.798649 -1 
L 294.192 62.685625 
L 294.678982 105.925665 
L 295.247127 136.110263 
L 295.896436 158.245889 
L 296.626909 175.095503 
L 297.357382 187.164176 
L 298.169018 197.196778 
L 299.061818 205.616219 
L 300.035782 212.748517 
L 301.090909 218.844816 
L 302.2272 224.099486 
L 303.444655 228.664052 
L 304.743273 232.657653 
L 306.123055 236.174804 
L 307.584 239.29116 
L 309.126109 242.067816 
L 310.830545 244.669016 
L 312.616145 246.988419 
L 314.564073 249.152222 
L 316.674327 251.160245 
L 318.946909 253.017251 
L 321.462982 254.783921 
L 324.222545 256.447696 
L 327.306764 258.042188 
L 330.715636 259.550611 
L 334.530327 260.992833 
L 338.832 262.377983 
L 343.701818 263.708431 
L 349.220945 264.982731 
L 355.551709 266.212207 
L 362.856436 267.398463 
L 371.297455 268.537769 
L 374.138182 268.8768 
L 374.138182 268.8768 
" clip-path="url(#p4b70f48cbb)" style="fill: none; stroke: #d62728; stroke-width: 1.5; stroke-linecap: square"/>
   </g>
   <g id="line2d_26">
    <path d="M 294.258546 -1 
L 294.678982 46.77022 
L 295.247127 87.01635 
L 295.896436 116.530519 
L 296.626909 138.99667 
L 297.357382 155.088235 
L 298.169018 168.465037 
L 299.061818 179.690959 
L 300.035782 189.200689 
L 301.090909 197.329088 
L 302.2272 204.335314 
L 303.444655 210.421403 
L 304.743273 215.746204 
L 306.123055 220.435738 
L 307.584 224.59088 
L 309.126109 228.293088 
L 310.749382 231.608694 
L 312.453818 234.592147 
L 314.320582 237.402158 
L 316.268509 239.932601 
L 318.378764 242.307651 
L 320.651345 244.526677 
L 323.086255 246.593439 
L 325.764655 248.570458 
L 328.686545 250.444401 
L 331.851927 252.208727 
L 335.341964 253.898481 
L 339.237818 255.532834 
L 343.539491 257.092671 
L 348.328145 258.590468 
L 353.684945 260.031595 
L 359.772218 261.434279 
L 366.671127 262.789287 
L 374.138182 264.0384 
L 374.138182 264.0384 
" clip-path="url(#p4b70f48cbb)" style="fill: none; stroke: #9467bd; stroke-width: 1.5; stroke-linecap: square"/>
   </g>
   <g id="line2d_27">
    <path d="M 294.786053 -1 
L 295.328291 43.441686 
L 295.9776 78.485957 
L 296.708073 105.450488 
L 297.519709 126.747961 
L 298.331345 142.56972 
L 299.224145 155.957735 
L 300.198109 167.374348 
L 301.253236 177.185115 
L 302.389527 185.678679 
L 303.606982 193.083655 
L 304.9056 199.582098 
L 306.285382 205.319952 
L 307.746327 210.415056 
L 309.288436 214.963259 
L 310.911709 219.043095 
L 312.616145 222.719365 
L 314.401745 226.045909 
L 316.268509 229.067751 
L 318.2976 231.929954 
L 320.407855 234.531341 
L 322.680436 236.98754 
L 325.115345 239.297225 
L 327.793745 241.5262 
L 330.634473 243.600875 
L 333.718691 245.579795 
L 337.127564 247.498316 
L 340.861091 249.337688 
L 344.919273 251.086411 
L 349.383273 252.767134 
L 354.334255 254.392117 
L 359.853382 255.96644 
L 366.021818 257.490488 
L 372.920727 258.961888 
L 374.138182 259.2 
L 374.138182 259.2 
" clip-path="url(#p4b70f48cbb)" style="fill: none; stroke: #8c564b; stroke-width: 1.5; stroke-linecap: square"/>
   </g>
   <g id="line2d_28">
    <path d="M 295.374319 -1 
L 295.9776 37.504749 
L 296.708073 69.862186 
L 297.519709 95.419153 
L 298.331345 114.405264 
L 299.224145 130.470882 
L 300.198109 144.170818 
L 301.253236 155.943739 
L 302.389527 166.136015 
L 303.606982 175.021986 
L 304.9056 182.820117 
L 306.285382 189.705542 
L 307.746327 195.819667 
L 309.207273 201.011672 
L 310.749382 205.717041 
L 312.372655 209.993883 
L 314.158255 214.065124 
L 316.025018 217.757466 
L 317.972945 221.118982 
L 320.002036 224.190178 
L 322.193455 227.106947 
L 324.5472 229.863148 
L 327.063273 232.457983 
L 329.741673 234.894422 
L 332.5824 237.177965 
L 335.666618 239.370037 
L 338.994327 241.460097 
L 342.646691 243.484946 
L 346.623709 245.427977 
L 350.925382 247.278921 
L 355.632873 249.061264 
L 360.827345 250.788249 
L 366.589964 252.465854 
L 373.001891 254.095138 
L 374.138182 254.3616 
L 374.138182 254.3616 
" clip-path="url(#p4b70f48cbb)" style="fill: none; stroke: #e377c2; stroke-width: 1.5; stroke-linecap: square"/>
   </g>
   <g id="line2d_29">
    <path d="M 296.018493 -1 
L 296.708073 34.273884 
L 297.519709 64.090345 
L 298.331345 86.240808 
L 299.224145 104.984029 
L 300.198109 120.967288 
L 301.253236 134.702362 
L 302.389527 146.593351 
L 303.606982 156.960317 
L 304.9056 166.058137 
L 306.285382 174.091132 
L 307.665164 180.858831 
L 309.126109 186.968904 
L 310.668218 192.502041 
L 312.291491 197.527869 
L 313.995927 202.106439 
L 315.781527 206.289575 
L 317.729455 210.277839 
L 319.758545 213.916944 
L 321.8688 217.248899 
L 324.141382 220.415904 
L 326.495127 223.318212 
L 329.0112 226.070865 
L 331.6896 228.673101 
L 334.530327 231.127277 
L 337.614545 233.496787 
L 340.942255 235.768258 
L 344.513455 237.933705 
L 348.409309 240.030512 
L 352.629818 242.044156 
L 357.174982 243.965614 
L 362.207127 245.847305 
L 367.726255 247.667883 
L 373.732364 249.413002 
L 374.138182 249.5232 
L 374.138182 249.5232 
" clip-path="url(#p4b70f48cbb)" style="fill: none; stroke: #7f7f7f; stroke-width: 1.5; stroke-linecap: square"/>
   </g>
   <g id="line2d_30">
    <path d="M 296.714549 -1 
L 297.519709 32.761538 
L 298.331345 58.076352 
L 299.224145 79.497176 
L 300.198109 97.763758 
L 301.253236 113.460985 
L 302.389527 127.050687 
L 303.606982 138.898648 
L 304.9056 149.296157 
L 306.204218 157.98062 
L 307.584 165.78976 
L 309.044945 172.833819 
L 310.587055 179.2078 
L 312.210327 184.993435 
L 313.914764 190.261031 
L 315.700364 195.071126 
L 317.567127 199.475941 
L 319.515055 203.520625 
L 321.625309 207.384177 
L 323.816727 210.929253 
L 326.089309 214.192158 
L 328.524218 217.301964 
L 331.121455 220.254099 
L 333.881018 223.048163 
L 336.802909 225.686777 
L 339.887127 228.174665 
L 343.214836 230.573323 
L 346.786036 232.87231 
L 350.681891 235.109662 
L 354.821236 237.229285 
L 359.3664 239.302787 
L 364.317382 241.310617 
L 369.674182 243.239436 
L 374.138182 244.6848 
L 374.138182 244.6848 
" clip-path="url(#p4b70f48cbb)" style="fill: none; stroke: #bcbd22; stroke-width: 1.5; stroke-linecap: square"/>
   </g>
   <g id="line2d_31">
    <path d="M 297.460088 -1 
L 298.250182 27.391478 
L 299.142982 52.058881 
L 300.116945 73.025397 
L 301.172073 90.995101 
L 302.308364 106.518383 
L 303.525818 120.02773 
L 304.824436 131.865364 
L 306.123055 141.740411 
L 307.502836 150.61096 
L 308.963782 158.605255 
L 310.505891 165.83341 
L 312.129164 172.389864 
L 313.8336 178.355646 
L 315.6192 183.800369 
L 317.485964 188.783969 
L 319.433891 193.358177 
L 321.462982 197.567764 
L 323.573236 201.4516 
L 325.845818 205.168953 
L 328.199564 208.597337 
L 330.715636 211.867832 
L 333.394036 214.976249 
L 336.1536 217.842646 
L 339.156655 220.637508 
L 342.322036 223.276497 
L 345.730909 225.823279 
L 349.383273 228.267241 
L 353.279127 230.602138 
L 357.499636 232.866364 
L 362.0448 235.046759 
L 366.914618 237.134882 
L 372.190255 239.155438 
L 374.138182 239.8464 
L 374.138182 239.8464 
" clip-path="url(#p4b70f48cbb)" style="fill: none; stroke: #17becf; stroke-width: 1.5; stroke-linecap: square"/>
   </g>
   <g id="patch_8">
    <path d="M 252.392727 307.584 
L 252.392727 41.472 
" style="fill: none; stroke: #000000; stroke-width: 0.8; stroke-linejoin: miter; stroke-linecap: square"/>
   </g>
   <g id="patch_9">
    <path d="M 414.72 307.584 
L 414.72 41.472 
" style="fill: none; stroke: #000000; stroke-width: 0.8; stroke-linejoin: miter; stroke-linecap: square"/>
   </g>
   <g id="patch_10">
    <path d="M 252.392727 307.584 
L 414.72 307.584 
" style="fill: none; stroke: #000000; stroke-width: 0.8; stroke-linejoin: miter; stroke-linecap: square"/>
   </g>
   <g id="patch_11">
    <path d="M 252.392727 41.472 
L 414.72 41.472 
" style="fill: none; stroke: #000000; stroke-width: 0.8; stroke-linejoin: miter; stroke-linecap: square"/>
   </g>
  </g>
  <g id="text_22">
   <!-- t = 0.9999999999999999 -->
   <g transform="translate(152.401875 16.030125) scale(0.12 -0.12)">
    <defs>
     <path id="DejaVuSans-74" d="M 1172 4494 
L 1172 3500 
L 2356 3500 
L 2356 3053 
L 1172 3053 
L 1172 1153 
Q 1172 725 1289 603 
Q 1406 481 1766 481 
L 2356 481 
L 2356 0 
L 1766 0 
Q 1100 0 847 248 
Q 594 497 594 1153 
L 594 3053 
L 172 3053 
L 172 3500 
L 594 3500 
L 594 4494 
L 1172 4494 
z
" transform="scale(0.015625)"/>
     <path id="DejaVuSans-20" transform="scale(0.015625)"/>
     <path id="DejaVuSans-3d" d="M 678 2906 
L 4684 2906 
L 4684 2381 
L 678 2381 
L 678 2906 
z
M 678 1631 
L 4684 1631 
L 4684 1100 
L 678 1100 
L 678 1631 
z
" transform="scale(0.015625)"/>
     <path id="DejaVuSans-39" d="M 703 97 
L 703 672 
Q 941 559 1184 500 
Q 1428 441 1663 441 
Q 2288 441 2617 861 
Q 2947 1281 2994 2138 
Q 2813 1869 2534 1725 
Q 2256 1581 1919 1581 
Q 1219 1581 811 2004 
Q 403 2428 403 3163 
Q 403 3881 828 4315 
Q 1253 4750 1959 4750 
Q 2769 4750 3195 4129 
Q 3622 3509 3622 2328 
Q 3622 1225 3098 567 
Q 2575 -91 1691 -91 
Q 1453 -91 1209 -44 
Q 966 3 703 97 
z
M 1959 2075 
Q 2384 2075 2632 2365 
Q 2881 2656 2881 3163 
Q 2881 3666 2632 3958 
Q 2384 4250 1959 4250 
Q 1534 4250 1286 3958 
Q 1038 3666 1038 3163 
Q 1038 2656 1286 2365 
Q 1534 2075 1959 2075 
z
" transform="scale(0.015625)"/>
    </defs>
    <use xlink:href="#DejaVuSans-74"/>
    <use xlink:href="#DejaVuSans-20" x="39.208984"/>
    <use xlink:href="#DejaVuSans-3d" x="70.996094"/>
    <use xlink:href="#DejaVuSans-20" x="154.785156"/>
    <use xlink:href="#DejaVuSans-30" x="186.572266"/>
    <use xlink:href="#DejaVuSans-2e" x="250.195312"/>
    <use xlink:href="#DejaVuSans-39" x="281.982422"/>
    <use xlink:href="#DejaVuSans-39" x="345.605469"/>
    <use xlink:href="#DejaVuSans-39" x="409.228516"/>
    <use xlink:href="#DejaVuSans-39" x="472.851562"/>
    <use xlink:href="#DejaVuSans-39" x="536.474609"/>
    <use xlink:href="#DejaVuSans-39" x="600.097656"/>
    <use xlink:href="#DejaVuSans-39" x="663.720703"/>
    <use xlink:href="#DejaVuSans-39" x="727.34375"/>
    <use xlink:href="#DejaVuSans-39" x="790.966797"/>
    <use xlink:href="#DejaVuSans-39" x="854.589844"/>
    <use xlink:href="#DejaVuSans-39" x="918.212891"/>
    <use xlink:href="#DejaVuSans-39" x="981.835938"/>
    <use xlink:href="#DejaVuSans-39" x="1045.458984"/>
    <use xlink:href="#DejaVuSans-39" x="1109.082031"/>
    <use xlink:href="#DejaVuSans-39" x="1172.705078"/>
    <use xlink:href="#DejaVuSans-39" x="1236.328125"/>
   </g>
  </g>
 </g>
 <defs>
  <clipPath id="pa14603dddf">
   <rect x="57.6" y="41.472" width="162.327273" height="266.112"/>
  </clipPath>
  <clipPath id="p4b70f48cbb">
   <rect x="252.392727" y="41.472" width="162.327273" height="266.112"/>
  </clipPath>
 </defs>
</svg>
