<?xml version="1.0" encoding="utf-8" standalone="no"?>
<!DOCTYPE svg PUBLIC "-//W3C//DTD SVG 1.1//EN"
  "http://www.w3.org/Graphics/SVG/1.1/DTD/svg11.dtd">
<svg xmlns:xlink="http://www.w3.org/1999/xlink" width="460.8pt" height="345.6pt" viewBox="0 0 460.8 345.6" xmlns="http://www.w3.org/2000/svg" version="1.1">
 <metadata>
  <rdf:RDF xmlns:dc="http://purl.org/dc/elements/1.1/" xmlns:cc="http://creativecommons.org/ns#" xmlns:rdf="http://www.w3.org/1999/02/22-rdf-syntax-ns#">
   <cc:Work>
    <dc:type rdf:resource="http://purl.org/dc/dcmitype/StillImage"/>
    <dc:date>2023-01-17T23:38:59.845603</dc:date>
    <dc:format>image/svg+xml</dc:format>
    <dc:creator>
     <cc:Agent>
      <dc:title>Matplotlib v3.6.3, https://matplotlib.org/</dc:title>
     </cc:Agent>
    </dc:creator>
   </cc:Work>
  </rdf:RDF>
 </metadata>
 <defs>
  <style type="text/css">*{stroke-linejoin: round; stroke-linecap: butt}</style>
 </defs>
 <g id="figure_1">
  <g id="patch_1">
   <path d="M 0 345.6 
L 460.8 345.6 
L 460.8 0 
L 0 0 
z
" style="fill: #ffffff"/>
  </g>
  <g id="axes_1">
   <g id="patch_2">
    <path d="M 57.6 307.584 
L 219.927273 307.584 
L 219.927273 41.472 
L 57.6 41.472 
z
" style="fill: #ffffff"/>
   </g>
   <g id="Quiver_1">
    <path d="M 65.132138 295.072799 
L 74.806554 298.652362 
L 74.698604 297.668334 
L 78.389738 300.450194 
L 73.77685 300.15954 
L 74.499303 299.482764 
L 64.824887 295.903201 
L 65.132138 295.072799 
" clip-path="url(#p5f81185b54)"/>
    <path d="M 79.921378 295.086184 
L 87.034018 298.375807 
L 87.003885 297.386334 
L 90.464518 300.450194 
L 85.888837 299.797228 
L 86.662336 299.179438 
L 79.549696 295.889816 
L 79.921378 295.086184 
" clip-path="url(#p5f81185b54)"/>
    <path d="M 94.724937 295.111178 
L 99.380278 297.981995 
L 99.468207 296.995976 
L 102.539298 300.450194 
L 98.073955 299.256906 
L 98.915527 298.735638 
L 94.260187 295.864822 
L 94.724937 295.111178 
" clip-path="url(#p5f81185b54)"/>
    <path d="M 109.550207 295.163007 
L 111.989765 297.419617 
L 112.266014 296.469011 
L 114.614077 300.450194 
L 110.462291 298.418966 
L 111.388524 298.069602 
L 108.948966 295.812993 
L 109.550207 295.163007 
" clip-path="url(#p5f81185b54)"/>
    <path d="M 124.396068 295.277485 
L 125.183676 296.734572 
L 125.752074 295.924086 
L 126.688857 300.450194 
L 123.415336 297.187177 
L 124.404764 297.155603 
L 123.617155 295.698515 
L 124.396068 295.277485 
" clip-path="url(#p5f81185b54)"/>
    <path d="M 139.206347 295.488 
L 139.206347 296.465797 
L 140.091769 296.023086 
L 138.763636 300.450194 
L 137.435504 296.023086 
L 138.320926 296.465797 
L 138.320926 295.488 
L 139.206347 295.488 
" clip-path="url(#p5f81185b54)"/>
    <path d="M 153.910117 295.698515 
L 153.122509 297.155603 
L 154.111937 297.187177 
L 150.838416 300.450194 
L 151.775199 295.924086 
L 152.343596 296.734572 
L 153.131205 295.277485 
L 153.910117 295.698515 
" clip-path="url(#p5f81185b54)"/>
    <path d="M 168.578306 295.812993 
L 166.138749 298.069602 
L 167.064982 298.418966 
L 162.913196 300.450194 
L 165.261259 296.469011 
L 165.537508 297.419617 
L 167.977065 295.163007 
L 168.578306 295.812993 
" clip-path="url(#p5f81185b54)"/>
    <path d="M 183.267086 295.864822 
L 178.611745 298.735638 
L 179.453317 299.256906 
L 174.987975 300.450194 
L 178.059066 296.995976 
L 178.146995 297.981995 
L 182.802336 295.111178 
L 183.267086 295.864822 
" clip-path="url(#p5f81185b54)"/>
    <path d="M 197.977577 295.889816 
L 190.864937 299.179438 
L 191.638435 299.797228 
L 187.062755 300.450194 
L 190.523388 297.386334 
L 190.493255 298.375807 
L 197.605894 295.086184 
L 197.977577 295.889816 
" clip-path="url(#p5f81185b54)"/>
    <path d="M 212.702386 295.903201 
L 203.02797 299.482764 
L 203.750422 300.15954 
L 199.137534 300.450194 
L 202.828669 297.668334 
L 202.720719 298.652362 
L 212.395135 295.072799 
L 212.702386 295.903201 
" clip-path="url(#p5f81185b54)"/>
    <path d="M 65.104167 270.871496 
L 74.694855 273.710362 
L 74.521659 272.7357 
L 78.389738 275.265755 
L 73.767734 275.282725 
L 74.443546 274.559371 
L 64.852858 271.720504 
L 65.104167 270.871496 
" clip-path="url(#p5f81185b54)"/>
    <path d="M 79.889163 270.880799 
L 86.881334 273.467923 
L 86.773384 272.483895 
L 90.464518 275.265755 
L 85.85163 274.975102 
L 86.574082 274.298325 
L 79.581912 271.711201 
L 79.889163 270.880799 
" clip-path="url(#p5f81185b54)"/>
    <path d="M 94.688429 270.898975 
L 99.16194 273.105925 
L 99.156649 272.116008 
L 102.539298 275.265755 
L 97.981446 274.498157 
L 98.770206 273.899975 
L 94.296695 271.693025 
L 94.688429 270.898975 
" clip-path="url(#p5f81185b54)"/>
    <path d="M 109.512932 270.940132 
L 111.674606 272.539784 
L 111.845427 271.564702 
L 114.614077 275.265755 
L 110.265359 273.699913 
L 111.147917 273.25152 
L 108.986242 271.651868 
L 109.512932 270.940132 
" clip-path="url(#p5f81185b54)"/>
    <path d="M 124.373438 271.048146 
L 124.825001 271.716466 
L 125.3108 270.853933 
L 126.688857 275.265755 
L 123.109843 272.341054 
L 124.091349 272.212173 
L 123.639785 271.543854 
L 124.373438 271.048146 
" clip-path="url(#p5f81185b54)"/>
    <path d="M 139.160612 271.296 
L 139.160612 271.692975 
L 139.954563 271.296 
L 138.763636 275.265755 
L 137.57271 271.296 
L 138.366661 271.692975 
L 138.366661 271.296 
L 139.160612 271.296 
" clip-path="url(#p5f81185b54)"/>
    <path d="M 153.887487 271.543854 
L 153.435924 272.212173 
L 154.41743 272.341054 
L 150.838416 275.265755 
L 152.216473 270.853933 
L 152.702271 271.716466 
L 153.153835 271.048146 
L 153.887487 271.543854 
" clip-path="url(#p5f81185b54)"/>
    <path d="M 168.541031 271.651868 
L 166.379356 273.25152 
L 167.261914 273.699913 
L 162.913196 275.265755 
L 165.681846 271.564702 
L 165.852667 272.539784 
L 168.014341 270.940132 
L 168.541031 271.651868 
" clip-path="url(#p5f81185b54)"/>
    <path d="M 183.230578 271.693025 
L 178.757067 273.899975 
L 179.545827 274.498157 
L 174.987975 275.265755 
L 178.370623 272.116008 
L 178.365333 273.105925 
L 182.838844 270.898975 
L 183.230578 271.693025 
" clip-path="url(#p5f81185b54)"/>
    <path d="M 197.945361 271.711201 
L 190.95319 274.298325 
L 191.675643 274.975102 
L 187.062755 275.265755 
L 190.753889 272.483895 
L 190.645939 273.467923 
L 197.63811 270.880799 
L 197.945361 271.711201 
" clip-path="url(#p5f81185b54)"/>
    <path d="M 212.674415 271.720504 
L 203.083726 274.559371 
L 203.759539 275.282725 
L 199.137534 275.265755 
L 203.005614 272.7357 
L 202.832418 273.710362 
L 212.423106 270.871496 
L 212.674415 271.720504 
" clip-path="url(#p5f81185b54)"/>
    <path d="M 65.074459 246.671811 
L 74.595987 248.785608 
L 74.355692 247.825284 
L 78.389738 250.081316 
L 73.780012 250.418416 
L 74.404094 249.649985 
L 64.882566 247.536189 
L 65.074459 246.671811 
" clip-path="url(#p5f81185b54)"/>
    <path d="M 79.853917 246.67741 
L 86.743587 248.589309 
L 86.553757 247.617749 
L 90.464518 250.081316 
L 85.843479 250.177289 
L 86.506828 249.442489 
L 79.617158 247.53059 
L 79.853917 246.67741 
" clip-path="url(#p5f81185b54)"/>
    <path d="M 94.646188 246.688799 
L 98.956113 248.283484 
L 98.848163 247.299456 
L 102.539298 250.081316 
L 97.926409 249.790663 
L 98.648862 249.113886 
L 94.338936 247.519201 
L 94.646188 246.688799 
" clip-path="url(#p5f81185b54)"/>
    <path d="M 109.464423 246.716911 
L 111.345109 247.7607 
L 111.387693 246.771685 
L 114.614077 250.081316 
L 110.098675 249.094221 
L 110.915437 248.534879 
L 109.03475 247.491089 
L 109.464423 246.716911 
" clip-path="url(#p5f81185b54)"/>
    <path d="M 124.304343 246.835775 
L 124.572568 247.133507 
L 124.899806 246.299326 
L 126.688857 250.081316 
L 123.113417 247.908674 
L 123.977104 247.669956 
L 123.70888 247.372225 
L 124.304343 246.835775 
" clip-path="url(#p5f81185b54)"/>
    <path d="M 139.061368 247.104 
L 139.061368 247.401732 
L 139.656831 247.104 
L 138.763636 250.081316 
L 137.870442 247.104 
L 138.465905 247.401732 
L 138.465905 247.104 
L 139.061368 247.104 
" clip-path="url(#p5f81185b54)"/>
    <path d="M 153.818393 247.372225 
L 153.550168 247.669956 
L 154.413856 247.908674 
L 150.838416 250.081316 
L 152.627466 246.299326 
L 152.954705 247.133507 
L 153.22293 246.835775 
L 153.818393 247.372225 
" clip-path="url(#p5f81185b54)"/>
    <path d="M 168.492522 247.491089 
L 166.611836 248.534879 
L 167.428598 249.094221 
L 162.913196 250.081316 
L 166.13958 246.771685 
L 166.182163 247.7607 
L 168.06285 246.716911 
L 168.492522 247.491089 
" clip-path="url(#p5f81185b54)"/>
    <path d="M 183.188336 247.519201 
L 178.878411 249.113886 
L 179.600863 249.790663 
L 174.987975 250.081316 
L 178.679109 247.299456 
L 178.57116 248.283484 
L 182.881085 246.688799 
L 183.188336 247.519201 
" clip-path="url(#p5f81185b54)"/>
    <path d="M 197.910115 247.53059 
L 191.020445 249.442489 
L 191.683794 250.177289 
L 187.062755 250.081316 
L 190.973516 247.617749 
L 190.783685 248.589309 
L 197.673356 246.67741 
L 197.910115 247.53059 
" clip-path="url(#p5f81185b54)"/>
    <path d="M 212.644707 247.536189 
L 203.123179 249.649985 
L 203.747261 250.418416 
L 199.137534 250.081316 
L 203.171581 247.825284 
L 202.931286 248.785608 
L 212.452814 246.671811 
L 212.644707 247.536189 
" clip-path="url(#p5f81185b54)"/>
    <path d="M 65.043328 222.47406 
L 74.513091 223.875596 
L 74.204782 222.9349 
L 78.389738 224.896877 
L 73.815888 225.562542 
L 74.38346 224.751477 
L 64.913697 223.34994 
L 65.043328 222.47406 
" clip-path="url(#p5f81185b54)"/>
    <path d="M 79.816073 222.476676 
L 86.627139 223.736734 
L 86.352886 222.78555 
L 90.464518 224.896877 
L 85.869673 225.397493 
L 86.466068 224.607381 
L 79.655002 223.347324 
L 79.816073 222.476676 
" clip-path="url(#p5f81185b54)"/>
    <path d="M 94.598587 222.482173 
L 98.776877 223.512826 
L 98.559099 222.547146 
L 102.539298 224.896877 
L 97.92295 225.12611 
L 98.564827 224.37248 
L 94.386537 223.341827 
L 94.598587 222.482173 
" clip-path="url(#p5f81185b54)"/>
    <path d="M 109.403212 222.496799 
L 111.030893 223.099045 
L 110.922943 222.115018 
L 114.614077 224.896877 
L 110.001189 224.606224 
L 110.723641 223.929448 
L 109.095961 223.327201 
L 109.403212 222.496799 
" clip-path="url(#p5f81185b54)"/>
    <path d="M 124.205099 222.643775 
L 124.473324 222.842263 
L 124.602075 222.107326 
L 126.688857 224.896877 
L 123.411148 223.716674 
L 124.076348 223.378712 
L 123.808124 223.180225 
L 124.205099 222.643775 
" clip-path="url(#p5f81185b54)"/>
    <path d="M 138.962124 222.912 
L 138.962124 223.110488 
L 139.3591 222.912 
L 138.763636 224.896877 
L 138.168173 222.912 
L 138.565149 223.110488 
L 138.565149 222.912 
L 138.962124 222.912 
" clip-path="url(#p5f81185b54)"/>
    <path d="M 153.719149 223.180225 
L 153.450924 223.378712 
L 154.116124 223.716674 
L 150.838416 224.896877 
L 152.925198 222.107326 
L 153.053949 222.842263 
L 153.322173 222.643775 
L 153.719149 223.180225 
" clip-path="url(#p5f81185b54)"/>
    <path d="M 168.431312 223.327201 
L 166.803631 223.929448 
L 167.526084 224.606224 
L 162.913196 224.896877 
L 166.60433 222.115018 
L 166.49638 223.099045 
L 168.12406 222.496799 
L 168.431312 223.327201 
" clip-path="url(#p5f81185b54)"/>
    <path d="M 183.140736 223.341827 
L 178.962446 224.37248 
L 179.604323 225.12611 
L 174.987975 224.896877 
L 178.968174 222.547146 
L 178.750396 223.512826 
L 182.928686 222.482173 
L 183.140736 223.341827 
" clip-path="url(#p5f81185b54)"/>
    <path d="M 197.872271 223.347324 
L 191.061205 224.607381 
L 191.6576 225.397493 
L 187.062755 224.896877 
L 191.174386 222.78555 
L 190.900134 223.736734 
L 197.7112 222.476676 
L 197.872271 223.347324 
" clip-path="url(#p5f81185b54)"/>
    <path d="M 212.613576 223.34994 
L 203.143813 224.751477 
L 203.711385 225.562542 
L 199.137534 224.896877 
L 203.322491 222.9349 
L 203.014182 223.875596 
L 212.483945 222.47406 
L 212.613576 223.34994 
" clip-path="url(#p5f81185b54)"/>
    <path d="M 65.011184 198.278496 
L 74.448878 198.976891 
L 74.072718 198.061213 
L 78.389738 199.712439 
L 73.876688 200.710234 
L 74.383535 199.859899 
L 64.945841 199.161504 
L 65.011184 198.278496 
" clip-path="url(#p5f81185b54)"/>
    <path d="M 79.776314 198.279171 
L 86.537836 198.904617 
L 86.178561 197.982182 
L 90.464518 199.712439 
L 85.933899 200.627155 
L 86.456282 199.786275 
L 79.69476 199.160829 
L 79.776314 198.279171 
" clip-path="url(#p5f81185b54)"/>
    <path d="M 94.546753 198.280618 
L 98.639054 198.78534 
L 98.308054 197.852386 
L 102.539298 199.712439 
L 97.982909 200.488675 
L 98.530673 199.664103 
L 94.438371 199.159382 
L 94.546753 198.280618 
" clip-path="url(#p5f81185b54)"/>
    <path d="M 109.330122 198.284676 
L 110.776698 198.552295 
L 110.502446 197.601112 
L 114.614077 199.712439 
L 110.019232 200.213055 
L 110.615627 199.422943 
L 109.169051 199.155324 
L 109.330122 198.284676 
" clip-path="url(#p5f81185b54)"/>
    <path d="M 124.105855 198.451775 
L 124.37408 198.551019 
L 124.304343 197.915326 
L 126.688857 199.712439 
L 123.70888 199.524674 
L 124.175592 199.087468 
L 123.907368 198.988225 
L 124.105855 198.451775 
" clip-path="url(#p5f81185b54)"/>
    <path d="M 138.86288 198.72 
L 138.86288 198.819244 
L 139.061368 198.72 
L 138.763636 199.712439 
L 138.465905 198.72 
L 138.664392 198.819244 
L 138.664392 198.72 
L 138.86288 198.72 
" clip-path="url(#p5f81185b54)"/>
    <path d="M 153.619905 198.988225 
L 153.351681 199.087468 
L 153.818393 199.524674 
L 150.838416 199.712439 
L 153.22293 197.915326 
L 153.153193 198.551019 
L 153.421417 198.451775 
L 153.619905 198.988225 
" clip-path="url(#p5f81185b54)"/>
    <path d="M 168.358222 199.155324 
L 166.911646 199.422943 
L 167.50804 200.213055 
L 162.913196 199.712439 
L 167.024827 197.601112 
L 166.750574 198.552295 
L 168.19715 198.284676 
L 168.358222 199.155324 
" clip-path="url(#p5f81185b54)"/>
    <path d="M 183.088902 199.159382 
L 178.9966 199.664103 
L 179.544363 200.488675 
L 174.987975 199.712439 
L 179.219218 197.852386 
L 178.888218 198.78534 
L 182.98052 198.280618 
L 183.088902 199.159382 
" clip-path="url(#p5f81185b54)"/>
    <path d="M 197.832513 199.160829 
L 191.070991 199.786275 
L 191.593374 200.627155 
L 187.062755 199.712439 
L 191.348712 197.982182 
L 190.989437 198.904617 
L 197.750959 198.279171 
L 197.832513 199.160829 
" clip-path="url(#p5f81185b54)"/>
    <path d="M 212.581432 199.161504 
L 203.143738 199.859899 
L 203.650584 200.710234 
L 199.137534 199.712439 
L 203.454555 198.061213 
L 203.078395 198.976891 
L 212.516089 198.278496 
L 212.581432 199.161504 
" clip-path="url(#p5f81185b54)"/>
    <path d="M 64.978512 174.085289 
L 74.405342 174.085289 
L 73.962631 173.199868 
L 78.389738 174.528 
L 73.962631 175.856132 
L 74.405342 174.970711 
L 64.978512 174.970711 
L 64.978512 174.085289 
" clip-path="url(#p5f81185b54)"/>
    <path d="M 79.735537 174.085289 
L 86.480121 174.085289 
L 86.03741 173.199868 
L 90.464518 174.528 
L 86.03741 175.856132 
L 86.480121 174.970711 
L 79.735537 174.970711 
L 79.735537 174.085289 
" clip-path="url(#p5f81185b54)"/>
    <path d="M 94.492562 174.085289 
L 98.554901 174.085289 
L 98.11219 173.199868 
L 102.539298 174.528 
L 98.11219 175.856132 
L 98.554901 174.970711 
L 94.492562 174.970711 
L 94.492562 174.085289 
" clip-path="url(#p5f81185b54)"/>
    <path d="M 109.249587 174.085289 
L 110.62968 174.085289 
L 110.18697 173.199868 
L 114.614077 174.528 
L 110.18697 175.856132 
L 110.62968 174.970711 
L 109.249587 174.970711 
L 109.249587 174.085289 
" clip-path="url(#p5f81185b54)"/>
    <path d="M 124.006612 174.259775 
L 124.274836 174.259775 
L 124.006612 173.723326 
L 126.688857 174.528 
L 124.006612 175.332674 
L 124.274836 174.796225 
L 124.006612 174.796225 
L 124.006612 174.259775 
" clip-path="url(#p5f81185b54)"/>
    <path d="M 139.206347 174.528 
L 138.984992 174.144601 
L 138.542281 174.144601 
L 138.320926 174.528 
L 138.542281 174.911399 
L 138.984992 174.911399 
L 139.206347 174.528 
L 138.984992 174.144601 
" clip-path="url(#p5f81185b54)"/>
    <path d="M 153.520661 174.796225 
L 153.252437 174.796225 
L 153.520661 175.332674 
L 150.838416 174.528 
L 153.520661 173.723326 
L 153.252437 174.259775 
L 153.520661 174.259775 
L 153.520661 174.796225 
" clip-path="url(#p5f81185b54)"/>
    <path d="M 168.277686 174.970711 
L 166.897592 174.970711 
L 167.340303 175.856132 
L 162.913196 174.528 
L 167.340303 173.199868 
L 166.897592 174.085289 
L 168.277686 174.085289 
L 168.277686 174.970711 
" clip-path="url(#p5f81185b54)"/>
    <path d="M 183.034711 174.970711 
L 178.972372 174.970711 
L 179.415083 175.856132 
L 174.987975 174.528 
L 179.415083 173.199868 
L 178.972372 174.085289 
L 183.034711 174.085289 
L 183.034711 174.970711 
" clip-path="url(#p5f81185b54)"/>
    <path d="M 197.791736 174.970711 
L 191.047151 174.970711 
L 191.489862 175.856132 
L 187.062755 174.528 
L 191.489862 173.199868 
L 191.047151 174.085289 
L 197.791736 174.085289 
L 197.791736 174.970711 
" clip-path="url(#p5f81185b54)"/>
    <path d="M 212.54876 174.970711 
L 203.121931 174.970711 
L 203.564642 175.856132 
L 199.137534 174.528 
L 203.564642 173.199868 
L 203.121931 174.085289 
L 212.54876 174.085289 
L 212.54876 174.970711 
" clip-path="url(#p5f81185b54)"/>
    <path d="M 64.945841 149.894496 
L 74.383535 149.196101 
L 73.876688 148.345766 
L 78.389738 149.343561 
L 74.072718 150.994787 
L 74.448878 150.079109 
L 65.011184 150.777504 
L 64.945841 149.894496 
" clip-path="url(#p5f81185b54)"/>
    <path d="M 79.69476 149.895171 
L 86.456282 149.269725 
L 85.933899 148.428845 
L 90.464518 149.343561 
L 86.178561 151.073818 
L 86.537836 150.151383 
L 79.776314 150.776829 
L 79.69476 149.895171 
" clip-path="url(#p5f81185b54)"/>
    <path d="M 94.438371 149.896618 
L 98.530673 149.391897 
L 97.982909 148.567325 
L 102.539298 149.343561 
L 98.308054 151.203614 
L 98.639054 150.27066 
L 94.546753 150.775382 
L 94.438371 149.896618 
" clip-path="url(#p5f81185b54)"/>
    <path d="M 109.169051 149.900676 
L 110.615627 149.633057 
L 110.019232 148.842945 
L 114.614077 149.343561 
L 110.502446 151.454888 
L 110.776698 150.503705 
L 109.330122 150.771324 
L 109.169051 149.900676 
" clip-path="url(#p5f81185b54)"/>
    <path d="M 123.907368 150.067775 
L 124.175592 149.968532 
L 123.70888 149.531326 
L 126.688857 149.343561 
L 124.304343 151.140674 
L 124.37408 150.504981 
L 124.105855 150.604225 
L 123.907368 150.067775 
" clip-path="url(#p5f81185b54)"/>
    <path d="M 138.664392 150.336 
L 138.664392 150.236756 
L 138.465905 150.336 
L 138.763636 149.343561 
L 139.061368 150.336 
L 138.86288 150.236756 
L 138.86288 150.336 
L 138.664392 150.336 
" clip-path="url(#p5f81185b54)"/>
    <path d="M 153.421417 150.604225 
L 153.153193 150.504981 
L 153.22293 151.140674 
L 150.838416 149.343561 
L 153.818393 149.531326 
L 153.351681 149.968532 
L 153.619905 150.067775 
L 153.421417 150.604225 
" clip-path="url(#p5f81185b54)"/>
    <path d="M 168.19715 150.771324 
L 166.750574 150.503705 
L 167.024827 151.454888 
L 162.913196 149.343561 
L 167.50804 148.842945 
L 166.911646 149.633057 
L 168.358222 149.900676 
L 168.19715 150.771324 
" clip-path="url(#p5f81185b54)"/>
    <path d="M 182.98052 150.775382 
L 178.888218 150.27066 
L 179.219218 151.203614 
L 174.987975 149.343561 
L 179.544363 148.567325 
L 178.9966 149.391897 
L 183.088902 149.896618 
L 182.98052 150.775382 
" clip-path="url(#p5f81185b54)"/>
    <path d="M 197.750959 150.776829 
L 190.989437 150.151383 
L 191.348712 151.073818 
L 187.062755 149.343561 
L 191.593374 148.428845 
L 191.070991 149.269725 
L 197.832513 149.895171 
L 197.750959 150.776829 
" clip-path="url(#p5f81185b54)"/>
    <path d="M 212.516089 150.777504 
L 203.078395 150.079109 
L 203.454555 150.994787 
L 199.137534 149.343561 
L 203.650584 148.345766 
L 203.143738 149.196101 
L 212.581432 149.894496 
L 212.516089 150.777504 
" clip-path="url(#p5f81185b54)"/>
    <path d="M 64.913697 125.70606 
L 74.38346 124.304523 
L 73.815888 123.493458 
L 78.389738 124.159123 
L 74.204782 126.1211 
L 74.513091 125.180404 
L 65.043328 126.58194 
L 64.913697 125.70606 
" clip-path="url(#p5f81185b54)"/>
    <path d="M 79.655002 125.708676 
L 86.466068 124.448619 
L 85.869673 123.658507 
L 90.464518 124.159123 
L 86.352886 126.27045 
L 86.627139 125.319266 
L 79.816073 126.579324 
L 79.655002 125.708676 
" clip-path="url(#p5f81185b54)"/>
    <path d="M 94.386537 125.714173 
L 98.564827 124.68352 
L 97.92295 123.92989 
L 102.539298 124.159123 
L 98.559099 126.508854 
L 98.776877 125.543174 
L 94.598587 126.573827 
L 94.386537 125.714173 
" clip-path="url(#p5f81185b54)"/>
    <path d="M 109.095961 125.728799 
L 110.723641 125.126552 
L 110.001189 124.449776 
L 114.614077 124.159123 
L 110.922943 126.940982 
L 111.030893 125.956955 
L 109.403212 126.559201 
L 109.095961 125.728799 
" clip-path="url(#p5f81185b54)"/>
    <path d="M 123.808124 125.875775 
L 124.076348 125.677288 
L 123.411148 125.339326 
L 126.688857 124.159123 
L 124.602075 126.948674 
L 124.473324 126.213737 
L 124.205099 126.412225 
L 123.808124 125.875775 
" clip-path="url(#p5f81185b54)"/>
    <path d="M 138.565149 126.144 
L 138.565149 125.945512 
L 138.168173 126.144 
L 138.763636 124.159123 
L 139.3591 126.144 
L 138.962124 125.945512 
L 138.962124 126.144 
L 138.565149 126.144 
" clip-path="url(#p5f81185b54)"/>
    <path d="M 153.322173 126.412225 
L 153.053949 126.213737 
L 152.925198 126.948674 
L 150.838416 124.159123 
L 154.116124 125.339326 
L 153.450924 125.677288 
L 153.719149 125.875775 
L 153.322173 126.412225 
" clip-path="url(#p5f81185b54)"/>
    <path d="M 168.12406 126.559201 
L 166.49638 125.956955 
L 166.60433 126.940982 
L 162.913196 124.159123 
L 167.526084 124.449776 
L 166.803631 125.126552 
L 168.431312 125.728799 
L 168.12406 126.559201 
" clip-path="url(#p5f81185b54)"/>
    <path d="M 182.928686 126.573827 
L 178.750396 125.543174 
L 178.968174 126.508854 
L 174.987975 124.159123 
L 179.604323 123.92989 
L 178.962446 124.68352 
L 183.140736 125.714173 
L 182.928686 126.573827 
" clip-path="url(#p5f81185b54)"/>
    <path d="M 197.7112 126.579324 
L 190.900134 125.319266 
L 191.174386 126.27045 
L 187.062755 124.159123 
L 191.6576 123.658507 
L 191.061205 124.448619 
L 197.872271 125.708676 
L 197.7112 126.579324 
" clip-path="url(#p5f81185b54)"/>
    <path d="M 212.483945 126.58194 
L 203.014182 125.180404 
L 203.322491 126.1211 
L 199.137534 124.159123 
L 203.711385 123.493458 
L 203.143813 124.304523 
L 212.613576 125.70606 
L 212.483945 126.58194 
" clip-path="url(#p5f81185b54)"/>
    <path d="M 64.882566 101.519811 
L 74.404094 99.406015 
L 73.780012 98.637584 
L 78.389738 98.974684 
L 74.355692 101.230716 
L 74.595987 100.270392 
L 65.074459 102.384189 
L 64.882566 101.519811 
" clip-path="url(#p5f81185b54)"/>
    <path d="M 79.617158 101.52541 
L 86.506828 99.613511 
L 85.843479 98.878711 
L 90.464518 98.974684 
L 86.553757 101.438251 
L 86.743587 100.466691 
L 79.853917 102.37859 
L 79.617158 101.52541 
" clip-path="url(#p5f81185b54)"/>
    <path d="M 94.338936 101.536799 
L 98.648862 99.942114 
L 97.926409 99.265337 
L 102.539298 98.974684 
L 98.848163 101.756544 
L 98.956113 100.772516 
L 94.646188 102.367201 
L 94.338936 101.536799 
" clip-path="url(#p5f81185b54)"/>
    <path d="M 109.03475 101.564911 
L 110.915437 100.521121 
L 110.098675 99.961779 
L 114.614077 98.974684 
L 111.387693 102.284315 
L 111.345109 101.2953 
L 109.464423 102.339089 
L 109.03475 101.564911 
" clip-path="url(#p5f81185b54)"/>
    <path d="M 123.70888 101.683775 
L 123.977104 101.386044 
L 123.113417 101.147326 
L 126.688857 98.974684 
L 124.899806 102.756674 
L 124.572568 101.922493 
L 124.304343 102.220225 
L 123.70888 101.683775 
" clip-path="url(#p5f81185b54)"/>
    <path d="M 138.465905 101.952 
L 138.465905 101.654268 
L 137.870442 101.952 
L 138.763636 98.974684 
L 139.656831 101.952 
L 139.061368 101.654268 
L 139.061368 101.952 
L 138.465905 101.952 
" clip-path="url(#p5f81185b54)"/>
    <path d="M 153.22293 102.220225 
L 152.954705 101.922493 
L 152.627466 102.756674 
L 150.838416 98.974684 
L 154.413856 101.147326 
L 153.550168 101.386044 
L 153.818393 101.683775 
L 153.22293 102.220225 
" clip-path="url(#p5f81185b54)"/>
    <path d="M 168.06285 102.339089 
L 166.182163 101.2953 
L 166.13958 102.284315 
L 162.913196 98.974684 
L 167.428598 99.961779 
L 166.611836 100.521121 
L 168.492522 101.564911 
L 168.06285 102.339089 
" clip-path="url(#p5f81185b54)"/>
    <path d="M 182.881085 102.367201 
L 178.57116 100.772516 
L 178.679109 101.756544 
L 174.987975 98.974684 
L 179.600863 99.265337 
L 178.878411 99.942114 
L 183.188336 101.536799 
L 182.881085 102.367201 
" clip-path="url(#p5f81185b54)"/>
    <path d="M 197.673356 102.37859 
L 190.783685 100.466691 
L 190.973516 101.438251 
L 187.062755 98.974684 
L 191.683794 98.878711 
L 191.020445 99.613511 
L 197.910115 101.52541 
L 197.673356 102.37859 
" clip-path="url(#p5f81185b54)"/>
    <path d="M 212.452814 102.384189 
L 202.931286 100.270392 
L 203.171581 101.230716 
L 199.137534 98.974684 
L 203.747261 98.637584 
L 203.123179 99.406015 
L 212.644707 101.519811 
L 212.452814 102.384189 
" clip-path="url(#p5f81185b54)"/>
    <path d="M 64.852858 77.335496 
L 74.443546 74.496629 
L 73.767734 73.773275 
L 78.389738 73.790245 
L 74.521659 76.3203 
L 74.694855 75.345638 
L 65.104167 78.184504 
L 64.852858 77.335496 
" clip-path="url(#p5f81185b54)"/>
    <path d="M 79.581912 77.344799 
L 86.574082 74.757675 
L 85.85163 74.080898 
L 90.464518 73.790245 
L 86.773384 76.572105 
L 86.881334 75.588077 
L 79.889163 78.175201 
L 79.581912 77.344799 
" clip-path="url(#p5f81185b54)"/>
    <path d="M 94.296695 77.362975 
L 98.770206 75.156025 
L 97.981446 74.557843 
L 102.539298 73.790245 
L 99.156649 76.939992 
L 99.16194 75.950075 
L 94.688429 78.157025 
L 94.296695 77.362975 
" clip-path="url(#p5f81185b54)"/>
    <path d="M 108.986242 77.404132 
L 111.147917 75.80448 
L 110.265359 75.356087 
L 114.614077 73.790245 
L 111.845427 77.491298 
L 111.674606 76.516216 
L 109.512932 78.115868 
L 108.986242 77.404132 
" clip-path="url(#p5f81185b54)"/>
    <path d="M 123.639785 77.512146 
L 124.091349 76.843827 
L 123.109843 76.714946 
L 126.688857 73.790245 
L 125.3108 78.202067 
L 124.825001 77.339534 
L 124.373438 78.007854 
L 123.639785 77.512146 
" clip-path="url(#p5f81185b54)"/>
    <path d="M 138.366661 77.76 
L 138.366661 77.363025 
L 137.57271 77.76 
L 138.763636 73.790245 
L 139.954563 77.76 
L 139.160612 77.363025 
L 139.160612 77.76 
L 138.366661 77.76 
" clip-path="url(#p5f81185b54)"/>
    <path d="M 153.153835 78.007854 
L 152.702271 77.339534 
L 152.216473 78.202067 
L 150.838416 73.790245 
L 154.41743 76.714946 
L 153.435924 76.843827 
L 153.887487 77.512146 
L 153.153835 78.007854 
" clip-path="url(#p5f81185b54)"/>
    <path d="M 168.014341 78.115868 
L 165.852667 76.516216 
L 165.681846 77.491298 
L 162.913196 73.790245 
L 167.261914 75.356087 
L 166.379356 75.80448 
L 168.541031 77.404132 
L 168.014341 78.115868 
" clip-path="url(#p5f81185b54)"/>
    <path d="M 182.838844 78.157025 
L 178.365333 75.950075 
L 178.370623 76.939992 
L 174.987975 73.790245 
L 179.545827 74.557843 
L 178.757067 75.156025 
L 183.230578 77.362975 
L 182.838844 78.157025 
" clip-path="url(#p5f81185b54)"/>
    <path d="M 197.63811 78.175201 
L 190.645939 75.588077 
L 190.753889 76.572105 
L 187.062755 73.790245 
L 191.675643 74.080898 
L 190.95319 74.757675 
L 197.945361 77.344799 
L 197.63811 78.175201 
" clip-path="url(#p5f81185b54)"/>
    <path d="M 212.423106 78.184504 
L 202.832418 75.345638 
L 203.005614 76.3203 
L 199.137534 73.790245 
L 203.759539 73.773275 
L 203.083726 74.496629 
L 212.674415 77.335496 
L 212.423106 78.184504 
" clip-path="url(#p5f81185b54)"/>
    <path d="M 64.824887 53.152799 
L 74.499303 49.573236 
L 73.77685 48.89646 
L 78.389738 48.605806 
L 74.698604 51.387666 
L 74.806554 50.403638 
L 65.132138 53.983201 
L 64.824887 53.152799 
" clip-path="url(#p5f81185b54)"/>
    <path d="M 79.549696 53.166184 
L 86.662336 49.876562 
L 85.888837 49.258772 
L 90.464518 48.605806 
L 87.003885 51.669666 
L 87.034018 50.680193 
L 79.921378 53.969816 
L 79.549696 53.166184 
" clip-path="url(#p5f81185b54)"/>
    <path d="M 94.260187 53.191178 
L 98.915527 50.320362 
L 98.073955 49.799094 
L 102.539298 48.605806 
L 99.468207 52.060024 
L 99.380278 51.074005 
L 94.724937 53.944822 
L 94.260187 53.191178 
" clip-path="url(#p5f81185b54)"/>
    <path d="M 108.948966 53.243007 
L 111.388524 50.986398 
L 110.462291 50.637034 
L 114.614077 48.605806 
L 112.266014 52.586989 
L 111.989765 51.636383 
L 109.550207 53.892993 
L 108.948966 53.243007 
" clip-path="url(#p5f81185b54)"/>
    <path d="M 123.617155 53.357485 
L 124.404764 51.900397 
L 123.415336 51.868823 
L 126.688857 48.605806 
L 125.752074 53.131914 
L 125.183676 52.321428 
L 124.396068 53.778515 
L 123.617155 53.357485 
" clip-path="url(#p5f81185b54)"/>
    <path d="M 138.320926 53.568 
L 138.320926 52.590203 
L 137.435504 53.032914 
L 138.763636 48.605806 
L 140.091769 53.032914 
L 139.206347 52.590203 
L 139.206347 53.568 
L 138.320926 53.568 
" clip-path="url(#p5f81185b54)"/>
    <path d="M 153.131205 53.778515 
L 152.343596 52.321428 
L 151.775199 53.131914 
L 150.838416 48.605806 
L 154.111937 51.868823 
L 153.122509 51.900397 
L 153.910117 53.357485 
L 153.131205 53.778515 
" clip-path="url(#p5f81185b54)"/>
    <path d="M 167.977065 53.892993 
L 165.537508 51.636383 
L 165.261259 52.586989 
L 162.913196 48.605806 
L 167.064982 50.637034 
L 166.138749 50.986398 
L 168.578306 53.243007 
L 167.977065 53.892993 
" clip-path="url(#p5f81185b54)"/>
    <path d="M 182.802336 53.944822 
L 178.146995 51.074005 
L 178.059066 52.060024 
L 174.987975 48.605806 
L 179.453317 49.799094 
L 178.611745 50.320362 
L 183.267086 53.191178 
L 182.802336 53.944822 
" clip-path="url(#p5f81185b54)"/>
    <path d="M 197.605894 53.969816 
L 190.493255 50.680193 
L 190.523388 51.669666 
L 187.062755 48.605806 
L 191.638435 49.258772 
L 190.864937 49.876562 
L 197.977577 53.166184 
L 197.605894 53.969816 
" clip-path="url(#p5f81185b54)"/>
    <path d="M 212.395135 53.983201 
L 202.720719 50.403638 
L 202.828669 51.387666 
L 199.137534 48.605806 
L 203.750422 48.89646 
L 203.02797 49.573236 
L 212.702386 53.152799 
L 212.395135 53.983201 
" clip-path="url(#p5f81185b54)"/>
   </g>
   <g id="matplotlib.axis_1">
    <g id="xtick_1">
     <g id="line2d_1">
      <defs>
       <path id="m3408f7224d" d="M 0 0 
L 0 3.5 
" style="stroke: #000000; stroke-width: 0.8"/>
      </defs>
      <g>
       <use xlink:href="#m3408f7224d" x="64.978512" y="307.584" style="stroke: #000000; stroke-width: 0.8"/>
      </g>
     </g>
     <g id="text_1">
      <!-- −5.0 -->
      <g transform="translate(52.837106 322.182437) scale(0.1 -0.1)">
       <defs>
        <path id="DejaVuSans-2212" d="M 678 2272 
L 4684 2272 
L 4684 1741 
L 678 1741 
L 678 2272 
z
" transform="scale(0.015625)"/>
        <path id="DejaVuSans-35" d="M 691 4666 
L 3169 4666 
L 3169 4134 
L 1269 4134 
L 1269 2991 
Q 1406 3038 1543 3061 
Q 1681 3084 1819 3084 
Q 2600 3084 3056 2656 
Q 3513 2228 3513 1497 
Q 3513 744 3044 326 
Q 2575 -91 1722 -91 
Q 1428 -91 1123 -41 
Q 819 9 494 109 
L 494 744 
Q 775 591 1075 516 
Q 1375 441 1709 441 
Q 2250 441 2565 725 
Q 2881 1009 2881 1497 
Q 2881 1984 2565 2268 
Q 2250 2553 1709 2553 
Q 1456 2553 1204 2497 
Q 953 2441 691 2322 
L 691 4666 
z
" transform="scale(0.015625)"/>
        <path id="DejaVuSans-2e" d="M 684 794 
L 1344 794 
L 1344 0 
L 684 0 
L 684 794 
z
" transform="scale(0.015625)"/>
        <path id="DejaVuSans-30" d="M 2034 4250 
Q 1547 4250 1301 3770 
Q 1056 3291 1056 2328 
Q 1056 1369 1301 889 
Q 1547 409 2034 409 
Q 2525 409 2770 889 
Q 3016 1369 3016 2328 
Q 3016 3291 2770 3770 
Q 2525 4250 2034 4250 
z
M 2034 4750 
Q 2819 4750 3233 4129 
Q 3647 3509 3647 2328 
Q 3647 1150 3233 529 
Q 2819 -91 2034 -91 
Q 1250 -91 836 529 
Q 422 1150 422 2328 
Q 422 3509 836 4129 
Q 1250 4750 2034 4750 
z
" transform="scale(0.015625)"/>
       </defs>
       <use xlink:href="#DejaVuSans-2212"/>
       <use xlink:href="#DejaVuSans-35" x="83.789062"/>
       <use xlink:href="#DejaVuSans-2e" x="147.412109"/>
       <use xlink:href="#DejaVuSans-30" x="179.199219"/>
      </g>
     </g>
    </g>
    <g id="xtick_2">
     <g id="line2d_2">
      <g>
       <use xlink:href="#m3408f7224d" x="101.871074" y="307.584" style="stroke: #000000; stroke-width: 0.8"/>
      </g>
     </g>
     <g id="text_2">
      <!-- −2.5 -->
      <g transform="translate(89.729668 322.182437) scale(0.1 -0.1)">
       <defs>
        <path id="DejaVuSans-32" d="M 1228 531 
L 3431 531 
L 3431 0 
L 469 0 
L 469 531 
Q 828 903 1448 1529 
Q 2069 2156 2228 2338 
Q 2531 2678 2651 2914 
Q 2772 3150 2772 3378 
Q 2772 3750 2511 3984 
Q 2250 4219 1831 4219 
Q 1534 4219 1204 4116 
Q 875 4013 500 3803 
L 500 4441 
Q 881 4594 1212 4672 
Q 1544 4750 1819 4750 
Q 2544 4750 2975 4387 
Q 3406 4025 3406 3419 
Q 3406 3131 3298 2873 
Q 3191 2616 2906 2266 
Q 2828 2175 2409 1742 
Q 1991 1309 1228 531 
z
" transform="scale(0.015625)"/>
       </defs>
       <use xlink:href="#DejaVuSans-2212"/>
       <use xlink:href="#DejaVuSans-32" x="83.789062"/>
       <use xlink:href="#DejaVuSans-2e" x="147.412109"/>
       <use xlink:href="#DejaVuSans-35" x="179.199219"/>
      </g>
     </g>
    </g>
    <g id="xtick_3">
     <g id="line2d_3">
      <g>
       <use xlink:href="#m3408f7224d" x="138.763636" y="307.584" style="stroke: #000000; stroke-width: 0.8"/>
      </g>
     </g>
     <g id="text_3">
      <!-- 0.0 -->
      <g transform="translate(130.812074 322.182437) scale(0.1 -0.1)">
       <use xlink:href="#DejaVuSans-30"/>
       <use xlink:href="#DejaVuSans-2e" x="63.623047"/>
       <use xlink:href="#DejaVuSans-30" x="95.410156"/>
      </g>
     </g>
    </g>
    <g id="xtick_4">
     <g id="line2d_4">
      <g>
       <use xlink:href="#m3408f7224d" x="175.656198" y="307.584" style="stroke: #000000; stroke-width: 0.8"/>
      </g>
     </g>
     <g id="text_4">
      <!-- 2.5 -->
      <g transform="translate(167.704636 322.182437) scale(0.1 -0.1)">
       <use xlink:href="#DejaVuSans-32"/>
       <use xlink:href="#DejaVuSans-2e" x="63.623047"/>
       <use xlink:href="#DejaVuSans-35" x="95.410156"/>
      </g>
     </g>
    </g>
    <g id="xtick_5">
     <g id="line2d_5">
      <g>
       <use xlink:href="#m3408f7224d" x="212.54876" y="307.584" style="stroke: #000000; stroke-width: 0.8"/>
      </g>
     </g>
     <g id="text_5">
      <!-- 5.0 -->
      <g transform="translate(204.597198 322.182437) scale(0.1 -0.1)">
       <use xlink:href="#DejaVuSans-35"/>
       <use xlink:href="#DejaVuSans-2e" x="63.623047"/>
       <use xlink:href="#DejaVuSans-30" x="95.410156"/>
      </g>
     </g>
    </g>
   </g>
   <g id="matplotlib.axis_2">
    <g id="ytick_1">
     <g id="line2d_6">
      <defs>
       <path id="m0254fb1ac5" d="M 0 0 
L -3.5 0 
" style="stroke: #000000; stroke-width: 0.8"/>
      </defs>
      <g>
       <use xlink:href="#m0254fb1ac5" x="57.6" y="271.296" style="stroke: #000000; stroke-width: 0.8"/>
      </g>
     </g>
     <g id="text_6">
      <!-- −4 -->
      <g transform="translate(35.857813 275.095219) scale(0.1 -0.1)">
       <defs>
        <path id="DejaVuSans-34" d="M 2419 4116 
L 825 1625 
L 2419 1625 
L 2419 4116 
z
M 2253 4666 
L 3047 4666 
L 3047 1625 
L 3713 1625 
L 3713 1100 
L 3047 1100 
L 3047 0 
L 2419 0 
L 2419 1100 
L 313 1100 
L 313 1709 
L 2253 4666 
z
" transform="scale(0.015625)"/>
       </defs>
       <use xlink:href="#DejaVuSans-2212"/>
       <use xlink:href="#DejaVuSans-34" x="83.789062"/>
      </g>
     </g>
    </g>
    <g id="ytick_2">
     <g id="line2d_7">
      <g>
       <use xlink:href="#m0254fb1ac5" x="57.6" y="222.912" style="stroke: #000000; stroke-width: 0.8"/>
      </g>
     </g>
     <g id="text_7">
      <!-- −2 -->
      <g transform="translate(35.857813 226.711219) scale(0.1 -0.1)">
       <use xlink:href="#DejaVuSans-2212"/>
       <use xlink:href="#DejaVuSans-32" x="83.789062"/>
      </g>
     </g>
    </g>
    <g id="ytick_3">
     <g id="line2d_8">
      <g>
       <use xlink:href="#m0254fb1ac5" x="57.6" y="174.528" style="stroke: #000000; stroke-width: 0.8"/>
      </g>
     </g>
     <g id="text_8">
      <!-- 0 -->
      <g transform="translate(44.2375 178.327219) scale(0.1 -0.1)">
       <use xlink:href="#DejaVuSans-30"/>
      </g>
     </g>
    </g>
    <g id="ytick_4">
     <g id="line2d_9">
      <g>
       <use xlink:href="#m0254fb1ac5" x="57.6" y="126.144" style="stroke: #000000; stroke-width: 0.8"/>
      </g>
     </g>
     <g id="text_9">
      <!-- 2 -->
      <g transform="translate(44.2375 129.943219) scale(0.1 -0.1)">
       <use xlink:href="#DejaVuSans-32"/>
      </g>
     </g>
    </g>
    <g id="ytick_5">
     <g id="line2d_10">
      <g>
       <use xlink:href="#m0254fb1ac5" x="57.6" y="77.76" style="stroke: #000000; stroke-width: 0.8"/>
      </g>
     </g>
     <g id="text_10">
      <!-- 4 -->
      <g transform="translate(44.2375 81.559219) scale(0.1 -0.1)">
       <use xlink:href="#DejaVuSans-34"/>
      </g>
     </g>
    </g>
   </g>
   <g id="patch_3">
    <path d="M 57.6 307.584 
L 57.6 41.472 
" style="fill: none; stroke: #000000; stroke-width: 0.8; stroke-linejoin: miter; stroke-linecap: square"/>
   </g>
   <g id="patch_4">
    <path d="M 219.927273 307.584 
L 219.927273 41.472 
" style="fill: none; stroke: #000000; stroke-width: 0.8; stroke-linejoin: miter; stroke-linecap: square"/>
   </g>
   <g id="patch_5">
    <path d="M 57.6 307.584 
L 219.927273 307.584 
" style="fill: none; stroke: #000000; stroke-width: 0.8; stroke-linejoin: miter; stroke-linecap: square"/>
   </g>
   <g id="patch_6">
    <path d="M 57.6 41.472 
L 219.927273 41.472 
" style="fill: none; stroke: #000000; stroke-width: 0.8; stroke-linejoin: miter; stroke-linecap: square"/>
   </g>
  </g>
  <g id="axes_2">
   <g id="patch_7">
    <path d="M 252.392727 307.584 
L 414.72 307.584 
L 414.72 41.472 
L 252.392727 41.472 
z
" style="fill: #ffffff"/>
   </g>
   <g id="matplotlib.axis_3">
    <g id="xtick_6">
     <g id="line2d_11">
      <g>
       <use xlink:href="#m3408f7224d" x="252.392727" y="307.584" style="stroke: #000000; stroke-width: 0.8"/>
      </g>
     </g>
     <g id="text_11">
      <!-- −0.5 -->
      <g transform="translate(240.251321 322.182437) scale(0.1 -0.1)">
       <use xlink:href="#DejaVuSans-2212"/>
       <use xlink:href="#DejaVuSans-30" x="83.789062"/>
       <use xlink:href="#DejaVuSans-2e" x="147.412109"/>
       <use xlink:href="#DejaVuSans-35" x="179.199219"/>
      </g>
     </g>
    </g>
    <g id="xtick_7">
     <g id="line2d_12">
      <g>
       <use xlink:href="#m3408f7224d" x="292.974545" y="307.584" style="stroke: #000000; stroke-width: 0.8"/>
      </g>
     </g>
     <g id="text_12">
      <!-- 0.0 -->
      <g transform="translate(285.022983 322.182437) scale(0.1 -0.1)">
       <use xlink:href="#DejaVuSans-30"/>
       <use xlink:href="#DejaVuSans-2e" x="63.623047"/>
       <use xlink:href="#DejaVuSans-30" x="95.410156"/>
      </g>
     </g>
    </g>
    <g id="xtick_8">
     <g id="line2d_13">
      <g>
       <use xlink:href="#m3408f7224d" x="333.556364" y="307.584" style="stroke: #000000; stroke-width: 0.8"/>
      </g>
     </g>
     <g id="text_13">
      <!-- 0.5 -->
      <g transform="translate(325.604801 322.182437) scale(0.1 -0.1)">
       <use xlink:href="#DejaVuSans-30"/>
       <use xlink:href="#DejaVuSans-2e" x="63.623047"/>
       <use xlink:href="#DejaVuSans-35" x="95.410156"/>
      </g>
     </g>
    </g>
    <g id="xtick_9">
     <g id="line2d_14">
      <g>
       <use xlink:href="#m3408f7224d" x="374.138182" y="307.584" style="stroke: #000000; stroke-width: 0.8"/>
      </g>
     </g>
     <g id="text_14">
      <!-- 1.0 -->
      <g transform="translate(366.186619 322.182437) scale(0.1 -0.1)">
       <defs>
        <path id="DejaVuSans-31" d="M 794 531 
L 1825 531 
L 1825 4091 
L 703 3866 
L 703 4441 
L 1819 4666 
L 2450 4666 
L 2450 531 
L 3481 531 
L 3481 0 
L 794 0 
L 794 531 
z
" transform="scale(0.015625)"/>
       </defs>
       <use xlink:href="#DejaVuSans-31"/>
       <use xlink:href="#DejaVuSans-2e" x="63.623047"/>
       <use xlink:href="#DejaVuSans-30" x="95.410156"/>
      </g>
     </g>
    </g>
    <g id="xtick_10">
     <g id="line2d_15">
      <g>
       <use xlink:href="#m3408f7224d" x="414.72" y="307.584" style="stroke: #000000; stroke-width: 0.8"/>
      </g>
     </g>
     <g id="text_15">
      <!-- 1.5 -->
      <g transform="translate(406.768437 322.182437) scale(0.1 -0.1)">
       <use xlink:href="#DejaVuSans-31"/>
       <use xlink:href="#DejaVuSans-2e" x="63.623047"/>
       <use xlink:href="#DejaVuSans-35" x="95.410156"/>
      </g>
     </g>
    </g>
   </g>
   <g id="matplotlib.axis_4">
    <g id="ytick_6">
     <g id="line2d_16">
      <g>
       <use xlink:href="#m0254fb1ac5" x="252.392727" y="283.392" style="stroke: #000000; stroke-width: 0.8"/>
      </g>
     </g>
     <g id="text_16">
      <!-- 0 -->
      <g transform="translate(239.030227 287.191219) scale(0.1 -0.1)">
       <use xlink:href="#DejaVuSans-30"/>
      </g>
     </g>
    </g>
    <g id="ytick_7">
     <g id="line2d_17">
      <g>
       <use xlink:href="#m0254fb1ac5" x="252.392727" y="235.008" style="stroke: #000000; stroke-width: 0.8"/>
      </g>
     </g>
     <g id="text_17">
      <!-- 10 -->
      <g transform="translate(232.667727 238.807219) scale(0.1 -0.1)">
       <use xlink:href="#DejaVuSans-31"/>
       <use xlink:href="#DejaVuSans-30" x="63.623047"/>
      </g>
     </g>
    </g>
    <g id="ytick_8">
     <g id="line2d_18">
      <g>
       <use xlink:href="#m0254fb1ac5" x="252.392727" y="186.624" style="stroke: #000000; stroke-width: 0.8"/>
      </g>
     </g>
     <g id="text_18">
      <!-- 20 -->
      <g transform="translate(232.667727 190.423219) scale(0.1 -0.1)">
       <use xlink:href="#DejaVuSans-32"/>
       <use xlink:href="#DejaVuSans-30" x="63.623047"/>
      </g>
     </g>
    </g>
    <g id="ytick_9">
     <g id="line2d_19">
      <g>
       <use xlink:href="#m0254fb1ac5" x="252.392727" y="138.24" style="stroke: #000000; stroke-width: 0.8"/>
      </g>
     </g>
     <g id="text_19">
      <!-- 30 -->
      <g transform="translate(232.667727 142.039219) scale(0.1 -0.1)">
       <defs>
        <path id="DejaVuSans-33" d="M 2597 2516 
Q 3050 2419 3304 2112 
Q 3559 1806 3559 1356 
Q 3559 666 3084 287 
Q 2609 -91 1734 -91 
Q 1441 -91 1130 -33 
Q 819 25 488 141 
L 488 750 
Q 750 597 1062 519 
Q 1375 441 1716 441 
Q 2309 441 2620 675 
Q 2931 909 2931 1356 
Q 2931 1769 2642 2001 
Q 2353 2234 1838 2234 
L 1294 2234 
L 1294 2753 
L 1863 2753 
Q 2328 2753 2575 2939 
Q 2822 3125 2822 3475 
Q 2822 3834 2567 4026 
Q 2313 4219 1838 4219 
Q 1578 4219 1281 4162 
Q 984 4106 628 3988 
L 628 4550 
Q 988 4650 1302 4700 
Q 1616 4750 1894 4750 
Q 2613 4750 3031 4423 
Q 3450 4097 3450 3541 
Q 3450 3153 3228 2886 
Q 3006 2619 2597 2516 
z
" transform="scale(0.015625)"/>
       </defs>
       <use xlink:href="#DejaVuSans-33"/>
       <use xlink:href="#DejaVuSans-30" x="63.623047"/>
      </g>
     </g>
    </g>
    <g id="ytick_10">
     <g id="line2d_20">
      <g>
       <use xlink:href="#m0254fb1ac5" x="252.392727" y="89.856" style="stroke: #000000; stroke-width: 0.8"/>
      </g>
     </g>
     <g id="text_20">
      <!-- 40 -->
      <g transform="translate(232.667727 93.655219) scale(0.1 -0.1)">
       <use xlink:href="#DejaVuSans-34"/>
       <use xlink:href="#DejaVuSans-30" x="63.623047"/>
      </g>
     </g>
    </g>
    <g id="ytick_11">
     <g id="line2d_21">
      <g>
       <use xlink:href="#m0254fb1ac5" x="252.392727" y="41.472" style="stroke: #000000; stroke-width: 0.8"/>
      </g>
     </g>
     <g id="text_21">
      <!-- 50 -->
      <g transform="translate(232.667727 45.271219) scale(0.1 -0.1)">
       <use xlink:href="#DejaVuSans-35"/>
       <use xlink:href="#DejaVuSans-30" x="63.623047"/>
      </g>
     </g>
    </g>
   </g>
   <g id="line2d_22">
    <path d="M 293.055709 283.392 
L 374.138182 283.392 
L 374.138182 283.392 
" clip-path="url(#pd0656d2a31)" style="fill: none; stroke: #1f77b4; stroke-width: 1.5; stroke-linecap: square"/>
   </g>
   <g id="line2d_23">
    <path d="M 293.055709 221.06005 
L 293.2992 246.071563 
L 293.623855 254.514159 
L 294.029673 259.262498 
L 294.516655 262.423466 
L 295.0848 264.721053 
L 295.734109 266.485296 
L 296.545745 268.023612 
L 297.438545 269.241515 
L 298.493673 270.309915 
L 299.792291 271.293775 
L 301.3344 272.17298 
L 303.201164 272.979204 
L 305.554909 273.747461 
L 308.557964 274.481903 
L 312.372655 275.17532 
L 317.323636 275.838148 
L 323.816727 276.470773 
L 332.420073 277.073016 
L 343.945309 277.644787 
L 359.609891 278.187308 
L 374.138182 278.5536 
L 374.138182 278.5536 
" clip-path="url(#pd0656d2a31)" style="fill: none; stroke: #ff7f0e; stroke-width: 1.5; stroke-linecap: square"/>
   </g>
   <g id="line2d_24">
    <path d="M 293.055709 158.728101 
L 293.2992 208.751126 
L 293.623855 225.636317 
L 294.029673 235.132997 
L 294.516655 241.454932 
L 295.0848 246.050105 
L 295.734109 249.578592 
L 296.464582 252.392656 
L 297.276218 254.700484 
L 298.250182 256.787362 
L 299.305309 258.5229 
L 300.522764 260.089842 
L 301.902545 261.49325 
L 303.444655 262.746936 
L 305.230255 263.915418 
L 307.340509 265.027297 
L 309.856582 266.09183 
L 312.859636 267.108711 
L 316.430836 268.074032 
L 320.732509 268.99926 
L 326.008145 269.896686 
L 332.420073 270.754031 
L 340.374109 271.584452 
L 350.276073 272.38486 
L 362.694109 273.155429 
L 374.138182 273.7152 
L 374.138182 273.7152 
" clip-path="url(#pd0656d2a31)" style="fill: none; stroke: #2ca02c; stroke-width: 1.5; stroke-linecap: square"/>
   </g>
   <g id="line2d_25">
    <path d="M 293.055709 96.396151 
L 293.2992 171.430689 
L 293.623855 196.758476 
L 294.029673 211.003495 
L 294.516655 220.486398 
L 295.0848 227.379158 
L 295.734109 232.671888 
L 296.464582 236.892983 
L 297.276218 240.354726 
L 298.169018 243.255454 
L 299.224145 245.909826 
L 300.360436 248.15647 
L 301.577891 250.090579 
L 302.957673 251.873841 
L 304.499782 253.505238 
L 306.204218 254.992156 
L 308.152145 256.399457 
L 310.424727 257.757622 
L 313.021964 259.04043 
L 316.025018 260.266195 
L 319.515055 261.441632 
L 323.573236 262.567337 
L 328.361891 263.658047 
L 334.043345 264.715813 
L 340.779927 265.736458 
L 348.815127 266.722761 
L 358.4736 267.678241 
L 370.161164 268.604448 
L 374.138182 268.8768 
L 374.138182 268.8768 
" clip-path="url(#pd0656d2a31)" style="fill: none; stroke: #d62728; stroke-width: 1.5; stroke-linecap: square"/>
   </g>
   <g id="line2d_26">
    <path d="M 293.055709 34.064201 
L 293.2992 134.110252 
L 293.623855 167.880635 
L 294.029673 186.873994 
L 294.516655 199.517864 
L 295.0848 208.70821 
L 295.734109 215.765184 
L 296.464582 221.393311 
L 297.276218 226.008968 
L 298.169018 229.876606 
L 299.142982 233.173462 
L 300.279273 236.21882 
L 301.496727 238.834108 
L 302.795345 241.112104 
L 304.256291 243.226901 
L 305.879564 245.175826 
L 307.665164 246.965042 
L 309.613091 248.605168 
L 311.804509 250.161789 
L 314.320582 251.66859 
L 317.161309 253.101718 
L 320.407855 254.480942 
L 324.060218 255.787527 
L 328.280727 257.057698 
L 333.150545 258.287085 
L 338.832 259.486129 
L 345.487418 260.655284 
L 353.279127 261.789884 
L 362.450618 262.892339 
L 373.245382 263.959031 
L 374.138182 264.0384 
L 374.138182 264.0384 
" clip-path="url(#pd0656d2a31)" style="fill: none; stroke: #9467bd; stroke-width: 1.5; stroke-linecap: square"/>
   </g>
   <g id="line2d_27">
    <path d="M 293.0871 -1 
L 293.2992 96.789815 
L 293.623855 139.002794 
L 294.029673 162.744492 
L 294.516655 178.54933 
L 295.0848 190.037263 
L 295.734109 198.85848 
L 296.464582 205.893639 
L 297.276218 211.66321 
L 298.169018 216.497757 
L 299.142982 220.618827 
L 300.198109 224.181244 
L 301.415564 227.497076 
L 302.714182 230.379601 
L 304.093964 232.915674 
L 305.636073 235.283914 
L 307.340509 237.480244 
L 309.207273 239.509359 
L 311.236364 241.380695 
L 313.508945 243.164878 
L 316.025018 244.848991 
L 318.784582 246.428318 
L 321.949964 247.977112 
L 325.521164 249.467806 
L 329.498182 250.884455 
L 334.043345 252.265022 
L 339.237818 253.606918 
L 345.243927 254.92219 
L 352.142836 256.198632 
L 360.096873 257.438557 
L 369.349527 258.649494 
L 374.138182 259.2 
L 374.138182 259.2 
" clip-path="url(#pd0656d2a31)" style="fill: none; stroke: #8c564b; stroke-width: 1.5; stroke-linecap: square"/>
   </g>
   <g id="line2d_28">
    <path d="M 293.14693 -1 
L 293.380364 77.214639 
L 293.705018 117.513771 
L 294.110836 142.530869 
L 294.597818 159.94601 
L 295.165964 172.919775 
L 295.815273 183.033957 
L 296.545745 191.181671 
L 297.357382 197.910702 
L 298.250182 203.578085 
L 299.224145 208.427652 
L 300.279273 212.632231 
L 301.496727 216.555162 
L 302.795345 219.972156 
L 304.175127 222.983184 
L 305.717236 225.798623 
L 307.340509 228.297892 
L 309.126109 230.635075 
L 311.074036 232.811611 
L 313.184291 234.83397 
L 315.538036 236.773521 
L 318.135273 238.615442 
L 320.976 240.353083 
L 324.141382 242.025221 
L 327.712582 243.652726 
L 331.6896 245.214967 
L 336.1536 246.725747 
L 341.185745 248.191186 
L 346.948364 249.631448 
L 353.441455 251.02104 
L 360.908509 252.386065 
L 369.430691 253.712658 
L 374.138182 254.3616 
L 374.138182 254.3616 
" clip-path="url(#pd0656d2a31)" style="fill: none; stroke: #e377c2; stroke-width: 1.5; stroke-linecap: square"/>
   </g>
   <g id="line2d_29">
    <path d="M 293.235166 -1 
L 293.542691 71.008899 
L 293.948509 109.408335 
L 294.435491 133.646361 
L 295.003636 150.784899 
L 295.652945 163.730603 
L 296.383418 173.945551 
L 297.195055 182.261443 
L 298.087855 189.192763 
L 299.061818 195.077809 
L 300.116945 200.149643 
L 301.253236 204.574855 
L 302.470691 208.476132 
L 303.850473 212.143843 
L 305.311418 215.390245 
L 306.853527 218.290119 
L 308.557964 221.021318 
L 310.424727 223.578451 
L 312.372655 225.875237 
L 314.564073 228.108527 
L 316.917818 230.185187 
L 319.515055 232.174475 
L 322.355782 234.065653 
L 325.521164 235.898128 
L 329.0112 237.654843 
L 332.907055 239.35947 
L 337.208727 240.995121 
L 342.078545 242.602257 
L 347.516509 244.156997 
L 353.603782 245.663324 
L 360.502691 247.138126 
L 368.375564 248.587605 
L 374.138182 249.5232 
L 374.138182 249.5232 
" clip-path="url(#pd0656d2a31)" style="fill: none; stroke: #7f7f7f; stroke-width: 1.5; stroke-linecap: square"/>
   </g>
   <g id="line2d_30">
    <path d="M 293.347813 -1 
L 293.623855 52.36927 
L 294.029673 90.355987 
L 294.516655 115.643728 
L 295.0848 134.024421 
L 295.734109 148.138369 
L 296.464582 159.394622 
L 297.276218 168.625936 
L 298.169018 176.361212 
L 299.142982 182.954923 
L 300.198109 188.654791 
L 301.3344 193.639837 
L 302.551855 198.04305 
L 303.931636 202.189228 
L 305.392582 205.86404 
L 306.934691 209.150197 
L 308.639127 212.248098 
L 310.424727 215.033659 
L 312.372655 217.658556 
L 314.482909 220.122777 
L 316.755491 222.430966 
L 319.1904 224.590516 
L 321.8688 226.669339 
L 324.790691 228.655487 
L 328.037236 230.588361 
L 331.608436 232.449747 
L 335.504291 234.228814 
L 339.887127 235.980995 
L 344.756945 237.682267 
L 350.194909 239.340344 
L 356.282182 240.957697 
L 363.099927 242.533552 
L 370.729309 244.065384 
L 374.138182 244.6848 
L 374.138182 244.6848 
" clip-path="url(#pd0656d2a31)" style="fill: none; stroke: #bcbd22; stroke-width: 1.5; stroke-linecap: square"/>
   </g>
   <g id="line2d_31">
    <path d="M 293.485325 -1 
L 293.786182 44.087844 
L 294.192 77.425803 
L 294.678982 101.535788 
L 295.247127 119.898521 
L 295.896436 134.415881 
L 296.626909 146.221834 
L 297.438545 156.037634 
L 298.331345 164.345525 
L 299.305309 171.481051 
L 300.360436 177.685409 
L 301.496727 183.136743 
L 302.795345 188.262235 
L 304.175127 192.778776 
L 305.636073 196.797445 
L 307.178182 200.402632 
L 308.882618 203.810588 
L 310.668218 206.88215 
L 312.616145 209.782405 
L 314.645236 212.411865 
L 316.836655 214.89724 
L 319.271564 217.315948 
L 321.8688 219.579007 
L 324.709527 221.755198 
L 327.793745 223.834539 
L 331.202618 225.857609 
L 334.936145 227.807509 
L 338.994327 229.674068 
L 343.539491 231.51387 
L 348.571636 233.303358 
L 354.090764 235.027077 
L 360.2592 236.717535 
L 367.158109 238.37316 
L 374.138182 239.8464 
L 374.138182 239.8464 
" clip-path="url(#pd0656d2a31)" style="fill: none; stroke: #17becf; stroke-width: 1.5; stroke-linecap: square"/>
   </g>
   <g id="patch_8">
    <path d="M 252.392727 307.584 
L 252.392727 41.472 
" style="fill: none; stroke: #000000; stroke-width: 0.8; stroke-linejoin: miter; stroke-linecap: square"/>
   </g>
   <g id="patch_9">
    <path d="M 414.72 307.584 
L 414.72 41.472 
" style="fill: none; stroke: #000000; stroke-width: 0.8; stroke-linejoin: miter; stroke-linecap: square"/>
   </g>
   <g id="patch_10">
    <path d="M 252.392727 307.584 
L 414.72 307.584 
" style="fill: none; stroke: #000000; stroke-width: 0.8; stroke-linejoin: miter; stroke-linecap: square"/>
   </g>
   <g id="patch_11">
    <path d="M 252.392727 41.472 
L 414.72 41.472 
" style="fill: none; stroke: #000000; stroke-width: 0.8; stroke-linejoin: miter; stroke-linecap: square"/>
   </g>
  </g>
  <g id="text_22">
   <!-- t = 0.4 -->
   <g transform="translate(209.664375 16.030125) scale(0.12 -0.12)">
    <defs>
     <path id="DejaVuSans-74" d="M 1172 4494 
L 1172 3500 
L 2356 3500 
L 2356 3053 
L 1172 3053 
L 1172 1153 
Q 1172 725 1289 603 
Q 1406 481 1766 481 
L 2356 481 
L 2356 0 
L 1766 0 
Q 1100 0 847 248 
Q 594 497 594 1153 
L 594 3053 
L 172 3053 
L 172 3500 
L 594 3500 
L 594 4494 
L 1172 4494 
z
" transform="scale(0.015625)"/>
     <path id="DejaVuSans-20" transform="scale(0.015625)"/>
     <path id="DejaVuSans-3d" d="M 678 2906 
L 4684 2906 
L 4684 2381 
L 678 2381 
L 678 2906 
z
M 678 1631 
L 4684 1631 
L 4684 1100 
L 678 1100 
L 678 1631 
z
" transform="scale(0.015625)"/>
    </defs>
    <use xlink:href="#DejaVuSans-74"/>
    <use xlink:href="#DejaVuSans-20" x="39.208984"/>
    <use xlink:href="#DejaVuSans-3d" x="70.996094"/>
    <use xlink:href="#DejaVuSans-20" x="154.785156"/>
    <use xlink:href="#DejaVuSans-30" x="186.572266"/>
    <use xlink:href="#DejaVuSans-2e" x="250.195312"/>
    <use xlink:href="#DejaVuSans-34" x="281.982422"/>
   </g>
  </g>
 </g>
 <defs>
  <clipPath id="p5f81185b54">
   <rect x="57.6" y="41.472" width="162.327273" height="266.112"/>
  </clipPath>
  <clipPath id="pd0656d2a31">
   <rect x="252.392727" y="41.472" width="162.327273" height="266.112"/>
  </clipPath>
 </defs>
</svg>
