<?xml version="1.0" encoding="utf-8" standalone="no"?>
<!DOCTYPE svg PUBLIC "-//W3C//DTD SVG 1.1//EN"
  "http://www.w3.org/Graphics/SVG/1.1/DTD/svg11.dtd">
<svg xmlns:xlink="http://www.w3.org/1999/xlink" width="460.8pt" height="345.6pt" viewBox="0 0 460.8 345.6" xmlns="http://www.w3.org/2000/svg" version="1.1">
 <metadata>
  <rdf:RDF xmlns:dc="http://purl.org/dc/elements/1.1/" xmlns:cc="http://creativecommons.org/ns#" xmlns:rdf="http://www.w3.org/1999/02/22-rdf-syntax-ns#">
   <cc:Work>
    <dc:type rdf:resource="http://purl.org/dc/dcmitype/StillImage"/>
    <dc:date>2023-01-17T23:39:01.128195</dc:date>
    <dc:format>image/svg+xml</dc:format>
    <dc:creator>
     <cc:Agent>
      <dc:title>Matplotlib v3.6.3, https://matplotlib.org/</dc:title>
     </cc:Agent>
    </dc:creator>
   </cc:Work>
  </rdf:RDF>
 </metadata>
 <defs>
  <style type="text/css">*{stroke-linejoin: round; stroke-linecap: butt}</style>
 </defs>
 <g id="figure_1">
  <g id="patch_1">
   <path d="M 0 345.6 
L 460.8 345.6 
L 460.8 0 
L 0 0 
z
" style="fill: #ffffff"/>
  </g>
  <g id="axes_1">
   <g id="patch_2">
    <path d="M 57.6 307.584 
L 219.927273 307.584 
L 219.927273 41.472 
L 57.6 41.472 
z
" style="fill: #ffffff"/>
   </g>
   <g id="Quiver_1">
    <path d="M 65.205771 295.108071 
L 73.7893 300.242394 
L 73.863888 299.255276 
L 76.981406 302.66765 
L 72.500336 301.534853 
L 73.334783 301.002253 
L 64.751254 295.867929 
L 65.205771 295.108071 
" clip-path="url(#p3dd044670b)"/>
    <path d="M 80.000641 295.13344 
L 86.41192 299.927152 
L 86.587568 298.952929 
L 89.337852 302.66765 
L 84.996943 301.080287 
L 85.881711 300.636272 
L 79.470433 295.84256 
L 80.000641 295.13344 
" clip-path="url(#p3dd044670b)"/>
    <path d="M 94.805125 295.174476 
L 99.185143 299.541062 
L 99.496745 298.601451 
L 101.694298 302.66765 
L 97.621369 300.482596 
L 98.560018 300.16811 
L 94.179999 295.801524 
L 94.805125 295.174476 
" clip-path="url(#p3dd044670b)"/>
    <path d="M 109.617596 295.241906 
L 112.203907 299.109476 
L 112.693831 298.249279 
L 114.050744 302.66765 
L 110.485778 299.725843 
L 111.46789 299.601664 
L 108.881578 295.734094 
L 109.617596 295.241906 
" clip-path="url(#p3dd044670b)"/>
    <path d="M 124.426475 295.347615 
L 125.56359 298.748499 
L 126.262931 298.047866 
L 126.40719 302.66765 
L 123.743753 298.890175 
L 124.723864 299.029268 
L 123.586749 295.628385 
L 124.426475 295.347615 
" clip-path="url(#p3dd044670b)"/>
    <path d="M 139.206347 295.488 
L 139.206347 298.683253 
L 140.091769 298.240543 
L 138.763636 302.66765 
L 137.435504 298.240543 
L 138.320926 298.683253 
L 138.320926 295.488 
L 139.206347 295.488 
" clip-path="url(#p3dd044670b)"/>
    <path d="M 153.940524 295.628385 
L 152.803409 299.029268 
L 153.78352 298.890175 
L 151.120082 302.66765 
L 151.264342 298.047866 
L 151.963683 298.748499 
L 153.100798 295.347615 
L 153.940524 295.628385 
" clip-path="url(#p3dd044670b)"/>
    <path d="M 168.645695 295.734094 
L 166.059383 299.601664 
L 167.041495 299.725843 
L 163.476528 302.66765 
L 164.833442 298.249279 
L 165.323365 299.109476 
L 167.909677 295.241906 
L 168.645695 295.734094 
" clip-path="url(#p3dd044670b)"/>
    <path d="M 183.347273 295.801524 
L 178.967255 300.16811 
L 179.905904 300.482596 
L 175.832974 302.66765 
L 178.030528 298.601451 
L 178.342129 299.541062 
L 182.722148 295.174476 
L 183.347273 295.801524 
" clip-path="url(#p3dd044670b)"/>
    <path d="M 198.05684 295.84256 
L 191.645562 300.636272 
L 192.53033 301.080287 
L 188.189421 302.66765 
L 190.939704 298.952929 
L 191.115353 299.927152 
L 197.526631 295.13344 
L 198.05684 295.84256 
" clip-path="url(#p3dd044670b)"/>
    <path d="M 212.776019 295.867929 
L 204.19249 301.002253 
L 205.026936 301.534853 
L 200.545867 302.66765 
L 203.663385 299.255276 
L 203.737973 300.242394 
L 212.321502 295.108071 
L 212.776019 295.867929 
" clip-path="url(#p3dd044670b)"/>
    <path d="M 65.169609 270.896657 
L 73.578416 274.920506 
L 73.561267 273.930723 
L 76.981406 277.03972 
L 72.414686 276.326781 
L 73.196222 275.719192 
L 64.787416 271.695343 
L 65.169609 270.896657 
" clip-path="url(#p3dd044670b)"/>
    <path d="M 79.962796 270.916071 
L 86.145746 274.614464 
L 86.220334 273.627346 
L 89.337852 277.03972 
L 84.856782 275.906923 
L 85.691229 275.374323 
L 79.508279 271.675929 
L 79.962796 270.916071 
" clip-path="url(#p3dd044670b)"/>
    <path d="M 94.768603 270.949887 
L 98.855324 274.209237 
L 99.061293 273.24097 
L 101.694298 277.03972 
L 97.405046 275.317647 
L 98.303241 274.901463 
L 94.216521 271.642113 
L 94.768603 270.949887 
" clip-path="url(#p3dd044670b)"/>
    <path d="M 109.589258 271.01207 
L 111.835045 273.698749 
L 112.230457 272.791218 
L 114.050744 277.03972 
L 110.19243 274.494798 
L 111.155702 274.266609 
L 108.909916 271.57993 
L 109.589258 271.01207 
" clip-path="url(#p3dd044670b)"/>
    <path d="M 124.415082 271.125281 
L 125.279186 273.192771 
L 125.925406 272.442863 
L 126.40719 277.03972 
L 123.474587 273.467179 
L 124.462246 273.53421 
L 123.598142 271.466719 
L 124.415082 271.125281 
" clip-path="url(#p3dd044670b)"/>
    <path d="M 139.206347 271.296 
L 139.206347 273.055323 
L 140.091769 272.612613 
L 138.763636 277.03972 
L 137.435504 272.612613 
L 138.320926 273.055323 
L 138.320926 271.296 
L 139.206347 271.296 
" clip-path="url(#p3dd044670b)"/>
    <path d="M 153.929131 271.466719 
L 153.065027 273.53421 
L 154.052686 273.467179 
L 151.120082 277.03972 
L 151.601866 272.442863 
L 152.248087 273.192771 
L 153.112191 271.125281 
L 153.929131 271.466719 
" clip-path="url(#p3dd044670b)"/>
    <path d="M 168.617357 271.57993 
L 166.37157 274.266609 
L 167.334843 274.494798 
L 163.476528 277.03972 
L 165.296816 272.791218 
L 165.692228 273.698749 
L 167.938015 271.01207 
L 168.617357 271.57993 
" clip-path="url(#p3dd044670b)"/>
    <path d="M 183.310752 271.642113 
L 179.224031 274.901463 
L 180.122226 275.317647 
L 175.832974 277.03972 
L 178.46598 273.24097 
L 178.671949 274.209237 
L 182.75867 270.949887 
L 183.310752 271.642113 
" clip-path="url(#p3dd044670b)"/>
    <path d="M 198.018994 271.675929 
L 191.836044 275.374323 
L 192.67049 275.906923 
L 188.189421 277.03972 
L 191.306939 273.627346 
L 191.381527 274.614464 
L 197.564477 270.916071 
L 198.018994 271.675929 
" clip-path="url(#p3dd044670b)"/>
    <path d="M 212.739857 271.695343 
L 204.33105 275.719192 
L 205.112587 276.326781 
L 200.545867 277.03972 
L 203.966006 273.930723 
L 203.948857 274.920506 
L 212.357664 270.896657 
L 212.739857 271.695343 
" clip-path="url(#p3dd044670b)"/>
    <path d="M 65.12806 246.687313 
L 73.380767 249.649176 
L 73.263175 248.666254 
L 76.981406 251.41179 
L 72.36589 251.166378 
L 73.081672 250.482551 
L 64.828965 247.520687 
L 65.12806 246.687313 
" clip-path="url(#p3dd044670b)"/>
    <path d="M 79.916746 246.700074 
L 85.883729 249.376982 
L 85.842222 248.387921 
L 89.337852 251.41179 
L 84.754967 250.811476 
L 85.521311 250.184833 
L 79.554328 247.507926 
L 79.916746 246.700074 
" clip-path="url(#p3dd044670b)"/>
    <path d="M 94.719821 246.724071 
L 98.502192 248.986534 
L 98.57678 247.999416 
L 101.694298 251.41179 
L 97.213229 250.278993 
L 98.047675 249.746393 
L 94.265303 247.483929 
L 94.719821 246.724071 
" clip-path="url(#p3dd044670b)"/>
    <path d="M 109.545242 246.774484 
L 111.380754 248.421379 
L 111.642548 247.466691 
L 114.050744 251.41179 
L 109.868618 249.443788 
L 110.789444 249.080411 
L 108.953932 247.433516 
L 109.545242 246.774484 
" clip-path="url(#p3dd044670b)"/>
    <path d="M 124.393329 246.888496 
L 124.854371 247.715825 
L 125.412302 246.898098 
L 126.40719 251.41179 
L 123.091995 248.191123 
L 124.080935 248.146833 
L 123.619894 247.319504 
L 124.393329 246.888496 
" clip-path="url(#p3dd044670b)"/>
    <path d="M 139.194415 247.104 
L 139.194415 247.534779 
L 140.055973 247.104 
L 138.763636 251.41179 
L 137.471299 247.104 
L 138.332857 247.534779 
L 138.332857 247.104 
L 139.194415 247.104 
" clip-path="url(#p3dd044670b)"/>
    <path d="M 153.907379 247.319504 
L 153.446338 248.146833 
L 154.435278 248.191123 
L 151.120082 251.41179 
L 152.114971 246.898098 
L 152.672902 247.715825 
L 153.133943 246.888496 
L 153.907379 247.319504 
" clip-path="url(#p3dd044670b)"/>
    <path d="M 168.573341 247.433516 
L 166.737829 249.080411 
L 167.658655 249.443788 
L 163.476528 251.41179 
L 165.884725 247.466691 
L 166.146519 248.421379 
L 167.982031 246.774484 
L 168.573341 247.433516 
" clip-path="url(#p3dd044670b)"/>
    <path d="M 183.261969 247.483929 
L 179.479598 249.746393 
L 180.314044 250.278993 
L 175.832974 251.41179 
L 178.950493 247.999416 
L 179.025081 248.986534 
L 182.807452 246.724071 
L 183.261969 247.483929 
" clip-path="url(#p3dd044670b)"/>
    <path d="M 197.972945 247.507926 
L 192.005962 250.184833 
L 192.772306 250.811476 
L 188.189421 251.41179 
L 191.685051 248.387921 
L 191.643543 249.376982 
L 197.610526 246.700074 
L 197.972945 247.507926 
" clip-path="url(#p3dd044670b)"/>
    <path d="M 212.698308 247.520687 
L 204.4456 250.482551 
L 205.161383 251.166378 
L 200.545867 251.41179 
L 204.264098 248.666254 
L 204.146506 249.649176 
L 212.399213 246.687313 
L 212.698308 247.520687 
" clip-path="url(#p3dd044670b)"/>
    <path d="M 65.081529 222.481442 
L 73.2094 224.426149 
L 72.984876 223.462015 
L 76.981406 225.78386 
L 72.366774 226.045364 
L 73.003366 225.287265 
L 64.875495 223.342558 
L 65.081529 222.481442 
" clip-path="url(#p3dd044670b)"/>
    <path d="M 79.862391 222.487853 
L 85.647381 224.218027 
L 85.476942 223.242879 
L 89.337852 225.78386 
L 84.715818 225.787762 
L 85.393673 225.066322 
L 79.608683 223.336147 
L 79.862391 222.487853 
" clip-path="url(#p3dd044670b)"/>
    <path d="M 94.656546 222.50078 
L 98.157299 223.896787 
L 98.074046 222.910362 
L 101.694298 225.78386 
L 97.090144 225.377684 
L 97.829332 224.719227 
L 94.328578 223.32322 
L 94.656546 222.50078 
" clip-path="url(#p3dd044670b)"/>
    <path d="M 109.476845 222.532071 
L 110.858638 223.358604 
L 110.933226 222.371486 
L 114.050744 225.78386 
L 109.569675 224.651063 
L 110.404121 224.118463 
L 109.022328 223.291929 
L 109.476845 222.532071 
" clip-path="url(#p3dd044670b)"/>
    <path d="M 124.293798 222.671942 
L 124.533855 222.959128 
L 124.86817 222.191826 
L 126.40719 225.78386 
L 123.145054 223.632174 
L 123.959483 223.439244 
L 123.719426 223.152058 
L 124.293798 222.671942 
" clip-path="url(#p3dd044670b)"/>
    <path d="M 139.050822 222.912 
L 139.050822 223.199186 
L 139.625194 222.912 
L 138.763636 225.78386 
L 137.902078 222.912 
L 138.47645 223.199186 
L 138.47645 222.912 
L 139.050822 222.912 
" clip-path="url(#p3dd044670b)"/>
    <path d="M 153.807847 223.152058 
L 153.567789 223.439244 
L 154.382219 223.632174 
L 151.120082 225.78386 
L 152.659103 222.191826 
L 152.993417 222.959128 
L 153.233475 222.671942 
L 153.807847 223.152058 
" clip-path="url(#p3dd044670b)"/>
    <path d="M 168.504944 223.291929 
L 167.123152 224.118463 
L 167.957598 224.651063 
L 163.476528 225.78386 
L 166.594047 222.371486 
L 166.668635 223.358604 
L 168.050427 222.532071 
L 168.504944 223.291929 
" clip-path="url(#p3dd044670b)"/>
    <path d="M 183.198694 223.32322 
L 179.697941 224.719227 
L 180.437129 225.377684 
L 175.832974 225.78386 
L 179.453227 222.910362 
L 179.369974 223.896787 
L 182.870727 222.50078 
L 183.198694 223.32322 
" clip-path="url(#p3dd044670b)"/>
    <path d="M 197.918589 223.336147 
L 192.1336 225.066322 
L 192.811455 225.787762 
L 188.189421 225.78386 
L 192.050331 223.242879 
L 191.879892 224.218027 
L 197.664882 222.487853 
L 197.918589 223.336147 
" clip-path="url(#p3dd044670b)"/>
    <path d="M 212.651777 223.342558 
L 204.523907 225.287265 
L 205.160499 226.045364 
L 200.545867 225.78386 
L 204.542397 223.462015 
L 204.317873 224.426149 
L 212.445743 222.481442 
L 212.651777 223.342558 
" clip-path="url(#p3dd044670b)"/>
    <path d="M 65.0311 198.280424 
L 73.077806 199.243067 
L 72.743405 198.311327 
L 76.981406 200.15593 
L 72.42788 200.948785 
L 72.972632 200.12222 
L 64.925925 199.159576 
L 65.0311 198.280424 
" clip-path="url(#p3dd044670b)"/>
    <path d="M 79.801012 198.282158 
L 85.462747 199.128813 
L 85.155854 198.187654 
L 89.337852 200.15593 
L 84.763005 200.814708 
L 85.331797 200.004498 
L 79.670062 199.157842 
L 79.801012 198.282158 
" clip-path="url(#p3dd044670b)"/>
    <path d="M 94.579129 198.285835 
L 97.873382 198.942665 
L 97.612351 197.987769 
L 101.694298 200.15593 
L 97.092951 200.592758 
L 97.700249 199.810995 
L 94.405995 199.154165 
L 94.579129 198.285835 
" clip-path="url(#p3dd044670b)"/>
    <path d="M 109.376441 198.295853 
L 110.360273 198.590097 
L 110.189834 197.614949 
L 114.050744 200.15593 
L 109.42871 200.159832 
L 110.106565 199.438392 
L 109.122733 199.144147 
L 109.376441 198.295853 
" clip-path="url(#p3dd044670b)"/>
    <path d="M 124.150205 198.479942 
L 124.390262 198.623535 
L 124.437391 197.999826 
L 126.40719 200.15593 
L 123.575833 199.440174 
L 124.103076 199.103651 
L 123.863019 198.960058 
L 124.150205 198.479942 
" clip-path="url(#p3dd044670b)"/>
    <path d="M 138.907229 198.72 
L 138.907229 198.863593 
L 139.194415 198.72 
L 138.763636 200.15593 
L 138.332857 198.72 
L 138.620043 198.863593 
L 138.620043 198.72 
L 138.907229 198.72 
" clip-path="url(#p3dd044670b)"/>
    <path d="M 153.664254 198.960058 
L 153.424196 199.103651 
L 153.95144 199.440174 
L 151.120082 200.15593 
L 153.089882 197.999826 
L 153.13701 198.623535 
L 153.377068 198.479942 
L 153.664254 198.960058 
" clip-path="url(#p3dd044670b)"/>
    <path d="M 168.40454 199.144147 
L 167.420708 199.438392 
L 168.098563 200.159832 
L 163.476528 200.15593 
L 167.337439 197.614949 
L 167.167 198.590097 
L 168.150832 198.295853 
L 168.40454 199.144147 
" clip-path="url(#p3dd044670b)"/>
    <path d="M 183.121277 199.154165 
L 179.827024 199.810995 
L 180.434322 200.592758 
L 175.832974 200.15593 
L 179.914922 197.987769 
L 179.65389 198.942665 
L 182.948144 198.285835 
L 183.121277 199.154165 
" clip-path="url(#p3dd044670b)"/>
    <path d="M 197.85721 199.157842 
L 192.195476 200.004498 
L 192.764268 200.814708 
L 188.189421 200.15593 
L 192.371418 198.187654 
L 192.064526 199.128813 
L 197.726261 198.282158 
L 197.85721 199.157842 
" clip-path="url(#p3dd044670b)"/>
    <path d="M 212.601348 199.159576 
L 204.554641 200.12222 
L 205.099392 200.948785 
L 200.545867 200.15593 
L 204.783868 198.311327 
L 204.449466 199.243067 
L 212.496173 198.280424 
L 212.601348 199.159576 
" clip-path="url(#p3dd044670b)"/>
    <path d="M 64.978512 174.085289 
L 72.997009 174.085289 
L 72.554299 173.199868 
L 76.981406 174.528 
L 72.554299 175.856132 
L 72.997009 174.970711 
L 64.978512 174.970711 
L 64.978512 174.085289 
" clip-path="url(#p3dd044670b)"/>
    <path d="M 79.735537 174.085289 
L 85.353456 174.085289 
L 84.910745 173.199868 
L 89.337852 174.528 
L 84.910745 175.856132 
L 85.353456 174.970711 
L 79.735537 174.970711 
L 79.735537 174.085289 
" clip-path="url(#p3dd044670b)"/>
    <path d="M 94.492562 174.085289 
L 97.709902 174.085289 
L 97.267191 173.199868 
L 101.694298 174.528 
L 97.267191 175.856132 
L 97.709902 174.970711 
L 94.492562 174.970711 
L 94.492562 174.085289 
" clip-path="url(#p3dd044670b)"/>
    <path d="M 109.249587 174.085289 
L 110.066348 174.085289 
L 109.623637 173.199868 
L 114.050744 174.528 
L 109.623637 175.856132 
L 110.066348 174.970711 
L 109.249587 174.970711 
L 109.249587 174.085289 
" clip-path="url(#p3dd044670b)"/>
    <path d="M 124.006612 174.287942 
L 124.246669 174.287942 
L 124.006612 173.807826 
L 126.40719 174.528 
L 124.006612 175.248174 
L 124.246669 174.768058 
L 124.006612 174.768058 
L 124.006612 174.287942 
" clip-path="url(#p3dd044670b)"/>
    <path d="M 139.206347 174.528 
L 138.984992 174.144601 
L 138.542281 174.144601 
L 138.320926 174.528 
L 138.542281 174.911399 
L 138.984992 174.911399 
L 139.206347 174.528 
L 138.984992 174.144601 
" clip-path="url(#p3dd044670b)"/>
    <path d="M 153.520661 174.768058 
L 153.280603 174.768058 
L 153.520661 175.248174 
L 151.120082 174.528 
L 153.520661 173.807826 
L 153.280603 174.287942 
L 153.520661 174.287942 
L 153.520661 174.768058 
" clip-path="url(#p3dd044670b)"/>
    <path d="M 168.277686 174.970711 
L 167.460925 174.970711 
L 167.903636 175.856132 
L 163.476528 174.528 
L 167.903636 173.199868 
L 167.460925 174.085289 
L 168.277686 174.085289 
L 168.277686 174.970711 
" clip-path="url(#p3dd044670b)"/>
    <path d="M 183.034711 174.970711 
L 179.817371 174.970711 
L 180.260082 175.856132 
L 175.832974 174.528 
L 180.260082 173.199868 
L 179.817371 174.085289 
L 183.034711 174.085289 
L 183.034711 174.970711 
" clip-path="url(#p3dd044670b)"/>
    <path d="M 197.791736 174.970711 
L 192.173817 174.970711 
L 192.616528 175.856132 
L 188.189421 174.528 
L 192.616528 173.199868 
L 192.173817 174.085289 
L 197.791736 174.085289 
L 197.791736 174.970711 
" clip-path="url(#p3dd044670b)"/>
    <path d="M 212.54876 174.970711 
L 204.530263 174.970711 
L 204.972974 175.856132 
L 200.545867 174.528 
L 204.972974 173.199868 
L 204.530263 174.085289 
L 212.54876 174.085289 
L 212.54876 174.970711 
" clip-path="url(#p3dd044670b)"/>
    <path d="M 64.925925 149.896424 
L 72.972632 148.93378 
L 72.42788 148.107215 
L 76.981406 148.90007 
L 72.743405 150.744673 
L 73.077806 149.812933 
L 65.0311 150.775576 
L 64.925925 149.896424 
" clip-path="url(#p3dd044670b)"/>
    <path d="M 79.670062 149.898158 
L 85.331797 149.051502 
L 84.763005 148.241292 
L 89.337852 148.90007 
L 85.155854 150.868346 
L 85.462747 149.927187 
L 79.801012 150.773842 
L 79.670062 149.898158 
" clip-path="url(#p3dd044670b)"/>
    <path d="M 94.405995 149.901835 
L 97.700249 149.245005 
L 97.092951 148.463242 
L 101.694298 148.90007 
L 97.612351 151.068231 
L 97.873382 150.113335 
L 94.579129 150.770165 
L 94.405995 149.901835 
" clip-path="url(#p3dd044670b)"/>
    <path d="M 109.122733 149.911853 
L 110.106565 149.617608 
L 109.42871 148.896168 
L 114.050744 148.90007 
L 110.189834 151.441051 
L 110.360273 150.465903 
L 109.376441 150.760147 
L 109.122733 149.911853 
" clip-path="url(#p3dd044670b)"/>
    <path d="M 123.863019 150.095942 
L 124.103076 149.952349 
L 123.575833 149.615826 
L 126.40719 148.90007 
L 124.437391 151.056174 
L 124.390262 150.432465 
L 124.150205 150.576058 
L 123.863019 150.095942 
" clip-path="url(#p3dd044670b)"/>
    <path d="M 138.620043 150.336 
L 138.620043 150.192407 
L 138.332857 150.336 
L 138.763636 148.90007 
L 139.194415 150.336 
L 138.907229 150.192407 
L 138.907229 150.336 
L 138.620043 150.336 
" clip-path="url(#p3dd044670b)"/>
    <path d="M 153.377068 150.576058 
L 153.13701 150.432465 
L 153.089882 151.056174 
L 151.120082 148.90007 
L 153.95144 149.615826 
L 153.424196 149.952349 
L 153.664254 150.095942 
L 153.377068 150.576058 
" clip-path="url(#p3dd044670b)"/>
    <path d="M 168.150832 150.760147 
L 167.167 150.465903 
L 167.337439 151.441051 
L 163.476528 148.90007 
L 168.098563 148.896168 
L 167.420708 149.617608 
L 168.40454 149.911853 
L 168.150832 150.760147 
" clip-path="url(#p3dd044670b)"/>
    <path d="M 182.948144 150.770165 
L 179.65389 150.113335 
L 179.914922 151.068231 
L 175.832974 148.90007 
L 180.434322 148.463242 
L 179.827024 149.245005 
L 183.121277 149.901835 
L 182.948144 150.770165 
" clip-path="url(#p3dd044670b)"/>
    <path d="M 197.726261 150.773842 
L 192.064526 149.927187 
L 192.371418 150.868346 
L 188.189421 148.90007 
L 192.764268 148.241292 
L 192.195476 149.051502 
L 197.85721 149.898158 
L 197.726261 150.773842 
" clip-path="url(#p3dd044670b)"/>
    <path d="M 212.496173 150.775576 
L 204.449466 149.812933 
L 204.783868 150.744673 
L 200.545867 148.90007 
L 205.099392 148.107215 
L 204.554641 148.93378 
L 212.601348 149.896424 
L 212.496173 150.775576 
" clip-path="url(#p3dd044670b)"/>
    <path d="M 64.875495 125.713442 
L 73.003366 123.768735 
L 72.366774 123.010636 
L 76.981406 123.27214 
L 72.984876 125.593985 
L 73.2094 124.629851 
L 65.081529 126.574558 
L 64.875495 125.713442 
" clip-path="url(#p3dd044670b)"/>
    <path d="M 79.608683 125.719853 
L 85.393673 123.989678 
L 84.715818 123.268238 
L 89.337852 123.27214 
L 85.476942 125.813121 
L 85.647381 124.837973 
L 79.862391 126.568147 
L 79.608683 125.719853 
" clip-path="url(#p3dd044670b)"/>
    <path d="M 94.328578 125.73278 
L 97.829332 124.336773 
L 97.090144 123.678316 
L 101.694298 123.27214 
L 98.074046 126.145638 
L 98.157299 125.159213 
L 94.656546 126.55522 
L 94.328578 125.73278 
" clip-path="url(#p3dd044670b)"/>
    <path d="M 109.022328 125.764071 
L 110.404121 124.937537 
L 109.569675 124.404937 
L 114.050744 123.27214 
L 110.933226 126.684514 
L 110.858638 125.697396 
L 109.476845 126.523929 
L 109.022328 125.764071 
" clip-path="url(#p3dd044670b)"/>
    <path d="M 123.719426 125.903942 
L 123.959483 125.616756 
L 123.145054 125.423826 
L 126.40719 123.27214 
L 124.86817 126.864174 
L 124.533855 126.096872 
L 124.293798 126.384058 
L 123.719426 125.903942 
" clip-path="url(#p3dd044670b)"/>
    <path d="M 138.47645 126.144 
L 138.47645 125.856814 
L 137.902078 126.144 
L 138.763636 123.27214 
L 139.625194 126.144 
L 139.050822 125.856814 
L 139.050822 126.144 
L 138.47645 126.144 
" clip-path="url(#p3dd044670b)"/>
    <path d="M 153.233475 126.384058 
L 152.993417 126.096872 
L 152.659103 126.864174 
L 151.120082 123.27214 
L 154.382219 125.423826 
L 153.567789 125.616756 
L 153.807847 125.903942 
L 153.233475 126.384058 
" clip-path="url(#p3dd044670b)"/>
    <path d="M 168.050427 126.523929 
L 166.668635 125.697396 
L 166.594047 126.684514 
L 163.476528 123.27214 
L 167.957598 124.404937 
L 167.123152 124.937537 
L 168.504944 125.764071 
L 168.050427 126.523929 
" clip-path="url(#p3dd044670b)"/>
    <path d="M 182.870727 126.55522 
L 179.369974 125.159213 
L 179.453227 126.145638 
L 175.832974 123.27214 
L 180.437129 123.678316 
L 179.697941 124.336773 
L 183.198694 125.73278 
L 182.870727 126.55522 
" clip-path="url(#p3dd044670b)"/>
    <path d="M 197.664882 126.568147 
L 191.879892 124.837973 
L 192.050331 125.813121 
L 188.189421 123.27214 
L 192.811455 123.268238 
L 192.1336 123.989678 
L 197.918589 125.719853 
L 197.664882 126.568147 
" clip-path="url(#p3dd044670b)"/>
    <path d="M 212.445743 126.574558 
L 204.317873 124.629851 
L 204.542397 125.593985 
L 200.545867 123.27214 
L 205.160499 123.010636 
L 204.523907 123.768735 
L 212.651777 125.713442 
L 212.445743 126.574558 
" clip-path="url(#p3dd044670b)"/>
    <path d="M 64.828965 101.535313 
L 73.081672 98.573449 
L 72.36589 97.889622 
L 76.981406 97.64421 
L 73.263175 100.389746 
L 73.380767 99.406824 
L 65.12806 102.368687 
L 64.828965 101.535313 
" clip-path="url(#p3dd044670b)"/>
    <path d="M 79.554328 101.548074 
L 85.521311 98.871167 
L 84.754967 98.244524 
L 89.337852 97.64421 
L 85.842222 100.668079 
L 85.883729 99.679018 
L 79.916746 102.355926 
L 79.554328 101.548074 
" clip-path="url(#p3dd044670b)"/>
    <path d="M 94.265303 101.572071 
L 98.047675 99.309607 
L 97.213229 98.777007 
L 101.694298 97.64421 
L 98.57678 101.056584 
L 98.502192 100.069466 
L 94.719821 102.331929 
L 94.265303 101.572071 
" clip-path="url(#p3dd044670b)"/>
    <path d="M 108.953932 101.622484 
L 110.789444 99.975589 
L 109.868618 99.612212 
L 114.050744 97.64421 
L 111.642548 101.589309 
L 111.380754 100.634621 
L 109.545242 102.281516 
L 108.953932 101.622484 
" clip-path="url(#p3dd044670b)"/>
    <path d="M 123.619894 101.736496 
L 124.080935 100.909167 
L 123.091995 100.864877 
L 126.40719 97.64421 
L 125.412302 102.157902 
L 124.854371 101.340175 
L 124.393329 102.167504 
L 123.619894 101.736496 
" clip-path="url(#p3dd044670b)"/>
    <path d="M 138.332857 101.952 
L 138.332857 101.521221 
L 137.471299 101.952 
L 138.763636 97.64421 
L 140.055973 101.952 
L 139.194415 101.521221 
L 139.194415 101.952 
L 138.332857 101.952 
" clip-path="url(#p3dd044670b)"/>
    <path d="M 153.133943 102.167504 
L 152.672902 101.340175 
L 152.114971 102.157902 
L 151.120082 97.64421 
L 154.435278 100.864877 
L 153.446338 100.909167 
L 153.907379 101.736496 
L 153.133943 102.167504 
" clip-path="url(#p3dd044670b)"/>
    <path d="M 167.982031 102.281516 
L 166.146519 100.634621 
L 165.884725 101.589309 
L 163.476528 97.64421 
L 167.658655 99.612212 
L 166.737829 99.975589 
L 168.573341 101.622484 
L 167.982031 102.281516 
" clip-path="url(#p3dd044670b)"/>
    <path d="M 182.807452 102.331929 
L 179.025081 100.069466 
L 178.950493 101.056584 
L 175.832974 97.64421 
L 180.314044 98.777007 
L 179.479598 99.309607 
L 183.261969 101.572071 
L 182.807452 102.331929 
" clip-path="url(#p3dd044670b)"/>
    <path d="M 197.610526 102.355926 
L 191.643543 99.679018 
L 191.685051 100.668079 
L 188.189421 97.64421 
L 192.772306 98.244524 
L 192.005962 98.871167 
L 197.972945 101.548074 
L 197.610526 102.355926 
" clip-path="url(#p3dd044670b)"/>
    <path d="M 212.399213 102.368687 
L 204.146506 99.406824 
L 204.264098 100.389746 
L 200.545867 97.64421 
L 205.161383 97.889622 
L 204.4456 98.573449 
L 212.698308 101.535313 
L 212.399213 102.368687 
" clip-path="url(#p3dd044670b)"/>
    <path d="M 64.787416 77.360657 
L 73.196222 73.336808 
L 72.414686 72.729219 
L 76.981406 72.01628 
L 73.561267 75.125277 
L 73.578416 74.135494 
L 65.169609 78.159343 
L 64.787416 77.360657 
" clip-path="url(#p3dd044670b)"/>
    <path d="M 79.508279 77.380071 
L 85.691229 73.681677 
L 84.856782 73.149077 
L 89.337852 72.01628 
L 86.220334 75.428654 
L 86.145746 74.441536 
L 79.962796 78.139929 
L 79.508279 77.380071 
" clip-path="url(#p3dd044670b)"/>
    <path d="M 94.216521 77.413887 
L 98.303241 74.154537 
L 97.405046 73.738353 
L 101.694298 72.01628 
L 99.061293 75.81503 
L 98.855324 74.846763 
L 94.768603 78.106113 
L 94.216521 77.413887 
" clip-path="url(#p3dd044670b)"/>
    <path d="M 108.909916 77.47607 
L 111.155702 74.789391 
L 110.19243 74.561202 
L 114.050744 72.01628 
L 112.230457 76.264782 
L 111.835045 75.357251 
L 109.589258 78.04393 
L 108.909916 77.47607 
" clip-path="url(#p3dd044670b)"/>
    <path d="M 123.598142 77.589281 
L 124.462246 75.52179 
L 123.474587 75.588821 
L 126.40719 72.01628 
L 125.925406 76.613137 
L 125.279186 75.863229 
L 124.415082 77.930719 
L 123.598142 77.589281 
" clip-path="url(#p3dd044670b)"/>
    <path d="M 138.320926 77.76 
L 138.320926 76.000677 
L 137.435504 76.443387 
L 138.763636 72.01628 
L 140.091769 76.443387 
L 139.206347 76.000677 
L 139.206347 77.76 
L 138.320926 77.76 
" clip-path="url(#p3dd044670b)"/>
    <path d="M 153.112191 77.930719 
L 152.248087 75.863229 
L 151.601866 76.613137 
L 151.120082 72.01628 
L 154.052686 75.588821 
L 153.065027 75.52179 
L 153.929131 77.589281 
L 153.112191 77.930719 
" clip-path="url(#p3dd044670b)"/>
    <path d="M 167.938015 78.04393 
L 165.692228 75.357251 
L 165.296816 76.264782 
L 163.476528 72.01628 
L 167.334843 74.561202 
L 166.37157 74.789391 
L 168.617357 77.47607 
L 167.938015 78.04393 
" clip-path="url(#p3dd044670b)"/>
    <path d="M 182.75867 78.106113 
L 178.671949 74.846763 
L 178.46598 75.81503 
L 175.832974 72.01628 
L 180.122226 73.738353 
L 179.224031 74.154537 
L 183.310752 77.413887 
L 182.75867 78.106113 
" clip-path="url(#p3dd044670b)"/>
    <path d="M 197.564477 78.139929 
L 191.381527 74.441536 
L 191.306939 75.428654 
L 188.189421 72.01628 
L 192.67049 73.149077 
L 191.836044 73.681677 
L 198.018994 77.380071 
L 197.564477 78.139929 
" clip-path="url(#p3dd044670b)"/>
    <path d="M 212.357664 78.159343 
L 203.948857 74.135494 
L 203.966006 75.125277 
L 200.545867 72.01628 
L 205.112587 72.729219 
L 204.33105 73.336808 
L 212.739857 77.360657 
L 212.357664 78.159343 
" clip-path="url(#p3dd044670b)"/>
    <path d="M 64.751254 53.188071 
L 73.334783 48.053747 
L 72.500336 47.521147 
L 76.981406 46.38835 
L 73.863888 49.800724 
L 73.7893 48.813606 
L 65.205771 53.947929 
L 64.751254 53.188071 
" clip-path="url(#p3dd044670b)"/>
    <path d="M 79.470433 53.21344 
L 85.881711 48.419728 
L 84.996943 47.975713 
L 89.337852 46.38835 
L 86.587568 50.103071 
L 86.41192 49.128848 
L 80.000641 53.92256 
L 79.470433 53.21344 
" clip-path="url(#p3dd044670b)"/>
    <path d="M 94.179999 53.254476 
L 98.560018 48.88789 
L 97.621369 48.573404 
L 101.694298 46.38835 
L 99.496745 50.454549 
L 99.185143 49.514938 
L 94.805125 53.881524 
L 94.179999 53.254476 
" clip-path="url(#p3dd044670b)"/>
    <path d="M 108.881578 53.321906 
L 111.46789 49.454336 
L 110.485778 49.330157 
L 114.050744 46.38835 
L 112.693831 50.806721 
L 112.203907 49.946524 
L 109.617596 53.814094 
L 108.881578 53.321906 
" clip-path="url(#p3dd044670b)"/>
    <path d="M 123.586749 53.427615 
L 124.723864 50.026732 
L 123.743753 50.165825 
L 126.40719 46.38835 
L 126.262931 51.008134 
L 125.56359 50.307501 
L 124.426475 53.708385 
L 123.586749 53.427615 
" clip-path="url(#p3dd044670b)"/>
    <path d="M 138.320926 53.568 
L 138.320926 50.372747 
L 137.435504 50.815457 
L 138.763636 46.38835 
L 140.091769 50.815457 
L 139.206347 50.372747 
L 139.206347 53.568 
L 138.320926 53.568 
" clip-path="url(#p3dd044670b)"/>
    <path d="M 153.100798 53.708385 
L 151.963683 50.307501 
L 151.264342 51.008134 
L 151.120082 46.38835 
L 153.78352 50.165825 
L 152.803409 50.026732 
L 153.940524 53.427615 
L 153.100798 53.708385 
" clip-path="url(#p3dd044670b)"/>
    <path d="M 167.909677 53.814094 
L 165.323365 49.946524 
L 164.833442 50.806721 
L 163.476528 46.38835 
L 167.041495 49.330157 
L 166.059383 49.454336 
L 168.645695 53.321906 
L 167.909677 53.814094 
" clip-path="url(#p3dd044670b)"/>
    <path d="M 182.722148 53.881524 
L 178.342129 49.514938 
L 178.030528 50.454549 
L 175.832974 46.38835 
L 179.905904 48.573404 
L 178.967255 48.88789 
L 183.347273 53.254476 
L 182.722148 53.881524 
" clip-path="url(#p3dd044670b)"/>
    <path d="M 197.526631 53.92256 
L 191.115353 49.128848 
L 190.939704 50.103071 
L 188.189421 46.38835 
L 192.53033 47.975713 
L 191.645562 48.419728 
L 198.05684 53.21344 
L 197.526631 53.92256 
" clip-path="url(#p3dd044670b)"/>
    <path d="M 212.321502 53.947929 
L 203.737973 48.813606 
L 203.663385 49.800724 
L 200.545867 46.38835 
L 205.026936 47.521147 
L 204.19249 48.053747 
L 212.776019 53.188071 
L 212.321502 53.947929 
" clip-path="url(#p3dd044670b)"/>
   </g>
   <g id="matplotlib.axis_1">
    <g id="xtick_1">
     <g id="line2d_1">
      <defs>
       <path id="md14b0b47d8" d="M 0 0 
L 0 3.5 
" style="stroke: #000000; stroke-width: 0.8"/>
      </defs>
      <g>
       <use xlink:href="#md14b0b47d8" x="64.978512" y="307.584" style="stroke: #000000; stroke-width: 0.8"/>
      </g>
     </g>
     <g id="text_1">
      <!-- −5.0 -->
      <g transform="translate(52.837106 322.182437) scale(0.1 -0.1)">
       <defs>
        <path id="DejaVuSans-2212" d="M 678 2272 
L 4684 2272 
L 4684 1741 
L 678 1741 
L 678 2272 
z
" transform="scale(0.015625)"/>
        <path id="DejaVuSans-35" d="M 691 4666 
L 3169 4666 
L 3169 4134 
L 1269 4134 
L 1269 2991 
Q 1406 3038 1543 3061 
Q 1681 3084 1819 3084 
Q 2600 3084 3056 2656 
Q 3513 2228 3513 1497 
Q 3513 744 3044 326 
Q 2575 -91 1722 -91 
Q 1428 -91 1123 -41 
Q 819 9 494 109 
L 494 744 
Q 775 591 1075 516 
Q 1375 441 1709 441 
Q 2250 441 2565 725 
Q 2881 1009 2881 1497 
Q 2881 1984 2565 2268 
Q 2250 2553 1709 2553 
Q 1456 2553 1204 2497 
Q 953 2441 691 2322 
L 691 4666 
z
" transform="scale(0.015625)"/>
        <path id="DejaVuSans-2e" d="M 684 794 
L 1344 794 
L 1344 0 
L 684 0 
L 684 794 
z
" transform="scale(0.015625)"/>
        <path id="DejaVuSans-30" d="M 2034 4250 
Q 1547 4250 1301 3770 
Q 1056 3291 1056 2328 
Q 1056 1369 1301 889 
Q 1547 409 2034 409 
Q 2525 409 2770 889 
Q 3016 1369 3016 2328 
Q 3016 3291 2770 3770 
Q 2525 4250 2034 4250 
z
M 2034 4750 
Q 2819 4750 3233 4129 
Q 3647 3509 3647 2328 
Q 3647 1150 3233 529 
Q 2819 -91 2034 -91 
Q 1250 -91 836 529 
Q 422 1150 422 2328 
Q 422 3509 836 4129 
Q 1250 4750 2034 4750 
z
" transform="scale(0.015625)"/>
       </defs>
       <use xlink:href="#DejaVuSans-2212"/>
       <use xlink:href="#DejaVuSans-35" x="83.789062"/>
       <use xlink:href="#DejaVuSans-2e" x="147.412109"/>
       <use xlink:href="#DejaVuSans-30" x="179.199219"/>
      </g>
     </g>
    </g>
    <g id="xtick_2">
     <g id="line2d_2">
      <g>
       <use xlink:href="#md14b0b47d8" x="101.871074" y="307.584" style="stroke: #000000; stroke-width: 0.8"/>
      </g>
     </g>
     <g id="text_2">
      <!-- −2.5 -->
      <g transform="translate(89.729668 322.182437) scale(0.1 -0.1)">
       <defs>
        <path id="DejaVuSans-32" d="M 1228 531 
L 3431 531 
L 3431 0 
L 469 0 
L 469 531 
Q 828 903 1448 1529 
Q 2069 2156 2228 2338 
Q 2531 2678 2651 2914 
Q 2772 3150 2772 3378 
Q 2772 3750 2511 3984 
Q 2250 4219 1831 4219 
Q 1534 4219 1204 4116 
Q 875 4013 500 3803 
L 500 4441 
Q 881 4594 1212 4672 
Q 1544 4750 1819 4750 
Q 2544 4750 2975 4387 
Q 3406 4025 3406 3419 
Q 3406 3131 3298 2873 
Q 3191 2616 2906 2266 
Q 2828 2175 2409 1742 
Q 1991 1309 1228 531 
z
" transform="scale(0.015625)"/>
       </defs>
       <use xlink:href="#DejaVuSans-2212"/>
       <use xlink:href="#DejaVuSans-32" x="83.789062"/>
       <use xlink:href="#DejaVuSans-2e" x="147.412109"/>
       <use xlink:href="#DejaVuSans-35" x="179.199219"/>
      </g>
     </g>
    </g>
    <g id="xtick_3">
     <g id="line2d_3">
      <g>
       <use xlink:href="#md14b0b47d8" x="138.763636" y="307.584" style="stroke: #000000; stroke-width: 0.8"/>
      </g>
     </g>
     <g id="text_3">
      <!-- 0.0 -->
      <g transform="translate(130.812074 322.182437) scale(0.1 -0.1)">
       <use xlink:href="#DejaVuSans-30"/>
       <use xlink:href="#DejaVuSans-2e" x="63.623047"/>
       <use xlink:href="#DejaVuSans-30" x="95.410156"/>
      </g>
     </g>
    </g>
    <g id="xtick_4">
     <g id="line2d_4">
      <g>
       <use xlink:href="#md14b0b47d8" x="175.656198" y="307.584" style="stroke: #000000; stroke-width: 0.8"/>
      </g>
     </g>
     <g id="text_4">
      <!-- 2.5 -->
      <g transform="translate(167.704636 322.182437) scale(0.1 -0.1)">
       <use xlink:href="#DejaVuSans-32"/>
       <use xlink:href="#DejaVuSans-2e" x="63.623047"/>
       <use xlink:href="#DejaVuSans-35" x="95.410156"/>
      </g>
     </g>
    </g>
    <g id="xtick_5">
     <g id="line2d_5">
      <g>
       <use xlink:href="#md14b0b47d8" x="212.54876" y="307.584" style="stroke: #000000; stroke-width: 0.8"/>
      </g>
     </g>
     <g id="text_5">
      <!-- 5.0 -->
      <g transform="translate(204.597198 322.182437) scale(0.1 -0.1)">
       <use xlink:href="#DejaVuSans-35"/>
       <use xlink:href="#DejaVuSans-2e" x="63.623047"/>
       <use xlink:href="#DejaVuSans-30" x="95.410156"/>
      </g>
     </g>
    </g>
   </g>
   <g id="matplotlib.axis_2">
    <g id="ytick_1">
     <g id="line2d_6">
      <defs>
       <path id="mb62cc8b04d" d="M 0 0 
L -3.5 0 
" style="stroke: #000000; stroke-width: 0.8"/>
      </defs>
      <g>
       <use xlink:href="#mb62cc8b04d" x="57.6" y="271.296" style="stroke: #000000; stroke-width: 0.8"/>
      </g>
     </g>
     <g id="text_6">
      <!-- −4 -->
      <g transform="translate(35.857813 275.095219) scale(0.1 -0.1)">
       <defs>
        <path id="DejaVuSans-34" d="M 2419 4116 
L 825 1625 
L 2419 1625 
L 2419 4116 
z
M 2253 4666 
L 3047 4666 
L 3047 1625 
L 3713 1625 
L 3713 1100 
L 3047 1100 
L 3047 0 
L 2419 0 
L 2419 1100 
L 313 1100 
L 313 1709 
L 2253 4666 
z
" transform="scale(0.015625)"/>
       </defs>
       <use xlink:href="#DejaVuSans-2212"/>
       <use xlink:href="#DejaVuSans-34" x="83.789062"/>
      </g>
     </g>
    </g>
    <g id="ytick_2">
     <g id="line2d_7">
      <g>
       <use xlink:href="#mb62cc8b04d" x="57.6" y="222.912" style="stroke: #000000; stroke-width: 0.8"/>
      </g>
     </g>
     <g id="text_7">
      <!-- −2 -->
      <g transform="translate(35.857813 226.711219) scale(0.1 -0.1)">
       <use xlink:href="#DejaVuSans-2212"/>
       <use xlink:href="#DejaVuSans-32" x="83.789062"/>
      </g>
     </g>
    </g>
    <g id="ytick_3">
     <g id="line2d_8">
      <g>
       <use xlink:href="#mb62cc8b04d" x="57.6" y="174.528" style="stroke: #000000; stroke-width: 0.8"/>
      </g>
     </g>
     <g id="text_8">
      <!-- 0 -->
      <g transform="translate(44.2375 178.327219) scale(0.1 -0.1)">
       <use xlink:href="#DejaVuSans-30"/>
      </g>
     </g>
    </g>
    <g id="ytick_4">
     <g id="line2d_9">
      <g>
       <use xlink:href="#mb62cc8b04d" x="57.6" y="126.144" style="stroke: #000000; stroke-width: 0.8"/>
      </g>
     </g>
     <g id="text_9">
      <!-- 2 -->
      <g transform="translate(44.2375 129.943219) scale(0.1 -0.1)">
       <use xlink:href="#DejaVuSans-32"/>
      </g>
     </g>
    </g>
    <g id="ytick_5">
     <g id="line2d_10">
      <g>
       <use xlink:href="#mb62cc8b04d" x="57.6" y="77.76" style="stroke: #000000; stroke-width: 0.8"/>
      </g>
     </g>
     <g id="text_10">
      <!-- 4 -->
      <g transform="translate(44.2375 81.559219) scale(0.1 -0.1)">
       <use xlink:href="#DejaVuSans-34"/>
      </g>
     </g>
    </g>
   </g>
   <g id="patch_3">
    <path d="M 57.6 307.584 
L 57.6 41.472 
" style="fill: none; stroke: #000000; stroke-width: 0.8; stroke-linejoin: miter; stroke-linecap: square"/>
   </g>
   <g id="patch_4">
    <path d="M 219.927273 307.584 
L 219.927273 41.472 
" style="fill: none; stroke: #000000; stroke-width: 0.8; stroke-linejoin: miter; stroke-linecap: square"/>
   </g>
   <g id="patch_5">
    <path d="M 57.6 307.584 
L 219.927273 307.584 
" style="fill: none; stroke: #000000; stroke-width: 0.8; stroke-linejoin: miter; stroke-linecap: square"/>
   </g>
   <g id="patch_6">
    <path d="M 57.6 41.472 
L 219.927273 41.472 
" style="fill: none; stroke: #000000; stroke-width: 0.8; stroke-linejoin: miter; stroke-linecap: square"/>
   </g>
  </g>
  <g id="axes_2">
   <g id="patch_7">
    <path d="M 252.392727 307.584 
L 414.72 307.584 
L 414.72 41.472 
L 252.392727 41.472 
z
" style="fill: #ffffff"/>
   </g>
   <g id="matplotlib.axis_3">
    <g id="xtick_6">
     <g id="line2d_11">
      <g>
       <use xlink:href="#md14b0b47d8" x="252.392727" y="307.584" style="stroke: #000000; stroke-width: 0.8"/>
      </g>
     </g>
     <g id="text_11">
      <!-- −0.5 -->
      <g transform="translate(240.251321 322.182437) scale(0.1 -0.1)">
       <use xlink:href="#DejaVuSans-2212"/>
       <use xlink:href="#DejaVuSans-30" x="83.789062"/>
       <use xlink:href="#DejaVuSans-2e" x="147.412109"/>
       <use xlink:href="#DejaVuSans-35" x="179.199219"/>
      </g>
     </g>
    </g>
    <g id="xtick_7">
     <g id="line2d_12">
      <g>
       <use xlink:href="#md14b0b47d8" x="292.974545" y="307.584" style="stroke: #000000; stroke-width: 0.8"/>
      </g>
     </g>
     <g id="text_12">
      <!-- 0.0 -->
      <g transform="translate(285.022983 322.182437) scale(0.1 -0.1)">
       <use xlink:href="#DejaVuSans-30"/>
       <use xlink:href="#DejaVuSans-2e" x="63.623047"/>
       <use xlink:href="#DejaVuSans-30" x="95.410156"/>
      </g>
     </g>
    </g>
    <g id="xtick_8">
     <g id="line2d_13">
      <g>
       <use xlink:href="#md14b0b47d8" x="333.556364" y="307.584" style="stroke: #000000; stroke-width: 0.8"/>
      </g>
     </g>
     <g id="text_13">
      <!-- 0.5 -->
      <g transform="translate(325.604801 322.182437) scale(0.1 -0.1)">
       <use xlink:href="#DejaVuSans-30"/>
       <use xlink:href="#DejaVuSans-2e" x="63.623047"/>
       <use xlink:href="#DejaVuSans-35" x="95.410156"/>
      </g>
     </g>
    </g>
    <g id="xtick_9">
     <g id="line2d_14">
      <g>
       <use xlink:href="#md14b0b47d8" x="374.138182" y="307.584" style="stroke: #000000; stroke-width: 0.8"/>
      </g>
     </g>
     <g id="text_14">
      <!-- 1.0 -->
      <g transform="translate(366.186619 322.182437) scale(0.1 -0.1)">
       <defs>
        <path id="DejaVuSans-31" d="M 794 531 
L 1825 531 
L 1825 4091 
L 703 3866 
L 703 4441 
L 1819 4666 
L 2450 4666 
L 2450 531 
L 3481 531 
L 3481 0 
L 794 0 
L 794 531 
z
" transform="scale(0.015625)"/>
       </defs>
       <use xlink:href="#DejaVuSans-31"/>
       <use xlink:href="#DejaVuSans-2e" x="63.623047"/>
       <use xlink:href="#DejaVuSans-30" x="95.410156"/>
      </g>
     </g>
    </g>
    <g id="xtick_10">
     <g id="line2d_15">
      <g>
       <use xlink:href="#md14b0b47d8" x="414.72" y="307.584" style="stroke: #000000; stroke-width: 0.8"/>
      </g>
     </g>
     <g id="text_15">
      <!-- 1.5 -->
      <g transform="translate(406.768437 322.182437) scale(0.1 -0.1)">
       <use xlink:href="#DejaVuSans-31"/>
       <use xlink:href="#DejaVuSans-2e" x="63.623047"/>
       <use xlink:href="#DejaVuSans-35" x="95.410156"/>
      </g>
     </g>
    </g>
   </g>
   <g id="matplotlib.axis_4">
    <g id="ytick_6">
     <g id="line2d_16">
      <g>
       <use xlink:href="#mb62cc8b04d" x="252.392727" y="283.392" style="stroke: #000000; stroke-width: 0.8"/>
      </g>
     </g>
     <g id="text_16">
      <!-- 0 -->
      <g transform="translate(239.030227 287.191219) scale(0.1 -0.1)">
       <use xlink:href="#DejaVuSans-30"/>
      </g>
     </g>
    </g>
    <g id="ytick_7">
     <g id="line2d_17">
      <g>
       <use xlink:href="#mb62cc8b04d" x="252.392727" y="235.008" style="stroke: #000000; stroke-width: 0.8"/>
      </g>
     </g>
     <g id="text_17">
      <!-- 10 -->
      <g transform="translate(232.667727 238.807219) scale(0.1 -0.1)">
       <use xlink:href="#DejaVuSans-31"/>
       <use xlink:href="#DejaVuSans-30" x="63.623047"/>
      </g>
     </g>
    </g>
    <g id="ytick_8">
     <g id="line2d_18">
      <g>
       <use xlink:href="#mb62cc8b04d" x="252.392727" y="186.624" style="stroke: #000000; stroke-width: 0.8"/>
      </g>
     </g>
     <g id="text_18">
      <!-- 20 -->
      <g transform="translate(232.667727 190.423219) scale(0.1 -0.1)">
       <use xlink:href="#DejaVuSans-32"/>
       <use xlink:href="#DejaVuSans-30" x="63.623047"/>
      </g>
     </g>
    </g>
    <g id="ytick_9">
     <g id="line2d_19">
      <g>
       <use xlink:href="#mb62cc8b04d" x="252.392727" y="138.24" style="stroke: #000000; stroke-width: 0.8"/>
      </g>
     </g>
     <g id="text_19">
      <!-- 30 -->
      <g transform="translate(232.667727 142.039219) scale(0.1 -0.1)">
       <defs>
        <path id="DejaVuSans-33" d="M 2597 2516 
Q 3050 2419 3304 2112 
Q 3559 1806 3559 1356 
Q 3559 666 3084 287 
Q 2609 -91 1734 -91 
Q 1441 -91 1130 -33 
Q 819 25 488 141 
L 488 750 
Q 750 597 1062 519 
Q 1375 441 1716 441 
Q 2309 441 2620 675 
Q 2931 909 2931 1356 
Q 2931 1769 2642 2001 
Q 2353 2234 1838 2234 
L 1294 2234 
L 1294 2753 
L 1863 2753 
Q 2328 2753 2575 2939 
Q 2822 3125 2822 3475 
Q 2822 3834 2567 4026 
Q 2313 4219 1838 4219 
Q 1578 4219 1281 4162 
Q 984 4106 628 3988 
L 628 4550 
Q 988 4650 1302 4700 
Q 1616 4750 1894 4750 
Q 2613 4750 3031 4423 
Q 3450 4097 3450 3541 
Q 3450 3153 3228 2886 
Q 3006 2619 2597 2516 
z
" transform="scale(0.015625)"/>
       </defs>
       <use xlink:href="#DejaVuSans-33"/>
       <use xlink:href="#DejaVuSans-30" x="63.623047"/>
      </g>
     </g>
    </g>
    <g id="ytick_10">
     <g id="line2d_20">
      <g>
       <use xlink:href="#mb62cc8b04d" x="252.392727" y="89.856" style="stroke: #000000; stroke-width: 0.8"/>
      </g>
     </g>
     <g id="text_20">
      <!-- 40 -->
      <g transform="translate(232.667727 93.655219) scale(0.1 -0.1)">
       <use xlink:href="#DejaVuSans-34"/>
       <use xlink:href="#DejaVuSans-30" x="63.623047"/>
      </g>
     </g>
    </g>
    <g id="ytick_11">
     <g id="line2d_21">
      <g>
       <use xlink:href="#mb62cc8b04d" x="252.392727" y="41.472" style="stroke: #000000; stroke-width: 0.8"/>
      </g>
     </g>
     <g id="text_21">
      <!-- 50 -->
      <g transform="translate(232.667727 45.271219) scale(0.1 -0.1)">
       <use xlink:href="#DejaVuSans-35"/>
       <use xlink:href="#DejaVuSans-30" x="63.623047"/>
      </g>
     </g>
    </g>
   </g>
   <g id="line2d_22">
    <path d="M 293.055709 283.392 
L 374.138182 283.392 
L 374.138182 283.392 
" clip-path="url(#paab506bcc4)" style="fill: none; stroke: #1f77b4; stroke-width: 1.5; stroke-linecap: square"/>
   </g>
   <g id="line2d_23">
    <path d="M 293.069223 -1 
L 293.2992 151.853342 
L 293.623855 196.498093 
L 294.029673 218.399194 
L 294.516655 231.597648 
L 295.0848 240.458014 
L 295.734109 246.823071 
L 296.464582 251.615491 
L 297.276218 255.351301 
L 298.169018 258.342614 
L 299.142982 260.789617 
L 300.198109 262.826722 
L 301.3344 264.547571 
L 302.633018 266.106874 
L 304.093964 267.503572 
L 305.717236 268.747236 
L 307.584 269.897154 
L 309.775418 270.979453 
L 312.372655 272.002118 
L 315.456873 272.964312 
L 319.109236 273.862225 
L 323.573236 274.720037 
L 329.0112 275.528369 
L 335.747782 276.294531 
L 344.107636 277.013358 
L 354.740073 277.694915 
L 368.375564 278.335692 
L 374.138182 278.5536 
L 374.138182 278.5536 
" clip-path="url(#paab506bcc4)" style="fill: none; stroke: #ff7f0e; stroke-width: 1.5; stroke-linecap: square"/>
   </g>
   <g id="line2d_24">
    <path d="M 293.264179 -1 
L 293.461527 76.971575 
L 293.786182 131.319168 
L 294.192 164.069897 
L 294.678982 185.822751 
L 295.247127 201.247287 
L 295.896436 212.712451 
L 296.626909 221.54394 
L 297.438545 228.539511 
L 298.331345 234.206931 
L 299.305309 238.884174 
L 300.360436 242.804575 
L 301.496727 246.134208 
L 302.714182 248.99436 
L 304.0128 251.475587 
L 305.392582 253.646814 
L 306.934691 255.658287 
L 308.639127 257.504938 
L 310.505891 259.190913 
L 312.534982 260.725503 
L 314.807564 262.167811 
L 317.4048 263.547855 
L 320.326691 264.844532 
L 323.6544 266.075535 
L 327.469091 267.247871 
L 331.933091 268.381316 
L 337.127564 269.464091 
L 343.214836 270.499591 
L 350.4384 271.495044 
L 359.041745 272.447582 
L 369.349527 273.356722 
L 374.138182 273.7152 
L 374.138182 273.7152 
" clip-path="url(#paab506bcc4)" style="fill: none; stroke: #2ca02c; stroke-width: 1.5; stroke-linecap: square"/>
   </g>
   <g id="line2d_25">
    <path d="M 293.536636 -1 
L 293.786182 55.282752 
L 294.192 104.408846 
L 294.678982 137.038127 
L 295.247127 160.174931 
L 295.896436 177.372677 
L 296.626909 190.61991 
L 297.438545 201.113267 
L 298.331345 209.614396 
L 299.224145 216.11298 
L 300.198109 221.696167 
L 301.253236 226.527833 
L 302.389527 230.738557 
L 303.606982 234.432613 
L 304.9056 237.693659 
L 306.285382 240.58922 
L 307.827491 243.305768 
L 309.450764 245.717183 
L 311.236364 247.966052 
L 313.184291 250.049943 
L 315.294545 251.973044 
L 317.567127 253.743463 
L 320.0832 255.421592 
L 322.923927 257.040187 
L 326.089309 258.577215 
L 329.579345 260.020813 
L 333.556364 261.419114 
L 338.020364 262.748814 
L 343.133673 264.034675 
L 348.977455 265.269545 
L 355.714036 266.459949 
L 363.505745 267.605024 
L 372.596073 268.709288 
L 374.138182 268.8768 
L 374.138182 268.8768 
" clip-path="url(#paab506bcc4)" style="fill: none; stroke: #d62728; stroke-width: 1.5; stroke-linecap: square"/>
   </g>
   <g id="line2d_26">
    <path d="M 293.883495 -1 
L 294.273164 53.784942 
L 294.760145 93.608653 
L 295.328291 122.515106 
L 295.9776 144.330752 
L 296.708073 161.311458 
L 297.519709 174.863068 
L 298.412509 185.902739 
L 299.386473 195.052067 
L 300.360436 202.21715 
L 301.415564 208.448662 
L 302.551855 213.901608 
L 303.769309 218.701783 
L 305.067927 222.951422 
L 306.447709 226.73392 
L 307.908655 230.117635 
L 309.531927 233.306348 
L 311.236364 236.157402 
L 313.021964 238.720955 
L 314.969891 241.131288 
L 317.080145 243.384839 
L 319.352727 245.483764 
L 321.787636 247.433867 
L 324.466036 249.295787 
L 327.387927 251.058213 
L 330.634473 252.755627 
L 334.205673 254.371673 
L 338.182691 255.926912 
L 342.646691 257.431173 
L 347.678836 258.887235 
L 353.360291 260.293611 
L 359.772218 261.646661 
L 367.076945 262.955498 
L 374.138182 264.0384 
L 374.138182 264.0384 
" clip-path="url(#paab506bcc4)" style="fill: none; stroke: #9467bd; stroke-width: 1.5; stroke-linecap: square"/>
   </g>
   <g id="line2d_27">
    <path d="M 294.293943 -1 
L 294.760145 46.162816 
L 295.328291 82.295882 
L 295.9776 109.565439 
L 296.708073 130.791323 
L 297.519709 147.730835 
L 298.412509 161.530423 
L 299.386473 172.967083 
L 300.360436 181.923438 
L 301.415564 189.712827 
L 302.551855 196.529011 
L 303.769309 202.529229 
L 305.067927 207.841278 
L 306.447709 212.5694 
L 307.908655 216.799043 
L 309.450764 220.600639 
L 311.074036 224.032574 
L 312.859636 227.280982 
L 314.7264 230.213188 
L 316.755491 232.975789 
L 318.865745 235.475586 
L 321.138327 237.827326 
L 323.573236 240.032187 
L 326.251636 242.15482 
L 329.173527 244.179402 
L 332.338909 246.097183 
L 335.828945 247.944872 
L 339.643636 249.707598 
L 343.864145 251.4076 
L 348.490473 253.029704 
L 353.684945 254.61147 
L 359.447564 256.130995 
L 365.940655 257.609153 
L 373.245382 259.03941 
L 374.138182 259.2 
L 374.138182 259.2 
" clip-path="url(#paab506bcc4)" style="fill: none; stroke: #8c564b; stroke-width: 1.5; stroke-linecap: square"/>
   </g>
   <g id="line2d_28">
    <path d="M 294.763221 -1 
L 295.328291 42.076658 
L 295.9776 74.800127 
L 296.708073 100.271187 
L 297.519709 120.598602 
L 298.412509 137.158108 
L 299.386473 150.8821 
L 300.360436 161.629725 
L 301.415564 170.976993 
L 302.551855 179.156413 
L 303.769309 186.356675 
L 305.067927 192.731133 
L 306.447709 198.404879 
L 307.908655 203.480452 
L 309.450764 208.042366 
L 311.074036 212.160689 
L 312.778473 215.893848 
L 314.564073 219.290856 
L 316.512 222.518959 
L 318.541091 225.456662 
L 320.732509 228.237629 
L 323.086255 230.858505 
L 325.602327 233.320669 
L 328.280727 235.628707 
L 331.202618 237.847199 
L 334.368 239.963701 
L 337.776873 241.971558 
L 341.5104 243.907974 
L 345.568582 245.759653 
L 350.032582 247.549507 
L 354.983564 249.28984 
L 360.421527 250.962185 
L 366.5088 252.595794 
L 373.245382 254.168892 
L 374.138182 254.3616 
L 374.138182 254.3616 
" clip-path="url(#paab506bcc4)" style="fill: none; stroke: #e377c2; stroke-width: 1.5; stroke-linecap: square"/>
   </g>
   <g id="line2d_29">
    <path d="M 295.289456 -1 
L 295.896436 36.01358 
L 296.626909 66.923791 
L 297.438545 91.40829 
L 298.331345 111.244258 
L 299.224145 126.407619 
L 300.198109 139.435057 
L 301.253236 150.708944 
L 302.389527 160.533967 
L 303.606982 169.153431 
L 304.9056 176.762538 
L 306.285382 183.518847 
L 307.746327 189.550388 
L 309.288436 194.961922 
L 310.911709 199.839763 
L 312.616145 204.255513 
L 314.401745 208.268958 
L 316.268509 211.930334 
L 318.2976 215.412766 
L 320.407855 218.590812 
L 322.680436 221.60346 
L 325.034182 224.358401 
L 327.550255 226.966926 
L 330.228655 229.429767 
L 333.150545 231.812783 
L 336.315927 234.100309 
L 339.7248 236.282827 
L 343.377164 238.355553 
L 347.354182 240.355703 
L 351.737018 242.305554 
L 356.525673 244.186476 
L 361.720145 245.986362 
L 367.482764 247.744767 
L 373.813527 249.441904 
L 374.138182 249.5232 
L 374.138182 249.5232 
" clip-path="url(#paab506bcc4)" style="fill: none; stroke: #7f7f7f; stroke-width: 1.5; stroke-linecap: square"/>
   </g>
   <g id="line2d_30">
    <path d="M 295.86816 -1 
L 296.545745 32.651773 
L 297.357382 61.560599 
L 298.169018 82.996915 
L 299.061818 101.134656 
L 300.035782 116.617806 
L 301.090909 129.947371 
L 302.2272 141.514513 
L 303.444655 151.626608 
L 304.743273 160.527104 
L 306.123055 168.410438 
L 307.584 175.433235 
L 309.126109 181.722718 
L 310.749382 187.383063 
L 312.453818 192.50023 
L 314.239418 197.145671 
L 316.106182 201.379185 
L 318.054109 205.251145 
L 320.0832 208.804244 
L 322.274618 212.193111 
L 324.5472 215.304486 
L 326.982109 218.263933 
L 329.579345 221.068836 
L 332.338909 223.720294 
L 335.2608 226.222014 
L 338.426182 228.638033 
L 341.835055 230.956151 
L 345.487418 233.169163 
L 349.464436 235.315084 
L 353.766109 237.379937 
L 358.4736 239.387582 
L 363.586909 241.322348 
L 369.1872 243.19977 
L 374.138182 244.6848 
L 374.138182 244.6848 
" clip-path="url(#paab506bcc4)" style="fill: none; stroke: #bcbd22; stroke-width: 1.5; stroke-linecap: square"/>
   </g>
   <g id="line2d_31">
    <path d="M 296.497759 -1 
L 297.195055 28.13384 
L 298.006691 53.625247 
L 298.899491 75.010575 
L 299.873455 93.142736 
L 300.928582 108.668056 
L 302.064873 122.081007 
L 303.282327 133.76396 
L 304.580945 144.015864 
L 305.960727 153.072976 
L 307.340509 160.711217 
L 308.801455 167.616376 
L 310.343564 173.87944 
L 311.966836 179.578441 
L 313.671273 184.780364 
L 315.456873 189.542807 
L 317.323636 193.915416 
L 319.352727 198.098469 
L 321.462982 201.93595 
L 323.6544 205.467907 
L 326.008145 208.83829 
L 328.443055 211.943374 
L 331.040291 214.900684 
L 333.799855 217.708792 
L 336.721745 220.369283 
L 339.887127 222.948513 
L 343.296 225.43215 
L 346.948364 227.811139 
L 350.844218 230.080582 
L 355.064727 232.278768 
L 359.609891 234.393727 
L 364.560873 236.449871 
L 369.917673 238.433004 
L 374.138182 239.8464 
L 374.138182 239.8464 
" clip-path="url(#paab506bcc4)" style="fill: none; stroke: #17becf; stroke-width: 1.5; stroke-linecap: square"/>
   </g>
   <g id="patch_8">
    <path d="M 252.392727 307.584 
L 252.392727 41.472 
" style="fill: none; stroke: #000000; stroke-width: 0.8; stroke-linejoin: miter; stroke-linecap: square"/>
   </g>
   <g id="patch_9">
    <path d="M 414.72 307.584 
L 414.72 41.472 
" style="fill: none; stroke: #000000; stroke-width: 0.8; stroke-linejoin: miter; stroke-linecap: square"/>
   </g>
   <g id="patch_10">
    <path d="M 252.392727 307.584 
L 414.72 307.584 
" style="fill: none; stroke: #000000; stroke-width: 0.8; stroke-linejoin: miter; stroke-linecap: square"/>
   </g>
   <g id="patch_11">
    <path d="M 252.392727 41.472 
L 414.72 41.472 
" style="fill: none; stroke: #000000; stroke-width: 0.8; stroke-linejoin: miter; stroke-linecap: square"/>
   </g>
  </g>
  <g id="text_22">
   <!-- t = 0.7999999999999999 -->
   <g transform="translate(152.401875 16.030125) scale(0.12 -0.12)">
    <defs>
     <path id="DejaVuSans-74" d="M 1172 4494 
L 1172 3500 
L 2356 3500 
L 2356 3053 
L 1172 3053 
L 1172 1153 
Q 1172 725 1289 603 
Q 1406 481 1766 481 
L 2356 481 
L 2356 0 
L 1766 0 
Q 1100 0 847 248 
Q 594 497 594 1153 
L 594 3053 
L 172 3053 
L 172 3500 
L 594 3500 
L 594 4494 
L 1172 4494 
z
" transform="scale(0.015625)"/>
     <path id="DejaVuSans-20" transform="scale(0.015625)"/>
     <path id="DejaVuSans-3d" d="M 678 2906 
L 4684 2906 
L 4684 2381 
L 678 2381 
L 678 2906 
z
M 678 1631 
L 4684 1631 
L 4684 1100 
L 678 1100 
L 678 1631 
z
" transform="scale(0.015625)"/>
     <path id="DejaVuSans-37" d="M 525 4666 
L 3525 4666 
L 3525 4397 
L 1831 0 
L 1172 0 
L 2766 4134 
L 525 4134 
L 525 4666 
z
" transform="scale(0.015625)"/>
     <path id="DejaVuSans-39" d="M 703 97 
L 703 672 
Q 941 559 1184 500 
Q 1428 441 1663 441 
Q 2288 441 2617 861 
Q 2947 1281 2994 2138 
Q 2813 1869 2534 1725 
Q 2256 1581 1919 1581 
Q 1219 1581 811 2004 
Q 403 2428 403 3163 
Q 403 3881 828 4315 
Q 1253 4750 1959 4750 
Q 2769 4750 3195 4129 
Q 3622 3509 3622 2328 
Q 3622 1225 3098 567 
Q 2575 -91 1691 -91 
Q 1453 -91 1209 -44 
Q 966 3 703 97 
z
M 1959 2075 
Q 2384 2075 2632 2365 
Q 2881 2656 2881 3163 
Q 2881 3666 2632 3958 
Q 2384 4250 1959 4250 
Q 1534 4250 1286 3958 
Q 1038 3666 1038 3163 
Q 1038 2656 1286 2365 
Q 1534 2075 1959 2075 
z
" transform="scale(0.015625)"/>
    </defs>
    <use xlink:href="#DejaVuSans-74"/>
    <use xlink:href="#DejaVuSans-20" x="39.208984"/>
    <use xlink:href="#DejaVuSans-3d" x="70.996094"/>
    <use xlink:href="#DejaVuSans-20" x="154.785156"/>
    <use xlink:href="#DejaVuSans-30" x="186.572266"/>
    <use xlink:href="#DejaVuSans-2e" x="250.195312"/>
    <use xlink:href="#DejaVuSans-37" x="281.982422"/>
    <use xlink:href="#DejaVuSans-39" x="345.605469"/>
    <use xlink:href="#DejaVuSans-39" x="409.228516"/>
    <use xlink:href="#DejaVuSans-39" x="472.851562"/>
    <use xlink:href="#DejaVuSans-39" x="536.474609"/>
    <use xlink:href="#DejaVuSans-39" x="600.097656"/>
    <use xlink:href="#DejaVuSans-39" x="663.720703"/>
    <use xlink:href="#DejaVuSans-39" x="727.34375"/>
    <use xlink:href="#DejaVuSans-39" x="790.966797"/>
    <use xlink:href="#DejaVuSans-39" x="854.589844"/>
    <use xlink:href="#DejaVuSans-39" x="918.212891"/>
    <use xlink:href="#DejaVuSans-39" x="981.835938"/>
    <use xlink:href="#DejaVuSans-39" x="1045.458984"/>
    <use xlink:href="#DejaVuSans-39" x="1109.082031"/>
    <use xlink:href="#DejaVuSans-39" x="1172.705078"/>
    <use xlink:href="#DejaVuSans-39" x="1236.328125"/>
   </g>
  </g>
 </g>
 <defs>
  <clipPath id="p3dd044670b">
   <rect x="57.6" y="41.472" width="162.327273" height="266.112"/>
  </clipPath>
  <clipPath id="paab506bcc4">
   <rect x="252.392727" y="41.472" width="162.327273" height="266.112"/>
  </clipPath>
 </defs>
</svg>
