<?xml version="1.0" encoding="utf-8" standalone="no"?>
<!DOCTYPE svg PUBLIC "-//W3C//DTD SVG 1.1//EN"
  "http://www.w3.org/Graphics/SVG/1.1/DTD/svg11.dtd">
<svg xmlns:xlink="http://www.w3.org/1999/xlink" width="460.8pt" height="345.6pt" viewBox="0 0 460.8 345.6" xmlns="http://www.w3.org/2000/svg" version="1.1">
 <metadata>
  <rdf:RDF xmlns:dc="http://purl.org/dc/elements/1.1/" xmlns:cc="http://creativecommons.org/ns#" xmlns:rdf="http://www.w3.org/1999/02/22-rdf-syntax-ns#">
   <cc:Work>
    <dc:type rdf:resource="http://purl.org/dc/dcmitype/StillImage"/>
    <dc:date>2023-01-17T23:38:59.520141</dc:date>
    <dc:format>image/svg+xml</dc:format>
    <dc:creator>
     <cc:Agent>
      <dc:title>Matplotlib v3.6.3, https://matplotlib.org/</dc:title>
     </cc:Agent>
    </dc:creator>
   </cc:Work>
  </rdf:RDF>
 </metadata>
 <defs>
  <style type="text/css">*{stroke-linejoin: round; stroke-linecap: butt}</style>
 </defs>
 <g id="figure_1">
  <g id="patch_1">
   <path d="M 0 345.6 
L 460.8 345.6 
L 460.8 0 
L 0 0 
z
" style="fill: #ffffff"/>
  </g>
  <g id="axes_1">
   <g id="patch_2">
    <path d="M 57.6 307.584 
L 219.927273 307.584 
L 219.927273 41.472 
L 57.6 41.472 
z
" style="fill: #ffffff"/>
   </g>
   <g id="Quiver_1">
    <path d="M 65.100636 295.062467 
L 75.170562 297.952418 
L 74.989275 296.979228 
L 78.878241 299.47706 
L 74.256536 299.532429 
L 74.926316 298.803485 
L 64.856389 295.913533 
L 65.100636 295.062467 
" clip-path="url(#p86e6d08fc5)"/>
    <path d="M 79.885025 295.071291 
L 87.25443 297.714958 
L 87.136698 296.732053 
L 90.85532 299.47706 
L 86.239769 299.232305 
L 86.955454 298.548375 
L 79.586049 295.904709 
L 79.885025 295.071291 
" clip-path="url(#p86e6d08fc5)"/>
    <path d="M 94.683589 295.088624 
L 99.42904 297.358439 
L 99.411718 296.368659 
L 102.832399 299.47706 
L 98.265555 298.764917 
L 99.046985 298.157191 
L 94.301535 295.887376 
L 94.683589 295.088624 
" clip-path="url(#p86e6d08fc5)"/>
    <path d="M 109.507665 295.128294 
L 111.830204 296.794648 
L 111.986655 295.817158 
L 114.809478 299.47706 
L 110.438184 297.975393 
L 111.314047 297.51406 
L 108.991508 295.847706 
L 109.507665 295.128294 
" clip-path="url(#p86e6d08fc5)"/>
    <path d="M 124.369824 295.23488 
L 124.871691 295.95503 
L 125.344996 295.085578 
L 126.786557 299.47706 
L 123.165722 296.604297 
L 124.145266 296.46127 
L 123.643399 295.74112 
L 124.369824 295.23488 
" clip-path="url(#p86e6d08fc5)"/>
    <path d="M 139.162542 295.488 
L 139.162542 295.886906 
L 139.960354 295.488 
L 138.763636 299.47706 
L 137.566918 295.488 
L 138.36473 295.886906 
L 138.36473 295.488 
L 139.162542 295.488 
" clip-path="url(#p86e6d08fc5)"/>
    <path d="M 153.883873 295.74112 
L 153.382006 296.46127 
L 154.361551 296.604297 
L 150.740716 299.47706 
L 152.182277 295.085578 
L 152.655582 295.95503 
L 153.157449 295.23488 
L 153.883873 295.74112 
" clip-path="url(#p86e6d08fc5)"/>
    <path d="M 168.535764 295.847706 
L 166.213226 297.51406 
L 167.089089 297.975393 
L 162.717795 299.47706 
L 165.540618 295.817158 
L 165.697069 296.794648 
L 168.019607 295.128294 
L 168.535764 295.847706 
" clip-path="url(#p86e6d08fc5)"/>
    <path d="M 183.225738 295.887376 
L 178.480287 298.157191 
L 179.261718 298.764917 
L 174.694874 299.47706 
L 178.115555 296.368659 
L 178.098233 297.358439 
L 182.843684 295.088624 
L 183.225738 295.887376 
" clip-path="url(#p86e6d08fc5)"/>
    <path d="M 197.941224 295.904709 
L 190.571819 298.548375 
L 191.287504 299.232305 
L 186.671953 299.47706 
L 190.390575 296.732053 
L 190.272843 297.714958 
L 197.642247 295.071291 
L 197.941224 295.904709 
" clip-path="url(#p86e6d08fc5)"/>
    <path d="M 212.670883 295.913533 
L 202.600957 298.803485 
L 203.270736 299.532429 
L 198.649032 299.47706 
L 202.537997 296.979228 
L 202.35671 297.952418 
L 212.426637 295.062467 
L 212.670883 295.913533 
" clip-path="url(#p86e6d08fc5)"/>
    <path d="M 65.077577 270.864515 
L 75.093944 273.16418 
L 74.860589 272.202146 
L 78.878241 274.487248 
L 74.2662 274.791054 
L 74.895814 274.027149 
L 64.879448 271.727485 
L 65.077577 270.864515 
" clip-path="url(#p86e6d08fc5)"/>
    <path d="M 79.85766 270.870467 
L 87.147642 272.962606 
L 86.966354 271.989416 
L 90.85532 274.487248 
L 86.233615 274.542617 
L 86.903395 273.813673 
L 79.613414 271.721533 
L 79.85766 270.870467 
" clip-path="url(#p86e6d08fc5)"/>
    <path d="M 94.650778 270.882526 
L 99.269352 272.649829 
L 99.172311 271.664666 
L 102.832399 274.487248 
L 98.223014 274.145508 
L 98.95292 273.476776 
L 94.334346 271.709474 
L 94.650778 270.882526 
" clip-path="url(#p86e6d08fc5)"/>
    <path d="M 109.46997 270.912042 
L 111.574236 272.119841 
L 111.631044 271.131541 
L 114.809478 274.487248 
L 110.308744 273.435292 
L 111.133469 272.887758 
L 109.029204 271.679958 
L 109.46997 270.912042 
" clip-path="url(#p86e6d08fc5)"/>
    <path d="M 124.325736 271.018005 
L 124.603731 271.33713 
L 124.963986 270.462016 
L 126.786557 274.487248 
L 123.049237 272.129984 
L 123.965481 271.893119 
L 123.687487 271.573995 
L 124.325736 271.018005 
" clip-path="url(#p86e6d08fc5)"/>
    <path d="M 139.082761 271.296 
L 139.082761 271.615125 
L 139.721011 271.296 
L 138.763636 274.487248 
L 137.806262 271.296 
L 138.444512 271.615125 
L 138.444512 271.296 
L 139.082761 271.296 
" clip-path="url(#p86e6d08fc5)"/>
    <path d="M 153.839786 271.573995 
L 153.561791 271.893119 
L 154.478036 272.129984 
L 150.740716 274.487248 
L 152.563287 270.462016 
L 152.923542 271.33713 
L 153.201536 271.018005 
L 153.839786 271.573995 
" clip-path="url(#p86e6d08fc5)"/>
    <path d="M 168.498069 271.679958 
L 166.393803 272.887758 
L 167.218528 273.435292 
L 162.717795 274.487248 
L 165.896229 271.131541 
L 165.953037 272.119841 
L 168.057303 270.912042 
L 168.498069 271.679958 
" clip-path="url(#p86e6d08fc5)"/>
    <path d="M 183.192927 271.709474 
L 178.574353 273.476776 
L 179.304259 274.145508 
L 174.694874 274.487248 
L 178.354962 271.664666 
L 178.25792 272.649829 
L 182.876495 270.882526 
L 183.192927 271.709474 
" clip-path="url(#p86e6d08fc5)"/>
    <path d="M 197.913859 271.721533 
L 190.623877 273.813673 
L 191.293657 274.542617 
L 186.671953 274.487248 
L 190.560918 271.989416 
L 190.379631 272.962606 
L 197.669612 270.870467 
L 197.913859 271.721533 
" clip-path="url(#p86e6d08fc5)"/>
    <path d="M 212.647825 271.727485 
L 202.631458 274.027149 
L 203.261073 274.791054 
L 198.649032 274.487248 
L 202.666684 272.202146 
L 202.433329 273.16418 
L 212.449695 270.864515 
L 212.647825 271.727485 
" clip-path="url(#p86e6d08fc5)"/>
    <path d="M 65.053638 246.66771 
L 75.026758 248.385012 
L 74.74072 247.437306 
L 78.878241 249.497436 
L 74.289963 250.055045 
L 74.876505 249.257591 
L 64.903386 247.54029 
L 65.053638 246.66771 
" clip-path="url(#p86e6d08fc5)"/>
    <path d="M 79.828693 246.671201 
L 87.053287 248.226232 
L 86.806801 247.267479 
L 90.85532 249.497436 
L 86.247864 249.864271 
L 86.866975 249.09183 
L 79.642381 247.536799 
L 79.828693 246.671201 
" clip-path="url(#p86e6d08fc5)"/>
    <path d="M 94.614685 246.678467 
L 99.124721 247.972794 
L 98.943434 246.999604 
L 102.832399 249.497436 
L 98.210695 249.552805 
L 98.880474 248.823861 
L 94.370439 247.529533 
L 94.614685 246.678467 
" clip-path="url(#p86e6d08fc5)"/>
    <path d="M 109.424635 246.697367 
L 111.324825 247.515365 
L 111.268289 246.52705 
L 114.809478 249.497436 
L 110.217997 248.96685 
L 110.974728 248.328632 
L 109.074538 247.510633 
L 109.424635 246.697367 
" clip-path="url(#p86e6d08fc5)"/>
    <path d="M 124.245955 246.826005 
L 124.52395 247.065349 
L 124.724642 246.270016 
L 126.786557 249.497436 
L 123.288581 247.937984 
L 124.045263 247.621338 
L 123.767268 247.381995 
L 124.245955 246.826005 
" clip-path="url(#p86e6d08fc5)"/>
    <path d="M 139.00298 247.104 
L 139.00298 247.343344 
L 139.481667 247.104 
L 138.763636 249.497436 
L 138.045605 247.104 
L 138.524293 247.343344 
L 138.524293 247.104 
L 139.00298 247.104 
" clip-path="url(#p86e6d08fc5)"/>
    <path d="M 153.760005 247.381995 
L 153.48201 247.621338 
L 154.238692 247.937984 
L 150.740716 249.497436 
L 152.80263 246.270016 
L 153.003323 247.065349 
L 153.281318 246.826005 
L 153.760005 247.381995 
" clip-path="url(#p86e6d08fc5)"/>
    <path d="M 168.452735 247.510633 
L 166.552545 248.328632 
L 167.309275 248.96685 
L 162.717795 249.497436 
L 166.258984 246.52705 
L 166.202447 247.515365 
L 168.102637 246.697367 
L 168.452735 247.510633 
" clip-path="url(#p86e6d08fc5)"/>
    <path d="M 183.156834 247.529533 
L 178.646798 248.823861 
L 179.316578 249.552805 
L 174.694874 249.497436 
L 178.583839 246.999604 
L 178.402552 247.972794 
L 182.912588 246.678467 
L 183.156834 247.529533 
" clip-path="url(#p86e6d08fc5)"/>
    <path d="M 197.884892 247.536799 
L 190.660298 249.09183 
L 191.279409 249.864271 
L 186.671953 249.497436 
L 190.720472 247.267479 
L 190.473985 248.226232 
L 197.698579 246.671201 
L 197.884892 247.536799 
" clip-path="url(#p86e6d08fc5)"/>
    <path d="M 212.623886 247.54029 
L 202.650767 249.257591 
L 203.237309 250.055045 
L 198.649032 249.497436 
L 202.786553 247.437306 
L 202.500515 248.385012 
L 212.473634 246.66771 
L 212.623886 247.54029 
" clip-path="url(#p86e6d08fc5)"/>
    <path d="M 65.029002 222.472178 
L 74.97033 223.613396 
L 74.631487 222.683262 
L 78.878241 224.507624 
L 74.328549 225.322195 
L 74.869351 224.49304 
L 64.928023 223.351822 
L 65.029002 222.472178 
" clip-path="url(#p86e6d08fc5)"/>
    <path d="M 79.79842 222.473778 
L 86.974203 223.503461 
L 86.661746 222.564135 
L 90.85532 224.507624 
L 86.284452 225.193467 
L 86.848438 224.379905 
L 79.672655 223.350222 
L 79.79842 222.473778 
" clip-path="url(#p86e6d08fc5)"/>
    <path d="M 94.575755 222.477176 
L 99.002178 223.324064 
L 98.73374 222.371224 
L 102.832399 224.507624 
L 98.234582 224.980166 
L 98.835792 224.193712 
L 94.409369 223.346824 
L 94.575755 222.477176 
" clip-path="url(#p86e6d08fc5)"/>
    <path d="M 109.37171 222.486467 
L 111.1018 222.982982 
L 110.920513 222.009792 
L 114.809478 224.507624 
L 110.187774 224.562993 
L 110.857554 223.834049 
L 109.127464 223.337533 
L 109.37171 222.486467 
" clip-path="url(#p86e6d08fc5)"/>
    <path d="M 124.166174 222.634005 
L 124.444169 222.793568 
L 124.485299 222.078016 
L 126.786557 224.507624 
L 123.527924 223.745984 
L 124.125044 223.349557 
L 123.847049 223.189995 
L 124.166174 222.634005 
" clip-path="url(#p86e6d08fc5)"/>
    <path d="M 138.923199 222.912 
L 138.923199 223.071562 
L 139.242324 222.912 
L 138.763636 224.507624 
L 138.284949 222.912 
L 138.604074 223.071562 
L 138.604074 222.912 
L 138.923199 222.912 
" clip-path="url(#p86e6d08fc5)"/>
    <path d="M 153.680224 223.189995 
L 153.402229 223.349557 
L 153.999348 223.745984 
L 150.740716 224.507624 
L 153.041974 222.078016 
L 153.083104 222.793568 
L 153.361099 222.634005 
L 153.680224 223.189995 
" clip-path="url(#p86e6d08fc5)"/>
    <path d="M 168.399809 223.337533 
L 166.669719 223.834049 
L 167.339499 224.562993 
L 162.717795 224.507624 
L 166.60676 222.009792 
L 166.425473 222.982982 
L 168.155563 222.486467 
L 168.399809 223.337533 
" clip-path="url(#p86e6d08fc5)"/>
    <path d="M 183.117904 223.346824 
L 178.691481 224.193712 
L 179.292691 224.980166 
L 174.694874 224.507624 
L 178.793533 222.371224 
L 178.525095 223.324064 
L 182.951518 222.477176 
L 183.117904 223.346824 
" clip-path="url(#p86e6d08fc5)"/>
    <path d="M 197.854618 223.350222 
L 190.678834 224.379905 
L 191.242821 225.193467 
L 186.671953 224.507624 
L 190.865527 222.564135 
L 190.55307 223.503461 
L 197.728853 222.473778 
L 197.854618 223.350222 
" clip-path="url(#p86e6d08fc5)"/>
    <path d="M 212.59925 223.351822 
L 202.657922 224.49304 
L 203.198723 225.322195 
L 198.649032 224.507624 
L 202.895786 222.683262 
L 202.556943 223.613396 
L 212.498271 222.472178 
L 212.59925 223.351822 
" clip-path="url(#p86e6d08fc5)"/>
    <path d="M 65.003881 198.278017 
L 74.92576 198.847509 
L 74.534514 197.938174 
L 78.878241 199.517812 
L 74.382301 200.590074 
L 74.875022 199.731476 
L 64.953144 199.161983 
L 65.003881 198.278017 
" clip-path="url(#p86e6d08fc5)"/>
    <path d="M 79.767219 198.278424 
L 86.91282 198.7911 
L 86.534608 197.876267 
L 90.85532 199.517812 
L 86.344518 200.525721 
L 86.849457 199.674252 
L 79.703855 199.161576 
L 79.767219 198.278424 
" clip-path="url(#p86e6d08fc5)"/>
    <path d="M 94.53472 198.279301 
L 98.908268 198.697687 
L 98.551886 197.774131 
L 102.832399 199.517812 
L 98.298935 200.418324 
L 98.823951 199.579085 
L 94.450404 199.160699 
L 94.53472 198.279301 
" clip-path="url(#p86e6d08fc5)"/>
    <path d="M 109.312469 198.281778 
L 110.928361 198.513649 
L 110.615904 197.574322 
L 114.809478 199.517812 
L 110.23861 200.203655 
L 110.802597 199.390093 
L 109.186704 199.158222 
L 109.312469 198.281778 
" clip-path="url(#p86e6d08fc5)"/>
    <path d="M 124.086393 198.442005 
L 124.364387 198.521787 
L 124.245955 197.886016 
L 126.786557 199.517812 
L 123.767268 199.553984 
L 124.204825 199.077776 
L 123.92683 198.997995 
L 124.086393 198.442005 
" clip-path="url(#p86e6d08fc5)"/>
    <path d="M 138.763636 199.162711 
L 139.147035 198.941355 
L 139.147035 198.498645 
L 138.763636 198.277289 
L 138.380238 198.498645 
L 138.380238 198.941355 
L 138.763636 199.162711 
L 139.147035 198.941355 
" clip-path="url(#p86e6d08fc5)"/>
    <path d="M 153.600442 198.997995 
L 153.322448 199.077776 
L 153.760005 199.553984 
L 150.740716 199.517812 
L 153.281318 197.886016 
L 153.162885 198.521787 
L 153.44088 198.442005 
L 153.600442 198.997995 
" clip-path="url(#p86e6d08fc5)"/>
    <path d="M 168.340568 199.158222 
L 166.724676 199.390093 
L 167.288663 200.203655 
L 162.717795 199.517812 
L 166.911369 197.574322 
L 166.598911 198.513649 
L 168.214804 198.281778 
L 168.340568 199.158222 
" clip-path="url(#p86e6d08fc5)"/>
    <path d="M 183.076869 199.160699 
L 178.703322 199.579085 
L 179.228338 200.418324 
L 174.694874 199.517812 
L 178.975387 197.774131 
L 178.619005 198.697687 
L 182.992552 198.279301 
L 183.076869 199.160699 
" clip-path="url(#p86e6d08fc5)"/>
    <path d="M 197.823417 199.161576 
L 190.677816 199.674252 
L 191.182755 200.525721 
L 186.671953 199.517812 
L 190.992664 197.876267 
L 190.614452 198.7911 
L 197.760054 198.278424 
L 197.823417 199.161576 
" clip-path="url(#p86e6d08fc5)"/>
    <path d="M 212.574129 199.161983 
L 202.652251 199.731476 
L 203.144972 200.590074 
L 198.649032 199.517812 
L 202.992759 197.938174 
L 202.601513 198.847509 
L 212.523392 198.278017 
L 212.574129 199.161983 
" clip-path="url(#p86e6d08fc5)"/>
    <path d="M 64.978512 174.085289 
L 74.893844 174.085289 
L 74.451133 173.199868 
L 78.878241 174.528 
L 74.451133 175.856132 
L 74.893844 174.970711 
L 64.978512 174.970711 
L 64.978512 174.085289 
" clip-path="url(#p86e6d08fc5)"/>
    <path d="M 79.735537 174.085289 
L 86.870923 174.085289 
L 86.428212 173.199868 
L 90.85532 174.528 
L 86.428212 175.856132 
L 86.870923 174.970711 
L 79.735537 174.970711 
L 79.735537 174.085289 
" clip-path="url(#p86e6d08fc5)"/>
    <path d="M 94.492562 174.085289 
L 98.848002 174.085289 
L 98.405291 173.199868 
L 102.832399 174.528 
L 98.405291 175.856132 
L 98.848002 174.970711 
L 94.492562 174.970711 
L 94.492562 174.085289 
" clip-path="url(#p86e6d08fc5)"/>
    <path d="M 109.249587 174.085289 
L 110.825081 174.085289 
L 110.382371 173.199868 
L 114.809478 174.528 
L 110.382371 175.856132 
L 110.825081 174.970711 
L 109.249587 174.970711 
L 109.249587 174.085289 
" clip-path="url(#p86e6d08fc5)"/>
    <path d="M 124.006612 174.250005 
L 124.284606 174.250005 
L 124.006612 173.694016 
L 126.786557 174.528 
L 124.006612 175.361984 
L 124.284606 174.805995 
L 124.006612 174.805995 
L 124.006612 174.250005 
" clip-path="url(#p86e6d08fc5)"/>
    <path d="M 139.206347 174.528 
L 138.984992 174.144601 
L 138.542281 174.144601 
L 138.320926 174.528 
L 138.542281 174.911399 
L 138.984992 174.911399 
L 139.206347 174.528 
L 138.984992 174.144601 
" clip-path="url(#p86e6d08fc5)"/>
    <path d="M 153.520661 174.805995 
L 153.242667 174.805995 
L 153.520661 175.361984 
L 150.740716 174.528 
L 153.520661 173.694016 
L 153.242667 174.250005 
L 153.520661 174.250005 
L 153.520661 174.805995 
" clip-path="url(#p86e6d08fc5)"/>
    <path d="M 168.277686 174.970711 
L 166.702191 174.970711 
L 167.144902 175.856132 
L 162.717795 174.528 
L 167.144902 173.199868 
L 166.702191 174.085289 
L 168.277686 174.085289 
L 168.277686 174.970711 
" clip-path="url(#p86e6d08fc5)"/>
    <path d="M 183.034711 174.970711 
L 178.679271 174.970711 
L 179.121981 175.856132 
L 174.694874 174.528 
L 179.121981 173.199868 
L 178.679271 174.085289 
L 183.034711 174.085289 
L 183.034711 174.970711 
" clip-path="url(#p86e6d08fc5)"/>
    <path d="M 197.791736 174.970711 
L 190.65635 174.970711 
L 191.09906 175.856132 
L 186.671953 174.528 
L 191.09906 173.199868 
L 190.65635 174.085289 
L 197.791736 174.085289 
L 197.791736 174.970711 
" clip-path="url(#p86e6d08fc5)"/>
    <path d="M 212.54876 174.970711 
L 202.633429 174.970711 
L 203.07614 175.856132 
L 198.649032 174.528 
L 203.07614 173.199868 
L 202.633429 174.085289 
L 212.54876 174.085289 
L 212.54876 174.970711 
" clip-path="url(#p86e6d08fc5)"/>
    <path d="M 64.953144 149.894017 
L 74.875022 149.324524 
L 74.382301 148.465926 
L 78.878241 149.538188 
L 74.534514 151.117826 
L 74.92576 150.208491 
L 65.003881 150.777983 
L 64.953144 149.894017 
" clip-path="url(#p86e6d08fc5)"/>
    <path d="M 79.703855 149.894424 
L 86.849457 149.381748 
L 86.344518 148.530279 
L 90.85532 149.538188 
L 86.534608 151.179733 
L 86.91282 150.2649 
L 79.767219 150.777576 
L 79.703855 149.894424 
" clip-path="url(#p86e6d08fc5)"/>
    <path d="M 94.450404 149.895301 
L 98.823951 149.476915 
L 98.298935 148.637676 
L 102.832399 149.538188 
L 98.551886 151.281869 
L 98.908268 150.358313 
L 94.53472 150.776699 
L 94.450404 149.895301 
" clip-path="url(#p86e6d08fc5)"/>
    <path d="M 109.186704 149.897778 
L 110.802597 149.665907 
L 110.23861 148.852345 
L 114.809478 149.538188 
L 110.615904 151.481678 
L 110.928361 150.542351 
L 109.312469 150.774222 
L 109.186704 149.897778 
" clip-path="url(#p86e6d08fc5)"/>
    <path d="M 123.92683 150.058005 
L 124.204825 149.978224 
L 123.767268 149.502016 
L 126.786557 149.538188 
L 124.245955 151.169984 
L 124.364387 150.534213 
L 124.086393 150.613995 
L 123.92683 150.058005 
" clip-path="url(#p86e6d08fc5)"/>
    <path d="M 138.763636 149.893289 
L 138.380238 150.114645 
L 138.380238 150.557355 
L 138.763636 150.778711 
L 139.147035 150.557355 
L 139.147035 150.114645 
L 138.763636 149.893289 
L 138.380238 150.114645 
" clip-path="url(#p86e6d08fc5)"/>
    <path d="M 153.44088 150.613995 
L 153.162885 150.534213 
L 153.281318 151.169984 
L 150.740716 149.538188 
L 153.760005 149.502016 
L 153.322448 149.978224 
L 153.600442 150.058005 
L 153.44088 150.613995 
" clip-path="url(#p86e6d08fc5)"/>
    <path d="M 168.214804 150.774222 
L 166.598911 150.542351 
L 166.911369 151.481678 
L 162.717795 149.538188 
L 167.288663 148.852345 
L 166.724676 149.665907 
L 168.340568 149.897778 
L 168.214804 150.774222 
" clip-path="url(#p86e6d08fc5)"/>
    <path d="M 182.992552 150.776699 
L 178.619005 150.358313 
L 178.975387 151.281869 
L 174.694874 149.538188 
L 179.228338 148.637676 
L 178.703322 149.476915 
L 183.076869 149.895301 
L 182.992552 150.776699 
" clip-path="url(#p86e6d08fc5)"/>
    <path d="M 197.760054 150.777576 
L 190.614452 150.2649 
L 190.992664 151.179733 
L 186.671953 149.538188 
L 191.182755 148.530279 
L 190.677816 149.381748 
L 197.823417 149.894424 
L 197.760054 150.777576 
" clip-path="url(#p86e6d08fc5)"/>
    <path d="M 212.523392 150.777983 
L 202.601513 150.208491 
L 202.992759 151.117826 
L 198.649032 149.538188 
L 203.144972 148.465926 
L 202.652251 149.324524 
L 212.574129 149.894017 
L 212.523392 150.777983 
" clip-path="url(#p86e6d08fc5)"/>
    <path d="M 64.928023 125.704178 
L 74.869351 124.56296 
L 74.328549 123.733805 
L 78.878241 124.548376 
L 74.631487 126.372738 
L 74.97033 125.442604 
L 65.029002 126.583822 
L 64.928023 125.704178 
" clip-path="url(#p86e6d08fc5)"/>
    <path d="M 79.672655 125.705778 
L 86.848438 124.676095 
L 86.284452 123.862533 
L 90.85532 124.548376 
L 86.661746 126.491865 
L 86.974203 125.552539 
L 79.79842 126.582222 
L 79.672655 125.705778 
" clip-path="url(#p86e6d08fc5)"/>
    <path d="M 94.409369 125.709176 
L 98.835792 124.862288 
L 98.234582 124.075834 
L 102.832399 124.548376 
L 98.73374 126.684776 
L 99.002178 125.731936 
L 94.575755 126.578824 
L 94.409369 125.709176 
" clip-path="url(#p86e6d08fc5)"/>
    <path d="M 109.127464 125.718467 
L 110.857554 125.221951 
L 110.187774 124.493007 
L 114.809478 124.548376 
L 110.920513 127.046208 
L 111.1018 126.073018 
L 109.37171 126.569533 
L 109.127464 125.718467 
" clip-path="url(#p86e6d08fc5)"/>
    <path d="M 123.847049 125.866005 
L 124.125044 125.706443 
L 123.527924 125.310016 
L 126.786557 124.548376 
L 124.485299 126.977984 
L 124.444169 126.262432 
L 124.166174 126.421995 
L 123.847049 125.866005 
" clip-path="url(#p86e6d08fc5)"/>
    <path d="M 138.604074 126.144 
L 138.604074 125.984438 
L 138.284949 126.144 
L 138.763636 124.548376 
L 139.242324 126.144 
L 138.923199 125.984438 
L 138.923199 126.144 
L 138.604074 126.144 
" clip-path="url(#p86e6d08fc5)"/>
    <path d="M 153.361099 126.421995 
L 153.083104 126.262432 
L 153.041974 126.977984 
L 150.740716 124.548376 
L 153.999348 125.310016 
L 153.402229 125.706443 
L 153.680224 125.866005 
L 153.361099 126.421995 
" clip-path="url(#p86e6d08fc5)"/>
    <path d="M 168.155563 126.569533 
L 166.425473 126.073018 
L 166.60676 127.046208 
L 162.717795 124.548376 
L 167.339499 124.493007 
L 166.669719 125.221951 
L 168.399809 125.718467 
L 168.155563 126.569533 
" clip-path="url(#p86e6d08fc5)"/>
    <path d="M 182.951518 126.578824 
L 178.525095 125.731936 
L 178.793533 126.684776 
L 174.694874 124.548376 
L 179.292691 124.075834 
L 178.691481 124.862288 
L 183.117904 125.709176 
L 182.951518 126.578824 
" clip-path="url(#p86e6d08fc5)"/>
    <path d="M 197.728853 126.582222 
L 190.55307 125.552539 
L 190.865527 126.491865 
L 186.671953 124.548376 
L 191.242821 123.862533 
L 190.678834 124.676095 
L 197.854618 125.705778 
L 197.728853 126.582222 
" clip-path="url(#p86e6d08fc5)"/>
    <path d="M 212.498271 126.583822 
L 202.556943 125.442604 
L 202.895786 126.372738 
L 198.649032 124.548376 
L 203.198723 123.733805 
L 202.657922 124.56296 
L 212.59925 125.704178 
L 212.498271 126.583822 
" clip-path="url(#p86e6d08fc5)"/>
    <path d="M 64.903386 101.51571 
L 74.876505 99.798409 
L 74.289963 99.000955 
L 78.878241 99.558564 
L 74.74072 101.618694 
L 75.026758 100.670988 
L 65.053638 102.38829 
L 64.903386 101.51571 
" clip-path="url(#p86e6d08fc5)"/>
    <path d="M 79.642381 101.519201 
L 86.866975 99.96417 
L 86.247864 99.191729 
L 90.85532 99.558564 
L 86.806801 101.788521 
L 87.053287 100.829768 
L 79.828693 102.384799 
L 79.642381 101.519201 
" clip-path="url(#p86e6d08fc5)"/>
    <path d="M 94.370439 101.526467 
L 98.880474 100.232139 
L 98.210695 99.503195 
L 102.832399 99.558564 
L 98.943434 102.056396 
L 99.124721 101.083206 
L 94.614685 102.377533 
L 94.370439 101.526467 
" clip-path="url(#p86e6d08fc5)"/>
    <path d="M 109.074538 101.545367 
L 110.974728 100.727368 
L 110.217997 100.08915 
L 114.809478 99.558564 
L 111.268289 102.52895 
L 111.324825 101.540635 
L 109.424635 102.358633 
L 109.074538 101.545367 
" clip-path="url(#p86e6d08fc5)"/>
    <path d="M 123.767268 101.674005 
L 124.045263 101.434662 
L 123.288581 101.118016 
L 126.786557 99.558564 
L 124.724642 102.785984 
L 124.52395 101.990651 
L 124.245955 102.229995 
L 123.767268 101.674005 
" clip-path="url(#p86e6d08fc5)"/>
    <path d="M 138.524293 101.952 
L 138.524293 101.712656 
L 138.045605 101.952 
L 138.763636 99.558564 
L 139.481667 101.952 
L 139.00298 101.712656 
L 139.00298 101.952 
L 138.524293 101.952 
" clip-path="url(#p86e6d08fc5)"/>
    <path d="M 153.281318 102.229995 
L 153.003323 101.990651 
L 152.80263 102.785984 
L 150.740716 99.558564 
L 154.238692 101.118016 
L 153.48201 101.434662 
L 153.760005 101.674005 
L 153.281318 102.229995 
" clip-path="url(#p86e6d08fc5)"/>
    <path d="M 168.102637 102.358633 
L 166.202447 101.540635 
L 166.258984 102.52895 
L 162.717795 99.558564 
L 167.309275 100.08915 
L 166.552545 100.727368 
L 168.452735 101.545367 
L 168.102637 102.358633 
" clip-path="url(#p86e6d08fc5)"/>
    <path d="M 182.912588 102.377533 
L 178.402552 101.083206 
L 178.583839 102.056396 
L 174.694874 99.558564 
L 179.316578 99.503195 
L 178.646798 100.232139 
L 183.156834 101.526467 
L 182.912588 102.377533 
" clip-path="url(#p86e6d08fc5)"/>
    <path d="M 197.698579 102.384799 
L 190.473985 100.829768 
L 190.720472 101.788521 
L 186.671953 99.558564 
L 191.279409 99.191729 
L 190.660298 99.96417 
L 197.884892 101.519201 
L 197.698579 102.384799 
" clip-path="url(#p86e6d08fc5)"/>
    <path d="M 212.473634 102.38829 
L 202.500515 100.670988 
L 202.786553 101.618694 
L 198.649032 99.558564 
L 203.237309 99.000955 
L 202.650767 99.798409 
L 212.623886 101.51571 
L 212.473634 102.38829 
" clip-path="url(#p86e6d08fc5)"/>
    <path d="M 64.879448 77.328515 
L 74.895814 75.028851 
L 74.2662 74.264946 
L 78.878241 74.568752 
L 74.860589 76.853854 
L 75.093944 75.89182 
L 65.077577 78.191485 
L 64.879448 77.328515 
" clip-path="url(#p86e6d08fc5)"/>
    <path d="M 79.613414 77.334467 
L 86.903395 75.242327 
L 86.233615 74.513383 
L 90.85532 74.568752 
L 86.966354 77.066584 
L 87.147642 76.093394 
L 79.85766 78.185533 
L 79.613414 77.334467 
" clip-path="url(#p86e6d08fc5)"/>
    <path d="M 94.334346 77.346526 
L 98.95292 75.579224 
L 98.223014 74.910492 
L 102.832399 74.568752 
L 99.172311 77.391334 
L 99.269352 76.406171 
L 94.650778 78.173474 
L 94.334346 77.346526 
" clip-path="url(#p86e6d08fc5)"/>
    <path d="M 109.029204 77.376042 
L 111.133469 76.168242 
L 110.308744 75.620708 
L 114.809478 74.568752 
L 111.631044 77.924459 
L 111.574236 76.936159 
L 109.46997 78.143958 
L 109.029204 77.376042 
" clip-path="url(#p86e6d08fc5)"/>
    <path d="M 123.687487 77.482005 
L 123.965481 77.162881 
L 123.049237 76.926016 
L 126.786557 74.568752 
L 124.963986 78.593984 
L 124.603731 77.71887 
L 124.325736 78.037995 
L 123.687487 77.482005 
" clip-path="url(#p86e6d08fc5)"/>
    <path d="M 138.444512 77.76 
L 138.444512 77.440875 
L 137.806262 77.76 
L 138.763636 74.568752 
L 139.721011 77.76 
L 139.082761 77.440875 
L 139.082761 77.76 
L 138.444512 77.76 
" clip-path="url(#p86e6d08fc5)"/>
    <path d="M 153.201536 78.037995 
L 152.923542 77.71887 
L 152.563287 78.593984 
L 150.740716 74.568752 
L 154.478036 76.926016 
L 153.561791 77.162881 
L 153.839786 77.482005 
L 153.201536 78.037995 
" clip-path="url(#p86e6d08fc5)"/>
    <path d="M 168.057303 78.143958 
L 165.953037 76.936159 
L 165.896229 77.924459 
L 162.717795 74.568752 
L 167.218528 75.620708 
L 166.393803 76.168242 
L 168.498069 77.376042 
L 168.057303 78.143958 
" clip-path="url(#p86e6d08fc5)"/>
    <path d="M 182.876495 78.173474 
L 178.25792 76.406171 
L 178.354962 77.391334 
L 174.694874 74.568752 
L 179.304259 74.910492 
L 178.574353 75.579224 
L 183.192927 77.346526 
L 182.876495 78.173474 
" clip-path="url(#p86e6d08fc5)"/>
    <path d="M 197.669612 78.185533 
L 190.379631 76.093394 
L 190.560918 77.066584 
L 186.671953 74.568752 
L 191.293657 74.513383 
L 190.623877 75.242327 
L 197.913859 77.334467 
L 197.669612 78.185533 
" clip-path="url(#p86e6d08fc5)"/>
    <path d="M 212.449695 78.191485 
L 202.433329 75.89182 
L 202.666684 76.853854 
L 198.649032 74.568752 
L 203.261073 74.264946 
L 202.631458 75.028851 
L 212.647825 77.328515 
L 212.449695 78.191485 
" clip-path="url(#p86e6d08fc5)"/>
    <path d="M 64.856389 53.142467 
L 74.926316 50.252515 
L 74.256536 49.523571 
L 78.878241 49.57894 
L 74.989275 52.076772 
L 75.170562 51.103582 
L 65.100636 53.993533 
L 64.856389 53.142467 
" clip-path="url(#p86e6d08fc5)"/>
    <path d="M 79.586049 53.151291 
L 86.955454 50.507625 
L 86.239769 49.823695 
L 90.85532 49.57894 
L 87.136698 52.323947 
L 87.25443 51.341042 
L 79.885025 53.984709 
L 79.586049 53.151291 
" clip-path="url(#p86e6d08fc5)"/>
    <path d="M 94.301535 53.168624 
L 99.046985 50.898809 
L 98.265555 50.291083 
L 102.832399 49.57894 
L 99.411718 52.687341 
L 99.42904 51.697561 
L 94.683589 53.967376 
L 94.301535 53.168624 
" clip-path="url(#p86e6d08fc5)"/>
    <path d="M 108.991508 53.208294 
L 111.314047 51.54194 
L 110.438184 51.080607 
L 114.809478 49.57894 
L 111.986655 53.238842 
L 111.830204 52.261352 
L 109.507665 53.927706 
L 108.991508 53.208294 
" clip-path="url(#p86e6d08fc5)"/>
    <path d="M 123.643399 53.31488 
L 124.145266 52.59473 
L 123.165722 52.451703 
L 126.786557 49.57894 
L 125.344996 53.970422 
L 124.871691 53.10097 
L 124.369824 53.82112 
L 123.643399 53.31488 
" clip-path="url(#p86e6d08fc5)"/>
    <path d="M 138.36473 53.568 
L 138.36473 53.169094 
L 137.566918 53.568 
L 138.763636 49.57894 
L 139.960354 53.568 
L 139.162542 53.169094 
L 139.162542 53.568 
L 138.36473 53.568 
" clip-path="url(#p86e6d08fc5)"/>
    <path d="M 153.157449 53.82112 
L 152.655582 53.10097 
L 152.182277 53.970422 
L 150.740716 49.57894 
L 154.361551 52.451703 
L 153.382006 52.59473 
L 153.883873 53.31488 
L 153.157449 53.82112 
" clip-path="url(#p86e6d08fc5)"/>
    <path d="M 168.019607 53.927706 
L 165.697069 52.261352 
L 165.540618 53.238842 
L 162.717795 49.57894 
L 167.089089 51.080607 
L 166.213226 51.54194 
L 168.535764 53.208294 
L 168.019607 53.927706 
" clip-path="url(#p86e6d08fc5)"/>
    <path d="M 182.843684 53.967376 
L 178.098233 51.697561 
L 178.115555 52.687341 
L 174.694874 49.57894 
L 179.261718 50.291083 
L 178.480287 50.898809 
L 183.225738 53.168624 
L 182.843684 53.967376 
" clip-path="url(#p86e6d08fc5)"/>
    <path d="M 197.642247 53.984709 
L 190.272843 51.341042 
L 190.390575 52.323947 
L 186.671953 49.57894 
L 191.287504 49.823695 
L 190.571819 50.507625 
L 197.941224 53.151291 
L 197.642247 53.984709 
" clip-path="url(#p86e6d08fc5)"/>
    <path d="M 212.426637 53.993533 
L 202.35671 51.103582 
L 202.537997 52.076772 
L 198.649032 49.57894 
L 203.270736 49.523571 
L 202.600957 50.252515 
L 212.670883 53.142467 
L 212.426637 53.993533 
" clip-path="url(#p86e6d08fc5)"/>
   </g>
   <g id="matplotlib.axis_1">
    <g id="xtick_1">
     <g id="line2d_1">
      <defs>
       <path id="mc1ac878b24" d="M 0 0 
L 0 3.5 
" style="stroke: #000000; stroke-width: 0.8"/>
      </defs>
      <g>
       <use xlink:href="#mc1ac878b24" x="64.978512" y="307.584" style="stroke: #000000; stroke-width: 0.8"/>
      </g>
     </g>
     <g id="text_1">
      <!-- −5.0 -->
      <g transform="translate(52.837106 322.182437) scale(0.1 -0.1)">
       <defs>
        <path id="DejaVuSans-2212" d="M 678 2272 
L 4684 2272 
L 4684 1741 
L 678 1741 
L 678 2272 
z
" transform="scale(0.015625)"/>
        <path id="DejaVuSans-35" d="M 691 4666 
L 3169 4666 
L 3169 4134 
L 1269 4134 
L 1269 2991 
Q 1406 3038 1543 3061 
Q 1681 3084 1819 3084 
Q 2600 3084 3056 2656 
Q 3513 2228 3513 1497 
Q 3513 744 3044 326 
Q 2575 -91 1722 -91 
Q 1428 -91 1123 -41 
Q 819 9 494 109 
L 494 744 
Q 775 591 1075 516 
Q 1375 441 1709 441 
Q 2250 441 2565 725 
Q 2881 1009 2881 1497 
Q 2881 1984 2565 2268 
Q 2250 2553 1709 2553 
Q 1456 2553 1204 2497 
Q 953 2441 691 2322 
L 691 4666 
z
" transform="scale(0.015625)"/>
        <path id="DejaVuSans-2e" d="M 684 794 
L 1344 794 
L 1344 0 
L 684 0 
L 684 794 
z
" transform="scale(0.015625)"/>
        <path id="DejaVuSans-30" d="M 2034 4250 
Q 1547 4250 1301 3770 
Q 1056 3291 1056 2328 
Q 1056 1369 1301 889 
Q 1547 409 2034 409 
Q 2525 409 2770 889 
Q 3016 1369 3016 2328 
Q 3016 3291 2770 3770 
Q 2525 4250 2034 4250 
z
M 2034 4750 
Q 2819 4750 3233 4129 
Q 3647 3509 3647 2328 
Q 3647 1150 3233 529 
Q 2819 -91 2034 -91 
Q 1250 -91 836 529 
Q 422 1150 422 2328 
Q 422 3509 836 4129 
Q 1250 4750 2034 4750 
z
" transform="scale(0.015625)"/>
       </defs>
       <use xlink:href="#DejaVuSans-2212"/>
       <use xlink:href="#DejaVuSans-35" x="83.789062"/>
       <use xlink:href="#DejaVuSans-2e" x="147.412109"/>
       <use xlink:href="#DejaVuSans-30" x="179.199219"/>
      </g>
     </g>
    </g>
    <g id="xtick_2">
     <g id="line2d_2">
      <g>
       <use xlink:href="#mc1ac878b24" x="101.871074" y="307.584" style="stroke: #000000; stroke-width: 0.8"/>
      </g>
     </g>
     <g id="text_2">
      <!-- −2.5 -->
      <g transform="translate(89.729668 322.182437) scale(0.1 -0.1)">
       <defs>
        <path id="DejaVuSans-32" d="M 1228 531 
L 3431 531 
L 3431 0 
L 469 0 
L 469 531 
Q 828 903 1448 1529 
Q 2069 2156 2228 2338 
Q 2531 2678 2651 2914 
Q 2772 3150 2772 3378 
Q 2772 3750 2511 3984 
Q 2250 4219 1831 4219 
Q 1534 4219 1204 4116 
Q 875 4013 500 3803 
L 500 4441 
Q 881 4594 1212 4672 
Q 1544 4750 1819 4750 
Q 2544 4750 2975 4387 
Q 3406 4025 3406 3419 
Q 3406 3131 3298 2873 
Q 3191 2616 2906 2266 
Q 2828 2175 2409 1742 
Q 1991 1309 1228 531 
z
" transform="scale(0.015625)"/>
       </defs>
       <use xlink:href="#DejaVuSans-2212"/>
       <use xlink:href="#DejaVuSans-32" x="83.789062"/>
       <use xlink:href="#DejaVuSans-2e" x="147.412109"/>
       <use xlink:href="#DejaVuSans-35" x="179.199219"/>
      </g>
     </g>
    </g>
    <g id="xtick_3">
     <g id="line2d_3">
      <g>
       <use xlink:href="#mc1ac878b24" x="138.763636" y="307.584" style="stroke: #000000; stroke-width: 0.8"/>
      </g>
     </g>
     <g id="text_3">
      <!-- 0.0 -->
      <g transform="translate(130.812074 322.182437) scale(0.1 -0.1)">
       <use xlink:href="#DejaVuSans-30"/>
       <use xlink:href="#DejaVuSans-2e" x="63.623047"/>
       <use xlink:href="#DejaVuSans-30" x="95.410156"/>
      </g>
     </g>
    </g>
    <g id="xtick_4">
     <g id="line2d_4">
      <g>
       <use xlink:href="#mc1ac878b24" x="175.656198" y="307.584" style="stroke: #000000; stroke-width: 0.8"/>
      </g>
     </g>
     <g id="text_4">
      <!-- 2.5 -->
      <g transform="translate(167.704636 322.182437) scale(0.1 -0.1)">
       <use xlink:href="#DejaVuSans-32"/>
       <use xlink:href="#DejaVuSans-2e" x="63.623047"/>
       <use xlink:href="#DejaVuSans-35" x="95.410156"/>
      </g>
     </g>
    </g>
    <g id="xtick_5">
     <g id="line2d_5">
      <g>
       <use xlink:href="#mc1ac878b24" x="212.54876" y="307.584" style="stroke: #000000; stroke-width: 0.8"/>
      </g>
     </g>
     <g id="text_5">
      <!-- 5.0 -->
      <g transform="translate(204.597198 322.182437) scale(0.1 -0.1)">
       <use xlink:href="#DejaVuSans-35"/>
       <use xlink:href="#DejaVuSans-2e" x="63.623047"/>
       <use xlink:href="#DejaVuSans-30" x="95.410156"/>
      </g>
     </g>
    </g>
   </g>
   <g id="matplotlib.axis_2">
    <g id="ytick_1">
     <g id="line2d_6">
      <defs>
       <path id="m9f5e01ddaf" d="M 0 0 
L -3.5 0 
" style="stroke: #000000; stroke-width: 0.8"/>
      </defs>
      <g>
       <use xlink:href="#m9f5e01ddaf" x="57.6" y="271.296" style="stroke: #000000; stroke-width: 0.8"/>
      </g>
     </g>
     <g id="text_6">
      <!-- −4 -->
      <g transform="translate(35.857813 275.095219) scale(0.1 -0.1)">
       <defs>
        <path id="DejaVuSans-34" d="M 2419 4116 
L 825 1625 
L 2419 1625 
L 2419 4116 
z
M 2253 4666 
L 3047 4666 
L 3047 1625 
L 3713 1625 
L 3713 1100 
L 3047 1100 
L 3047 0 
L 2419 0 
L 2419 1100 
L 313 1100 
L 313 1709 
L 2253 4666 
z
" transform="scale(0.015625)"/>
       </defs>
       <use xlink:href="#DejaVuSans-2212"/>
       <use xlink:href="#DejaVuSans-34" x="83.789062"/>
      </g>
     </g>
    </g>
    <g id="ytick_2">
     <g id="line2d_7">
      <g>
       <use xlink:href="#m9f5e01ddaf" x="57.6" y="222.912" style="stroke: #000000; stroke-width: 0.8"/>
      </g>
     </g>
     <g id="text_7">
      <!-- −2 -->
      <g transform="translate(35.857813 226.711219) scale(0.1 -0.1)">
       <use xlink:href="#DejaVuSans-2212"/>
       <use xlink:href="#DejaVuSans-32" x="83.789062"/>
      </g>
     </g>
    </g>
    <g id="ytick_3">
     <g id="line2d_8">
      <g>
       <use xlink:href="#m9f5e01ddaf" x="57.6" y="174.528" style="stroke: #000000; stroke-width: 0.8"/>
      </g>
     </g>
     <g id="text_8">
      <!-- 0 -->
      <g transform="translate(44.2375 178.327219) scale(0.1 -0.1)">
       <use xlink:href="#DejaVuSans-30"/>
      </g>
     </g>
    </g>
    <g id="ytick_4">
     <g id="line2d_9">
      <g>
       <use xlink:href="#m9f5e01ddaf" x="57.6" y="126.144" style="stroke: #000000; stroke-width: 0.8"/>
      </g>
     </g>
     <g id="text_9">
      <!-- 2 -->
      <g transform="translate(44.2375 129.943219) scale(0.1 -0.1)">
       <use xlink:href="#DejaVuSans-32"/>
      </g>
     </g>
    </g>
    <g id="ytick_5">
     <g id="line2d_10">
      <g>
       <use xlink:href="#m9f5e01ddaf" x="57.6" y="77.76" style="stroke: #000000; stroke-width: 0.8"/>
      </g>
     </g>
     <g id="text_10">
      <!-- 4 -->
      <g transform="translate(44.2375 81.559219) scale(0.1 -0.1)">
       <use xlink:href="#DejaVuSans-34"/>
      </g>
     </g>
    </g>
   </g>
   <g id="patch_3">
    <path d="M 57.6 307.584 
L 57.6 41.472 
" style="fill: none; stroke: #000000; stroke-width: 0.8; stroke-linejoin: miter; stroke-linecap: square"/>
   </g>
   <g id="patch_4">
    <path d="M 219.927273 307.584 
L 219.927273 41.472 
" style="fill: none; stroke: #000000; stroke-width: 0.8; stroke-linejoin: miter; stroke-linecap: square"/>
   </g>
   <g id="patch_5">
    <path d="M 57.6 307.584 
L 219.927273 307.584 
" style="fill: none; stroke: #000000; stroke-width: 0.8; stroke-linejoin: miter; stroke-linecap: square"/>
   </g>
   <g id="patch_6">
    <path d="M 57.6 41.472 
L 219.927273 41.472 
" style="fill: none; stroke: #000000; stroke-width: 0.8; stroke-linejoin: miter; stroke-linecap: square"/>
   </g>
  </g>
  <g id="axes_2">
   <g id="patch_7">
    <path d="M 252.392727 307.584 
L 414.72 307.584 
L 414.72 41.472 
L 252.392727 41.472 
z
" style="fill: #ffffff"/>
   </g>
   <g id="matplotlib.axis_3">
    <g id="xtick_6">
     <g id="line2d_11">
      <g>
       <use xlink:href="#mc1ac878b24" x="252.392727" y="307.584" style="stroke: #000000; stroke-width: 0.8"/>
      </g>
     </g>
     <g id="text_11">
      <!-- −0.5 -->
      <g transform="translate(240.251321 322.182437) scale(0.1 -0.1)">
       <use xlink:href="#DejaVuSans-2212"/>
       <use xlink:href="#DejaVuSans-30" x="83.789062"/>
       <use xlink:href="#DejaVuSans-2e" x="147.412109"/>
       <use xlink:href="#DejaVuSans-35" x="179.199219"/>
      </g>
     </g>
    </g>
    <g id="xtick_7">
     <g id="line2d_12">
      <g>
       <use xlink:href="#mc1ac878b24" x="292.974545" y="307.584" style="stroke: #000000; stroke-width: 0.8"/>
      </g>
     </g>
     <g id="text_12">
      <!-- 0.0 -->
      <g transform="translate(285.022983 322.182437) scale(0.1 -0.1)">
       <use xlink:href="#DejaVuSans-30"/>
       <use xlink:href="#DejaVuSans-2e" x="63.623047"/>
       <use xlink:href="#DejaVuSans-30" x="95.410156"/>
      </g>
     </g>
    </g>
    <g id="xtick_8">
     <g id="line2d_13">
      <g>
       <use xlink:href="#mc1ac878b24" x="333.556364" y="307.584" style="stroke: #000000; stroke-width: 0.8"/>
      </g>
     </g>
     <g id="text_13">
      <!-- 0.5 -->
      <g transform="translate(325.604801 322.182437) scale(0.1 -0.1)">
       <use xlink:href="#DejaVuSans-30"/>
       <use xlink:href="#DejaVuSans-2e" x="63.623047"/>
       <use xlink:href="#DejaVuSans-35" x="95.410156"/>
      </g>
     </g>
    </g>
    <g id="xtick_9">
     <g id="line2d_14">
      <g>
       <use xlink:href="#mc1ac878b24" x="374.138182" y="307.584" style="stroke: #000000; stroke-width: 0.8"/>
      </g>
     </g>
     <g id="text_14">
      <!-- 1.0 -->
      <g transform="translate(366.186619 322.182437) scale(0.1 -0.1)">
       <defs>
        <path id="DejaVuSans-31" d="M 794 531 
L 1825 531 
L 1825 4091 
L 703 3866 
L 703 4441 
L 1819 4666 
L 2450 4666 
L 2450 531 
L 3481 531 
L 3481 0 
L 794 0 
L 794 531 
z
" transform="scale(0.015625)"/>
       </defs>
       <use xlink:href="#DejaVuSans-31"/>
       <use xlink:href="#DejaVuSans-2e" x="63.623047"/>
       <use xlink:href="#DejaVuSans-30" x="95.410156"/>
      </g>
     </g>
    </g>
    <g id="xtick_10">
     <g id="line2d_15">
      <g>
       <use xlink:href="#mc1ac878b24" x="414.72" y="307.584" style="stroke: #000000; stroke-width: 0.8"/>
      </g>
     </g>
     <g id="text_15">
      <!-- 1.5 -->
      <g transform="translate(406.768437 322.182437) scale(0.1 -0.1)">
       <use xlink:href="#DejaVuSans-31"/>
       <use xlink:href="#DejaVuSans-2e" x="63.623047"/>
       <use xlink:href="#DejaVuSans-35" x="95.410156"/>
      </g>
     </g>
    </g>
   </g>
   <g id="matplotlib.axis_4">
    <g id="ytick_6">
     <g id="line2d_16">
      <g>
       <use xlink:href="#m9f5e01ddaf" x="252.392727" y="283.392" style="stroke: #000000; stroke-width: 0.8"/>
      </g>
     </g>
     <g id="text_16">
      <!-- 0 -->
      <g transform="translate(239.030227 287.191219) scale(0.1 -0.1)">
       <use xlink:href="#DejaVuSans-30"/>
      </g>
     </g>
    </g>
    <g id="ytick_7">
     <g id="line2d_17">
      <g>
       <use xlink:href="#m9f5e01ddaf" x="252.392727" y="235.008" style="stroke: #000000; stroke-width: 0.8"/>
      </g>
     </g>
     <g id="text_17">
      <!-- 10 -->
      <g transform="translate(232.667727 238.807219) scale(0.1 -0.1)">
       <use xlink:href="#DejaVuSans-31"/>
       <use xlink:href="#DejaVuSans-30" x="63.623047"/>
      </g>
     </g>
    </g>
    <g id="ytick_8">
     <g id="line2d_18">
      <g>
       <use xlink:href="#m9f5e01ddaf" x="252.392727" y="186.624" style="stroke: #000000; stroke-width: 0.8"/>
      </g>
     </g>
     <g id="text_18">
      <!-- 20 -->
      <g transform="translate(232.667727 190.423219) scale(0.1 -0.1)">
       <use xlink:href="#DejaVuSans-32"/>
       <use xlink:href="#DejaVuSans-30" x="63.623047"/>
      </g>
     </g>
    </g>
    <g id="ytick_9">
     <g id="line2d_19">
      <g>
       <use xlink:href="#m9f5e01ddaf" x="252.392727" y="138.24" style="stroke: #000000; stroke-width: 0.8"/>
      </g>
     </g>
     <g id="text_19">
      <!-- 30 -->
      <g transform="translate(232.667727 142.039219) scale(0.1 -0.1)">
       <defs>
        <path id="DejaVuSans-33" d="M 2597 2516 
Q 3050 2419 3304 2112 
Q 3559 1806 3559 1356 
Q 3559 666 3084 287 
Q 2609 -91 1734 -91 
Q 1441 -91 1130 -33 
Q 819 25 488 141 
L 488 750 
Q 750 597 1062 519 
Q 1375 441 1716 441 
Q 2309 441 2620 675 
Q 2931 909 2931 1356 
Q 2931 1769 2642 2001 
Q 2353 2234 1838 2234 
L 1294 2234 
L 1294 2753 
L 1863 2753 
Q 2328 2753 2575 2939 
Q 2822 3125 2822 3475 
Q 2822 3834 2567 4026 
Q 2313 4219 1838 4219 
Q 1578 4219 1281 4162 
Q 984 4106 628 3988 
L 628 4550 
Q 988 4650 1302 4700 
Q 1616 4750 1894 4750 
Q 2613 4750 3031 4423 
Q 3450 4097 3450 3541 
Q 3450 3153 3228 2886 
Q 3006 2619 2597 2516 
z
" transform="scale(0.015625)"/>
       </defs>
       <use xlink:href="#DejaVuSans-33"/>
       <use xlink:href="#DejaVuSans-30" x="63.623047"/>
      </g>
     </g>
    </g>
    <g id="ytick_10">
     <g id="line2d_20">
      <g>
       <use xlink:href="#m9f5e01ddaf" x="252.392727" y="89.856" style="stroke: #000000; stroke-width: 0.8"/>
      </g>
     </g>
     <g id="text_20">
      <!-- 40 -->
      <g transform="translate(232.667727 93.655219) scale(0.1 -0.1)">
       <use xlink:href="#DejaVuSans-34"/>
       <use xlink:href="#DejaVuSans-30" x="63.623047"/>
      </g>
     </g>
    </g>
    <g id="ytick_11">
     <g id="line2d_21">
      <g>
       <use xlink:href="#m9f5e01ddaf" x="252.392727" y="41.472" style="stroke: #000000; stroke-width: 0.8"/>
      </g>
     </g>
     <g id="text_21">
      <!-- 50 -->
      <g transform="translate(232.667727 45.271219) scale(0.1 -0.1)">
       <use xlink:href="#DejaVuSans-35"/>
       <use xlink:href="#DejaVuSans-30" x="63.623047"/>
      </g>
     </g>
    </g>
   </g>
   <g id="line2d_22">
    <path d="M 293.055709 283.392 
L 374.138182 283.392 
L 374.138182 283.392 
" clip-path="url(#p1ec9631c15)" style="fill: none; stroke: #1f77b4; stroke-width: 1.5; stroke-linecap: square"/>
   </g>
   <g id="line2d_23">
    <path d="M 293.055709 248.262911 
L 293.2992 259.793594 
L 293.623855 264.050482 
L 294.029673 266.566108 
L 294.516655 268.302339 
L 295.165964 269.749872 
L 295.896436 270.830944 
L 296.789236 271.756254 
L 297.925527 272.595127 
L 299.305309 273.330616 
L 301.090909 274.023067 
L 303.444655 274.683323 
L 306.528873 275.305267 
L 310.668218 275.900702 
L 316.268509 276.469175 
L 323.979055 277.014584 
L 334.692655 277.535313 
L 349.789091 278.032098 
L 371.378618 278.505328 
L 374.138182 278.5536 
L 374.138182 278.5536 
" clip-path="url(#p1ec9631c15)" style="fill: none; stroke: #ff7f0e; stroke-width: 1.5; stroke-linecap: square"/>
   </g>
   <g id="line2d_24">
    <path d="M 293.055709 213.133822 
L 293.2992 236.195188 
L 293.623855 244.708963 
L 294.029673 249.740216 
L 294.516655 253.212679 
L 295.0848 255.81062 
L 295.815273 258.065959 
L 296.626909 259.828266 
L 297.519709 261.261703 
L 298.574836 262.548599 
L 299.792291 263.692686 
L 301.253236 264.760321 
L 303.038836 265.775923 
L 305.149091 266.712463 
L 307.746327 267.612884 
L 310.911709 268.468058 
L 314.888727 269.301586 
L 319.839709 270.101677 
L 326.089309 270.875936 
L 334.043345 271.625776 
L 344.1888 272.348137 
L 357.256145 273.045429 
L 374.138182 273.7152 
L 374.138182 273.7152 
" clip-path="url(#p1ec9631c15)" style="fill: none; stroke: #2ca02c; stroke-width: 1.5; stroke-linecap: square"/>
   </g>
   <g id="line2d_25">
    <path d="M 293.055709 178.004732 
L 293.2992 212.596781 
L 293.623855 225.367445 
L 294.029673 232.914324 
L 294.516655 238.123018 
L 295.0848 242.019931 
L 295.734109 245.085586 
L 296.545745 247.817702 
L 297.438545 250.024453 
L 298.412509 251.861859 
L 299.5488 253.533009 
L 300.847418 255.03843 
L 302.308364 256.390256 
L 304.0128 257.659186 
L 305.960727 258.831832 
L 308.314473 259.978299 
L 311.074036 261.063891 
L 314.320582 262.096444 
L 318.216436 263.096727 
L 322.923927 264.068694 
L 328.605382 265.008358 
L 335.585455 265.928389 
L 344.107636 266.818663 
L 354.577745 267.681419 
L 367.563927 268.520628 
L 374.138182 268.8768 
L 374.138182 268.8768 
" clip-path="url(#p1ec9631c15)" style="fill: none; stroke: #d62728; stroke-width: 1.5; stroke-linecap: square"/>
   </g>
   <g id="line2d_26">
    <path d="M 293.055709 142.875643 
L 293.2992 188.998375 
L 293.623855 206.025927 
L 294.029673 216.088432 
L 294.516655 223.033357 
L 295.0848 228.229241 
L 295.734109 232.316781 
L 296.545745 235.959603 
L 297.438545 238.901937 
L 298.412509 241.351813 
L 299.467636 243.437824 
L 300.685091 245.360522 
L 302.064873 247.11552 
L 303.606982 248.710758 
L 305.311418 250.15949 
L 307.259345 251.528693 
L 309.531927 252.850534 
L 312.129164 254.101369 
L 315.132218 255.300397 
L 318.703418 256.47963 
L 322.842764 257.607519 
L 327.793745 258.717847 
L 333.637527 259.792389 
L 340.6176 260.841305 
L 348.977455 261.863677 
L 358.960582 262.853689 
L 371.053964 263.822023 
L 374.138182 264.0384 
L 374.138182 264.0384 
" clip-path="url(#p1ec9631c15)" style="fill: none; stroke: #9467bd; stroke-width: 1.5; stroke-linecap: square"/>
   </g>
   <g id="line2d_27">
    <path d="M 293.055709 107.746554 
L 293.2992 165.399969 
L 293.623855 186.684408 
L 294.029673 199.26254 
L 294.516655 207.943697 
L 295.0848 214.438551 
L 295.734109 219.547976 
L 296.464582 223.709028 
L 297.357382 227.485793 
L 298.331345 230.614485 
L 299.386473 233.268662 
L 300.603927 235.708059 
L 301.902545 237.811307 
L 303.363491 239.751257 
L 304.986764 241.532213 
L 306.772364 243.164413 
L 308.801455 244.7176 
L 311.074036 246.178484 
L 313.671273 247.583359 
L 316.674327 248.949023 
L 320.0832 250.252115 
L 324.060218 251.528837 
L 328.686545 252.772598 
L 334.043345 253.976439 
L 340.292945 255.148262 
L 347.678836 256.299793 
L 356.363345 257.421538 
L 366.589964 258.51271 
L 374.138182 259.2 
L 374.138182 259.2 
" clip-path="url(#p1ec9631c15)" style="fill: none; stroke: #8c564b; stroke-width: 1.5; stroke-linecap: square"/>
   </g>
   <g id="line2d_28">
    <path d="M 293.055709 72.617465 
L 293.2992 141.801563 
L 293.623855 167.34289 
L 294.029673 182.436647 
L 294.516655 192.854036 
L 295.0848 200.647861 
L 295.734109 206.779171 
L 296.464582 211.772434 
L 297.357382 216.304552 
L 298.331345 220.058982 
L 299.386473 223.243995 
L 300.522764 225.995366 
L 301.821382 228.551624 
L 303.201164 230.785887 
L 304.743273 232.864169 
L 306.447709 234.787897 
L 308.314473 236.564597 
L 310.424727 238.265108 
L 312.778473 239.874392 
L 315.456873 241.430129 
L 318.459927 242.913132 
L 321.8688 244.345541 
L 325.764655 245.737491 
L 330.228655 247.091814 
L 335.341964 248.407288 
L 341.266909 249.697111 
L 348.165818 250.963937 
L 356.119855 252.193005 
L 365.453673 253.40327 
L 374.138182 254.3616 
L 374.138182 254.3616 
" clip-path="url(#p1ec9631c15)" style="fill: none; stroke: #e377c2; stroke-width: 1.5; stroke-linecap: square"/>
   </g>
   <g id="line2d_29">
    <path d="M 293.055709 37.488375 
L 293.2992 118.203157 
L 293.623855 148.001372 
L 294.029673 165.610755 
L 294.516655 177.764375 
L 295.0848 186.857171 
L 295.734109 194.010367 
L 296.464582 199.83584 
L 297.357382 205.12331 
L 298.331345 209.503479 
L 299.386473 213.219327 
L 300.522764 216.429261 
L 301.821382 219.411561 
L 303.201164 222.018201 
L 304.743273 224.442864 
L 306.366545 226.588798 
L 308.152145 228.592979 
L 310.181236 230.531218 
L 312.372655 232.318881 
L 314.807564 234.023006 
L 317.567127 235.680865 
L 320.651345 237.271515 
L 324.141382 238.816942 
L 328.1184 240.327089 
L 332.5824 241.779894 
L 337.695709 243.204935 
L 343.539491 244.596679 
L 350.194909 245.949247 
L 357.905455 247.2833 
L 366.752291 248.583004 
L 374.138182 249.5232 
L 374.138182 249.5232 
" clip-path="url(#p1ec9631c15)" style="fill: none; stroke: #7f7f7f; stroke-width: 1.5; stroke-linecap: square"/>
   </g>
   <g id="line2d_30">
    <path d="M 293.055709 2.359286 
L 293.2992 94.60475 
L 293.623855 128.659853 
L 294.029673 148.784863 
L 294.516655 162.674715 
L 295.0848 173.066481 
L 295.734109 181.241562 
L 296.464582 187.899245 
L 297.357382 193.942069 
L 298.331345 198.947976 
L 299.386473 203.19466 
L 300.522764 206.863155 
L 301.740218 210.077834 
L 303.12 213.089935 
L 304.580945 215.752484 
L 306.204218 218.24645 
L 307.989818 220.570985 
L 309.937745 222.732075 
L 312.048 224.739306 
L 314.401745 226.665668 
L 316.998982 228.497999 
L 319.839709 230.230706 
L 323.005091 231.903192 
L 326.576291 233.537059 
L 330.634473 235.142011 
L 335.179636 236.6943 
L 340.292945 238.202019 
L 346.136727 239.687278 
L 352.792145 241.141968 
L 360.340364 242.558613 
L 368.943709 243.943068 
L 374.138182 244.6848 
L 374.138182 244.6848 
" clip-path="url(#p1ec9631c15)" style="fill: none; stroke: #bcbd22; stroke-width: 1.5; stroke-linecap: square"/>
   </g>
   <g id="line2d_31">
    <path d="M 293.100921 -1 
L 293.2992 71.006344 
L 293.623855 109.318335 
L 294.029673 131.958971 
L 294.516655 147.585054 
L 295.0848 159.275792 
L 295.734109 168.472757 
L 296.464582 175.962651 
L 297.357382 182.760828 
L 298.331345 188.392473 
L 299.386473 193.169992 
L 300.522764 197.29705 
L 301.740218 200.913563 
L 303.12 204.302177 
L 304.580945 207.297544 
L 306.204218 210.103256 
L 307.908655 212.60834 
L 309.775418 214.961008 
L 311.804509 217.163968 
L 314.077091 219.294642 
L 316.512 221.272235 
L 319.1904 223.164138 
L 322.193455 225.009821 
L 325.521164 226.789289 
L 329.254691 228.52617 
L 333.394036 230.201272 
L 338.020364 231.830063 
L 343.214836 233.42001 
L 349.058618 234.973402 
L 355.714036 236.506833 
L 363.262255 238.010806 
L 371.784436 239.477068 
L 374.138182 239.8464 
L 374.138182 239.8464 
" clip-path="url(#p1ec9631c15)" style="fill: none; stroke: #17becf; stroke-width: 1.5; stroke-linecap: square"/>
   </g>
   <g id="patch_8">
    <path d="M 252.392727 307.584 
L 252.392727 41.472 
" style="fill: none; stroke: #000000; stroke-width: 0.8; stroke-linejoin: miter; stroke-linecap: square"/>
   </g>
   <g id="patch_9">
    <path d="M 414.72 307.584 
L 414.72 41.472 
" style="fill: none; stroke: #000000; stroke-width: 0.8; stroke-linejoin: miter; stroke-linecap: square"/>
   </g>
   <g id="patch_10">
    <path d="M 252.392727 307.584 
L 414.72 307.584 
" style="fill: none; stroke: #000000; stroke-width: 0.8; stroke-linejoin: miter; stroke-linecap: square"/>
   </g>
   <g id="patch_11">
    <path d="M 252.392727 41.472 
L 414.72 41.472 
" style="fill: none; stroke: #000000; stroke-width: 0.8; stroke-linejoin: miter; stroke-linecap: square"/>
   </g>
  </g>
  <g id="text_22">
   <!-- t = 0.30000000000000004 -->
   <g transform="translate(148.584375 16.030125) scale(0.12 -0.12)">
    <defs>
     <path id="DejaVuSans-74" d="M 1172 4494 
L 1172 3500 
L 2356 3500 
L 2356 3053 
L 1172 3053 
L 1172 1153 
Q 1172 725 1289 603 
Q 1406 481 1766 481 
L 2356 481 
L 2356 0 
L 1766 0 
Q 1100 0 847 248 
Q 594 497 594 1153 
L 594 3053 
L 172 3053 
L 172 3500 
L 594 3500 
L 594 4494 
L 1172 4494 
z
" transform="scale(0.015625)"/>
     <path id="DejaVuSans-20" transform="scale(0.015625)"/>
     <path id="DejaVuSans-3d" d="M 678 2906 
L 4684 2906 
L 4684 2381 
L 678 2381 
L 678 2906 
z
M 678 1631 
L 4684 1631 
L 4684 1100 
L 678 1100 
L 678 1631 
z
" transform="scale(0.015625)"/>
    </defs>
    <use xlink:href="#DejaVuSans-74"/>
    <use xlink:href="#DejaVuSans-20" x="39.208984"/>
    <use xlink:href="#DejaVuSans-3d" x="70.996094"/>
    <use xlink:href="#DejaVuSans-20" x="154.785156"/>
    <use xlink:href="#DejaVuSans-30" x="186.572266"/>
    <use xlink:href="#DejaVuSans-2e" x="250.195312"/>
    <use xlink:href="#DejaVuSans-33" x="281.982422"/>
    <use xlink:href="#DejaVuSans-30" x="345.605469"/>
    <use xlink:href="#DejaVuSans-30" x="409.228516"/>
    <use xlink:href="#DejaVuSans-30" x="472.851562"/>
    <use xlink:href="#DejaVuSans-30" x="536.474609"/>
    <use xlink:href="#DejaVuSans-30" x="600.097656"/>
    <use xlink:href="#DejaVuSans-30" x="663.720703"/>
    <use xlink:href="#DejaVuSans-30" x="727.34375"/>
    <use xlink:href="#DejaVuSans-30" x="790.966797"/>
    <use xlink:href="#DejaVuSans-30" x="854.589844"/>
    <use xlink:href="#DejaVuSans-30" x="918.212891"/>
    <use xlink:href="#DejaVuSans-30" x="981.835938"/>
    <use xlink:href="#DejaVuSans-30" x="1045.458984"/>
    <use xlink:href="#DejaVuSans-30" x="1109.082031"/>
    <use xlink:href="#DejaVuSans-30" x="1172.705078"/>
    <use xlink:href="#DejaVuSans-30" x="1236.328125"/>
    <use xlink:href="#DejaVuSans-34" x="1299.951172"/>
   </g>
  </g>
 </g>
 <defs>
  <clipPath id="p86e6d08fc5">
   <rect x="57.6" y="41.472" width="162.327273" height="266.112"/>
  </clipPath>
  <clipPath id="p1ec9631c15">
   <rect x="252.392727" y="41.472" width="162.327273" height="266.112"/>
  </clipPath>
 </defs>
</svg>
